
<svg width="108" height="48" viewBox="0 0 108 48" fill="none" xmlns="http://www.w3.org/2000/svg">
<path d="M1.5412 36.3809C1.63967 36.903 1.90895 37.3774 2.30664 37.7296C2.70434 38.0818 3.20786 38.2917 3.73795 38.3263C5.68331 38.5238 16.6551 38.4759 21.0427 38.4759H94.3676C96.0197 38.4759 105.842 35.8303 106.441 35.2796C107.039 34.7289 107.59 33.6874 107.835 31.742C108.055 29.8489 108.055 27.9367 107.835 26.0436C107.662 25.1458 106.914 24.9961 106.764 23.4578C106.614 21.9195 106.926 15.8679 104.693 12.0849C102.46 8.30196 97.3785 2.99862 96.5524 2.80708C86.9119 0.855734 77.0939 -0.083128 67.2583 0.00576804C52.0726 0.227239 46.9488 1.53811 40.7356 4.19577C34.5225 6.85342 22.9282 14.5092 22.2578 14.9701C21.5874 15.431 9.98704 18.5136 6.80264 20.5188C3.61824 22.524 1.74471 26.714 1.5412 26.7918C1.33768 26.8696 0.146525 27.9112 0.0327966 28.396C-0.0809319 28.8808 0.0567394 32.6159 1.5412 36.3809Z" fill="#EBEBEB"/>
<path d="M59.3213 18.514C59.3213 19.1126 58.3816 19.6154 57.1665 19.6693C55.9514 19.7232 54.9398 19.2982 54.9099 18.6996C54.8799 18.101 55.8496 17.6042 57.0647 17.5444C58.2798 17.4845 59.2914 17.9394 59.3213 18.514Z" fill="#B8B8B8"/>
<path d="M60.0393 18.4836C60.0393 18.7769 58.7583 19.0822 57.1422 19.154C55.526 19.2259 54.2032 19.0523 54.1852 18.759C54.1673 18.4657 55.4722 18.1604 57.0883 18.0826C58.7045 18.0048 60.0273 18.1844 60.0393 18.4836Z" fill="white"/>
<path d="M89.25 17.2581C89.25 17.8566 88.3103 18.3534 87.0952 18.4073C85.8801 18.4612 84.8685 18.0422 84.8386 17.4616C84.8086 16.881 85.7783 16.3662 86.9934 16.3063C88.2085 16.2465 89.2201 16.6774 89.25 17.2581Z" fill="#B8B8B8"/>
<path d="M89.968 17.2192C89.968 17.5125 88.687 17.8178 87.0709 17.8896C85.4548 17.9614 84.1319 17.7879 84.114 17.4946C84.096 17.2013 85.4009 16.896 87.017 16.8182C88.6332 16.7404 89.956 16.902 89.968 17.2192Z" fill="white"/>
<path d="M1.54096 26.7911C1.34343 26.8629 0.146288 27.9104 0.0325589 28.3953C-0.0811696 28.8801 0.032559 32.6152 1.54096 36.3802C1.63943 36.9022 1.90871 37.3767 2.30641 37.7289C2.7041 38.081 3.20763 38.291 3.73772 38.3256C5.68307 38.5231 16.6549 38.4752 21.0424 38.4752H94.3674C96.0195 38.4752 105.842 35.8295 106.441 35.2788C107.039 34.7282 107.59 33.6866 107.835 31.7413C108.055 29.8482 108.055 27.936 107.835 26.0429C107.662 25.145 106.913 24.9954 106.764 23.4571C106.716 22.9483 106.716 21.9367 106.656 20.6797L2.09164 25.8813C1.93419 26.1996 1.74997 26.504 1.54096 26.7911Z" fill="url(#paint0_linear_403_4347)"/>
<path d="M5.98828 21.0929H8.69981C9.00508 21.0929 21.0783 17.0645 21.617 16.7832C22.0599 16.5497 22.437 15.9512 22.2814 14.9336C22.2814 14.9336 22.2395 14.9336 22.2335 14.9695L21.9941 15.0772C22.0635 15.3421 22.0509 15.6219 21.9579 15.8795C21.8649 16.137 21.6959 16.3603 21.4733 16.5198C20.9945 16.7712 9.16669 20.7098 8.69981 20.7936H6.40728C6.2756 20.8894 6.13792 20.9851 5.98828 21.0929Z" fill="#B8B8B8"/>
<path d="M86.3527 2.53806C84.7006 1.3888 80.1635 1.15536 76.8474 0.98177L75.6502 0.915927C70.0955 0.586713 56.2206 0.772278 50.2169 2.06519C44.3988 3.31621 43.9798 5.44113 43.9678 5.53092L44.2611 5.5788C44.2611 5.5788 44.7041 3.56161 50.2828 2.35849C53.6348 1.63421 59.4529 1.2631 64.8999 1.12543C64.6605 4.36969 64.1756 7.30269 63.6549 10.4033C63.188 13.1926 62.7091 16.0718 62.4218 19.2202C61.8651 25.3317 62.5176 35.3039 62.6074 36.6806H34.8636H34.6481C34.1453 36.7105 33.7802 36.6806 33.6904 36.1897C32.4932 29.6055 32.0623 23.7514 32.5651 20.5311C32.7757 18.7983 33.5471 17.1818 34.7618 15.9281L34.5643 15.7006C33.288 16.9969 32.4811 18.6822 32.2718 20.4892C31.763 23.7454 32.182 29.6354 33.3911 36.2496C33.4064 36.3641 33.4445 36.4744 33.503 36.5739C33.5615 36.6735 33.6394 36.7604 33.7319 36.8296C33.8244 36.8987 33.9298 36.9486 34.0419 36.9765C34.154 37.0044 34.2706 37.0096 34.3847 36.9918H34.666H80.6064C82.0789 36.9918 83.1024 36.1598 84.0302 34.2145C85.2192 31.6558 86.6334 29.208 88.2561 26.8999C90.4349 23.8352 91.6859 19.2562 92.0211 17.9213C92.6366 15.4447 92.5054 12.8414 91.6441 10.4392C90.6085 7.63789 88.3459 3.92674 86.3527 2.53806ZM91.7398 17.8375C91.4046 19.1544 90.1656 23.6916 88.0167 26.7144C86.3863 29.0366 84.9641 31.4983 83.7669 34.0708C82.6715 36.3693 81.5521 36.6806 80.6124 36.6806H62.8827C62.7989 35.3876 62.1405 25.3616 62.6971 19.2502C62.9785 16.1137 63.4633 13.2645 63.9242 10.4512C64.445 7.3386 64.9358 4.38765 65.1752 1.11945C69.3293 1.02368 73.232 1.07156 75.6083 1.21521L76.8354 1.28106C79.924 1.44267 84.6168 1.6821 86.1791 2.78348C87.891 3.98062 90.2195 7.45233 91.3627 10.529C92.2007 12.876 92.3298 15.4177 91.7338 17.8375H91.7398Z" fill="#B8B8B8"/>
<path d="M21.0423 38.4523H29.7755C29.7755 38.135 29.8234 37.8537 29.8234 37.5006C29.8234 34.524 28.6409 31.6693 26.5362 29.5645C24.4314 27.4598 21.5767 26.2773 18.6002 26.2773C15.6236 26.2773 12.7689 27.4598 10.6642 29.5645C8.5594 31.6693 7.37695 34.524 7.37695 37.5006C7.37695 37.8118 7.37695 38.0991 7.42484 38.4224C11.5909 38.5002 17.9597 38.4523 21.0423 38.4523Z" fill="#B8B8B8"/>
<path d="M106.141 35.459C105.62 32.7155 104.094 30.265 101.862 28.5862C99.6306 26.9075 96.8531 26.1211 94.0726 26.3806C91.292 26.6402 88.7081 27.9271 86.8256 29.99C84.9432 32.0528 83.8974 34.7434 83.8926 37.536C83.8926 37.8593 83.8926 38.1705 83.9405 38.4877H94.3676C95.8879 38.4518 104.37 36.2252 106.141 35.459Z" fill="#B8B8B8"/>
<path d="M18.6006 47.1015C23.8899 47.1015 28.1777 42.8137 28.1777 37.5244C28.1777 32.2351 23.8899 27.9473 18.6006 27.9473C13.3113 27.9473 9.02344 32.2351 9.02344 37.5244C9.02344 42.8137 13.3113 47.1015 18.6006 47.1015Z" fill="#6A6A67"/>
<path d="M18.6 44.0652C22.2133 44.0652 25.1424 41.1361 25.1424 37.5228C25.1424 33.9096 22.2133 30.9805 18.6 30.9805C14.9867 30.9805 12.0576 33.9096 12.0576 37.5228C12.0576 41.1361 14.9867 44.0652 18.6 44.0652Z" fill="#F4F4F4"/>
<path d="M95.1152 47.1015C100.405 47.1015 104.692 42.8137 104.692 37.5244C104.692 32.2351 100.405 27.9473 95.1152 27.9473C89.8259 27.9473 85.5381 32.2351 85.5381 37.5244C85.5381 42.8137 89.8259 47.1015 95.1152 47.1015Z" fill="#6A6A67"/>
<path d="M95.1156 44.0652C98.7289 44.0652 101.658 41.1361 101.658 37.5228C101.658 33.9096 98.7289 30.9805 95.1156 30.9805C91.5024 30.9805 88.5732 33.9096 88.5732 37.5228C88.5732 41.1361 91.5024 44.0652 95.1156 44.0652Z" fill="#F4F4F4"/>
<path d="M90.6324 10.9893C89.6328 8.89433 87.2385 3.60895 83.9464 3.05826C78.0998 2.29384 72.2087 1.9199 66.3124 1.93893C66.2524 1.93146 66.1914 1.93638 66.1333 1.9534C66.0752 1.97042 66.0212 1.99917 65.9746 2.03788C65.9281 2.07658 65.8899 2.12442 65.8626 2.17844C65.8352 2.23246 65.8193 2.29151 65.8156 2.35195C65.7737 2.60335 64.7143 13.6051 64.6185 14.5508C64.6005 14.6696 64.6092 14.7909 64.644 14.9059C64.6788 15.0209 64.7389 15.1267 64.8197 15.2156C64.9005 15.3044 65.0002 15.3742 65.1114 15.4197C65.2226 15.4652 65.3425 15.4853 65.4625 15.4786C77.793 15.0417 89.6088 14.6227 90.1056 14.6227C91.1292 14.6286 91.626 13.0843 90.6324 10.9893Z" fill="#6A6A67"/>
<path d="M61.7753 15.0072C61.8471 14.6301 63.571 4.0354 63.6967 3.18542C63.8224 2.33545 64.014 1.98828 63.3495 1.98828C57.4895 2.11398 51.2285 2.64671 45.7396 3.96955C41.4897 4.99311 33.6185 10.057 31.0207 11.7989C28.4229 13.5407 24.9871 15.941 25.6874 16.4917C26.3878 17.0423 32.4692 16.6892 37.8085 16.4917L60.9014 15.6596C61.0989 15.6639 61.2923 15.6021 61.4506 15.4838C61.609 15.3656 61.7233 15.1979 61.7753 15.0072Z" fill="#6A6A67"/>
<path d="M104.693 12.115C102.616 8.8793 100.127 5.92751 97.2882 3.33398C97.0248 3.76496 96.7794 4.34557 97.0787 4.74661C97.5994 5.45891 99.6945 7.66764 101.676 10.1338C103.657 12.5999 104.148 13.7252 104.519 13.9526C104.869 14.1491 105.257 14.2675 105.656 14.2998C105.412 13.5398 105.089 12.8076 104.693 12.115Z" fill="#D1114D"/>
<path d="M106.075 22.214C106.093 22.4019 106.071 22.5914 106.011 22.7701C105.95 22.9488 105.852 23.1128 105.724 23.2512C105.596 23.3896 105.44 23.4994 105.266 23.5734C105.093 23.6474 104.905 23.6839 104.717 23.6805C104.319 23.6771 103.937 23.5245 103.647 23.2529C103.356 22.9813 103.178 22.6105 103.148 22.214L102.915 18.8261C102.898 18.6379 102.921 18.4483 102.982 18.2695C103.044 18.0908 103.142 17.927 103.271 17.7887C103.399 17.6503 103.556 17.5407 103.73 17.4667C103.903 17.3928 104.091 17.3563 104.28 17.3596C104.676 17.3644 105.057 17.5177 105.346 17.7892C105.635 18.0606 105.812 18.4306 105.842 18.8261L106.075 22.214Z" fill="#F26914"/>
<path d="M8.14902 21.692C7.20816 21.6339 6.26462 21.6339 5.32376 21.692C3.95151 23.0651 2.78246 24.6271 1.85205 26.3309C3.17444 26.4223 4.49964 26.1987 5.71882 25.6785C6.71403 25.1088 7.54978 24.2978 8.14902 23.3201C8.67576 22.3743 8.34056 21.8117 8.14902 21.692Z" fill="#FFB073"/>
<path d="M5.3179 35.4587L4.79115 33.1961C4.70016 32.8537 4.50267 32.5492 4.22721 32.3265C3.95176 32.1037 3.61262 31.9743 3.25881 31.957H0.319824C0.570367 33.4677 0.971412 34.9496 1.51697 36.3805C1.53536 36.484 1.56137 36.586 1.59478 36.6858H4.36617C4.51769 36.6909 4.66828 36.6601 4.80555 36.5957C4.94282 36.5314 5.06286 36.4354 5.15577 36.3156C5.24869 36.1958 5.31184 36.0556 5.34002 35.9066C5.36821 35.7577 5.36062 35.6041 5.3179 35.4587Z" fill="#6A6A67"/>
<defs>
<linearGradient id="paint0_linear_403_4347" x1="53.9998" y1="21.2124" x2="53.9998" y2="30.203" gradientUnits="userSpaceOnUse">
<stop stop-color="#F2F2F2"/>
<stop offset="1" stop-color="#EBEBEB"/>
</linearGradient>
</defs>
</svg>
