<svg width="324" height="221" viewBox="0 0 324 221" fill="none" xmlns="http://www.w3.org/2000/svg">
<path d="M299.64 152.261H199.712C198.853 152.26 198.03 151.917 197.423 151.309C196.815 150.701 196.474 149.877 196.472 149.017V3.24454C196.474 2.38449 196.815 1.56008 197.423 0.951922C198.03 0.343769 198.853 0.00146393 199.712 0L299.64 0C300.498 0.00146393 301.322 0.343769 301.929 0.951922C302.536 1.56008 302.878 2.38449 302.879 3.24454V149.017C302.878 149.877 302.536 150.701 301.929 151.309C301.322 151.917 300.498 152.26 299.64 152.261ZM199.712 0.138419C198.89 0.139883 198.102 0.467605 197.52 1.0498C196.939 1.63199 196.612 2.4212 196.61 3.24454V149.017C196.612 149.84 196.939 150.629 197.52 151.211C198.102 151.793 198.89 152.121 199.712 152.123H299.64C300.462 152.121 301.25 151.793 301.831 151.211C302.412 150.629 302.74 149.84 302.741 149.017V3.24454C302.74 2.4212 302.412 1.63199 301.831 1.0498C301.25 0.467605 300.462 0.139883 299.64 0.138419H199.712Z" fill="#E0E0E0"/>
<path d="M184.409 152.261H84.4812C83.6224 152.26 82.7992 151.917 82.192 151.309C81.5847 150.701 81.2429 149.877 81.2415 149.017V3.24454C81.2429 2.38449 81.5847 1.56008 82.192 0.951922C82.7992 0.343769 83.6224 0.00146393 84.4812 0L184.409 0C185.268 0.00146393 186.091 0.343769 186.698 0.951922C187.305 1.56008 187.647 2.38449 187.649 3.24454V149.017C187.647 149.877 187.305 150.701 186.698 151.309C186.091 151.917 185.268 152.26 184.409 152.261ZM84.4812 0.138419C83.659 0.139883 82.871 0.467605 82.2897 1.0498C81.7084 1.63199 81.3811 2.4212 81.3797 3.24454V149.017C81.3811 149.84 81.7084 150.629 82.2897 151.211C82.871 151.793 83.659 152.121 84.4812 152.123H184.409C185.231 152.121 186.019 151.793 186.6 151.211C187.182 150.629 187.509 149.84 187.51 149.017V3.24454C187.509 2.4212 187.182 1.63199 186.6 1.0498C186.019 0.467605 185.231 0.139883 184.409 0.138419H84.4812Z" fill="#E0E0E0"/>
<path d="M63.9538 34.8819C66.5434 32.314 70.0429 30.8772 73.6872 30.8858C77.3315 30.8943 80.8242 32.3474 83.4018 34.9274C85.9795 37.5075 87.4324 41.0046 87.443 44.6543C87.4536 48.3041 86.021 51.8096 83.4583 54.4045L75.6687 62.2114C75.4118 62.47 75.1064 62.6753 74.7701 62.8153C74.4337 62.9554 74.0731 63.0275 73.7088 63.0275C73.3446 63.0275 72.9839 62.9554 72.6476 62.8153C72.3112 62.6753 72.0058 62.47 71.749 62.2114L63.9538 54.4045C61.3698 51.8151 59.9182 48.3041 59.9182 44.6432C59.9182 40.9824 61.3698 37.4713 63.9538 34.8819ZM73.7005 51.0493C74.9681 51.0504 76.2074 50.6749 77.2619 49.9705C78.3163 49.266 79.1384 48.2642 79.6243 47.0917C80.1101 45.9192 80.2378 44.6288 79.9912 43.3836C79.7445 42.1385 79.1347 40.9945 78.2388 40.0965C77.3429 39.1985 76.2012 38.5868 74.9581 38.3388C73.715 38.0907 72.4264 38.2175 71.2553 38.703C70.0841 39.1885 69.0831 40.011 68.3788 41.0664C67.6744 42.1218 67.2985 43.3627 67.2985 44.6322C67.2992 45.4734 67.4654 46.3063 67.7875 47.0832C68.1096 47.8602 68.5814 48.5659 69.1759 49.1603C69.7704 49.7546 70.4759 50.2259 71.2523 50.5471C72.0286 50.8684 72.8605 51.0334 73.7005 51.0327V51.0493Z" fill="#E6E6E6"/>
<path d="M293.476 101.899V75.5936H277.211V81.5954H266.375V15.8906H245.532V41.7529H239.28V28.8356H223.02V91.8163H200.093V69.564H185.714V21.3222H167.973V53.4853H151.293V122.767H138.373V89.0313H125.033V67.3216H110.858V50.6504L95.0463 59.0054V103.599H78.3723V94.402H56.0979V159.033L315.385 159.16V101.899H293.476Z" fill="#EBEBEB"/>
<path d="M126.122 159.066V62.9033H108.403V159.16C114.009 159.022 126.122 159.066 126.122 159.066Z" fill="#E6E6E6"/>
<path d="M109.984 159.16V106.272H73.5237V159.043L109.984 159.16Z" fill="#FAFAFA"/>
<path d="M154.284 159.083V81.4404H133.63V159.071L154.284 159.083Z" fill="#E0E0E0"/>
<path d="M137.704 84.4854H135.2V89.6567H137.704V84.4854Z" fill="#FAFAFA"/>
<path d="M142.713 84.4854H140.208V89.6567H142.713V84.4854Z" fill="#FAFAFA"/>
<path d="M147.716 84.4854H145.212V89.6567H147.716V84.4854Z" fill="#FAFAFA"/>
<path d="M152.725 84.4854H150.221V89.6567H152.725V84.4854Z" fill="#FAFAFA"/>
<path d="M137.704 93.1621H135.2V98.3335H137.704V93.1621Z" fill="#FAFAFA"/>
<path d="M142.713 93.1621H140.208V98.3335H142.713V93.1621Z" fill="#FAFAFA"/>
<path d="M147.716 93.1621H145.212V98.3335H147.716V93.1621Z" fill="#FAFAFA"/>
<path d="M152.725 93.1621H150.221V98.3335H152.725V93.1621Z" fill="#FAFAFA"/>
<path d="M137.704 101.832H135.2V107.003H137.704V101.832Z" fill="#FAFAFA"/>
<path d="M142.713 101.832H140.208V107.003H142.713V101.832Z" fill="#FAFAFA"/>
<path d="M147.716 101.832H145.212V107.003H147.716V101.832Z" fill="#FAFAFA"/>
<path d="M152.725 101.832H150.221V107.003H152.725V101.832Z" fill="#FAFAFA"/>
<path d="M137.704 110.503H135.2V115.674H137.704V110.503Z" fill="#FAFAFA"/>
<path d="M142.713 110.503H140.209V115.674H142.713V110.503Z" fill="#FAFAFA"/>
<path d="M147.716 110.503H145.212V115.674H147.716V110.503Z" fill="#FAFAFA"/>
<path d="M152.725 110.503H150.221V115.674H152.725V110.503Z" fill="#FAFAFA"/>
<path d="M137.704 119.174H135.2V124.345H137.704V119.174Z" fill="#FAFAFA"/>
<path d="M142.713 119.174H140.208V124.345H142.713V119.174Z" fill="#FAFAFA"/>
<path d="M147.716 119.174H145.212V124.345H147.716V119.174Z" fill="#FAFAFA"/>
<path d="M152.725 119.174H150.221V124.345H152.725V119.174Z" fill="#FAFAFA"/>
<path d="M137.704 127.844H135.2V133.015H137.704V127.844Z" fill="#FAFAFA"/>
<path d="M142.713 127.844H140.208V133.015H142.713V127.844Z" fill="#FAFAFA"/>
<path d="M147.716 127.844H145.212V133.015H147.716V127.844Z" fill="#FAFAFA"/>
<path d="M152.725 127.844H150.221V133.015H152.725V127.844Z" fill="#FAFAFA"/>
<path d="M137.704 136.515H135.2V141.686H137.704V136.515Z" fill="#FAFAFA"/>
<path d="M142.713 136.515H140.209V141.686H142.713V136.515Z" fill="#FAFAFA"/>
<path d="M147.716 136.515H145.212V141.686H147.716V136.515Z" fill="#FAFAFA"/>
<path d="M152.725 136.515H150.221V141.686H152.725V136.515Z" fill="#FAFAFA"/>
<path d="M137.704 145.19H135.2V150.362H137.704V145.19Z" fill="#FAFAFA"/>
<path d="M142.713 145.19H140.208V150.362H142.713V145.19Z" fill="#FAFAFA"/>
<path d="M147.716 145.19H145.212V150.362H147.716V145.19Z" fill="#FAFAFA"/>
<path d="M152.725 145.19H150.221V150.362H152.725V145.19Z" fill="#FAFAFA"/>
<path d="M226.066 159.116V70.3838H183.237V159.144C183.237 159.144 225.734 159.16 226.066 159.116Z" fill="#F5F5F5"/>
<path d="M191.646 73.9219H186.455V79.8794H191.646V73.9219Z" fill="#E6E6E6"/>
<path d="M202.034 73.9219H196.843V79.8794H202.034V73.9219Z" fill="#E6E6E6"/>
<path d="M212.416 73.9219H207.225V79.8794H212.416V73.9219Z" fill="#E6E6E6"/>
<path d="M222.81 73.9219H217.619V79.8794H222.81V73.9219Z" fill="#E6E6E6"/>
<path d="M191.646 83.915H186.455V89.8726H191.646V83.915Z" fill="#E6E6E6"/>
<path d="M202.034 83.915H196.843V89.8726H202.034V83.915Z" fill="#E6E6E6"/>
<path d="M212.416 83.915H207.225V89.8726H212.416V83.915Z" fill="#E6E6E6"/>
<path d="M222.81 83.915H217.619V89.8726H222.81V83.915Z" fill="#E6E6E6"/>
<path d="M191.646 93.9033H186.455V99.8609H191.646V93.9033Z" fill="#E6E6E6"/>
<path d="M202.034 93.9033H196.843V99.8609H202.034V93.9033Z" fill="#E6E6E6"/>
<path d="M212.416 93.9033H207.225V99.8609H212.416V93.9033Z" fill="#E6E6E6"/>
<path d="M222.81 93.9033H217.619V99.8609H222.81V93.9033Z" fill="#E6E6E6"/>
<path d="M191.646 103.897H186.455V109.855H191.646V103.897Z" fill="#E6E6E6"/>
<path d="M202.034 103.897H196.843V109.855H202.034V103.897Z" fill="#E6E6E6"/>
<path d="M212.417 103.897H207.225V109.855H212.417V103.897Z" fill="#E6E6E6"/>
<path d="M222.81 103.897H217.619V109.855H222.81V103.897Z" fill="#E6E6E6"/>
<path d="M191.646 113.892H186.455V119.849H191.646V113.892Z" fill="#E6E6E6"/>
<path d="M202.034 113.892H196.843V119.849H202.034V113.892Z" fill="#E6E6E6"/>
<path d="M212.417 113.892H207.225V119.849H212.417V113.892Z" fill="#E6E6E6"/>
<path d="M222.81 113.892H217.619V119.849H222.81V113.892Z" fill="#E6E6E6"/>
<path d="M191.646 123.885H186.455V129.842H191.646V123.885Z" fill="#E6E6E6"/>
<path d="M202.034 123.885H196.843V129.842H202.034V123.885Z" fill="#E6E6E6"/>
<path d="M212.416 123.885H207.225V129.842H212.416V123.885Z" fill="#E6E6E6"/>
<path d="M222.81 123.885H217.619V129.842H222.81V123.885Z" fill="#E6E6E6"/>
<path d="M191.646 133.879H186.455V139.836H191.646V133.879Z" fill="#E6E6E6"/>
<path d="M202.034 133.879H196.843V139.836H202.034V133.879Z" fill="#E6E6E6"/>
<path d="M212.417 133.879H207.225V139.836H212.417V133.879Z" fill="#E6E6E6"/>
<path d="M222.81 133.879H217.619V139.836H222.81V133.879Z" fill="#E6E6E6"/>
<path d="M191.646 143.867H186.455V149.825H191.646V143.867Z" fill="#E6E6E6"/>
<path d="M202.034 143.867H196.843V149.825H202.034V143.867Z" fill="#E6E6E6"/>
<path d="M212.417 143.867H207.225V149.825H212.417V143.867Z" fill="#E6E6E6"/>
<path d="M222.81 143.867H217.619V149.825H222.81V143.867Z" fill="#E6E6E6"/>
<path d="M116.453 69.4424H111.67V74.9349H116.453V69.4424Z" fill="#FAFAFA"/>
<path d="M116.453 78.6494H111.67V84.1419H116.453V78.6494Z" fill="#FAFAFA"/>
<path d="M116.453 87.8574H111.67V93.3499H116.453V87.8574Z" fill="#FAFAFA"/>
<path d="M116.453 97.0654H111.67V102.558H116.453V97.0654Z" fill="#FAFAFA"/>
<path d="M116.453 106.272H111.67V111.765H116.453V106.272Z" fill="#FAFAFA"/>
<path d="M116.453 115.486H111.67V120.979H116.453V115.486Z" fill="#FAFAFA"/>
<path d="M116.453 124.688H111.67V130.181H116.453V124.688Z" fill="#FAFAFA"/>
<path d="M116.453 133.901H111.67V139.394H116.453V133.901Z" fill="#FAFAFA"/>
<path d="M122.849 69.4424H118.067V74.9349H122.849V69.4424Z" fill="#FAFAFA"/>
<path d="M122.849 78.6494H118.067V84.1419H122.849V78.6494Z" fill="#FAFAFA"/>
<path d="M122.849 87.8574H118.067V93.3499H122.849V87.8574Z" fill="#FAFAFA"/>
<path d="M122.849 97.0654H118.067V102.558H122.849V97.0654Z" fill="#FAFAFA"/>
<path d="M122.849 106.272H118.067V111.765H122.849V106.272Z" fill="#FAFAFA"/>
<path d="M122.849 115.486H118.067V120.979H122.849V115.486Z" fill="#FAFAFA"/>
<path d="M122.849 124.688H118.067V130.181H122.849V124.688Z" fill="#FAFAFA"/>
<path d="M122.849 133.901H118.067V139.394H122.849V133.901Z" fill="#FAFAFA"/>
<path d="M177.222 27.7061H172.031V33.6636H177.222V27.7061Z" fill="#FAFAFA"/>
<path d="M177.222 37.6943H172.031V43.6519H177.222V37.6943Z" fill="#FAFAFA"/>
<path d="M177.222 47.002H172.031V52.9595H177.222V47.002Z" fill="#FAFAFA"/>
<path d="M177.222 56.9951H172.031V62.9527H177.222V56.9951Z" fill="#FAFAFA"/>
<path d="M177.222 66.9844H172.031V72.9419H177.222V66.9844Z" fill="#FAFAFA"/>
<path d="M177.222 76.9834H172.031V82.941H177.222V76.9834Z" fill="#FAFAFA"/>
<path d="M177.222 86.9717H172.031V92.9292H177.222V86.9717Z" fill="#FAFAFA"/>
<path d="M177.222 96.9658H172.031V102.923H177.222V96.9658Z" fill="#FAFAFA"/>
<path d="M255.213 19.041H250.021V24.9986H255.213V19.041Z" fill="#FAFAFA"/>
<path d="M255.213 29.0293H250.021V34.9869H255.213V29.0293Z" fill="#FAFAFA"/>
<path d="M255.213 39.0234H250.021V44.981H255.213V39.0234Z" fill="#FAFAFA"/>
<path d="M255.213 49.0176H250.021V54.9751H255.213V49.0176Z" fill="#FAFAFA"/>
<path d="M255.213 59.0107H250.021V64.9683H255.213V59.0107Z" fill="#FAFAFA"/>
<path d="M255.213 69.0049H250.021V74.9624H255.213V69.0049Z" fill="#FAFAFA"/>
<path d="M255.213 78.999H250.021V84.9566H255.213V78.999Z" fill="#FAFAFA"/>
<path d="M255.213 88.9922H250.021V94.9498H255.213V88.9922Z" fill="#FAFAFA"/>
<path d="M292.414 64.9463H261.145V159.16H292.414V64.9463Z" fill="#E6E6E6"/>
<path d="M274.933 69.5918H265.767V75.5494H274.933V69.5918Z" fill="#FAFAFA"/>
<path d="M274.933 79.5859H265.767V85.5435H274.933V79.5859Z" fill="#FAFAFA"/>
<path d="M274.933 89.5791H265.767V95.5367H274.933V89.5791Z" fill="#FAFAFA"/>
<path d="M274.933 99.5732H265.767V105.531H274.933V99.5732Z" fill="#FAFAFA"/>
<path d="M274.933 109.562H265.767V115.519H274.933V109.562Z" fill="#FAFAFA"/>
<path d="M274.933 119.556H265.767V125.513H274.933V119.556Z" fill="#FAFAFA"/>
<path d="M274.933 129.55H265.767V135.507H274.933V129.55Z" fill="#FAFAFA"/>
<path d="M274.933 139.543H265.767V145.501H274.933V139.543Z" fill="#FAFAFA"/>
<path d="M287.195 69.5918H278.029V75.5494H287.195V69.5918Z" fill="#FAFAFA"/>
<path d="M287.195 79.5859H278.029V85.5435H287.195V79.5859Z" fill="#FAFAFA"/>
<path d="M287.195 89.5791H278.029V95.5367H287.195V89.5791Z" fill="#FAFAFA"/>
<path d="M287.195 99.5732H278.029V105.531H287.195V99.5732Z" fill="#FAFAFA"/>
<path d="M287.195 109.562H278.029V115.519H287.195V109.562Z" fill="#FAFAFA"/>
<path d="M287.195 119.556H278.029V125.513H287.195V119.556Z" fill="#FAFAFA"/>
<path d="M287.195 129.55H278.029V135.507H287.195V129.55Z" fill="#FAFAFA"/>
<path d="M287.195 139.543H278.029V145.501H287.195V139.543Z" fill="#FAFAFA"/>
<path d="M244.09 159.126V93.9033H230.451V159.115L244.09 159.126Z" fill="#E0E0E0"/>
<path d="M233.137 96.5449H231.484V100.985H233.137V96.5449Z" fill="#FAFAFA"/>
<path d="M236.449 96.5449H234.796V100.985H236.449V96.5449Z" fill="#FAFAFA"/>
<path d="M239.749 96.5449H238.096V100.985H239.749V96.5449Z" fill="#FAFAFA"/>
<path d="M243.056 96.5449H241.403V100.985H243.056V96.5449Z" fill="#FAFAFA"/>
<path d="M233.137 103.997H231.484V108.438H233.137V103.997Z" fill="#FAFAFA"/>
<path d="M236.449 103.997H234.796V108.438H236.449V103.997Z" fill="#FAFAFA"/>
<path d="M239.749 103.997H238.096V108.438H239.749V103.997Z" fill="#FAFAFA"/>
<path d="M243.056 103.997H241.403V108.438H243.056V103.997Z" fill="#FAFAFA"/>
<path d="M233.137 111.444H231.484V115.885H233.137V111.444Z" fill="#FAFAFA"/>
<path d="M236.449 111.444H234.796V115.885H236.449V111.444Z" fill="#FAFAFA"/>
<path d="M239.749 111.444H238.096V115.885H239.749V111.444Z" fill="#FAFAFA"/>
<path d="M243.056 111.444H241.403V115.885H243.056V111.444Z" fill="#FAFAFA"/>
<path d="M233.137 118.896H231.484V123.337H233.137V118.896Z" fill="#FAFAFA"/>
<path d="M236.449 118.896H234.796V123.337H236.449V118.896Z" fill="#FAFAFA"/>
<path d="M239.749 118.896H238.096V123.337H239.749V118.896Z" fill="#FAFAFA"/>
<path d="M243.056 118.896H241.403V123.337H243.056V118.896Z" fill="#FAFAFA"/>
<path d="M233.137 126.349H231.484V130.789H233.137V126.349Z" fill="#FAFAFA"/>
<path d="M236.449 126.349H234.796V130.789H236.449V126.349Z" fill="#FAFAFA"/>
<path d="M239.75 126.349H238.097V130.789H239.75V126.349Z" fill="#FAFAFA"/>
<path d="M243.055 126.349H241.402V130.789H243.055V126.349Z" fill="#FAFAFA"/>
<path d="M233.137 133.802H231.484V138.242H233.137V133.802Z" fill="#FAFAFA"/>
<path d="M236.449 133.802H234.796V138.242H236.449V133.802Z" fill="#FAFAFA"/>
<path d="M239.749 133.802H238.096V138.242H239.749V133.802Z" fill="#FAFAFA"/>
<path d="M243.056 133.802H241.403V138.242H243.056V133.802Z" fill="#FAFAFA"/>
<path d="M233.137 141.248H231.484V145.689H233.137V141.248Z" fill="#FAFAFA"/>
<path d="M236.449 141.248H234.796V145.689H236.449V141.248Z" fill="#FAFAFA"/>
<path d="M239.75 141.248H238.097V145.689H239.75V141.248Z" fill="#FAFAFA"/>
<path d="M243.055 141.248H241.402V145.689H243.055V141.248Z" fill="#FAFAFA"/>
<path d="M233.137 148.701H231.484V153.142H233.137V148.701Z" fill="#FAFAFA"/>
<path d="M236.449 148.701H234.796V153.142H236.449V148.701Z" fill="#FAFAFA"/>
<path d="M239.749 148.701H238.096V153.142H239.749V148.701Z" fill="#FAFAFA"/>
<path d="M243.056 148.701H241.403V153.142H243.056V148.701Z" fill="#FAFAFA"/>
<path d="M80.7053 108.482H76.2825V112.209H80.7053V108.482Z" fill="#E6E6E6"/>
<path d="M89.5454 108.482H85.1226V112.209H89.5454V108.482Z" fill="#E6E6E6"/>
<path d="M98.3855 108.482H93.9626V112.209H98.3855V108.482Z" fill="#E6E6E6"/>
<path d="M107.226 108.482H102.803V112.209H107.226V108.482Z" fill="#E6E6E6"/>
<path d="M80.7053 114.733H76.2825V118.46H80.7053V114.733Z" fill="#E6E6E6"/>
<path d="M89.5454 114.733H85.1226V118.46H89.5454V114.733Z" fill="#E6E6E6"/>
<path d="M98.3855 114.733H93.9626V118.46H98.3855V114.733Z" fill="#E6E6E6"/>
<path d="M107.226 114.733H102.803V118.46H107.226V114.733Z" fill="#E6E6E6"/>
<path d="M80.7053 120.979H76.2825V124.705H80.7053V120.979Z" fill="#E6E6E6"/>
<path d="M89.5454 120.979H85.1226V124.705H89.5454V120.979Z" fill="#E6E6E6"/>
<path d="M98.3855 120.979H93.9626V124.705H98.3855V120.979Z" fill="#E6E6E6"/>
<path d="M107.226 120.979H102.803V124.705H107.226V120.979Z" fill="#E6E6E6"/>
<path d="M80.7053 127.229H76.2825V130.956H80.7053V127.229Z" fill="#E6E6E6"/>
<path d="M89.5454 127.229H85.1226V130.956H89.5454V127.229Z" fill="#E6E6E6"/>
<path d="M98.3855 127.229H93.9626V130.956H98.3855V127.229Z" fill="#E6E6E6"/>
<path d="M107.226 127.229H102.803V130.956H107.226V127.229Z" fill="#E6E6E6"/>
<path d="M80.7053 133.47H76.2825V137.196H80.7053V133.47Z" fill="#E6E6E6"/>
<path d="M89.5454 133.47H85.1226V137.196H89.5454V133.47Z" fill="#E6E6E6"/>
<path d="M98.3855 133.47H93.9626V137.196H98.3855V133.47Z" fill="#E6E6E6"/>
<path d="M107.226 133.47H102.803V137.196H107.226V133.47Z" fill="#E6E6E6"/>
<path d="M80.7053 139.721H76.2825V143.447H80.7053V139.721Z" fill="#E6E6E6"/>
<path d="M89.5454 139.721H85.1226V143.447H89.5454V139.721Z" fill="#E6E6E6"/>
<path d="M98.3855 139.721H93.9626V143.447H98.3855V139.721Z" fill="#E6E6E6"/>
<path d="M107.226 139.721H102.803V143.447H107.226V139.721Z" fill="#E6E6E6"/>
<path d="M80.7053 145.966H76.2825V149.692H80.7053V145.966Z" fill="#E6E6E6"/>
<path d="M89.5454 145.966H85.1226V149.692H89.5454V145.966Z" fill="#E6E6E6"/>
<path d="M98.3855 145.966H93.9626V149.692H98.3855V145.966Z" fill="#E6E6E6"/>
<path d="M107.226 145.966H102.803V149.692H107.226V145.966Z" fill="#E6E6E6"/>
<path d="M319.332 202.336H288.522V202.568H319.332V202.336Z" fill="#EBEBEB"/>
<path d="M208.939 204.866H200.851V205.099H208.939V204.866Z" fill="#EBEBEB"/>
<path d="M110.266 199.186H23.1313V199.418H110.266V199.186Z" fill="#EBEBEB"/>
<path d="M290.357 217.595C290.357 219.472 225.359 220.989 145.179 220.989C64.9987 220.989 0 219.483 0 217.595C0 215.707 64.9987 214.201 145.179 214.201C225.359 214.201 290.357 215.729 290.357 217.595Z" fill="#F5F5F5"/>
<path d="M144.02 76.1143C144.589 69.6536 139.82 63.9543 133.369 63.3846C126.918 62.8148 121.227 67.5903 120.659 74.051C120.09 80.5116 124.858 86.2109 131.309 86.7807C137.76 87.3505 143.451 82.575 144.02 76.1143Z" fill="#7895FF"/>
<path d="M136.958 83.0518L136.145 85.9586L139.506 87.7525L139.915 84.0262L136.958 83.0518Z" fill="#7895FF"/>
<path d="M141.884 64.6191C143.426 65.752 144.666 67.249 145.491 68.977C146.317 70.7051 146.703 72.6107 146.616 74.5244" stroke="#7895FF" stroke-width="0.5" stroke-linecap="round" stroke-linejoin="round"/>
<path d="M146.462 76.2686C146.473 76.8535 146.362 77.4343 146.135 77.9739" stroke="#7895FF" stroke-width="0.5" stroke-linecap="round" stroke-linejoin="round"/>
<path d="M132.137 80.0339L126.232 76.0806L127.615 74.0154L131.573 76.6675L136.499 70.1396L138.473 71.6346L132.137 80.0339Z" fill="white"/>
<path d="M311.476 190.232L38.0251 196.655V149.813H314.102L311.476 190.232Z" fill="#263238"/>
<path opacity="0.5" d="M311.476 190.232L38.0251 196.655V149.813H314.102L311.476 190.232Z" fill="black"/>
<path d="M27.5098 161.835V185.587C27.5162 188.063 28.3117 190.473 29.7804 192.464C31.2491 194.456 33.3144 195.926 35.6754 196.661L37.6104 197.248C38.7999 197.618 40.0416 197.791 41.2868 197.763L54.0577 197.464C52.7004 192.703 52.4505 187.694 53.3272 182.822C54.2038 177.95 56.1837 173.343 59.1147 169.357C62.0458 165.37 65.8501 162.109 70.2356 159.824C74.6211 157.539 79.471 156.291 84.4131 156.175C89.3552 156.06 94.258 157.08 98.7451 159.158C103.232 161.236 107.184 164.316 110.297 168.161C113.411 172.007 115.603 176.516 116.705 181.342C117.808 186.168 117.791 191.183 116.657 196.002L246.605 192.907C245.997 188.501 246.302 184.018 247.5 179.736C248.698 175.453 250.764 171.464 253.568 168.016C256.372 164.567 259.855 161.734 263.8 159.692C267.745 157.651 272.067 156.444 276.498 156.148C280.928 155.851 285.373 156.472 289.553 157.97C293.734 159.468 297.563 161.812 300.8 164.857C304.037 167.901 306.614 171.58 308.37 175.664C310.126 179.749 311.023 184.152 311.006 188.599C311.006 189.231 310.956 189.856 310.956 190.476C311.132 190.412 311.303 190.338 311.471 190.255L315.893 188.267C318.037 187.295 319.855 185.724 321.13 183.744C322.404 181.763 323.082 179.456 323.081 177.099V128.697C323.081 126.464 322.472 124.273 321.319 122.361C320.166 120.45 318.514 118.89 316.54 117.851L283.143 100.26C282.844 100.099 282.598 99.8555 282.434 99.558C282.27 99.2606 282.195 98.922 282.218 98.5831C282.242 98.2441 282.362 97.9191 282.565 97.647C282.768 97.3749 283.046 97.1672 283.364 97.0489L287.449 95.5816C287.617 95.5235 287.766 95.4197 287.878 95.2818C287.99 95.1439 288.062 94.9774 288.085 94.801C288.102 94.6765 288.094 94.5498 288.062 94.4284C288.03 94.307 287.973 94.1933 287.897 94.0938C287.82 93.9943 287.724 93.9112 287.615 93.8491C287.506 93.787 287.386 93.7474 287.261 93.7324C271.394 91.5177 209.669 83.4284 177.244 87.4038C139.816 91.9883 103.947 124.5 103.947 124.5C76.4039 123.465 50.6963 133.066 39.6283 137.883C37.8615 138.66 36.2768 139.799 34.9761 141.226C33.6754 142.654 32.6876 144.338 32.0763 146.171L28.2838 157.405C27.7893 158.83 27.5279 160.326 27.5098 161.835Z" fill="#7895FF"/>
<path d="M246.638 192.885C246.449 191.457 246.356 190.018 246.361 188.578C246.361 187.847 246.361 187.121 246.428 186.396L222.932 176.773C221.555 176.211 220.069 175.968 218.586 176.064L136.853 181.435C135.516 181.519 134.212 181.879 133.021 182.493L117.492 190.466C117.381 192.315 117.116 194.152 116.701 195.958L246.638 192.885Z" fill="#263238"/>
<path d="M323.13 177.077V175.843L309.862 179.918C310.636 182.739 311.028 185.652 311.028 188.577C311.028 189.209 310.979 189.834 310.979 190.454C311.154 190.39 311.325 190.316 311.493 190.233L315.949 188.245C318.09 187.271 319.906 185.7 321.18 183.719C322.453 181.739 323.131 179.433 323.13 177.077Z" fill="#263238"/>
<path d="M31.2803 194.114C32.5459 195.286 34.057 196.16 35.7031 196.672L37.6325 197.259C38.824 197.629 40.0675 197.803 41.3145 197.774L54.0854 197.475C53.6222 195.858 53.2876 194.206 53.0847 192.536L31.2803 194.114Z" fill="#263238"/>
<path d="M278.736 153.137C273.719 153.136 268.759 154.203 264.185 156.269C259.612 158.334 255.529 161.35 252.208 165.116C248.887 168.883 246.403 173.313 244.923 178.114C243.442 182.915 242.998 187.977 243.619 192.963L246.682 192.885C246.075 188.48 246.38 183.996 247.578 179.714C248.776 175.432 250.841 171.442 253.645 167.994C256.449 164.546 259.932 161.712 263.877 159.671C267.822 157.629 272.145 156.422 276.575 156.126C281.006 155.83 285.45 156.45 289.631 157.948C293.812 159.446 297.64 161.791 300.877 164.835C304.114 167.879 306.691 171.558 308.447 175.643C310.203 179.727 311.101 184.13 311.084 188.578C311.084 189.209 311.028 189.834 311.028 190.455C311.206 190.391 311.379 190.317 311.548 190.233L314.102 189.076V188.578C314.089 179.184 310.357 170.178 303.725 163.536C297.092 156.893 288.1 153.155 278.72 153.142L278.736 153.137Z" fill="#263238"/>
<path d="M85.2108 153.137C79.7972 153.13 74.4542 154.367 69.593 156.753C64.7319 159.139 60.4822 162.61 57.1712 166.899C53.8602 171.189 51.5761 176.182 50.4948 181.494C49.4134 186.806 49.5637 192.297 50.934 197.542L54.0797 197.475C52.7293 192.717 52.4847 187.711 53.3649 182.844C54.2451 177.976 56.2266 173.374 59.1575 169.392C62.0884 165.41 65.8909 162.153 70.2734 159.87C74.6559 157.588 79.5021 156.341 84.4405 156.225C89.3788 156.109 94.2781 157.126 98.7628 159.2C103.247 161.274 107.198 164.349 110.313 168.189C113.427 172.029 115.622 176.532 116.729 181.353C117.837 186.174 117.827 191.186 116.701 196.002L119.836 195.925C120.926 190.763 120.851 185.422 119.617 180.293C118.382 175.163 116.02 170.375 112.702 166.276C109.384 162.178 105.194 158.874 100.437 156.604C95.6813 154.335 90.4792 153.158 85.2108 153.159V153.137Z" fill="#263238"/>
<path d="M116.004 125.879C115.616 126.22 115.35 126.679 115.247 127.186C115.103 127.748 115.174 128.343 115.446 128.856C115.718 129.368 116.172 129.76 116.718 129.954L130.229 133.747C131.419 134.09 132.667 134.184 133.895 134.024L234.027 121.61C236.54 121.26 238.832 119.985 240.457 118.034L253.598 102.708C254.043 102.178 254.317 101.526 254.383 100.836C254.566 99.0923 253.471 97.5144 251.945 97.3206C227.962 94.1369 197.638 91.2301 178.488 93.5833C153.416 96.6506 128.151 115.542 116.004 125.879Z" fill="#7895FF"/>
<path opacity="0.8" d="M116.458 125.879C116.07 126.22 115.804 126.679 115.701 127.185C115.555 127.747 115.626 128.344 115.898 128.856C116.17 129.369 116.625 129.76 117.171 129.954L130.677 133.747C131.867 134.089 133.115 134.184 134.343 134.023L232.258 127.313C234.696 127.003 238.461 122.518 241.104 118.875L254.046 102.707C254.495 102.18 254.771 101.526 254.837 100.836C255.013 99.0919 253.924 97.5139 252.393 97.3201C228.432 94.1254 198.092 91.2407 178.963 93.5717C153.864 96.6502 128.599 115.542 116.458 125.879Z" fill="white"/>
<g opacity="0.3">
<path d="M181.888 135.441C181.58 135.33 181.328 135.1 181.188 134.804C181.048 134.507 181.031 134.167 181.142 133.857C181.281 133.468 181.534 133.13 181.866 132.885C182.199 132.64 182.598 132.501 183.01 132.484L194.93 131.98C195.133 131.972 195.335 132.014 195.518 132.102C195.701 132.191 195.86 132.322 195.981 132.486C196.101 132.65 196.18 132.841 196.21 133.043C196.239 133.244 196.219 133.45 196.152 133.642C196.011 134.031 195.758 134.37 195.424 134.615C195.09 134.859 194.691 134.998 194.277 135.015L182.363 135.513C182.202 135.517 182.041 135.493 181.888 135.441Z" fill="black"/>
</g>
<path d="M270.515 101.24C270.011 101.692 269.706 102.325 269.666 103.002C269.627 103.678 269.857 104.343 270.305 104.85L273.13 107.929C273.458 108.272 273.87 108.522 274.324 108.654L308.95 118.271C309.552 118.432 310.173 118.514 310.796 118.515H317.679C317.32 118.277 316.955 118.055 316.573 117.851L283.176 100.244C282.975 100.145 282.795 100.007 282.648 99.8383C282.5 99.6697 282.387 99.4736 282.315 99.2612C282.243 99.0488 282.214 98.8242 282.229 98.6005C282.243 98.3767 282.302 98.158 282.402 97.957L271.555 100.681C271.169 100.782 270.813 100.974 270.515 101.24Z" fill="#7895FF"/>
<path d="M54.9035 142.434L43.0891 141.144L36.3001 143.912C35.5952 144.202 34.968 144.654 34.4688 145.231C33.9696 145.808 33.6122 146.494 33.4253 147.234C33.2052 148.1 33.3301 149.017 33.7736 149.792L33.8952 149.997C34.2662 150.636 34.8185 151.15 35.4819 151.475C36.1453 151.799 36.89 151.919 37.6214 151.818L44.4325 150.883C45.0984 150.789 45.7297 150.528 46.268 150.124L54.124 144.156L54.9035 142.434Z" fill="white"/>
<path d="M103.991 124.5L105.871 125.054C106.59 125.261 107.35 125.287 108.082 125.13C108.814 124.972 109.496 124.636 110.067 124.151C121.019 114.877 140.054 100.642 160.598 94.0089C160.644 93.9961 160.687 93.9738 160.724 93.9432C160.761 93.9127 160.792 93.8747 160.813 93.8317C160.863 93.7436 160.876 93.6393 160.849 93.5417C160.822 93.4441 160.757 93.3612 160.669 93.3112L158.115 91.999C128.477 102.275 103.991 124.5 103.991 124.5Z" fill="#7895FF"/>
<path opacity="0.8" d="M103.991 124.5L105.871 125.054C106.59 125.261 107.35 125.287 108.082 125.13C108.814 124.972 109.496 124.636 110.067 124.151C121.019 114.877 140.054 100.642 160.598 94.0089C160.644 93.9961 160.687 93.9738 160.724 93.9432C160.761 93.9127 160.792 93.8747 160.813 93.8317C160.863 93.7436 160.876 93.6393 160.849 93.5417C160.822 93.4441 160.757 93.3612 160.669 93.3112L158.115 91.999C128.477 102.275 103.991 124.5 103.991 124.5Z" fill="white"/>
<path opacity="0.2" d="M216.27 137.03L116.701 144.162L118.575 156.459C119.152 160.223 120.547 163.814 122.661 166.979L130.981 179.431L215.966 167.925L256.141 137.03H216.27Z" fill="white"/>
<path d="M278.709 215.575C293.597 215.575 305.666 203.488 305.666 188.577C305.666 173.667 293.597 161.58 278.709 161.58C263.821 161.58 251.752 173.667 251.752 188.577C251.752 203.488 263.821 215.575 278.709 215.575Z" fill="#263238"/>
<path opacity="0.4" d="M278.709 205.126C287.835 205.126 295.234 197.717 295.234 188.577C295.234 179.437 287.835 172.027 278.709 172.027C269.582 172.027 262.184 179.437 262.184 188.577C262.184 197.717 269.582 205.126 278.709 205.126Z" fill="white"/>
<g opacity="0.3">
<path d="M278.709 173.694H278.703C277.973 173.694 277.382 174.287 277.382 175.018V183.5C277.382 184.231 277.973 184.823 278.703 184.823H278.709C279.438 184.823 280.03 184.231 280.03 183.5V175.018C280.03 174.287 279.438 173.694 278.709 173.694Z" fill="white"/>
</g>
<g opacity="0.3">
<path d="M278.709 192.342H278.703C277.973 192.342 277.382 192.934 277.382 193.665V202.147C277.382 202.878 277.973 203.471 278.703 203.471H278.709C279.438 203.471 280.03 202.878 280.03 202.147V193.665C280.03 192.934 279.438 192.342 278.709 192.342Z" fill="white"/>
</g>
<g opacity="0.3">
<path d="M283.784 187.188C283.633 187.275 283.467 187.331 283.295 187.353C283.123 187.375 282.948 187.363 282.78 187.317C282.613 187.272 282.456 187.193 282.319 187.086C282.182 186.979 282.067 186.847 281.981 186.695C281.894 186.545 281.838 186.379 281.815 186.206C281.793 186.034 281.804 185.859 281.85 185.691C281.895 185.524 281.973 185.366 282.079 185.229C282.185 185.091 282.317 184.976 282.468 184.89L289.799 180.627C290.103 180.45 290.465 180.401 290.805 180.492C291.145 180.582 291.435 180.804 291.612 181.109C291.785 181.414 291.831 181.775 291.74 182.114C291.649 182.453 291.428 182.742 291.126 182.919L283.784 187.182V187.188Z" fill="white"/>
</g>
<g opacity="0.3">
<path d="M267.63 196.478C267.48 196.564 267.314 196.62 267.143 196.642C266.971 196.664 266.797 196.652 266.63 196.607C266.464 196.562 266.307 196.484 266.17 196.378C266.034 196.273 265.919 196.141 265.833 195.991C265.66 195.686 265.614 195.326 265.706 194.988C265.797 194.65 266.017 194.362 266.319 194.186L273.65 189.922C273.954 189.747 274.315 189.7 274.653 189.79C274.992 189.88 275.281 190.101 275.458 190.404C275.634 190.708 275.682 191.07 275.593 191.41C275.504 191.75 275.285 192.041 274.983 192.22L267.641 196.483L267.63 196.478Z" fill="white"/>
</g>
<g opacity="0.3">
<path d="M289.771 196.511L282.44 192.248C282.136 192.071 281.915 191.78 281.824 191.44C281.732 191.1 281.779 190.738 281.954 190.432C282.131 190.127 282.421 189.905 282.761 189.815C283.101 189.725 283.463 189.773 283.767 189.95L291.098 194.213C291.401 194.39 291.621 194.68 291.712 195.019C291.803 195.358 291.758 195.719 291.585 196.024C291.498 196.175 291.382 196.308 291.243 196.414C291.105 196.521 290.947 196.599 290.779 196.644C290.61 196.689 290.435 196.701 290.262 196.678C290.089 196.655 289.922 196.599 289.771 196.511Z" fill="white"/>
</g>
<g opacity="0.3">
<path d="M275.447 186.7C275.271 187.003 274.983 187.223 274.645 187.314C274.307 187.404 273.947 187.356 273.644 187.182L266.314 182.918C266.011 182.741 265.79 182.452 265.7 182.112C265.61 181.773 265.658 181.412 265.833 181.108C266.008 180.805 266.297 180.584 266.634 180.494C266.972 180.404 267.332 180.451 267.635 180.626L274.977 184.889C275.127 184.976 275.258 185.092 275.363 185.23C275.468 185.368 275.545 185.525 275.589 185.693C275.633 185.861 275.644 186.035 275.62 186.207C275.597 186.379 275.54 186.545 275.452 186.694L275.447 186.7Z" fill="white"/>
</g>
<path d="M276.492 188.571C276.492 187.984 276.725 187.42 277.139 187.005C277.554 186.59 278.117 186.356 278.703 186.356C279.14 186.356 279.568 186.486 279.932 186.73C280.295 186.973 280.579 187.319 280.746 187.724C280.914 188.128 280.957 188.574 280.872 189.003C280.787 189.433 280.576 189.827 280.267 190.137C279.958 190.447 279.563 190.658 279.135 190.743C278.706 190.829 278.261 190.785 277.857 190.617C277.453 190.45 277.107 190.166 276.864 189.802C276.621 189.437 276.492 189.009 276.492 188.571Z" fill="#263238"/>
<path d="M85.2109 215.579C100.099 215.579 112.168 203.492 112.168 188.582C112.168 173.672 100.099 161.585 85.2109 161.585C70.323 161.585 58.2539 173.672 58.2539 188.582C58.2539 203.492 70.323 215.579 85.2109 215.579Z" fill="#263238"/>
<path opacity="0.4" d="M85.2108 205.132C94.3371 205.132 101.735 197.723 101.735 188.583C101.735 179.443 94.3371 172.033 85.2108 172.033C76.0844 172.033 68.686 179.443 68.686 188.583C68.686 197.723 76.0844 205.132 85.2108 205.132Z" fill="white"/>
<g opacity="0.3">
<path d="M85.2053 173.694H85.1997C84.47 173.694 83.8784 174.287 83.8784 175.018V183.5C83.8784 184.231 84.47 184.823 85.1997 184.823H85.2053C85.935 184.823 86.5266 184.231 86.5266 183.5V175.018C86.5266 174.287 85.935 173.694 85.2053 173.694Z" fill="white"/>
</g>
<g opacity="0.3">
<path d="M85.2053 192.342H85.1997C84.47 192.342 83.8784 192.934 83.8784 193.665V202.147C83.8784 202.878 84.47 203.471 85.1997 203.471H85.2053C85.935 203.471 86.5266 202.878 86.5266 202.147V193.665C86.5266 192.934 85.935 192.342 85.2053 192.342Z" fill="white"/>
</g>
<g opacity="0.3">
<path d="M90.2474 187.193C90.0975 187.278 89.9324 187.332 89.7615 187.353C89.5906 187.374 89.4173 187.361 89.2514 187.315C89.0856 187.268 88.9305 187.19 88.795 187.083C88.6595 186.977 88.5462 186.845 88.4617 186.695C88.3743 186.545 88.3172 186.38 88.2938 186.208C88.2704 186.036 88.2811 185.861 88.3253 185.693C88.3694 185.526 88.4462 185.368 88.5512 185.231C88.6562 185.093 88.7874 184.977 88.9372 184.89L96.279 180.627C96.5829 180.454 96.9427 180.408 97.2802 180.499C97.6177 180.59 97.9056 180.811 98.0813 181.114C98.1683 181.264 98.2247 181.43 98.2473 181.603C98.2699 181.775 98.2582 181.95 98.213 182.118C98.1678 182.285 98.0899 182.443 97.9838 182.58C97.8777 182.718 97.7455 182.833 97.5948 182.919L90.2861 187.182L90.2474 187.193Z" fill="white"/>
</g>
<g opacity="0.3">
<path d="M72.3294 196.002C72.1568 195.697 72.111 195.337 72.2021 194.999C72.2932 194.661 72.5138 194.373 72.8159 194.197L80.1467 189.933C80.451 189.757 80.8129 189.708 81.153 189.798C81.493 189.889 81.7833 190.111 81.9601 190.415C82.1367 190.72 82.1852 191.082 82.095 191.423C82.0048 191.763 81.7833 192.054 81.4791 192.231L74.1483 196.495C73.8418 196.671 73.4781 196.718 73.137 196.625C72.7958 196.533 72.5054 196.309 72.3294 196.002Z" fill="white"/>
</g>
<g opacity="0.3">
<path d="M98.0813 196.03C97.9057 196.332 97.6174 196.553 97.2795 196.643C96.9417 196.734 96.5819 196.686 96.279 196.511L88.9372 192.248C88.6339 192.07 88.4135 191.779 88.3244 191.438C88.2353 191.098 88.2846 190.736 88.4617 190.432C88.6374 190.129 88.9257 189.908 89.2635 189.818C89.6013 189.728 89.9611 189.775 90.264 189.95L97.5948 194.214C97.8971 194.389 98.1175 194.678 98.2077 195.017C98.2978 195.355 98.2504 195.715 98.0758 196.019L98.0813 196.03Z" fill="white"/>
</g>
<g opacity="0.3">
<path d="M81.9491 186.712C81.7716 187.014 81.4815 187.234 81.1425 187.322C80.8035 187.41 80.4434 187.36 80.1413 187.182L72.8105 182.919C72.5078 182.742 72.2873 182.452 72.1972 182.113C72.1071 181.774 72.1546 181.413 72.3295 181.109C72.5062 180.804 72.7966 180.582 73.1366 180.492C73.4766 180.401 73.8386 180.45 74.1429 180.627L81.4737 184.89C81.776 185.066 81.9963 185.355 82.0865 185.693C82.1767 186.031 82.1292 186.392 81.9546 186.695L81.9491 186.712Z" fill="white"/>
</g>
<path d="M85.2109 186.356C85.6483 186.356 86.0758 186.486 86.4395 186.73C86.8032 186.973 87.0866 187.319 87.254 187.724C87.4214 188.128 87.4651 188.574 87.3798 189.003C87.2945 189.433 87.0839 189.827 86.7746 190.137C86.4653 190.447 86.0713 190.658 85.6423 190.743C85.2134 190.829 84.7687 190.785 84.3646 190.617C83.9606 190.45 83.6152 190.166 83.3722 189.802C83.1292 189.437 82.9995 189.009 82.9995 188.571C82.9995 187.984 83.2325 187.42 83.6472 187.005C84.0619 186.59 84.6244 186.356 85.2109 186.356Z" fill="#263238"/>
<path opacity="0.3" d="M320.299 137.65C320.727 137.513 321.084 137.212 321.291 136.813C321.498 136.413 321.539 135.948 321.405 135.519C321.09 129.832 319.885 124.772 316.429 121.295C316.316 120.923 316.079 120.602 315.759 120.383C315.438 120.165 315.053 120.062 314.666 120.093L294.122 122.037C293.807 122.066 293.507 122.183 293.255 122.373C293.003 122.564 292.809 122.82 292.694 123.115C292.579 123.41 292.549 123.731 292.606 124.042C292.662 124.353 292.805 124.642 293.016 124.877L298.915 131.222C299.12 131.443 299.379 131.605 299.667 131.693L319.332 137.661C319.649 137.752 319.985 137.748 320.299 137.65Z" fill="black"/>
<path d="M115.247 127.174C115.106 127.736 115.178 128.33 115.45 128.842C115.722 129.354 116.174 129.746 116.718 129.942L130.23 133.735C131.449 134.108 132.71 134.324 133.984 134.377L138.235 134.095L134.227 112.396C124.961 118.487 124.325 118.769 115.983 125.862C115.599 126.206 115.341 126.667 115.247 127.174Z" fill="#263238"/>
<path d="M203.245 92.8799L194.775 129.937L205.832 129.14L210.902 93.2287C208.331 93.0792 205.766 92.9629 203.245 92.8799Z" fill="#263238"/>
<path d="M238.45 122.208L254.041 102.707C254.501 102.174 254.784 101.51 254.848 100.808C255.025 99.0641 253.924 97.4861 252.399 97.3034C249.203 96.866 245.809 96.4507 242.409 96.041" fill="#263238"/>
<path d="M127.532 130.945C126.236 130.959 124.988 130.457 124.061 129.549C123.135 128.642 122.605 127.404 122.589 126.106C122.576 124.991 122.944 123.904 123.632 123.026C124.32 122.148 125.286 121.531 126.371 121.278L132.883 119.75L134.514 130.669L127.642 130.929L127.532 130.945Z" fill="#7895FF"/>
<path opacity="0.3" d="M132.634 130.752L134.542 130.674L132.883 119.75L131.025 120.187L132.634 130.752Z" fill="black"/>
<path opacity="0.6" d="M205.627 129.146C205.705 132.982 205.666 137.046 205.251 139.112C204.328 143.724 197.146 177.459 197.146 177.459" stroke="black" stroke-width="0.5" stroke-linecap="round" stroke-linejoin="round"/>
<path opacity="0.6" d="M115.165 127.988C115.165 127.988 117.31 157.162 120.577 163.064C123.767 168.816 133 182.492 133 182.492" stroke="black" stroke-width="0.5" stroke-linecap="round" stroke-linejoin="round"/>
<path opacity="0.6" d="M107.695 125.214C107.695 125.214 84.7577 130.895 77.9852 131.98C72.4567 132.871 49.8838 138.364 43.1003 141.143" stroke="black" stroke-width="0.5" stroke-linecap="round" stroke-linejoin="round"/>
<path opacity="0.8" d="M270.515 101.239C270.011 101.691 269.706 102.324 269.666 103.001C269.627 103.677 269.857 104.342 270.305 104.849L273.13 107.928C273.458 108.271 273.87 108.521 274.324 108.653L308.95 118.27C309.552 118.432 310.173 118.513 310.796 118.514H317.679C317.32 118.276 316.955 118.055 316.573 117.85L283.176 100.243C282.975 100.144 282.795 100.006 282.648 99.8373C282.5 99.6687 282.387 99.4726 282.315 99.2602C282.243 99.0478 282.214 98.8233 282.229 98.5995C282.243 98.3757 282.302 98.157 282.402 97.9561L271.555 100.68C271.169 100.781 270.813 100.973 270.515 101.239Z" fill="white"/>
<path d="M155.849 115.917C155.849 115.917 159.984 130.49 161.996 131.005C165.634 131.941 177.941 129.826 177.697 129.422L176.691 124.289C176.691 124.289 164.125 123.381 163.865 123.486L159.879 114.351L155.849 115.917Z" fill="#E1715B"/>
<path d="M159.907 116.931C159.907 116.931 161.162 115.757 161.195 114.34C161.228 112.922 161.637 111.798 161.587 110.741C161.538 109.683 160.659 110.807 160.31 111.499C159.962 112.192 159.558 112.967 159.083 112.607C158.608 112.247 156.534 107.624 155.821 107.231C155.108 106.837 155.207 107.679 155.207 107.679C155.207 107.679 154.655 106.572 154.174 106.66C154.047 106.66 153.787 106.948 153.947 107.491C154.317 108.714 155.224 111.245 155.224 111.245C155.174 111.095 153.836 108.056 153.566 107.629C153.228 107.076 152.78 106.976 152.46 107.186C152.006 107.48 153.538 111.306 153.494 111.511C153.494 111.511 152.681 109.296 151.99 109.174C151.299 109.052 151.736 110.503 152.355 111.693C152.908 112.801 153.759 115.076 154.445 116.123C155.29 117.424 156.153 118.105 157.585 117.883C158.427 117.77 159.227 117.442 159.907 116.931Z" fill="#E1715B"/>
<path opacity="0.3" d="M155.301 107.823C155.71 108.724 156.079 109.647 156.407 110.592" stroke="black" stroke-width="0.25" stroke-linecap="round" stroke-linejoin="round"/>
<path opacity="0.3" d="M153.787 112.397C154.781 111.585 155.989 111.079 157.264 110.94" stroke="black" stroke-width="0.25" stroke-linecap="round" stroke-linejoin="round"/>
<path opacity="0.3" d="M158.768 113.177C158.32 113.461 157.987 113.895 157.828 114.402C157.669 114.909 157.695 115.455 157.9 115.945" stroke="black" stroke-width="0.25" stroke-linecap="round" stroke-linejoin="round"/>
<path d="M188.284 111.079C188.284 111.079 192.884 107.203 192.707 105.88C192.53 104.557 191.773 104.983 191.773 104.983C191.773 104.983 193.365 101.838 191.773 101.301C190.181 100.764 190.114 101.301 190.114 101.301C190.114 101.301 190.739 98.7376 189.495 97.9791C188.522 97.359 188.141 98.5549 188.141 98.5549C188.141 98.5549 186.333 95.7478 184.166 95.7865C183.099 95.864 182.573 96.5561 182.723 97.3811C182.723 97.4199 182.723 97.4531 182.723 97.4863C182.723 97.5195 178.355 95.5817 176.332 96.7776C174.308 97.9735 176.945 99.2858 176.945 99.2858C176.945 99.2858 172.694 98.8428 171.859 100.559C171.196 101.916 173.092 102.835 173.092 102.835C172.633 103.005 172.21 103.259 171.843 103.582C171.589 103.802 171.407 104.093 171.322 104.418C171.237 104.744 171.253 105.087 171.366 105.403C171.48 105.719 171.687 105.993 171.96 106.189C172.232 106.385 172.558 106.493 172.893 106.5H172.926C173.153 106.5 173.556 106.556 173.722 106.395C173.722 106.395 172.993 107.94 174.568 108.438C176.144 108.936 176.89 107.104 176.89 107.104L188.284 111.079Z" fill="#263238"/>
<path d="M186.836 121.105C186.836 121.105 186.576 118.891 188.157 113.481C188.157 113.481 187.87 113.348 187.87 113.343C188.091 112.59 188.323 111.892 188.539 111.283L181.142 115.834C181.313 117.562 180.683 120.901 180.312 122.312L182.225 125.557L186.836 121.105Z" fill="#E1715B"/>
<path opacity="0.2" d="M181.014 118.244L185.266 117.297C184.879 118.615 183.707 120.182 180.749 120.303C180.893 119.625 180.982 118.936 181.014 118.244Z" fill="black"/>
<path d="M176.078 103.029C175.204 104.734 174.889 108.493 177.609 107.718C180.329 106.943 177.581 100.088 176.078 103.029Z" fill="#263238"/>
<path d="M188.611 107.673C188.102 112.357 187.909 115.009 185.421 117.291C181.678 120.712 176.111 118.348 175.21 113.592C174.397 109.307 175.37 102.363 180.058 100.752C181.097 100.396 182.21 100.31 183.291 100.502C184.373 100.693 185.388 101.156 186.243 101.848C187.097 102.539 187.762 103.436 188.176 104.455C188.591 105.474 188.74 106.581 188.611 107.673Z" fill="#E1715B"/>
<path d="M181.827 108.709C181.827 109.19 181.534 109.567 181.219 109.55C180.904 109.534 180.666 109.124 180.666 108.648C180.666 108.172 180.965 107.79 181.28 107.806C181.595 107.823 181.849 108.227 181.827 108.709Z" fill="#263238"/>
<path d="M177.117 108.582C177.117 109.063 176.819 109.44 176.503 109.418C176.188 109.396 175.951 108.997 175.978 108.515C176.006 108.034 176.271 107.663 176.586 107.679C176.902 107.696 177.139 108.1 177.117 108.582Z" fill="#263238"/>
<path d="M178.659 108.388C178.659 108.388 177.001 110.708 176.492 111.654C177.133 112.291 178.3 112.07 178.3 112.07L178.659 108.388Z" fill="#FD504E"/>
<path d="M182.994 106.128C182.955 106.139 182.914 106.14 182.875 106.129C182.836 106.118 182.8 106.097 182.773 106.068C182.578 105.863 182.338 105.706 182.072 105.61C181.806 105.514 181.522 105.481 181.241 105.514C181.183 105.524 181.123 105.511 181.073 105.478C181.024 105.445 180.989 105.395 180.976 105.337C180.964 105.278 180.977 105.217 181.01 105.167C181.043 105.118 181.094 105.083 181.153 105.071C181.509 105.025 181.87 105.066 182.208 105.188C182.545 105.31 182.849 105.511 183.093 105.774C183.114 105.795 183.131 105.819 183.142 105.846C183.153 105.873 183.159 105.902 183.159 105.932C183.159 105.961 183.153 105.99 183.142 106.017C183.131 106.044 183.114 106.069 183.093 106.09C183.063 106.108 183.029 106.122 182.994 106.128Z" fill="#263238"/>
<path d="M175.11 106.411C175.069 106.395 175.032 106.368 175.005 106.333C174.986 106.31 174.972 106.284 174.964 106.256C174.955 106.228 174.952 106.198 174.955 106.168C174.958 106.139 174.967 106.11 174.982 106.085C174.996 106.059 175.015 106.036 175.038 106.018C175.309 105.786 175.631 105.624 175.977 105.544C176.324 105.464 176.684 105.469 177.029 105.558C177.057 105.567 177.083 105.582 177.106 105.602C177.128 105.621 177.147 105.645 177.16 105.672C177.174 105.699 177.182 105.728 177.184 105.758C177.186 105.788 177.182 105.818 177.172 105.846C177.155 105.902 177.116 105.948 177.064 105.975C177.012 106.002 176.952 106.007 176.896 105.99C176.622 105.92 176.335 105.918 176.061 105.985C175.786 106.051 175.532 106.184 175.32 106.372C175.291 106.394 175.256 106.41 175.22 106.416C175.183 106.423 175.146 106.421 175.11 106.411Z" fill="#263238"/>
<path d="M178.93 113.387C179.688 113.149 181.081 112.645 181.755 111.937C181.841 112.101 181.904 112.276 181.943 112.457C182.021 112.775 182.021 113.108 181.943 113.426C181.772 114.074 181.208 114.777 179.682 115.198H179.654C179.654 115.198 178.831 115.408 178.421 113.537C178.416 113.542 178.615 113.503 178.93 113.387Z" fill="#263238"/>
<path d="M178.93 113.387L179.223 113.897C180.661 113.492 181.617 113.016 181.943 112.457C181.904 112.276 181.841 112.101 181.755 111.937C181.081 112.645 179.688 113.149 178.93 113.387Z" fill="white"/>
<path d="M179.693 115.198C181.219 114.777 181.783 114.09 181.955 113.426C181.377 113.597 180.834 113.869 180.351 114.229C180.037 114.476 179.808 114.814 179.693 115.198Z" fill="#FB504E"/>
<path d="M187.206 111.289C186.779 111.105 186.413 110.804 186.15 110.419C185.977 110.023 185.923 109.584 185.996 109.157C186.036 108.713 186.099 108.271 186.184 107.834C185.769 108.044 185.266 107.712 185.034 107.28C184.751 106.637 184.659 105.926 184.768 105.231C184.502 105.294 184.224 105.284 183.963 105.203C183.701 105.122 183.466 104.974 183.281 104.772C183.108 104.56 183.014 104.295 183.014 104.022C183.014 103.748 183.108 103.483 183.281 103.271C181.548 103.504 179.786 103.393 178.095 102.945C178.133 103.062 178.138 103.187 178.109 103.306C178.079 103.426 178.017 103.534 177.929 103.62C177.32 104.441 176.427 105.004 175.425 105.198C175.281 105.226 175.104 105.226 175.027 105.104C174.989 105.037 174.975 104.959 174.988 104.883C175.037 104.407 175.178 103.945 175.405 103.524C175.632 103.104 175.939 102.732 176.31 102.43C177.053 101.832 177.892 101.366 178.792 101.051C180.259 100.452 181.808 100.079 183.386 99.9438C184.968 99.8129 186.557 100.089 188.002 100.747C188.322 100.88 188.609 101.082 188.843 101.339C189.034 101.606 189.173 101.906 189.252 102.225C189.838 104.141 190.059 106.151 189.904 108.149" fill="#263238"/>
<path d="M190.28 111.676C190.075 112.225 189.763 112.727 189.362 113.153C188.962 113.58 188.481 113.923 187.947 114.162C186.515 114.794 185.565 113.559 185.769 112.081C185.952 110.757 186.914 108.83 188.45 108.819C189.987 108.808 190.772 110.314 190.28 111.676Z" fill="#E1715B"/>
<path opacity="0.2" d="M189.247 110.325C189.149 110.186 189.012 110.079 188.854 110.018C188.695 109.957 188.522 109.945 188.356 109.982C188.024 110.065 187.731 110.261 187.527 110.536C187.271 110.857 187.102 111.238 187.035 111.643" stroke="black" stroke-width="0.5" stroke-linecap="round" stroke-linejoin="round"/>
<path d="M179.964 128.752C179.964 128.752 166.22 132.777 161.222 132.949C156.225 133.12 145.19 130.795 145.19 130.795L145.814 125.712L162.035 126.543L179.671 120.641L179.964 128.752Z" fill="#E1715B"/>
<path d="M175.055 131.858L177.758 120.663L184.619 119.467C184.923 119.423 190.496 118.963 192.171 125.092L192.547 129.959L175.055 131.858Z" fill="#263238"/>
<path d="M181.506 130.739C181.131 130.739 170.449 132.694 170.449 132.694L168.238 123.979C171.347 122.695 174.525 121.585 177.758 120.657C182.839 119.284 187.604 118.858 188.699 121.211C190.783 125.74 181.506 130.739 181.506 130.739Z" fill="#263238"/>
<path opacity="0.3" d="M159.359 126.487L162.024 126.625L168.962 124.245C169.329 124.1 169.687 123.933 170.035 123.746C169.67 123.874 166.795 123.575 166.602 123.602C166.408 123.63 159.359 126.487 159.359 126.487Z" fill="black"/>
<path d="M140.479 123.397C140.17 123.586 136.493 127.395 136.493 127.395L137.206 132.112L141.828 127.329L140.479 123.397Z" fill="#263238"/>
<path d="M146.014 133.237C145.621 133.429 145.168 133.459 144.754 133.319C144.34 133.179 143.998 132.881 143.802 132.489L136.466 117.612C136.274 117.219 136.244 116.766 136.384 116.351C136.524 115.936 136.822 115.594 137.212 115.397C137.605 115.205 138.057 115.176 138.471 115.316C138.885 115.456 139.228 115.754 139.424 116.145L146.754 131.028C146.945 131.42 146.974 131.871 146.836 132.284C146.697 132.698 146.402 133.04 146.014 133.237Z" fill="#263238"/>
<path d="M151.299 126.116L145.262 125.308L143.515 123.193C143.515 123.193 140.446 122.916 139.789 123.464C139.131 124.012 138.467 125.756 138.467 125.756C138.467 125.756 137.671 127.185 139.02 127.938C139.02 127.938 138.158 129.211 139.7 130.108C139.7 130.108 138.561 130.751 140.198 131.426C140.824 131.676 141.494 131.799 142.168 131.785C142.842 131.772 143.507 131.623 144.123 131.349C145.026 131.127 145.96 131.056 146.887 131.138L152.377 132.113L151.299 126.116Z" fill="#E1715B"/>
</svg>
