<svg width="393" height="209" viewBox="0 0 393 209" fill="none" xmlns="http://www.w3.org/2000/svg">
<path d="M353.034 143.993H258.332C257.518 143.992 256.738 143.668 256.162 143.093C255.587 142.518 255.263 141.738 255.261 140.925V3.06837C255.263 2.25501 255.587 1.47537 256.162 0.900234C256.738 0.325103 257.518 0.00138444 258.332 0L353.034 0C353.849 -1.18157e-06 354.631 0.323105 355.208 0.898386C355.784 1.47367 356.109 2.25411 356.11 3.06837V140.925C356.109 141.739 355.784 142.52 355.208 143.095C354.631 143.67 353.849 143.993 353.034 143.993ZM258.332 0.130903C257.552 0.130903 256.805 0.440385 256.253 0.991267C255.702 1.54215 255.392 2.28931 255.392 3.06837V140.925C255.392 141.704 255.702 142.451 256.253 143.002C256.805 143.553 257.552 143.863 258.332 143.863H353.034C353.814 143.863 354.563 143.553 355.115 143.003C355.667 142.452 355.978 141.705 355.979 140.925V3.06837C355.978 2.28882 355.667 1.54168 355.115 0.990949C354.563 0.440217 353.814 0.130902 353.034 0.130903H258.332Z" fill="#E0E0E0"/>
<path d="M243.822 143.993H149.109C148.295 143.992 147.515 143.668 146.94 143.093C146.364 142.518 146.04 141.738 146.039 140.925V3.06837C146.04 2.25501 146.364 1.47537 146.94 0.900234C147.515 0.325103 148.295 0.00138444 149.109 0L243.822 0C244.636 0.00138444 245.417 0.325103 245.992 0.900234C246.568 1.47537 246.892 2.25501 246.893 3.06837V140.925C246.892 141.738 246.568 142.518 245.992 143.093C245.417 143.668 244.636 143.992 243.822 143.993ZM149.109 0.130903C148.335 0.139167 147.595 0.452128 147.049 1.00197C146.504 1.55181 146.197 2.29424 146.196 3.06837V140.925C146.197 141.704 146.508 142.45 147.059 143.001C147.61 143.551 148.356 143.861 149.136 143.863H243.822C244.602 143.861 245.349 143.551 245.9 143.001C246.451 142.45 246.761 141.704 246.762 140.925V3.06837C246.761 2.28973 246.451 1.54338 245.9 0.992796C245.349 0.442214 244.602 0.132287 243.822 0.130903H149.109Z" fill="#E0E0E0"/>
<path d="M134.668 143.993H39.9655C39.1507 143.993 38.3691 143.67 37.7924 143.095C37.2157 142.52 36.891 141.739 36.8896 140.925V3.06837C36.891 2.25411 37.2157 1.47367 37.7924 0.898386C38.3691 0.323105 39.1507 -1.18157e-06 39.9655 0L134.668 0C135.482 0.00138444 136.262 0.325103 136.838 0.900234C137.413 1.47537 137.737 2.25501 137.739 3.06837V140.925C137.737 141.738 137.413 142.518 136.838 143.093C136.262 143.668 135.482 143.992 134.668 143.993ZM39.9655 0.130903C39.1854 0.130902 38.4372 0.440217 37.885 0.990949C37.3329 1.54168 37.022 2.28882 37.0206 3.06837V140.925C37.022 141.705 37.3329 142.452 37.885 143.003C38.4372 143.553 39.1854 143.863 39.9655 143.863H134.668C135.448 143.863 136.195 143.553 136.747 143.002C137.298 142.451 137.608 141.704 137.608 140.925V3.06837C137.608 2.28931 137.298 1.54215 136.747 0.991267C136.195 0.440385 135.448 0.130903 134.668 0.130903H39.9655Z" fill="#E0E0E0"/>
<path d="M393 175.971H0V176.034H393V175.971Z" fill="#E0E0E0"/>
<path d="M129.653 32.9874C132.129 30.6745 135.406 29.4128 138.795 29.4686C142.183 29.5244 145.417 30.8932 147.815 33.2864C150.213 35.6796 151.586 38.9099 151.646 42.2958C151.706 45.6816 150.447 48.9583 148.135 51.4343L140.752 58.8173C140.508 59.0611 140.219 59.2545 139.901 59.3865C139.582 59.5185 139.241 59.5864 138.897 59.5864C138.552 59.5864 138.211 59.5185 137.892 59.3865C137.574 59.2545 137.285 59.0611 137.042 58.8173L129.653 51.4343C127.209 48.9862 125.836 45.6691 125.836 42.2109C125.836 38.7526 127.209 35.4356 129.653 32.9874ZM138.897 48.2769C140.098 48.278 141.273 47.9229 142.272 47.2567C143.272 46.5905 144.051 45.6431 144.511 44.5343C144.972 43.4255 145.093 42.2051 144.859 41.0275C144.625 39.85 144.047 38.7682 143.198 37.9189C142.349 37.0697 141.267 36.4912 140.089 36.2566C138.91 36.022 137.689 36.1419 136.579 36.601C135.469 37.0602 134.52 37.838 133.853 38.8362C133.185 39.8343 132.829 41.0078 132.829 42.2083C132.831 43.8141 133.472 45.3531 134.61 46.4871C135.748 47.6212 137.29 48.2574 138.897 48.256V48.2769Z" fill="#E6E6E6"/>
<path d="M347.192 96.3653V71.4885H331.781V77.1645H321.511V15.0273H301.756V39.4853H295.83V27.2694H280.419V86.8304H258.683V65.7864H245.059V20.164H228.239V50.5806H212.435V116.1H200.189V84.1966H187.545V63.6657H174.11V47.8997L159.123 55.8011V97.9728H143.319V89.2756H122.202V150.397L367.963 150.517V96.3653H347.192Z" fill="#EBEBEB"/>
<path d="M188.572 150.427V59.4863H171.804V150.516C177.112 150.385 188.572 150.427 188.572 150.427Z" fill="#E6E6E6"/>
<path d="M173.282 150.517V100.502H138.724V150.407L173.282 150.517Z" fill="#FAFAFA"/>
<path d="M215.27 150.444V77.0176H195.693V150.433L215.27 150.444Z" fill="#E0E0E0"/>
<path d="M199.555 79.8984H197.181V84.789H199.555V79.8984Z" fill="#FAFAFA"/>
<path d="M204.297 79.8984H201.923V84.789H204.297V79.8984Z" fill="#FAFAFA"/>
<path d="M209.045 79.8984H206.671V84.789H209.045V79.8984Z" fill="#FAFAFA"/>
<path d="M213.792 79.8984H211.418V84.789H213.792V79.8984Z" fill="#FAFAFA"/>
<path d="M199.555 88.1035H197.181V92.9941H199.555V88.1035Z" fill="#FAFAFA"/>
<path d="M204.297 88.1035H201.923V92.9941H204.297V88.1035Z" fill="#FAFAFA"/>
<path d="M209.045 88.1035H206.671V92.9941H209.045V88.1035Z" fill="#FAFAFA"/>
<path d="M213.792 88.1035H211.418V92.9941H213.792V88.1035Z" fill="#FAFAFA"/>
<path d="M199.555 96.3027H197.181V101.193H199.555V96.3027Z" fill="#FAFAFA"/>
<path d="M204.297 96.3027H201.923V101.193H204.297V96.3027Z" fill="#FAFAFA"/>
<path d="M209.045 96.3027H206.671V101.193H209.045V96.3027Z" fill="#FAFAFA"/>
<path d="M213.792 96.3027H211.418V101.193H213.792V96.3027Z" fill="#FAFAFA"/>
<path d="M199.555 104.502H197.181V109.392H199.555V104.502Z" fill="#FAFAFA"/>
<path d="M204.297 104.502H201.923V109.392H204.297V104.502Z" fill="#FAFAFA"/>
<path d="M209.045 104.502H206.671V109.392H209.045V104.502Z" fill="#FAFAFA"/>
<path d="M213.792 104.502H211.418V109.392H213.792V104.502Z" fill="#FAFAFA"/>
<path d="M199.555 112.701H197.181V117.592H199.555V112.701Z" fill="#FAFAFA"/>
<path d="M204.297 112.701H201.923V117.592H204.297V112.701Z" fill="#FAFAFA"/>
<path d="M209.045 112.701H206.671V117.592H209.045V112.701Z" fill="#FAFAFA"/>
<path d="M213.792 112.701H211.418V117.592H213.792V112.701Z" fill="#FAFAFA"/>
<path d="M199.555 120.902H197.181V125.793H199.555V120.902Z" fill="#FAFAFA"/>
<path d="M204.297 120.902H201.923V125.793H204.297V120.902Z" fill="#FAFAFA"/>
<path d="M209.045 120.902H206.671V125.793H209.045V120.902Z" fill="#FAFAFA"/>
<path d="M213.792 120.902H211.418V125.793H213.792V120.902Z" fill="#FAFAFA"/>
<path d="M199.555 129.102H197.181V133.992H199.555V129.102Z" fill="#FAFAFA"/>
<path d="M204.297 129.102H201.923V133.992H204.297V129.102Z" fill="#FAFAFA"/>
<path d="M209.045 129.102H206.671V133.992H209.045V129.102Z" fill="#FAFAFA"/>
<path d="M213.792 129.102H211.418V133.992H213.792V129.102Z" fill="#FAFAFA"/>
<path d="M199.555 137.307H197.181V142.197H199.555V137.307Z" fill="#FAFAFA"/>
<path d="M204.297 137.307H201.923V142.197H204.297V137.307Z" fill="#FAFAFA"/>
<path d="M209.045 137.307H206.671V142.197H209.045V137.307Z" fill="#FAFAFA"/>
<path d="M213.792 137.307H211.418V142.197H213.792V137.307Z" fill="#FAFAFA"/>
<path d="M283.301 150.475V66.5605H242.712V150.501C242.712 150.501 282.992 150.517 283.301 150.475Z" fill="#F5F5F5"/>
<path d="M250.676 69.9062H245.756V75.5403H250.676V69.9062Z" fill="#E6E6E6"/>
<path d="M260.528 69.9062H255.607V75.5403H260.528V69.9062Z" fill="#E6E6E6"/>
<path d="M270.369 69.9062H265.448V75.5403H270.369V69.9062Z" fill="#E6E6E6"/>
<path d="M280.214 69.9062H275.294V75.5403H280.214V69.9062Z" fill="#E6E6E6"/>
<path d="M250.676 79.3594H245.756V84.9935H250.676V79.3594Z" fill="#E6E6E6"/>
<path d="M260.528 79.3594H255.607V84.9935H260.528V79.3594Z" fill="#E6E6E6"/>
<path d="M270.369 79.3594H265.448V84.9935H270.369V79.3594Z" fill="#E6E6E6"/>
<path d="M280.214 79.3594H275.294V84.9935H280.214V79.3594Z" fill="#E6E6E6"/>
<path d="M250.676 88.8047H245.756V94.4388H250.676V88.8047Z" fill="#E6E6E6"/>
<path d="M260.528 88.8047H255.607V94.4388H260.528V88.8047Z" fill="#E6E6E6"/>
<path d="M270.369 88.8047H265.448V94.4388H270.369V88.8047Z" fill="#E6E6E6"/>
<path d="M280.214 88.8047H275.294V94.4388H280.214V88.8047Z" fill="#E6E6E6"/>
<path d="M250.676 98.2559H245.756V103.89H250.676V98.2559Z" fill="#E6E6E6"/>
<path d="M260.528 98.2559H255.607V103.89H260.528V98.2559Z" fill="#E6E6E6"/>
<path d="M270.369 98.2559H265.448V103.89H270.369V98.2559Z" fill="#E6E6E6"/>
<path d="M280.214 98.2559H275.294V103.89H280.214V98.2559Z" fill="#E6E6E6"/>
<path d="M250.676 107.707H245.756V113.341H250.676V107.707Z" fill="#E6E6E6"/>
<path d="M260.528 107.707H255.607V113.341H260.528V107.707Z" fill="#E6E6E6"/>
<path d="M270.369 107.707H265.448V113.341H270.369V107.707Z" fill="#E6E6E6"/>
<path d="M280.214 107.707H275.294V113.341H280.214V107.707Z" fill="#E6E6E6"/>
<path d="M250.676 117.158H245.756V122.792H250.676V117.158Z" fill="#E6E6E6"/>
<path d="M260.528 117.158H255.607V122.792H260.528V117.158Z" fill="#E6E6E6"/>
<path d="M270.369 117.158H265.448V122.792H270.369V117.158Z" fill="#E6E6E6"/>
<path d="M280.214 117.158H275.294V122.792H280.214V117.158Z" fill="#E6E6E6"/>
<path d="M250.676 126.609H245.756V132.243H250.676V126.609Z" fill="#E6E6E6"/>
<path d="M260.528 126.609H255.607V132.243H260.528V126.609Z" fill="#E6E6E6"/>
<path d="M270.369 126.609H265.448V132.243H270.369V126.609Z" fill="#E6E6E6"/>
<path d="M280.214 126.609H275.294V132.243H280.214V126.609Z" fill="#E6E6E6"/>
<path d="M250.676 136.055H245.756V141.689H250.676V136.055Z" fill="#E6E6E6"/>
<path d="M260.528 136.055H255.607V141.689H260.528V136.055Z" fill="#E6E6E6"/>
<path d="M270.369 136.055H265.448V141.689H270.369V136.055Z" fill="#E6E6E6"/>
<path d="M280.214 136.055H275.294V141.689H280.214V136.055Z" fill="#E6E6E6"/>
<path d="M179.412 65.6719H174.88V70.8661H179.412V65.6719Z" fill="#FAFAFA"/>
<path d="M179.412 74.3789H174.88V79.5731H179.412V74.3789Z" fill="#FAFAFA"/>
<path d="M179.412 83.0859H174.88V88.2802H179.412V83.0859Z" fill="#FAFAFA"/>
<path d="M179.412 91.7949H174.88V96.9892H179.412V91.7949Z" fill="#FAFAFA"/>
<path d="M179.412 100.502H174.88V105.696H179.412V100.502Z" fill="#FAFAFA"/>
<path d="M179.412 109.215H174.88V114.409H179.412V109.215Z" fill="#FAFAFA"/>
<path d="M179.412 117.918H174.88V123.112H179.412V117.918Z" fill="#FAFAFA"/>
<path d="M179.412 126.631H174.88V131.825H179.412V126.631Z" fill="#FAFAFA"/>
<path d="M185.475 65.6719H180.942V70.8661H185.475V65.6719Z" fill="#FAFAFA"/>
<path d="M185.475 74.3789H180.942V79.5731H185.475V74.3789Z" fill="#FAFAFA"/>
<path d="M185.475 83.0859H180.942V88.2802H185.475V83.0859Z" fill="#FAFAFA"/>
<path d="M185.475 91.7949H180.942V96.9892H185.475V91.7949Z" fill="#FAFAFA"/>
<path d="M185.475 100.502H180.942V105.696H185.475V100.502Z" fill="#FAFAFA"/>
<path d="M185.475 109.215H180.942V114.409H185.475V109.215Z" fill="#FAFAFA"/>
<path d="M185.475 117.918H180.942V123.112H185.475V117.918Z" fill="#FAFAFA"/>
<path d="M185.475 126.631H180.942V131.825H185.475V126.631Z" fill="#FAFAFA"/>
<path d="M237.011 26.2012H232.09V31.8352H237.011V26.2012Z" fill="#FAFAFA"/>
<path d="M237.011 35.6465H232.09V41.2806H237.011V35.6465Z" fill="#FAFAFA"/>
<path d="M237.011 44.4492H232.09V50.0833H237.011V44.4492Z" fill="#FAFAFA"/>
<path d="M237.011 53.9004H232.09V59.5345H237.011V53.9004Z" fill="#FAFAFA"/>
<path d="M237.011 63.3457H232.09V68.9798H237.011V63.3457Z" fill="#FAFAFA"/>
<path d="M237.011 72.8027H232.09V78.4368H237.011V72.8027Z" fill="#FAFAFA"/>
<path d="M237.011 82.248H232.09V87.8821H237.011V82.248Z" fill="#FAFAFA"/>
<path d="M237.011 91.6992H232.09V97.3333H237.011V91.6992Z" fill="#FAFAFA"/>
<path d="M310.931 18.0059H306.011V23.6399H310.931V18.0059Z" fill="#FAFAFA"/>
<path d="M310.931 27.4531H306.011V33.0872H310.931V27.4531Z" fill="#FAFAFA"/>
<path d="M310.931 36.9043H306.011V42.5384H310.931V36.9043Z" fill="#FAFAFA"/>
<path d="M310.931 46.3555H306.011V51.9895H310.931V46.3555Z" fill="#FAFAFA"/>
<path d="M310.931 55.8066H306.011V61.4407H310.931V55.8066Z" fill="#FAFAFA"/>
<path d="M310.931 65.2578H306.011V70.8919H310.931V65.2578Z" fill="#FAFAFA"/>
<path d="M310.931 74.709H306.011V80.3431H310.931V74.709Z" fill="#FAFAFA"/>
<path d="M310.931 84.1602H306.011V89.7942H310.931V84.1602Z" fill="#FAFAFA"/>
<path d="M346.186 61.4199H316.548V150.518H346.186V61.4199Z" fill="#E6E6E6"/>
<path d="M329.622 65.8125H320.935V71.4466H329.622V65.8125Z" fill="#FAFAFA"/>
<path d="M329.622 75.2637H320.935V80.8977H329.622V75.2637Z" fill="#FAFAFA"/>
<path d="M329.622 84.7148H320.935V90.3489H329.622V84.7148Z" fill="#FAFAFA"/>
<path d="M329.622 94.166H320.935V99.8001H329.622V94.166Z" fill="#FAFAFA"/>
<path d="M329.622 103.611H320.935V109.245H329.622V103.611Z" fill="#FAFAFA"/>
<path d="M329.622 113.062H320.935V118.697H329.622V113.062Z" fill="#FAFAFA"/>
<path d="M329.622 122.514H320.935V128.148H329.622V122.514Z" fill="#FAFAFA"/>
<path d="M329.622 131.965H320.935V137.599H329.622V131.965Z" fill="#FAFAFA"/>
<path d="M341.245 65.8125H332.557V71.4466H341.245V65.8125Z" fill="#FAFAFA"/>
<path d="M341.245 75.2637H332.557V80.8977H341.245V75.2637Z" fill="#FAFAFA"/>
<path d="M341.245 84.7148H332.557V90.3489H341.245V84.7148Z" fill="#FAFAFA"/>
<path d="M341.245 94.166H332.557V99.8001H341.245V94.166Z" fill="#FAFAFA"/>
<path d="M341.245 103.611H332.557V109.245H341.245V103.611Z" fill="#FAFAFA"/>
<path d="M341.245 113.062H332.557V118.697H341.245V113.062Z" fill="#FAFAFA"/>
<path d="M341.245 122.514H332.557V128.148H341.245V122.514Z" fill="#FAFAFA"/>
<path d="M341.245 131.965H332.557V137.599H341.245V131.965Z" fill="#FAFAFA"/>
<path d="M300.388 150.486V88.8047H287.461V150.476L300.388 150.486Z" fill="#E0E0E0"/>
<path d="M290.008 91.3027H288.441V95.5021H290.008V91.3027Z" fill="#FAFAFA"/>
<path d="M293.141 91.3027H291.575V95.5021H293.141V91.3027Z" fill="#FAFAFA"/>
<path d="M296.27 91.3027H294.703V95.5021H296.27V91.3027Z" fill="#FAFAFA"/>
<path d="M299.409 91.3027H297.842V95.5021H299.409V91.3027Z" fill="#FAFAFA"/>
<path d="M290.008 98.3496H288.441V102.549H290.008V98.3496Z" fill="#FAFAFA"/>
<path d="M293.141 98.3496H291.575V102.549H293.141V98.3496Z" fill="#FAFAFA"/>
<path d="M296.27 98.3496H294.703V102.549H296.27V98.3496Z" fill="#FAFAFA"/>
<path d="M299.409 98.3496H297.842V102.549H299.409V98.3496Z" fill="#FAFAFA"/>
<path d="M290.008 105.393H288.441V109.592H290.008V105.393Z" fill="#FAFAFA"/>
<path d="M293.141 105.393H291.575V109.592H293.141V105.393Z" fill="#FAFAFA"/>
<path d="M296.27 105.393H294.703V109.592H296.27V105.393Z" fill="#FAFAFA"/>
<path d="M299.409 105.393H297.842V109.592H299.409V105.393Z" fill="#FAFAFA"/>
<path d="M290.008 112.439H288.441V116.639H290.008V112.439Z" fill="#FAFAFA"/>
<path d="M293.141 112.439H291.575V116.639H293.141V112.439Z" fill="#FAFAFA"/>
<path d="M296.27 112.439H294.703V116.639H296.27V112.439Z" fill="#FAFAFA"/>
<path d="M299.409 112.439H297.842V116.639H299.409V112.439Z" fill="#FAFAFA"/>
<path d="M290.008 119.488H288.441V123.688H290.008V119.488Z" fill="#FAFAFA"/>
<path d="M293.141 119.488H291.575V123.688H293.141V119.488Z" fill="#FAFAFA"/>
<path d="M296.27 119.488H294.703V123.688H296.27V119.488Z" fill="#FAFAFA"/>
<path d="M299.409 119.488H297.842V123.688H299.409V119.488Z" fill="#FAFAFA"/>
<path d="M290.008 126.535H288.441V130.735H290.008V126.535Z" fill="#FAFAFA"/>
<path d="M293.141 126.535H291.575V130.735H293.141V126.535Z" fill="#FAFAFA"/>
<path d="M296.27 126.535H294.703V130.735H296.27V126.535Z" fill="#FAFAFA"/>
<path d="M299.409 126.535H297.842V130.735H299.409V126.535Z" fill="#FAFAFA"/>
<path d="M290.008 133.578H288.441V137.778H290.008V133.578Z" fill="#FAFAFA"/>
<path d="M293.141 133.578H291.575V137.778H293.141V133.578Z" fill="#FAFAFA"/>
<path d="M296.27 133.578H294.703V137.778H296.27V133.578Z" fill="#FAFAFA"/>
<path d="M299.409 133.578H297.842V137.778H299.409V133.578Z" fill="#FAFAFA"/>
<path d="M290.008 140.627H288.441V144.826H290.008V140.627Z" fill="#FAFAFA"/>
<path d="M293.141 140.627H291.575V144.826H293.141V140.627Z" fill="#FAFAFA"/>
<path d="M296.27 140.627H294.703V144.826H296.27V140.627Z" fill="#FAFAFA"/>
<path d="M299.409 140.627H297.842V144.826H299.409V140.627Z" fill="#FAFAFA"/>
<path d="M145.531 102.592H141.339V106.116H145.531V102.592Z" fill="#E6E6E6"/>
<path d="M153.909 102.592H149.717V106.116H153.909V102.592Z" fill="#E6E6E6"/>
<path d="M162.283 102.592H158.091V106.116H162.283V102.592Z" fill="#E6E6E6"/>
<path d="M170.667 102.592H166.475V106.116H170.667V102.592Z" fill="#E6E6E6"/>
<path d="M145.531 108.502H141.339V112.026H145.531V108.502Z" fill="#E6E6E6"/>
<path d="M153.909 108.502H149.717V112.026H153.909V108.502Z" fill="#E6E6E6"/>
<path d="M162.283 108.502H158.091V112.026H162.283V108.502Z" fill="#E6E6E6"/>
<path d="M170.667 108.502H166.475V112.026H170.667V108.502Z" fill="#E6E6E6"/>
<path d="M145.531 114.408H141.339V117.932H145.531V114.408Z" fill="#E6E6E6"/>
<path d="M153.909 114.408H149.717V117.932H153.909V114.408Z" fill="#E6E6E6"/>
<path d="M162.283 114.408H158.091V117.932H162.283V114.408Z" fill="#E6E6E6"/>
<path d="M170.667 114.408H166.475V117.932H170.667V114.408Z" fill="#E6E6E6"/>
<path d="M145.531 120.32H141.339V123.844H145.531V120.32Z" fill="#E6E6E6"/>
<path d="M153.909 120.32H149.717V123.844H153.909V120.32Z" fill="#E6E6E6"/>
<path d="M162.283 120.32H158.091V123.844H162.283V120.32Z" fill="#E6E6E6"/>
<path d="M170.667 120.32H166.475V123.844H170.667V120.32Z" fill="#E6E6E6"/>
<path d="M145.531 126.223H141.339V129.747H145.531V126.223Z" fill="#E6E6E6"/>
<path d="M153.909 126.223H149.717V129.747H153.909V126.223Z" fill="#E6E6E6"/>
<path d="M162.283 126.223H158.091V129.747H162.283V126.223Z" fill="#E6E6E6"/>
<path d="M170.667 126.223H166.475V129.747H170.667V126.223Z" fill="#E6E6E6"/>
<path d="M145.531 132.133H141.339V135.657H145.531V132.133Z" fill="#E6E6E6"/>
<path d="M153.909 132.133H149.717V135.657H153.909V132.133Z" fill="#E6E6E6"/>
<path d="M162.283 132.133H158.091V135.657H162.283V132.133Z" fill="#E6E6E6"/>
<path d="M170.667 132.133H166.475V135.657H170.667V132.133Z" fill="#E6E6E6"/>
<path d="M145.531 138.039H141.339V141.563H145.531V138.039Z" fill="#E6E6E6"/>
<path d="M153.909 138.039H149.717V141.563H153.909V138.039Z" fill="#E6E6E6"/>
<path d="M162.283 138.039H158.091V141.563H162.283V138.039Z" fill="#E6E6E6"/>
<path d="M170.667 138.039H166.475V141.563H170.667V138.039Z" fill="#E6E6E6"/>
<path d="M371.704 191.35H342.502V191.57H371.704V191.35Z" fill="#EBEBEB"/>
<path d="M267.067 193.742H259.401V193.962H267.067V193.742Z" fill="#EBEBEB"/>
<path d="M59.3745 184.652H21.2954V184.872H59.3745V184.652Z" fill="#EBEBEB"/>
<path d="M72.8151 184.652H67.2292V184.872H72.8151V184.652Z" fill="#EBEBEB"/>
<path d="M173.549 188.369H90.9612V188.589H173.549V188.369Z" fill="#EBEBEB"/>
<path d="M344.268 205.78C344.268 207.555 282.661 208.99 206.666 208.99C130.67 208.99 69.0632 207.555 69.0632 205.78C69.0632 204.005 130.67 202.57 206.666 202.57C282.661 202.57 344.268 204.015 344.268 205.78Z" fill="#F5F5F5"/>
<path d="M30.282 13.248H103.825C105.652 13.248 107.403 13.9729 108.694 15.2632C109.985 16.5535 110.711 18.3036 110.711 20.1283V172.966C110.711 175.326 109.772 177.591 108.102 179.26C106.431 180.929 104.165 181.867 101.803 181.867H32.3204C29.9578 181.867 27.692 180.929 26.0214 179.26C24.3509 177.591 23.4124 175.326 23.4124 172.966V20.1283C23.4123 18.3063 24.1356 16.5586 25.4235 15.2688C26.7113 13.9789 28.4586 13.2522 30.282 13.248Z" fill="#263238"/>
<path d="M85.1554 17.0333L83.7563 19.7875H49.5915L47.5584 17.0333H31.4087C30.7976 17.0292 30.1917 17.1453 29.6256 17.3752C29.0595 17.605 28.5442 17.9441 28.1092 18.3729C27.6742 18.8018 27.328 19.312 27.0903 19.8746C26.8527 20.4371 26.7282 21.041 26.7241 21.6516V170.41C26.7296 171.332 26.917 172.245 27.2755 173.095C27.6341 173.945 28.1567 174.716 28.8137 175.365C29.4706 176.013 30.249 176.525 31.1042 176.873C31.9595 177.22 32.8749 177.396 33.7981 177.39H100.309C101.232 177.395 102.147 177.219 103.002 176.871C103.856 176.523 104.634 176.011 105.29 175.363C105.947 174.715 106.469 173.944 106.827 173.094C107.186 172.244 107.373 171.332 107.378 170.41V21.6516C107.37 20.4202 106.873 19.2424 105.997 18.3766C105.121 17.5108 103.936 17.0277 102.704 17.0333H85.1554Z" fill="white"/>
<path d="M67.0145 16.7548C67.0145 17.0324 66.9321 17.3037 66.7778 17.5345C66.6235 17.7652 66.4041 17.9451 66.1475 18.0513C65.8909 18.1575 65.6086 18.1853 65.3362 18.1312C65.0637 18.077 64.8135 17.9434 64.6171 17.7471C64.4207 17.5509 64.287 17.3008 64.2328 17.0286C64.1786 16.7564 64.2064 16.4742 64.3127 16.2178C64.419 15.9614 64.599 15.7423 64.8299 15.5881C65.0609 15.4339 65.3324 15.3516 65.6101 15.3516C65.9826 15.3516 66.3398 15.4994 66.6031 15.7626C66.8665 16.0257 67.0145 16.3827 67.0145 16.7548Z" fill="white"/>
<path d="M69.0894 16.7563C69.0894 16.8951 69.0482 17.0308 68.971 17.1461C68.8939 17.2615 68.7842 17.3515 68.6559 17.4046C68.5276 17.4577 68.3864 17.4716 68.2502 17.4445C68.114 17.4174 67.9889 17.3506 67.8907 17.2525C67.7925 17.1543 67.7256 17.0293 67.6986 16.8932C67.6715 16.7571 67.6854 16.616 67.7385 16.4878C67.7917 16.3596 67.8816 16.25 67.9971 16.1729C68.1126 16.0958 68.2483 16.0547 68.3872 16.0547C68.5734 16.0547 68.752 16.1286 68.8837 16.2602C69.0154 16.3918 69.0894 16.5702 69.0894 16.7563Z" fill="white"/>
<path d="M102.704 17.0333H85.1554L83.7563 19.7875H49.5915L47.5584 17.0333H31.4087C30.7976 17.0292 30.1917 17.1453 29.6256 17.3752C29.0595 17.605 28.5442 17.9441 28.1092 18.3729C27.6742 18.8018 27.328 19.312 27.0903 19.8746C26.8527 20.4371 26.7282 21.041 26.7241 21.6516V59.692H107.378V21.6516C107.37 20.4202 106.873 19.2424 105.997 18.3766C105.121 17.5108 103.936 17.0277 102.704 17.0333Z" fill="#7895FF"/>
<path d="M75.7547 36.5321V33.7622C75.7539 33.6443 75.7243 33.5283 75.6686 33.4244C75.6129 33.3204 75.5328 33.2315 75.4351 33.1653L75.3722 33.1286L73.4072 32.0814C73.3922 32.0693 73.3812 32.0529 73.3758 32.0343C73.3709 32.0216 73.3686 32.008 73.3691 31.9944C73.3696 31.9808 73.3729 31.9675 73.3788 31.9552C73.3847 31.943 73.3931 31.932 73.4034 31.9231C73.4137 31.9142 73.4257 31.9075 73.4387 31.9034L73.6745 31.8196C73.6845 31.8154 73.6935 31.8089 73.7008 31.8008C73.708 31.7926 73.7133 31.783 73.7164 31.7725C73.7166 31.7575 73.7114 31.7429 73.7018 31.7314C73.6922 31.7199 73.6788 31.7122 73.664 31.7097C72.7313 31.5788 69.0999 31.1023 67.1926 31.3379C66.8088 31.3877 66.4313 31.4772 66.066 31.6049C65.0144 32.0013 64.034 32.5654 63.163 33.2753C62.9796 33.4219 62.8748 33.5161 62.8748 33.5161C61.5721 33.505 60.282 33.7728 59.0915 34.3015C58.9875 34.3473 58.8941 34.4142 58.8175 34.4981C58.7408 34.5819 58.6824 34.6808 58.6461 34.7885L58.4261 35.4483C58.3952 35.5303 58.3793 35.6172 58.3789 35.7048V37.1029C58.3793 37.2484 58.4263 37.3899 58.513 37.5068C58.5998 37.6236 58.7217 37.7096 58.861 37.7521L58.971 37.7888C59.0438 37.8016 59.1183 37.8016 59.1911 37.7888H59.9404V37.726H60.2653C60.3413 37.9881 60.4842 38.2259 60.6801 38.416C60.8761 38.6061 61.1181 38.742 61.3826 38.8102C61.647 38.8783 61.9246 38.8765 62.1882 38.8048C62.4517 38.7331 62.6919 38.5941 62.8853 38.4014C63.091 38.197 63.2361 37.9396 63.3045 37.6579H63.6294V37.726L71.0964 37.5479H71.2641C71.2641 37.5218 71.2641 37.5008 71.2641 37.4799H71.5785C71.5889 37.8965 71.7645 38.2919 72.0667 38.5791C72.3689 38.8663 72.7728 39.0219 73.1898 39.0114C73.6067 39.001 74.0024 38.8255 74.2898 38.5236C74.5773 38.2216 74.7329 37.8179 74.7225 37.4013H75.0369H75.0683L75.215 37.3333L75.3251 37.2861C75.4511 37.2276 75.5579 37.1345 75.633 37.0178C75.7081 36.901 75.7485 36.7652 75.7495 36.6264V36.5583L75.7547 36.5321Z" fill="white"/>
<path d="M95.8344 112.676L35.1343 114.095V103.723H96.4161L95.8344 112.676Z" fill="#263238"/>
<path opacity="0.5" d="M95.8344 112.676L35.1343 114.095V103.723H96.4161L95.8344 112.676Z" fill="black"/>
<path d="M32.7971 106.382V111.645C32.7972 112.194 32.9733 112.729 33.2996 113.17C33.6258 113.612 34.0851 113.938 34.6102 114.1L35.0398 114.231C35.3044 114.313 35.5806 114.35 35.8573 114.341L38.6921 114.279C38.389 113.224 38.332 112.113 38.5255 111.033C38.7189 109.953 39.1577 108.931 39.8081 108.047C40.4585 107.162 41.3031 106.439 42.2771 105.931C43.2511 105.424 44.3286 105.147 45.4266 105.121C46.5246 105.095 47.614 105.321 48.611 105.781C49.608 106.241 50.4861 106.924 51.1777 107.777C51.8694 108.629 52.3563 109.629 52.6008 110.699C52.8454 111.769 52.8412 112.881 52.5886 113.949L81.4348 113.263C81.3886 112.926 81.3659 112.587 81.3667 112.247C81.3453 111.288 81.5163 110.335 81.8696 109.444C82.223 108.552 82.7514 107.741 83.4238 107.057C84.0962 106.372 84.8989 105.83 85.7846 105.461C86.6702 105.092 87.6209 104.904 88.5804 104.908C89.5399 104.913 90.4889 105.109 91.3713 105.485C92.2536 105.862 93.0516 106.412 93.718 107.102C94.3843 107.791 94.9056 108.608 95.2511 109.502C95.5966 110.397 95.7593 111.351 95.7295 112.31C95.7295 112.446 95.7295 112.587 95.7295 112.723L95.8448 112.676L96.8299 112.236C97.3016 112.017 97.7003 111.667 97.979 111.228C98.2576 110.789 98.4044 110.28 98.4019 109.76V99.0466C98.4035 98.5516 98.269 98.0656 98.013 97.6418C97.7571 97.218 97.3895 96.8725 96.9504 96.6432L89.5358 92.7476C89.4526 92.7007 89.3879 92.6268 89.3524 92.5381C89.3316 92.4885 89.3212 92.435 89.3219 92.3812C89.3226 92.3274 89.3344 92.2742 89.3565 92.2251C89.3786 92.176 89.4106 92.132 89.4505 92.0957C89.4903 92.0595 89.5372 92.0319 89.5882 92.0145L90.4948 91.6899C90.5395 91.6734 90.5774 91.6425 90.6027 91.6022C90.6279 91.5618 90.639 91.5142 90.6342 91.4668C90.6294 91.4194 90.609 91.375 90.5761 91.3405C90.5433 91.306 90.4999 91.2834 90.4528 91.2762C86.9316 90.7893 73.229 88.9985 66.024 89.8782C57.7186 90.894 49.78 98.0989 49.78 98.0989C43.6544 97.9156 37.948 100.01 35.4905 101.083C35.0981 101.254 34.746 101.506 34.4572 101.822C34.1683 102.137 33.9491 102.51 33.8137 102.916L32.97 105.403C32.8601 105.718 32.8017 106.049 32.7971 106.382Z" fill="#7895FF"/>
<path d="M81.44 113.262C81.3983 112.946 81.3773 112.628 81.3771 112.309C81.3771 112.147 81.3771 111.985 81.3771 111.822L76.1371 109.691C75.8319 109.566 75.5021 109.512 75.173 109.534L57.0268 110.723C56.7309 110.743 56.4422 110.824 56.178 110.958L52.73 112.728C52.7066 113.139 52.6488 113.547 52.5571 113.948L81.44 113.262Z" fill="#263238"/>
<path d="M98.4228 109.761V109.488L95.4727 110.389C95.6416 111.016 95.7279 111.662 95.7294 112.311C95.7294 112.447 95.7294 112.588 95.7294 112.724L95.8447 112.677L96.8351 112.237C97.3092 112.02 97.7109 111.671 97.9924 111.232C98.2738 110.793 98.4232 110.282 98.4228 109.761Z" fill="#263238"/>
<path d="M33.6355 113.534C33.919 113.792 34.2551 113.985 34.6206 114.1L35.0503 114.231C35.3149 114.312 35.5911 114.349 35.8677 114.341L38.7026 114.278C38.5989 113.92 38.5236 113.554 38.4773 113.184L33.6355 113.534Z" fill="#263238"/>
<path d="M88.5558 104.455C88.2299 104.455 87.9044 104.476 87.5812 104.518C85.5165 104.779 83.6398 105.848 82.3628 107.491C81.0857 109.133 80.5127 111.214 80.7692 113.278H81.4504C81.4042 112.941 81.3815 112.602 81.3823 112.262C81.3609 111.304 81.5319 110.35 81.8852 109.459C82.2386 108.567 82.767 107.756 83.4394 107.072C84.1118 106.388 84.9145 105.845 85.8002 105.476C86.6858 105.107 87.6365 104.919 88.596 104.924C89.5555 104.928 90.5045 105.124 91.3869 105.501C92.2692 105.877 93.0672 106.427 93.7336 107.117C94.3999 107.807 94.9212 108.623 95.2667 109.517C95.6122 110.412 95.7749 111.367 95.7451 112.325C95.7451 112.461 95.7451 112.602 95.7451 112.739L95.8604 112.692L96.4263 112.43V112.325C96.4263 110.242 95.5982 108.244 94.1242 106.771C92.6501 105.298 90.6509 104.471 88.5663 104.471L88.5558 104.455Z" fill="#263238"/>
<path d="M45.5881 104.455C44.9162 104.456 44.2471 104.542 43.5969 104.712C41.5806 105.238 39.8562 106.544 38.8028 108.341C37.7495 110.137 37.4533 112.279 37.9796 114.294H38.6818C38.3786 113.239 38.3216 112.129 38.5151 111.048C38.7086 109.968 39.1473 108.946 39.7977 108.062C40.4481 107.177 41.2928 106.454 42.2668 105.947C43.2408 105.439 44.3182 105.162 45.4162 105.136C46.5142 105.11 47.6036 105.336 48.6006 105.796C49.5976 106.257 50.4757 106.939 51.1674 107.792C51.8591 108.644 52.3459 109.644 52.5905 110.714C52.835 111.784 52.8309 112.896 52.5782 113.964H53.2699C53.3849 113.43 53.4429 112.886 53.4428 112.341C53.4428 110.258 52.6147 108.26 51.1407 106.787C49.6667 105.314 47.6674 104.486 45.5828 104.486L45.5881 104.455Z" fill="#263238"/>
<path d="M52.489 97.9898C52.4058 98.053 52.3481 98.1441 52.3266 98.2464C52.3016 98.3602 52.323 98.4793 52.3858 98.5775C52.4487 98.6757 52.548 98.7449 52.662 98.77L55.675 99.4611C55.9426 99.5247 56.2196 99.5389 56.4924 99.503L78.6733 96.7541C79.2139 96.6863 79.7141 96.4327 80.0881 96.0367L82.9439 93.0155C83.0395 92.9178 83.0987 92.7902 83.1116 92.6542C83.1195 92.5734 83.1115 92.4918 83.0879 92.4141C83.0643 92.3364 83.0256 92.2642 82.974 92.2014C82.9224 92.1387 82.8589 92.0867 82.7872 92.0485C82.7155 92.0103 82.637 91.9866 82.5562 91.9787C77.2218 91.4551 70.478 90.9786 66.2388 91.497C60.6792 92.1882 55.1457 95.9425 52.489 97.9898Z" fill="#263238"/>
<g opacity="0.3">
<path d="M67.0719 100.533C67.038 100.521 67.007 100.502 66.9805 100.478C66.954 100.454 66.9326 100.424 66.9175 100.392C66.9024 100.359 66.8939 100.324 66.8925 100.288C66.8911 100.252 66.8969 100.216 66.9094 100.183C66.9393 100.096 66.9949 100.02 67.0689 99.966C67.1428 99.9118 67.2316 99.8813 67.3234 99.8789L69.9696 99.7637H70.0744C70.1431 99.7896 70.1991 99.8413 70.2304 99.9078C70.2617 99.9742 70.2659 100.05 70.2421 100.12C70.2083 100.205 70.151 100.279 70.0767 100.333C70.0025 100.386 69.9144 100.418 69.8229 100.423L67.1766 100.533C67.1419 100.538 67.1066 100.538 67.0719 100.533Z" fill="black"/>
</g>
<path d="M86.7428 92.9623C86.6323 93.0635 86.5655 93.2037 86.5567 93.3533C86.5479 93.5029 86.5977 93.65 86.6957 93.7634L87.3245 94.4441C87.3972 94.5214 87.4896 94.5775 87.5917 94.6064L95.2788 96.7323C95.4118 96.7701 95.5493 96.7895 95.6875 96.7899H97.2124C97.1341 96.7349 97.0517 96.6859 96.9661 96.6433L89.5515 92.7424C89.5054 92.7197 89.4645 92.6879 89.431 92.6491C89.3975 92.6102 89.3721 92.565 89.3565 92.5161C89.3408 92.4673 89.3352 92.4157 89.3399 92.3646C89.3446 92.3136 89.3595 92.2639 89.3838 92.2188L86.9839 92.8366C86.8957 92.8613 86.8136 92.9041 86.7428 92.9623Z" fill="#263238"/>
<path d="M49.78 98.1151L50.1992 98.2355C50.3594 98.2784 50.5274 98.2828 50.6896 98.2482C50.8517 98.2136 51.0033 98.1411 51.132 98.0365C53.5633 95.9787 57.7868 92.8266 62.3456 91.3605C62.3656 91.3523 62.3823 91.3375 62.3927 91.3186C62.3991 91.3092 62.4034 91.2985 62.4052 91.2873C62.4071 91.2762 62.4065 91.2647 62.4035 91.2537C62.4006 91.2428 62.3952 91.2326 62.3879 91.2239C62.3806 91.2152 62.3715 91.2082 62.3613 91.2034L61.7953 90.9102C55.2087 93.2036 49.78 98.1151 49.78 98.1151Z" fill="#263238"/>
<path opacity="0.2" d="M74.7014 100.889L52.5991 102.46L53.0131 105.183C53.1392 106.017 53.4488 106.813 53.9196 107.513L55.7693 110.273L74.6333 107.723L83.5413 100.879L74.7014 100.889Z" fill="white"/>
<path d="M88.5612 118.284C91.8661 118.284 94.5453 115.606 94.5453 112.304C94.5453 109.001 91.8661 106.324 88.5612 106.324C85.2563 106.324 82.5771 109.001 82.5771 112.304C82.5771 115.606 85.2563 118.284 88.5612 118.284Z" fill="#263238"/>
<path opacity="0.4" d="M88.5613 115.969C90.5871 115.969 92.2293 114.328 92.2293 112.304C92.2293 110.28 90.5871 108.639 88.5613 108.639C86.5355 108.639 84.8933 110.28 84.8933 112.304C84.8933 114.328 86.5355 115.969 88.5613 115.969Z" fill="white"/>
<g opacity="0.3">
<path d="M88.8547 109.305C88.8547 109.143 88.7233 109.012 88.5613 109.012C88.3992 109.012 88.2678 109.143 88.2678 109.305V111.185C88.2678 111.347 88.3992 111.478 88.5613 111.478C88.7233 111.478 88.8547 111.347 88.8547 111.185V109.305Z" fill="white"/>
</g>
<g opacity="0.3">
<path d="M88.8547 113.436C88.8547 113.274 88.7233 113.143 88.5613 113.143C88.3992 113.143 88.2678 113.274 88.2678 113.436V115.316C88.2678 115.478 88.3992 115.609 88.5613 115.609C88.7233 115.609 88.8547 115.478 88.8547 115.316V113.436Z" fill="white"/>
</g>
<g opacity="0.3">
<path d="M89.6826 112.001C89.6143 112.039 89.5338 112.049 89.4584 112.028C89.3829 112.008 89.3186 111.958 89.2791 111.891C89.241 111.823 89.2312 111.742 89.2517 111.667C89.2723 111.592 89.3216 111.527 89.3892 111.488L91.0188 110.545C91.0863 110.507 91.166 110.498 91.2406 110.518C91.3152 110.539 91.3786 110.588 91.417 110.655C91.4554 110.722 91.4658 110.801 91.4462 110.876C91.4266 110.95 91.3785 111.014 91.3122 111.053L89.6826 111.996V112.001Z" fill="white"/>
</g>
<g opacity="0.3">
<path d="M86.1036 114.059C86.0354 114.098 85.9548 114.107 85.8794 114.087C85.804 114.066 85.7396 114.017 85.7001 113.95C85.6623 113.882 85.6526 113.802 85.6732 113.728C85.6938 113.653 85.743 113.59 85.8102 113.552L87.4346 112.604C87.5025 112.567 87.5821 112.557 87.6571 112.576C87.7321 112.596 87.7968 112.643 87.8381 112.709C87.8766 112.776 87.8873 112.856 87.8677 112.931C87.8481 113.007 87.7999 113.071 87.7333 113.112L86.1036 114.059Z" fill="white"/>
</g>
<g opacity="0.3">
<path d="M91.0188 114.064L89.3892 113.121C89.3216 113.082 89.2723 113.018 89.2517 112.942C89.2312 112.867 89.241 112.786 89.2791 112.718C89.2986 112.685 89.3245 112.655 89.3554 112.632C89.3863 112.608 89.4215 112.591 89.459 112.582C89.4965 112.572 89.5356 112.57 89.574 112.575C89.6123 112.581 89.6493 112.594 89.6826 112.613L91.3122 113.556C91.3785 113.595 91.4266 113.659 91.4462 113.733C91.4658 113.808 91.4554 113.887 91.417 113.954C91.3985 113.988 91.3734 114.017 91.3432 114.041C91.313 114.065 91.2783 114.083 91.2412 114.093C91.204 114.103 91.1652 114.106 91.127 114.101C91.0888 114.096 91.052 114.083 91.0188 114.064Z" fill="white"/>
</g>
<g opacity="0.3">
<path d="M87.8381 111.892C87.8186 111.925 87.7926 111.954 87.7618 111.978C87.7309 112.001 87.6957 112.018 87.6582 112.028C87.6206 112.038 87.5816 112.04 87.5432 112.034C87.5048 112.029 87.4679 112.016 87.4346 111.996L85.8102 111.054C85.743 111.015 85.6938 110.952 85.6732 110.877C85.6526 110.803 85.6623 110.723 85.7001 110.656C85.7414 110.59 85.8061 110.543 85.8811 110.523C85.9561 110.504 86.0357 110.514 86.1036 110.551L87.7333 111.494C87.7989 111.535 87.8463 111.599 87.8657 111.674C87.8852 111.749 87.8753 111.829 87.8381 111.897V111.892Z" fill="white"/>
</g>
<path d="M88.0686 112.305C88.0686 112.174 88.1205 112.049 88.2129 111.957C88.3052 111.864 88.4305 111.813 88.5612 111.813C88.6587 111.812 88.7543 111.839 88.8362 111.892C88.9181 111.945 88.9826 112.021 89.0217 112.11C89.0608 112.2 89.0728 112.298 89.0563 112.395C89.0397 112.491 88.9952 112.58 88.9284 112.651C88.8616 112.722 88.7754 112.771 88.6805 112.794C88.5856 112.816 88.4862 112.811 88.3946 112.777C88.303 112.744 88.2233 112.684 88.1653 112.606C88.1074 112.527 88.0737 112.433 88.0686 112.336V112.305Z" fill="#263238"/>
<path d="M45.6037 118.289C48.9086 118.289 51.5878 115.612 51.5878 112.31C51.5878 109.007 48.9086 106.33 45.6037 106.33C42.2988 106.33 39.6196 109.007 39.6196 112.31C39.6196 115.612 42.2988 118.289 45.6037 118.289Z" fill="#263238"/>
<path opacity="0.4" d="M45.6038 115.975C47.6296 115.975 49.2718 114.334 49.2718 112.31C49.2718 110.286 47.6296 108.645 45.6038 108.645C43.578 108.645 41.9358 110.286 41.9358 112.31C41.9358 114.334 43.578 115.975 45.6038 115.975Z" fill="white"/>
<g opacity="0.3">
<path d="M45.8972 109.305C45.8972 109.143 45.7658 109.012 45.6037 109.012C45.4417 109.012 45.3103 109.143 45.3103 109.305V111.185C45.3103 111.347 45.4417 111.478 45.6037 111.478C45.7658 111.478 45.8972 111.347 45.8972 111.185V109.305Z" fill="white"/>
</g>
<g opacity="0.3">
<path d="M45.8972 113.436C45.8972 113.274 45.7658 113.143 45.6037 113.143C45.4417 113.143 45.3103 113.274 45.3103 113.436V115.316C45.3103 115.478 45.4417 115.609 45.6037 115.609C45.7658 115.609 45.8972 115.478 45.8972 115.316V113.436Z" fill="white"/>
</g>
<g opacity="0.3">
<path d="M46.725 112.001C46.6575 112.039 46.5778 112.048 46.5032 112.028C46.4286 112.007 46.3652 111.958 46.3267 111.891C46.2895 111.823 46.2796 111.744 46.2991 111.669C46.3185 111.594 46.3659 111.529 46.4315 111.488L48.0612 110.545C48.1287 110.507 48.2084 110.498 48.283 110.518C48.3575 110.539 48.421 110.588 48.4594 110.655C48.4973 110.723 48.507 110.802 48.4864 110.877C48.4658 110.951 48.4165 111.015 48.3494 111.053L46.725 111.996V112.001Z" fill="white"/>
</g>
<g opacity="0.3">
<path d="M42.7478 113.95C42.7281 113.917 42.7152 113.88 42.7099 113.842C42.7045 113.804 42.7068 113.766 42.7165 113.729C42.7263 113.691 42.7433 113.657 42.7667 113.626C42.7901 113.596 42.8193 113.571 42.8526 113.552L44.4823 112.604C44.5502 112.567 44.6298 112.557 44.7048 112.576C44.7798 112.596 44.8445 112.643 44.8857 112.709C44.9239 112.777 44.9337 112.857 44.9131 112.933C44.8925 113.008 44.8432 113.072 44.7757 113.112L43.1513 114.059C43.083 114.098 43.0025 114.107 42.9271 114.087C42.8516 114.066 42.7873 114.017 42.7478 113.95Z" fill="white"/>
</g>
<g opacity="0.3">
<path d="M48.4647 113.959C48.4234 114.024 48.3587 114.071 48.2837 114.091C48.2087 114.11 48.1291 114.1 48.0612 114.063L46.4315 113.1C46.3659 113.059 46.3185 112.994 46.2991 112.919C46.2796 112.844 46.2895 112.764 46.3267 112.697C46.3462 112.663 46.3722 112.634 46.403 112.61C46.4339 112.587 46.4691 112.57 46.5066 112.56C46.5442 112.55 46.5832 112.548 46.6216 112.554C46.66 112.559 46.6969 112.572 46.7302 112.592L48.3546 113.534C48.4218 113.573 48.471 113.636 48.4916 113.711C48.5122 113.785 48.5025 113.865 48.4647 113.932V113.959Z" fill="white"/>
</g>
<g opacity="0.3">
<path d="M44.8805 111.891C44.8621 111.925 44.8369 111.955 44.8066 111.979C44.7762 112.002 44.7413 112.02 44.704 112.03C44.6667 112.039 44.6278 112.042 44.5897 112.036C44.5515 112.03 44.515 112.016 44.4823 111.996L42.8526 111.054C42.7864 111.014 42.7383 110.951 42.7186 110.876C42.699 110.802 42.7095 110.722 42.7478 110.656C42.7873 110.588 42.8517 110.539 42.9271 110.518C43.0025 110.498 43.083 110.508 43.1513 110.546L44.7757 111.488C44.8432 111.528 44.8926 111.592 44.9131 111.667C44.9337 111.743 44.9239 111.823 44.8858 111.891H44.8805Z" fill="white"/>
</g>
<path d="M45.588 111.813C45.684 111.818 45.7764 111.851 45.8542 111.908C45.9319 111.964 45.9915 112.042 46.0259 112.132C46.0603 112.222 46.0679 112.32 46.0479 112.414C46.0279 112.508 45.981 112.594 45.913 112.662C45.845 112.73 45.7588 112.776 45.6647 112.796C45.5707 112.816 45.4729 112.809 45.383 112.774C45.2932 112.74 45.2153 112.681 45.1587 112.603C45.1021 112.525 45.0692 112.433 45.064 112.337C45.0602 112.267 45.0711 112.197 45.0961 112.132C45.1211 112.067 45.1596 112.008 45.209 111.958C45.2585 111.909 45.3178 111.87 45.383 111.845C45.4483 111.82 45.5182 111.809 45.588 111.813Z" fill="#263238"/>
<path opacity="0.3" d="M97.7942 101.025C97.8892 100.995 97.9684 100.929 98.0146 100.84C98.0607 100.752 98.07 100.649 98.0404 100.554C97.9723 99.2973 97.7051 98.1768 96.9348 97.4123C96.9082 97.3306 96.8552 97.2599 96.784 97.2116C96.7129 97.1632 96.6277 97.1399 96.5418 97.1453L91.983 97.5799C91.9027 97.5858 91.8268 97.619 91.7682 97.6741C91.7003 97.7444 91.6624 97.8383 91.6624 97.9359C91.6624 98.0336 91.7003 98.1275 91.7682 98.1977L93.0729 99.6063C93.1188 99.6539 93.1768 99.6883 93.2406 99.7058L97.6055 101.03C97.6678 101.045 97.7327 101.043 97.7942 101.025Z" fill="black"/>
<path d="M52.3266 98.2446C52.3016 98.3585 52.323 98.4776 52.3858 98.5758C52.4487 98.674 52.548 98.7432 52.662 98.7682L55.675 99.4594C55.9426 99.523 56.2196 99.5372 56.4924 99.5013L57.2993 99.4018L58.2635 94.2285C56.2422 95.3176 54.3144 96.5716 52.4995 97.9776C52.409 98.0404 52.3469 98.1364 52.3266 98.2446Z" fill="black"/>
<path d="M71.725 91.2871L69.9434 97.8427L72.4638 97.5286L73.4332 91.329C72.8358 91.3081 72.3118 91.2976 71.725 91.2871Z" fill="black"/>
<path d="M83.1169 92.6798C83.1316 92.5169 83.0815 92.3548 82.9776 92.2284C82.8737 92.1021 82.7242 92.0216 82.5615 92.0044C81.8488 91.9311 81.0943 91.863 80.3345 91.7949L80.0515 96.1043L80.0882 96.0676L82.944 93.0464C83.0412 92.9471 83.1021 92.818 83.1169 92.6798Z" fill="black"/>
<path d="M57.2102 98.4753C56.9225 98.4753 56.6466 98.3611 56.4432 98.1578C56.2398 97.9545 56.1255 97.6789 56.1255 97.3914C56.1279 97.1467 56.2131 96.9101 56.3672 96.7199C56.5214 96.5298 56.7354 96.3973 56.9744 96.3442L58.4258 96.0195L58.7664 98.4439L57.2364 98.4857L57.2102 98.4753Z" fill="#7895FF"/>
<path opacity="0.3" d="M58.3421 98.4498L58.7665 98.4341L58.4259 96.0098L58.012 96.104L58.3421 98.4498Z" fill="black"/>
<path opacity="0.6" d="M72.2543 97.1348C72.2543 97.1348 72.4587 100.329 72.2543 101.35C72.05 102.371 70.457 109.848 70.457 109.848" stroke="black" stroke-width="0.25" stroke-linecap="round" stroke-linejoin="round"/>
<path opacity="0.6" d="M52.3267 98.4395C52.3267 98.4395 52.7354 105.341 53.4637 106.644C54.1921 107.948 56.22 110.949 56.22 110.949" stroke="black" stroke-width="0.25" stroke-linecap="round" stroke-linejoin="round"/>
<path opacity="0.6" d="M50.5974 98.2715C50.5974 98.2715 45.5041 99.5282 44.0002 99.769C41.3802 100.283 38.7952 100.961 36.2607 101.801" stroke="black" stroke-width="0.25" stroke-linecap="round" stroke-linejoin="round"/>
<path d="M86.2922 73.1543H50.8489V76.6677H86.2922V73.1543Z" fill="#263238"/>
<path opacity="0.7" d="M86.2922 73.1543H50.8489V76.6677H86.2922V73.1543Z" fill="white"/>
<path d="M85.7212 127.719H54.1606V131.232H85.7212V127.719Z" fill="#263238"/>
<path opacity="0.7" d="M85.7212 127.719H54.1606V131.232H85.7212V127.719Z" fill="white"/>
<path d="M63.6555 134.998H54.1606V138.511H63.6555V134.998Z" fill="#263238"/>
<path opacity="0.7" d="M63.6555 134.998H54.1606V138.511H63.6555V134.998Z" fill="white"/>
<path d="M95.5357 148.863H40.6152V166.08H95.5357V148.863Z" fill="#7895FF"/>
<path opacity="0.3" d="M95.5356 148.863H90.3533V166.08H95.5356V148.863Z" fill="black"/>
<path d="M42.6484 127.06C43.4498 126.319 44.5072 125.917 45.5987 125.938C46.6903 125.959 47.7313 126.402 48.5033 127.174C49.2753 127.945 49.7184 128.985 49.7396 130.076C49.7607 131.167 49.3583 132.223 48.6168 133.024L46.2326 135.407C46.0734 135.566 45.8576 135.655 45.6326 135.655C45.4076 135.655 45.1918 135.566 45.0326 135.407L42.6484 132.998C41.8645 132.208 41.4246 131.141 41.4246 130.029C41.4246 128.917 41.8645 127.85 42.6484 127.06ZM45.6352 132.003C46.0229 132.003 46.4018 131.888 46.724 131.673C47.0463 131.458 47.2975 131.152 47.4458 130.794C47.5942 130.436 47.633 130.043 47.5574 129.663C47.4817 129.283 47.2951 128.934 47.021 128.66C46.7469 128.386 46.3977 128.2 46.0176 128.124C45.6374 128.049 45.2434 128.087 44.8853 128.236C44.5272 128.384 44.2211 128.635 44.0058 128.957C43.7904 129.279 43.6755 129.657 43.6755 130.045C43.6755 130.302 43.7262 130.556 43.8248 130.793C43.9233 131.031 44.0678 131.246 44.2498 131.428C44.4319 131.609 44.6479 131.753 44.8857 131.851C45.1234 131.949 45.3781 131.999 45.6352 131.998V132.003Z" fill="#263238"/>
<path opacity="0.7" d="M42.6484 127.06C43.4498 126.319 44.5072 125.917 45.5987 125.938C46.6903 125.959 47.7313 126.402 48.5033 127.174C49.2753 127.945 49.7184 128.985 49.7396 130.076C49.7607 131.167 49.3583 132.223 48.6168 133.024L46.2326 135.407C46.0734 135.566 45.8576 135.655 45.6326 135.655C45.4076 135.655 45.1918 135.566 45.0326 135.407L42.6484 132.998C41.8645 132.208 41.4246 131.141 41.4246 130.029C41.4246 128.917 41.8645 127.85 42.6484 127.06ZM45.6352 132.003C46.0229 132.003 46.4018 131.888 46.724 131.673C47.0463 131.458 47.2975 131.152 47.4458 130.794C47.5942 130.436 47.633 130.043 47.5574 129.663C47.4817 129.283 47.2951 128.934 47.021 128.66C46.7469 128.386 46.3977 128.2 46.0176 128.124C45.6374 128.049 45.2434 128.087 44.8853 128.236C44.5272 128.384 44.2211 128.635 44.0058 128.957C43.7904 129.279 43.6755 129.657 43.6755 130.045C43.6755 130.302 43.7262 130.556 43.8248 130.793C43.9233 131.031 44.0678 131.246 44.2498 131.428C44.4319 131.609 44.6479 131.753 44.8857 131.851C45.1234 131.949 45.3781 131.999 45.6352 131.998V132.003Z" fill="white"/>
<path d="M38.8808 102.104L36.2608 101.816L34.7517 102.434C34.5956 102.494 34.4561 102.591 34.3449 102.715C34.2337 102.84 34.1539 102.99 34.1124 103.152C34.0645 103.343 34.0927 103.546 34.191 103.717V103.759C34.2733 103.901 34.3958 104.016 34.5432 104.088C34.6905 104.161 34.856 104.189 35.0189 104.167L36.5333 103.958C36.6797 103.937 36.8184 103.879 36.9367 103.79L38.6817 102.466L38.8808 102.104Z" fill="white"/>
<path d="M205.539 71.9763C206.078 65.8665 201.559 60.4766 195.444 59.9378C189.33 59.3989 183.936 63.9151 183.397 70.025C182.858 76.1349 187.377 81.5247 193.491 82.0636C199.606 82.6024 205 78.0862 205.539 71.9763Z" fill="#7895FF"/>
<path d="M198.847 78.541L198.077 81.29L201.263 82.9865L201.651 79.4626L198.847 78.541Z" fill="#7895FF"/>
<path d="M203.511 61.1113C204.979 62.1792 206.16 63.5934 206.948 65.2278C207.736 66.8623 208.107 68.6662 208.028 70.4788" stroke="#7895FF" stroke-width="0.5" stroke-linecap="round" stroke-linejoin="round"/>
<path d="M207.848 72.127C207.858 72.6796 207.755 73.2283 207.546 73.7397" stroke="#7895FF" stroke-width="0.5" stroke-linecap="round" stroke-linejoin="round"/>
<path d="M194.278 75.689L188.682 71.9504L189.987 69.9973L193.739 72.5054L198.408 66.332L200.283 67.7458L194.278 75.689Z" fill="white"/>
<path d="M364.253 179.903L105.078 185.977V141.68H366.747L364.253 179.903Z" fill="#263238"/>
<path opacity="0.5" d="M364.253 179.903L105.078 185.977V141.68H366.747L364.253 179.903Z" fill="black"/>
<path d="M95.1113 153.046V175.509C95.1125 177.852 95.8646 180.132 97.2574 182.017C98.6501 183.902 100.61 185.291 102.851 185.981L104.68 186.536C105.809 186.886 106.987 187.05 108.169 187.023L120.274 186.74C118.987 182.238 118.751 177.501 119.581 172.894C120.412 168.286 122.289 163.93 125.067 160.159C127.845 156.389 131.451 153.305 135.607 151.144C139.764 148.983 144.361 147.803 149.045 147.694C153.729 147.585 158.376 148.55 162.629 150.515C166.882 152.48 170.628 155.392 173.579 159.029C176.53 162.666 178.607 166.93 179.652 171.494C180.697 176.058 180.681 180.801 179.606 185.358L302.746 182.431C302.545 180.993 302.449 179.542 302.458 178.09C302.699 170.104 306.052 162.528 311.803 156.976C317.553 151.425 325.247 148.337 333.242 148.372C341.238 148.407 348.904 151.561 354.606 157.162C360.308 162.764 363.595 170.369 363.766 178.357C363.766 178.954 363.714 179.546 363.714 180.132C363.882 180.071 364.046 180.001 364.206 179.923L368.398 178.043C370.43 177.124 372.153 175.638 373.361 173.765C374.569 171.892 375.211 169.71 375.21 167.482V121.708C375.211 119.596 374.633 117.524 373.541 115.716C372.448 113.908 370.882 112.433 369.011 111.45L337.456 94.8149C337.171 94.6642 336.936 94.4341 336.779 94.1525C336.622 93.8709 336.55 93.5498 336.573 93.2283C336.595 92.9067 336.71 92.5986 336.904 92.3411C337.098 92.0837 337.363 91.888 337.666 91.7779L341.538 90.3903C341.732 90.3257 341.899 90.1968 342.01 90.0249C342.122 89.853 342.171 89.6483 342.15 89.4446C342.129 89.2409 342.04 89.0503 341.896 88.9044C341.752 88.7584 341.563 88.6656 341.36 88.6415C326.321 86.547 267.816 78.897 237.084 82.6566C201.609 86.9921 167.612 117.739 167.612 117.739C141.48 116.765 117.098 125.86 106.608 130.415C104.933 131.146 103.429 132.219 102.193 133.566C100.958 134.912 100.018 136.502 99.4343 138.233L95.8449 148.857C95.3735 150.204 95.1257 151.619 95.1113 153.046Z" fill="#7895FF"/>
<path d="M302.804 182.409C302.626 181.059 302.537 179.698 302.537 178.335C302.537 177.644 302.537 176.958 302.605 176.272L280.34 167.172C279.038 166.64 277.631 166.411 276.227 166.502L198.759 171.581C197.492 171.659 196.255 172 195.127 172.581L180.398 180.121C180.293 181.87 180.042 183.608 179.648 185.315L302.804 182.409Z" fill="#263238"/>
<path d="M375.299 167.461V166.293L362.723 170.147C363.457 172.815 363.828 175.569 363.829 178.336C363.829 178.933 363.776 179.525 363.776 180.111C363.944 180.05 364.109 179.98 364.269 179.902L368.477 178.027C370.511 177.108 372.236 175.623 373.446 173.749C374.656 171.874 375.3 169.691 375.299 167.461Z" fill="#263238"/>
<path d="M98.6851 183.572C99.8854 184.68 101.317 185.506 102.877 185.991L104.711 186.546C105.839 186.896 107.015 187.061 108.196 187.033L120.3 186.751C119.863 185.221 119.547 183.659 119.357 182.08L98.6851 183.572Z" fill="#263238"/>
<path d="M333.227 144.82C328.471 144.819 323.77 145.828 319.434 147.781C315.098 149.734 311.228 152.586 308.079 156.148C304.931 159.709 302.577 163.9 301.173 168.44C299.77 172.981 299.348 177.768 299.938 182.484L302.846 182.41C302.645 180.972 302.549 179.522 302.558 178.07C302.799 170.083 306.152 162.507 311.902 156.956C317.653 151.404 325.346 148.317 333.342 148.352C341.338 148.386 349.004 151.541 354.705 157.142C360.407 162.743 363.694 170.349 363.866 178.337C363.866 178.934 363.818 179.525 363.818 180.112C363.986 180.051 364.151 179.981 364.311 179.902L366.732 178.808V178.337C366.719 169.453 363.182 160.936 356.896 154.655C350.609 148.373 342.086 144.838 333.196 144.826L333.227 144.82Z" fill="#263238"/>
<path d="M149.796 144.82C144.665 144.814 139.601 145.983 134.993 148.24C130.386 150.496 126.358 153.779 123.22 157.836C120.081 161.892 117.917 166.614 116.892 171.638C115.867 176.662 116.009 181.854 117.308 186.814L120.284 186.751C119.008 182.252 118.779 177.52 119.615 172.919C120.452 168.317 122.331 163.968 125.109 160.205C127.887 156.441 131.491 153.363 135.643 151.206C139.796 149.049 144.388 147.871 149.066 147.761C153.745 147.651 158.387 148.613 162.637 150.573C166.886 152.533 170.63 155.438 173.582 159.067C176.534 162.697 178.615 166.953 179.667 171.51C180.718 176.067 180.712 180.804 179.648 185.358L182.619 185.285C183.652 180.403 183.581 175.352 182.411 170.5C181.241 165.649 179.002 161.12 175.856 157.244C172.71 153.369 168.738 150.244 164.23 148.098C159.721 145.952 154.79 144.839 149.796 144.841V144.82Z" fill="#263238"/>
<path d="M178.988 119.042C178.62 119.365 178.368 119.799 178.27 120.278C178.134 120.809 178.201 121.372 178.459 121.857C178.717 122.341 179.147 122.712 179.664 122.896L192.465 126.482C193.593 126.807 194.776 126.896 195.939 126.744L290.872 115.005C293.254 114.673 295.427 113.468 296.967 111.622L309.417 97.1288C309.843 96.6297 310.104 96.0118 310.166 95.3589C310.334 93.7096 309.302 92.2173 307.85 92.034C285.119 89.0232 256.378 86.2743 238.231 88.4996C214.447 91.4004 190.495 109.266 178.988 119.042Z" fill="#7895FF"/>
<path opacity="0.8" d="M179.418 119.043C179.048 119.365 178.794 119.799 178.695 120.278C178.558 120.811 178.627 121.374 178.885 121.859C179.144 122.343 179.575 122.713 180.094 122.896L192.895 126.483C194.023 126.807 195.205 126.897 196.369 126.745L289.175 120.388C291.486 120.095 295.054 115.854 297.559 112.408L309.826 97.119C310.247 96.6173 310.508 96.0008 310.575 95.3492C310.743 93.6998 309.705 92.2075 308.259 92.0242C285.528 89.0135 256.786 86.2645 238.635 88.4899C214.871 91.4011 190.925 109.267 179.418 119.043Z" fill="white"/>
<g opacity="0.3">
<path d="M241.428 128.086C241.283 128.034 241.15 127.954 241.037 127.85C240.923 127.747 240.831 127.622 240.766 127.483C240.7 127.344 240.663 127.193 240.656 127.04C240.65 126.886 240.673 126.733 240.726 126.589C240.856 126.221 241.094 125.9 241.409 125.669C241.724 125.437 242.101 125.305 242.491 125.29L253.789 124.814C253.942 124.807 254.095 124.83 254.24 124.882C254.385 124.933 254.519 125.013 254.634 125.117C254.749 125.22 254.842 125.345 254.908 125.485C254.975 125.625 255.013 125.776 255.02 125.93C255.028 126.085 255.005 126.239 254.952 126.384C254.819 126.753 254.579 127.073 254.262 127.305C253.946 127.536 253.568 127.668 253.176 127.683L241.878 128.154C241.725 128.158 241.573 128.135 241.428 128.086Z" fill="black"/>
</g>
<path d="M325.446 95.7417C325.208 95.9525 325.014 96.2082 324.875 96.494C324.736 96.7798 324.655 97.0902 324.637 97.4074C324.618 97.7246 324.663 98.0423 324.767 98.3423C324.872 98.6423 325.035 98.9187 325.247 99.1557L327.924 102.067C328.234 102.392 328.625 102.629 329.056 102.753L361.874 111.848C362.445 112 363.034 112.078 363.624 112.078H370.143C369.805 111.851 369.455 111.641 369.095 111.45L337.456 94.7992C337.266 94.7051 337.096 94.5745 336.957 94.4148C336.817 94.2552 336.711 94.0696 336.643 93.8688C336.576 93.668 336.548 93.4558 336.563 93.2444C336.577 93.033 336.633 92.8265 336.728 92.6367L326.452 95.2129C326.079 95.3055 325.734 95.487 325.446 95.7417Z" fill="#7895FF"/>
<path d="M121.081 134.699L109.883 133.479L103.453 136.097C102.785 136.371 102.191 136.799 101.718 137.344C101.244 137.89 100.906 138.538 100.729 139.238C100.518 140.057 100.636 140.925 101.059 141.657L101.174 141.851C101.526 142.456 102.049 142.942 102.678 143.249C103.307 143.555 104.012 143.669 104.706 143.574L111.161 142.689C111.791 142.6 112.388 142.353 112.896 141.972L120.347 136.327L121.081 134.699Z" fill="white"/>
<path d="M167.602 117.738L169.383 118.262C170.065 118.458 170.785 118.482 171.479 118.334C172.173 118.185 172.819 117.867 173.36 117.408C183.741 108.638 201.782 95.1755 221.254 88.9027C221.297 88.8898 221.338 88.8683 221.373 88.8395C221.408 88.8107 221.437 88.7752 221.458 88.7351C221.482 88.6937 221.497 88.6479 221.503 88.6005C221.509 88.5531 221.505 88.5049 221.492 88.459C221.479 88.4131 221.457 88.3703 221.426 88.3332C221.396 88.296 221.359 88.2653 221.317 88.2429L218.896 87.002C190.81 96.7202 167.602 117.738 167.602 117.738Z" fill="#7895FF"/>
<path opacity="0.8" d="M167.602 117.738L169.383 118.262C170.065 118.458 170.785 118.482 171.479 118.334C172.173 118.185 172.819 117.867 173.36 117.408C183.741 108.638 201.782 95.1755 221.254 88.9027C221.297 88.8898 221.338 88.8683 221.373 88.8395C221.408 88.8107 221.437 88.7752 221.458 88.7351C221.482 88.6937 221.497 88.6479 221.503 88.6005C221.509 88.5531 221.505 88.5049 221.492 88.459C221.479 88.4131 221.457 88.3703 221.426 88.3332C221.396 88.296 221.359 88.2653 221.317 88.2429L218.896 87.002C190.81 96.7202 167.602 117.738 167.602 117.738Z" fill="white"/>
<path opacity="0.2" d="M274.021 129.589L179.648 136.333L181.425 147.962C181.972 151.522 183.294 154.918 185.297 157.911L193.183 169.687L273.733 158.806L311.812 129.578L274.021 129.589Z" fill="white"/>
<path d="M333.196 203.867C347.307 203.867 358.746 192.437 358.746 178.336C358.746 164.235 347.307 152.805 333.196 152.805C319.085 152.805 307.646 164.235 307.646 178.336C307.646 192.437 319.085 203.867 333.196 203.867Z" fill="#263238"/>
<path opacity="0.4" d="M333.196 193.987C341.846 193.987 348.858 186.98 348.858 178.336C348.858 169.693 341.846 162.686 333.196 162.686C324.546 162.686 317.534 169.693 317.534 178.336C317.534 186.98 324.546 193.987 333.196 193.987Z" fill="white"/>
<g opacity="0.3">
<path d="M333.201 164.262H333.196C332.504 164.262 331.943 164.822 331.943 165.513V173.535C331.943 174.226 332.504 174.786 333.196 174.786H333.201C333.893 174.786 334.453 174.226 334.453 173.535V165.513C334.453 164.822 333.893 164.262 333.201 164.262Z" fill="white"/>
</g>
<g opacity="0.3">
<path d="M333.201 181.896H333.196C332.504 181.896 331.943 182.457 331.943 183.148V191.17C331.943 191.861 332.504 192.421 333.196 192.421H333.201C333.893 192.421 334.453 191.861 334.453 191.17V183.148C334.453 182.457 333.893 181.896 333.201 181.896Z" fill="white"/>
</g>
<g opacity="0.3">
<path d="M337.98 177.021C337.838 177.103 337.68 177.156 337.517 177.177C337.354 177.198 337.188 177.187 337.029 177.144C336.87 177.1 336.721 177.026 336.592 176.925C336.462 176.824 336.353 176.698 336.272 176.555C336.19 176.413 336.136 176.256 336.115 176.093C336.093 175.93 336.104 175.764 336.147 175.606C336.19 175.447 336.264 175.298 336.364 175.168C336.465 175.038 336.59 174.93 336.733 174.848L343.681 170.816C343.97 170.649 344.313 170.603 344.635 170.688C344.957 170.774 345.233 170.984 345.4 171.272C345.564 171.56 345.607 171.902 345.521 172.223C345.435 172.543 345.226 172.817 344.939 172.984L337.98 177.016V177.021Z" fill="white"/>
</g>
<g opacity="0.3">
<path d="M322.7 185.809C322.413 185.973 322.071 186.018 321.751 185.931C321.431 185.845 321.158 185.635 320.992 185.348C320.827 185.06 320.783 184.719 320.869 184.399C320.956 184.079 321.166 183.806 321.453 183.641L328.402 179.609C328.689 179.443 329.031 179.398 329.352 179.484C329.673 179.569 329.948 179.778 330.115 180.065C330.281 180.353 330.326 180.695 330.241 181.017C330.155 181.339 329.946 181.614 329.659 181.782L322.706 185.814L322.7 185.809Z" fill="white"/>
</g>
<g opacity="0.3">
<path d="M343.686 185.839L336.738 181.808C336.45 181.64 336.24 181.366 336.153 181.044C336.067 180.722 336.112 180.379 336.277 180.09C336.445 179.802 336.72 179.592 337.042 179.507C337.364 179.421 337.707 179.467 337.996 179.635L344.944 183.666C345.231 183.834 345.44 184.108 345.526 184.428C345.613 184.748 345.569 185.09 345.405 185.379C345.323 185.522 345.213 185.647 345.082 185.748C344.951 185.848 344.801 185.922 344.641 185.965C344.482 186.008 344.315 186.019 344.151 185.997C343.988 185.976 343.83 185.922 343.686 185.839Z" fill="white"/>
</g>
<g opacity="0.3">
<path d="M330.12 176.562C329.953 176.848 329.68 177.057 329.36 177.142C329.04 177.227 328.699 177.183 328.412 177.017L321.463 172.985C321.177 172.818 320.968 172.544 320.882 172.223C320.797 171.902 320.842 171.561 321.008 171.273C321.174 170.987 321.447 170.778 321.767 170.693C322.088 170.607 322.429 170.652 322.716 170.818L329.669 174.849C329.956 175.016 330.165 175.289 330.25 175.609C330.336 175.929 330.291 176.269 330.125 176.556L330.12 176.562Z" fill="white"/>
</g>
<path d="M331.095 178.331C331.095 177.775 331.316 177.243 331.709 176.85C332.102 176.457 332.635 176.236 333.191 176.236C333.605 176.236 334.011 176.359 334.355 176.589C334.7 176.819 334.969 177.147 335.127 177.529C335.286 177.912 335.327 178.333 335.246 178.739C335.166 179.146 334.966 179.519 334.673 179.812C334.38 180.105 334.006 180.304 333.6 180.385C333.193 180.466 332.772 180.424 332.389 180.266C332.006 180.107 331.678 179.839 331.448 179.494C331.218 179.15 331.095 178.745 331.095 178.331Z" fill="#263238"/>
<path d="M149.796 203.873C163.907 203.873 175.346 192.442 175.346 178.342C175.346 164.241 163.907 152.811 149.796 152.811C135.685 152.811 124.246 164.241 124.246 178.342C124.246 192.442 135.685 203.873 149.796 203.873Z" fill="#263238"/>
<path opacity="0.4" d="M149.796 193.993C158.446 193.993 165.458 186.986 165.458 178.342C165.458 169.699 158.446 162.691 149.796 162.691C141.146 162.691 134.134 169.699 134.134 178.342C134.134 186.986 141.146 193.993 149.796 193.993Z" fill="white"/>
<g opacity="0.3">
<path d="M149.796 164.262H149.791C149.099 164.262 148.538 164.822 148.538 165.513V173.535C148.538 174.226 149.099 174.786 149.791 174.786H149.796C150.488 174.786 151.048 174.226 151.048 173.535V165.513C151.048 164.822 150.488 164.262 149.796 164.262Z" fill="white"/>
</g>
<g opacity="0.3">
<path d="M149.796 181.896H149.791C149.099 181.896 148.538 182.457 148.538 183.148V191.17C148.538 191.861 149.099 192.421 149.791 192.421H149.796C150.488 192.421 151.048 191.861 151.048 191.17V183.148C151.048 182.457 150.488 181.896 149.796 181.896Z" fill="white"/>
</g>
<g opacity="0.3">
<path d="M154.58 177.026C154.438 177.107 154.282 177.158 154.12 177.178C153.958 177.197 153.793 177.185 153.636 177.141C153.479 177.097 153.332 177.023 153.204 176.923C153.075 176.822 152.968 176.697 152.888 176.555C152.804 176.414 152.749 176.257 152.727 176.095C152.704 175.932 152.714 175.766 152.756 175.608C152.798 175.449 152.871 175.3 152.971 175.17C153.071 175.039 153.196 174.93 153.338 174.848L160.292 170.816C160.58 170.653 160.921 170.609 161.241 170.696C161.561 170.782 161.833 170.991 162 171.277C162.165 171.565 162.209 171.906 162.123 172.226C162.036 172.546 161.826 172.819 161.539 172.984L154.58 177.016V177.026Z" fill="white"/>
</g>
<g opacity="0.3">
<path d="M137.587 185.358C137.422 185.07 137.377 184.729 137.464 184.409C137.55 184.089 137.76 183.816 138.048 183.651L144.996 179.619C145.284 179.452 145.627 179.406 145.95 179.491C146.272 179.577 146.547 179.786 146.715 180.075C146.88 180.364 146.925 180.707 146.838 181.028C146.752 181.35 146.542 181.625 146.254 181.792L139.305 185.824C139.015 185.987 138.672 186.03 138.35 185.943C138.029 185.856 137.754 185.646 137.587 185.358Z" fill="white"/>
</g>
<g opacity="0.3">
<path d="M161.995 185.383C161.828 185.67 161.555 185.878 161.235 185.964C160.914 186.049 160.573 186.004 160.286 185.839L153.333 181.807C153.045 181.639 152.837 181.363 152.752 181.041C152.668 180.719 152.714 180.377 152.882 180.09C153.049 179.803 153.322 179.594 153.642 179.509C153.962 179.424 154.303 179.469 154.59 179.634L161.539 183.666C161.825 183.832 162.034 184.105 162.12 184.425C162.205 184.745 162.16 185.086 161.995 185.373V185.383Z" fill="white"/>
</g>
<g opacity="0.3">
<path d="M146.72 176.571C146.552 176.857 146.277 177.064 145.956 177.148C145.634 177.231 145.293 177.184 145.007 177.016L138.058 172.984C137.915 172.902 137.79 172.793 137.689 172.662C137.589 172.532 137.515 172.383 137.472 172.224C137.429 172.065 137.418 171.899 137.44 171.735C137.461 171.572 137.515 171.414 137.597 171.272C137.765 170.984 138.04 170.774 138.362 170.688C138.685 170.603 139.028 170.649 139.316 170.816L146.264 174.848C146.551 175.014 146.76 175.288 146.845 175.607C146.931 175.927 146.886 176.268 146.72 176.555V176.571Z" fill="white"/>
</g>
<path d="M149.796 176.236C150.211 176.236 150.616 176.359 150.96 176.589C151.305 176.819 151.574 177.147 151.732 177.529C151.891 177.912 151.933 178.333 151.852 178.739C151.771 179.146 151.571 179.519 151.278 179.812C150.985 180.105 150.611 180.304 150.205 180.385C149.798 180.466 149.377 180.424 148.994 180.266C148.611 180.107 148.284 179.839 148.053 179.494C147.823 179.15 147.7 178.745 147.7 178.331C147.7 177.775 147.921 177.243 148.314 176.85C148.707 176.457 149.24 176.236 149.796 176.236Z" fill="#263238"/>
<path opacity="0.3" d="M372.622 130.174C373.028 130.045 373.367 129.76 373.563 129.382C373.76 129.004 373.798 128.564 373.67 128.158C373.376 122.78 372.234 117.994 368.954 114.706C368.848 114.355 368.625 114.05 368.322 113.843C368.019 113.636 367.654 113.54 367.288 113.57L347.816 115.408C347.518 115.436 347.233 115.546 346.994 115.726C346.755 115.906 346.571 116.149 346.462 116.428C346.354 116.706 346.325 117.01 346.378 117.304C346.432 117.598 346.567 117.872 346.768 118.094L352.354 124.094C352.548 124.303 352.794 124.457 353.066 124.539L371.705 130.184C372.005 130.27 372.324 130.266 372.622 130.174Z" fill="black"/>
<path d="M178.27 120.268C178.135 120.8 178.203 121.362 178.461 121.846C178.718 122.331 179.147 122.701 179.664 122.886L192.471 126.473C193.626 126.826 194.821 127.03 196.028 127.08L200.058 126.813L196.254 106.293C187.477 112.053 186.874 112.32 178.988 119.027C178.618 119.35 178.366 119.787 178.27 120.268Z" fill="#263238"/>
<path d="M261.67 87.8359L253.616 122.881L264.138 122.127L268.943 88.1658C266.487 88.0332 264.063 87.9232 261.67 87.8359Z" fill="#263238"/>
<path d="M295.054 115.57L309.831 97.1285C310.266 96.6234 310.533 95.9959 310.596 95.3325C310.758 93.6831 309.721 92.1908 308.275 92.0181C305.246 91.6044 302.023 91.2117 298.801 90.8242" fill="#263238"/>
<path d="M189.913 123.834C189.305 123.84 188.701 123.728 188.137 123.501C187.572 123.275 187.058 122.94 186.623 122.515C186.188 122.09 185.841 121.584 185.601 121.025C185.362 120.466 185.236 119.865 185.229 119.257C185.216 118.202 185.564 117.174 186.216 116.343C186.868 115.513 187.784 114.93 188.813 114.691L194.986 113.246L196.558 123.582L190.039 123.828L189.913 123.834Z" fill="#7895FF"/>
<path opacity="0.3" d="M194.745 123.65L196.552 123.577L194.986 113.246L193.22 113.66L194.745 123.65Z" fill="black"/>
<path opacity="0.6" d="M263.928 122.133C264.007 125.761 263.965 129.605 263.572 131.558C262.702 135.92 255.896 167.823 255.896 167.823" stroke="black" stroke-width="0.5" stroke-linecap="round" stroke-linejoin="round"/>
<path opacity="0.6" d="M178.212 121.039C178.212 121.039 180.246 148.628 183.342 154.21C186.361 159.65 195.117 172.583 195.117 172.583" stroke="black" stroke-width="0.5" stroke-linecap="round" stroke-linejoin="round"/>
<path opacity="0.6" d="M171.107 118.414C171.107 118.414 149.34 123.786 142.947 124.813C137.707 125.656 116.318 130.85 109.883 133.478" stroke="black" stroke-width="0.5" stroke-linecap="round" stroke-linejoin="round"/>
<path opacity="0.8" d="M325.446 95.7417C325.208 95.9525 325.014 96.2082 324.875 96.494C324.736 96.7798 324.655 97.0902 324.637 97.4074C324.618 97.7246 324.663 98.0423 324.767 98.3423C324.872 98.6423 325.035 98.9187 325.247 99.1557L327.924 102.067C328.234 102.392 328.625 102.629 329.056 102.753L361.874 111.848C362.445 112 363.034 112.078 363.624 112.078H370.143C369.805 111.851 369.455 111.641 369.095 111.45L337.456 94.7992C337.266 94.7051 337.096 94.5745 336.957 94.4148C336.817 94.2552 336.711 94.0696 336.643 93.8688C336.576 93.668 336.548 93.4558 336.563 93.2444C336.577 93.033 336.633 92.8265 336.728 92.6367L326.452 95.2129C326.079 95.3055 325.734 95.487 325.446 95.7417Z" fill="white"/>
<path d="M216.752 109.624C216.752 109.624 220.672 123.406 222.579 123.893C226.027 124.778 237.691 122.778 237.461 122.395L236.502 117.541C236.502 117.541 224.597 116.683 224.35 116.782L220.572 108.143L216.752 109.624Z" fill="#E1715B"/>
<path d="M220.604 110.581C220.604 110.581 221.793 109.471 221.825 108.131C221.856 106.79 222.239 105.727 222.197 104.727C222.155 103.727 221.317 104.79 220.987 105.444C220.656 106.099 220.274 106.832 219.818 106.492C219.362 106.151 217.408 101.779 216.726 101.407C216.045 101.036 216.145 101.831 216.145 101.831C216.145 101.831 215.621 100.784 215.17 100.868C215.05 100.868 214.798 101.14 214.955 101.653C215.306 102.811 216.166 105.204 216.166 105.204C216.119 105.062 214.845 102.188 214.594 101.784C214.274 101.261 213.85 101.167 213.546 101.365C213.121 101.643 214.594 105.261 214.526 105.455C214.526 105.455 213.761 103.36 213.106 103.245C212.451 103.13 212.865 104.502 213.451 105.628C213.975 106.675 214.782 108.827 215.432 109.817C216.234 111.047 217.051 111.691 218.408 111.482C219.205 111.373 219.961 111.063 220.604 110.581Z" fill="#E1715B"/>
<path opacity="0.3" d="M216.234 101.969C216.615 102.82 216.964 103.693 217.282 104.587" stroke="black" stroke-width="0.25" stroke-linecap="round" stroke-linejoin="round"/>
<path opacity="0.3" d="M214.798 106.293C215.738 105.524 216.881 105.046 218.089 104.916" stroke="black" stroke-width="0.25" stroke-linecap="round" stroke-linejoin="round"/>
<path opacity="0.3" d="M219.519 107.031C219.095 107.3 218.779 107.711 218.628 108.19C218.478 108.669 218.502 109.186 218.696 109.649" stroke="black" stroke-width="0.25" stroke-linecap="round" stroke-linejoin="round"/>
<path d="M247.49 105.047C247.49 105.047 251.855 101.381 251.682 100.13C251.509 98.8784 250.791 99.2816 250.791 99.2816C250.791 99.2816 252.306 96.3075 250.818 95.7995C249.33 95.2916 249.246 95.7995 249.246 95.7995C249.246 95.7995 249.838 93.3752 248.654 92.6579C247.721 92.0714 247.328 93.2024 247.328 93.2024C247.328 93.2024 245.614 90.5477 243.566 90.5844C242.554 90.6577 242.051 91.3122 242.198 92.0924C242.195 92.1255 242.195 92.1588 242.198 92.1919C242.198 92.1919 238.058 90.3906 236.135 91.5216C234.212 92.6526 236.722 93.8936 236.722 93.8936C236.722 93.8936 232.687 93.4747 231.901 95.0979C231.272 96.3808 233.065 97.2499 233.065 97.2499C232.632 97.4117 232.232 97.6513 231.886 97.9568C231.645 98.1642 231.473 98.4395 231.393 98.7464C231.312 99.0533 231.326 99.3774 231.433 99.6761C231.54 99.9749 231.736 100.234 231.993 100.42C232.251 100.605 232.558 100.709 232.876 100.716H232.913C233.127 100.716 233.51 100.769 233.667 100.617C233.667 100.617 232.97 102.078 234.464 102.549C235.957 103.02 236.67 101.287 236.67 101.287L247.49 105.047Z" fill="#263238"/>
<path d="M246.117 114.529C246.117 114.529 245.876 112.435 247.37 107.319C247.37 107.319 247.103 107.193 247.103 107.188C247.307 106.476 247.527 105.816 247.737 105.24L240.725 109.544C240.888 111.178 240.291 114.335 239.939 115.671L241.752 118.739L246.117 114.529Z" fill="#E1715B"/>
<path opacity="0.2" d="M240.605 111.823L244.635 110.928C244.268 112.174 243.152 113.656 240.354 113.771C240.49 113.13 240.574 112.478 240.605 111.823Z" fill="black"/>
<path d="M235.926 97.4333C235.098 99.046 234.799 102.601 237.377 101.868C239.955 101.135 237.372 94.6529 235.926 97.4333Z" fill="#263238"/>
<path d="M247.8 101.828C247.317 106.258 247.134 108.766 244.776 110.923C241.234 114.159 235.957 111.923 235.103 107.425C234.333 103.372 235.25 96.8063 239.698 95.2826C240.683 94.9457 241.737 94.864 242.762 95.0451C243.787 95.2262 244.75 95.6642 245.559 96.3182C246.368 96.9722 246.999 97.8206 247.39 98.7842C247.782 99.7478 247.923 100.795 247.8 101.828Z" fill="#E1715B"/>
<path d="M241.375 102.805C241.375 103.261 241.098 103.617 240.799 103.601C240.5 103.585 240.275 103.198 240.275 102.748C240.275 102.297 240.558 101.936 240.851 101.952C241.145 101.967 241.396 102.35 241.375 102.805Z" fill="#263238"/>
<path d="M236.906 102.686C236.906 103.142 236.628 103.498 236.329 103.477C236.031 103.456 235.805 103.079 235.832 102.623C235.858 102.168 236.109 101.817 236.408 101.833C236.707 101.848 236.927 102.23 236.906 102.686Z" fill="#263238"/>
<path d="M238.373 102.502C238.373 102.502 236.801 104.696 236.319 105.591C236.927 106.193 238.027 105.984 238.027 105.984L238.373 102.502Z" fill="#FD504E"/>
<path d="M242.476 100.367C242.44 100.377 242.402 100.377 242.366 100.366C242.329 100.356 242.297 100.336 242.271 100.309C242.087 100.115 241.859 99.9673 241.607 99.8764C241.355 99.7855 241.086 99.7544 240.82 99.7854C240.764 99.7962 240.707 99.7846 240.66 99.7533C240.613 99.7219 240.58 99.6732 240.568 99.6178C240.562 99.5903 240.562 99.5618 240.567 99.534C240.572 99.5063 240.583 99.4799 240.599 99.4565C240.614 99.433 240.635 99.4129 240.658 99.3975C240.682 99.382 240.708 99.3715 240.736 99.3665C241.073 99.324 241.416 99.3621 241.736 99.4777C242.056 99.5933 242.343 99.7831 242.575 100.031C242.614 100.071 242.636 100.125 242.636 100.181C242.636 100.236 242.614 100.29 242.575 100.33C242.546 100.35 242.512 100.363 242.476 100.367Z" fill="#263238"/>
<path d="M235.009 100.634C234.969 100.619 234.935 100.594 234.909 100.561C234.891 100.54 234.877 100.515 234.868 100.488C234.86 100.462 234.857 100.434 234.859 100.406C234.862 100.378 234.87 100.351 234.883 100.327C234.896 100.302 234.914 100.28 234.935 100.262C235.192 100.043 235.498 99.8887 235.828 99.813C236.157 99.7373 236.5 99.7424 236.827 99.8277C236.854 99.8366 236.879 99.8507 236.9 99.8692C236.921 99.8877 236.939 99.9102 236.952 99.9355C236.964 99.9608 236.972 99.9884 236.974 100.017C236.976 100.045 236.972 100.073 236.963 100.1C236.955 100.127 236.941 100.151 236.923 100.173C236.905 100.194 236.883 100.212 236.858 100.224C236.833 100.237 236.806 100.245 236.778 100.247C236.75 100.249 236.722 100.245 236.696 100.236C236.437 100.17 236.166 100.168 235.907 100.231C235.647 100.294 235.407 100.42 235.208 100.597C235.179 100.618 235.147 100.632 235.112 100.639C235.078 100.645 235.042 100.644 235.009 100.634Z" fill="#263238"/>
<path d="M238.63 107.231C239.347 107.006 240.663 106.53 241.302 105.859C241.386 106.014 241.448 106.18 241.485 106.352C241.559 106.653 241.559 106.967 241.485 107.268C241.328 107.881 240.788 108.546 239.347 108.943H239.316C239.316 108.943 238.535 109.142 238.142 107.373C238.137 107.378 238.331 107.341 238.63 107.231Z" fill="#263238"/>
<path d="M238.629 107.231L238.907 107.713C240.264 107.331 241.171 106.88 241.485 106.352C241.448 106.18 241.386 106.014 241.302 105.859C240.663 106.53 239.347 107.006 238.629 107.231Z" fill="white"/>
<path d="M239.353 108.943C240.794 108.545 241.333 107.896 241.49 107.268C240.944 107.429 240.432 107.686 239.976 108.027C239.679 108.261 239.461 108.581 239.353 108.943Z" fill="#FB504E"/>
<path d="M246.469 105.246C246.066 105.071 245.721 104.786 245.473 104.424C245.308 104.049 245.257 103.634 245.326 103.23C245.362 102.81 245.422 102.392 245.505 101.979C245.112 102.178 244.629 101.864 244.415 101.455C244.143 100.848 244.053 100.175 244.158 99.5177C243.906 99.5762 243.644 99.5668 243.397 99.4904C243.15 99.4141 242.928 99.2735 242.754 99.0831C242.59 98.8829 242.5 98.6323 242.5 98.3736C242.5 98.115 242.59 97.8643 242.754 97.6641C241.111 97.8842 239.441 97.7792 237.838 97.3552C237.948 97.5594 237.838 97.8107 237.676 97.994C237.096 98.7437 236.261 99.2543 235.328 99.4287C235.263 99.4516 235.192 99.4554 235.124 99.4397C235.057 99.4239 234.995 99.3892 234.946 99.3397C234.914 99.2748 234.903 99.2016 234.915 99.1302C234.96 98.6803 235.095 98.2439 235.31 97.8458C235.524 97.4478 235.816 97.096 236.167 96.8106C236.871 96.2458 237.667 95.8049 238.52 95.5068C239.908 94.9412 241.375 94.5881 242.869 94.4596C244.37 94.3359 245.878 94.5972 247.249 95.2189C247.552 95.3439 247.822 95.5354 248.041 95.7791C248.226 96.0298 248.359 96.3145 248.434 96.6169C248.984 98.4303 249.194 100.33 249.052 102.22" fill="#263238"/>
<path d="M249.382 105.612C249.188 106.13 248.893 106.605 248.515 107.008C248.136 107.412 247.681 107.736 247.176 107.963C245.819 108.56 244.918 107.392 245.112 105.994C245.285 104.743 246.196 102.921 247.648 102.91C249.099 102.9 249.854 104.324 249.382 105.612Z" fill="#E1715B"/>
<path opacity="0.2" d="M248.429 104.335C248.336 104.203 248.206 104.102 248.056 104.044C247.906 103.987 247.742 103.975 247.585 104.01C247.269 104.087 246.991 104.272 246.799 104.534C246.556 104.837 246.396 105.198 246.333 105.581" stroke="black" stroke-width="0.5" stroke-linecap="round" stroke-linejoin="round"/>
<path d="M239.61 121.761C239.61 121.761 226.578 125.567 221.846 125.73C217.114 125.892 206.65 123.693 206.65 123.693L207.242 118.886L222.616 119.672L239.332 114.09L239.61 121.761Z" fill="#E1715B"/>
<path d="M234.951 124.699L237.514 114.111L244.022 112.98C244.31 112.938 249.592 112.504 251.179 118.3L251.531 122.903L234.951 124.699Z" fill="#263238"/>
<path d="M241.082 123.64C240.72 123.64 230.602 125.488 230.602 125.488L228.506 117.247C231.453 116.033 234.465 114.984 237.529 114.105C242.35 112.806 246.867 112.403 247.904 114.629C249.859 118.912 241.082 123.64 241.082 123.64Z" fill="#263238"/>
<path opacity="0.3" d="M220.08 119.618L222.611 119.749L229.187 117.498C229.535 117.361 229.874 117.203 230.204 117.027C229.853 117.147 227.133 116.864 226.95 116.89C226.766 116.917 220.08 119.618 220.08 119.618Z" fill="black"/>
<path d="M202.186 116.697C201.887 116.875 198.402 120.478 198.402 120.478L199.084 124.939L203.464 120.415L202.186 116.697Z" fill="#263238"/>
<path d="M207.431 126.001C207.058 126.183 206.63 126.211 206.237 126.079C205.845 125.946 205.52 125.664 205.335 125.294L198.381 111.225C198.199 110.853 198.171 110.425 198.304 110.032C198.436 109.64 198.718 109.316 199.089 109.131C199.461 108.949 199.89 108.921 200.282 109.053C200.674 109.186 200.999 109.467 201.185 109.837L208.138 123.912C208.318 124.283 208.345 124.711 208.213 125.102C208.081 125.493 207.8 125.816 207.431 126.001Z" fill="#263238"/>
<path d="M212.435 119.268L206.713 118.504L205.062 116.504C205.062 116.504 202.154 116.242 201.53 116.76C200.907 117.279 200.278 118.928 200.278 118.928C200.278 118.928 199.518 120.279 200.802 120.991C200.802 120.991 199.979 122.195 201.446 123.044C201.446 123.044 200.367 123.651 201.913 124.29C202.507 124.527 203.143 124.642 203.783 124.63C204.423 124.617 205.054 124.476 205.638 124.216C206.495 124.007 207.38 123.939 208.258 124.017L213.462 124.939L212.435 119.268Z" fill="#E1715B"/>
</svg>
