<svg width="296" height="221" viewBox="0 0 296 221" fill="none" xmlns="http://www.w3.org/2000/svg">
<g clip-path="url(#clip0_113_4525)">
<path d="M276 194.215H-20V194.364H276V194.215Z" fill="#EBEBEB"/>
<path d="M120.304 167.762H5.99476C5.09927 167.761 4.24099 167.403 3.60834 166.768C2.97569 166.133 2.62036 165.273 2.62036 164.375V3.38668C2.62036 2.4895 2.97569 1.62898 3.60834 0.99403C4.24099 0.359075 5.09927 0.00157124 5.99476 0L120.304 0C121.201 0 122.06 0.35681 122.694 0.991935C123.328 1.62706 123.684 2.48848 123.684 3.38668V164.375C123.684 164.82 123.597 165.261 123.427 165.672C123.257 166.082 123.008 166.456 122.694 166.77C122.38 167.085 122.008 167.334 121.598 167.504C121.188 167.675 120.748 167.762 120.304 167.762ZM5.99476 0.148278C5.13852 0.14985 4.31789 0.491731 3.71299 1.09888C3.10809 1.70603 2.76836 2.52883 2.76836 3.38668V164.375C2.76836 165.233 3.10809 166.056 3.71299 166.663C4.31789 167.27 5.13852 167.612 5.99476 167.614H120.304C121.161 167.612 121.982 167.271 122.588 166.664C123.194 166.057 123.535 165.234 123.536 164.375V3.38668C123.535 2.52828 123.194 1.70549 122.588 1.09852C121.982 0.491537 121.161 0.149846 120.304 0.148278H5.99476Z" fill="#EBEBEB"/>
<path d="M248.36 167.762H134.044C133.148 167.761 132.289 167.403 131.656 166.768C131.022 166.134 130.666 165.273 130.664 164.375V3.38668C130.666 2.48896 131.022 1.62845 131.656 0.993667C132.289 0.358881 133.148 0.00156808 134.044 0L248.36 0C249.254 0.00313888 250.111 0.361334 250.742 0.996119C251.374 1.6309 251.728 2.49053 251.728 3.38668V164.375C251.728 165.272 251.374 166.131 250.742 166.766C250.111 167.401 249.254 167.759 248.36 167.762ZM134.044 0.148278C133.188 0.149846 132.366 0.491537 131.761 1.09852C131.155 1.70549 130.814 2.52828 130.812 3.38668V164.375C130.814 165.234 131.155 166.057 131.761 166.664C132.366 167.271 133.188 167.612 134.044 167.614H248.36C249.216 167.612 250.038 167.271 250.643 166.664C251.249 166.057 251.59 165.234 251.592 164.375V3.38668C251.59 2.52828 251.249 1.70549 250.643 1.09852C250.038 0.491537 249.216 0.149846 248.36 0.148278H134.044Z" fill="#EBEBEB"/>
<path d="M246.341 203.758H230.949V203.907H246.341V203.758Z" fill="#EBEBEB"/>
<path d="M190.77 205.371H164.112V205.52H190.77V205.371Z" fill="#EBEBEB"/>
<path d="M230.357 198.254H194.369V198.403H230.357V198.254Z" fill="#EBEBEB"/>
<path d="M22.4406 199.25H11.0564V199.399H22.4406V199.25Z" fill="#EBEBEB"/>
<path d="M60.4468 199.25H27.7151V199.399H60.4468V199.25Z" fill="#EBEBEB"/>
<path d="M124.531 201.754H80.4446V201.903H124.531V201.754Z" fill="#EBEBEB"/>
<path d="M19.9244 150.691H7.37402V194.214H19.9244V150.691Z" fill="#FAFAFA"/>
<path d="M30.912 160.242H18.3616V194.216H30.912V160.242Z" fill="#FAFAFA"/>
<path d="M38.9396 132.24H26.3892V194.209H38.9396V132.24Z" fill="#FAFAFA"/>
<path d="M47.2809 81.998H34.7305V194.215H47.2809V81.998Z" fill="#FAFAFA"/>
<path d="M78.3254 90.7344H44.6465V194.215H78.3254V90.7344Z" fill="#FAFAFA"/>
<path d="M209.27 194.209H223.608V164.423H209.27V194.209Z" fill="#FAFAFA"/>
<path d="M196.707 194.215H211.046V170.965H196.707V194.215Z" fill="#FAFAFA"/>
<path d="M187.543 194.209H201.882V151.795H187.543V194.209Z" fill="#FAFAFA"/>
<path d="M178.012 194.209H192.35V117.407H178.012V194.209Z" fill="#FAFAFA"/>
<path d="M185.72 100.391H141.717V194.215H185.72V100.391Z" fill="#F0F0F0"/>
<path d="M181.529 104.322H179.433V115.74H181.529V104.322Z" fill="#F5F5F5"/>
<path d="M181.529 122.176H179.433V133.593H181.529V122.176Z" fill="#F5F5F5"/>
<path d="M181.529 140.033H179.433V151.451H181.529V140.033Z" fill="#F5F5F5"/>
<path d="M181.529 157.887H179.433V169.304H181.529V157.887Z" fill="#F5F5F5"/>
<path d="M181.529 175.74H179.433V187.158H181.529V175.74Z" fill="#F5F5F5"/>
<path d="M174.105 104.322H172.009V115.74H174.105V104.322Z" fill="#F5F5F5"/>
<path d="M174.105 122.176H172.009V133.593H174.105V122.176Z" fill="#F5F5F5"/>
<path d="M174.105 140.033H172.009V151.451H174.105V140.033Z" fill="#F5F5F5"/>
<path d="M174.105 157.887H172.009V169.304H174.105V157.887Z" fill="#F5F5F5"/>
<path d="M174.105 175.74H172.009V187.158H174.105V175.74Z" fill="#F5F5F5"/>
<path d="M166.681 104.322H164.586V115.74H166.681V104.322Z" fill="#F5F5F5"/>
<path d="M166.681 122.176H164.586V133.593H166.681V122.176Z" fill="#F5F5F5"/>
<path d="M166.681 140.033H164.586V151.451H166.681V140.033Z" fill="#F5F5F5"/>
<path d="M166.681 157.887H164.586V169.304H166.681V157.887Z" fill="#F5F5F5"/>
<path d="M166.681 175.74H164.586V187.158H166.681V175.74Z" fill="#F5F5F5"/>
<path d="M159.258 104.322H157.162V115.74H159.258V104.322Z" fill="#F5F5F5"/>
<path d="M159.258 122.176H157.162V133.593H159.258V122.176Z" fill="#F5F5F5"/>
<path d="M159.258 140.033H157.162V151.451H159.258V140.033Z" fill="#F5F5F5"/>
<path d="M159.258 157.887H157.162V169.304H159.258V157.887Z" fill="#F5F5F5"/>
<path d="M159.258 175.74H157.162V187.158H159.258V175.74Z" fill="#F5F5F5"/>
<path d="M151.828 104.322H149.732V115.74H151.828V104.322Z" fill="#F5F5F5"/>
<path d="M151.828 122.176H149.732V133.593H151.828V122.176Z" fill="#F5F5F5"/>
<path d="M151.828 140.033H149.732V151.451H151.828V140.033Z" fill="#F5F5F5"/>
<path d="M151.828 157.887H149.732V169.304H151.828V157.887Z" fill="#F5F5F5"/>
<path d="M151.828 175.74H149.732V187.158H151.828V175.74Z" fill="#F5F5F5"/>
<path opacity="0.5" d="M141.717 100.391H150.78L154.723 194.215H141.717V100.391Z" fill="#E0E0E0"/>
<path d="M120.085 64.1387L146.18 69.0852V194.214H120.085V64.1387Z" fill="#F0F0F0"/>
<path d="M120.085 64.1387H99.2051V194.214H120.085V64.1387Z" fill="#E6E6E6"/>
<path d="M99.2052 75.5801H146.18V74.9158H99.2052V75.5801Z" fill="#E0E0E0"/>
<path d="M99.2052 82.6621H146.18V81.9978H99.2052V82.6621Z" fill="#E0E0E0"/>
<path d="M99.2052 89.75H146.18V89.0857H99.2052V89.75Z" fill="#E0E0E0"/>
<path d="M99.2052 96.832H146.18V96.1677H99.2052V96.832Z" fill="#E0E0E0"/>
<path d="M99.2052 103.914H146.18V103.25H99.2052V103.914Z" fill="#E0E0E0"/>
<path d="M99.2052 110.99H146.18V110.326H99.2052V110.99Z" fill="#E0E0E0"/>
<path d="M99.2052 118.076H146.18V117.412H99.2052V118.076Z" fill="#E0E0E0"/>
<path d="M99.2052 125.158H146.18V124.494H99.2052V125.158Z" fill="#E0E0E0"/>
<path d="M99.2052 132.24H146.18V131.576H99.2052V132.24Z" fill="#E0E0E0"/>
<path d="M99.2052 139.322H146.18V138.658H99.2052V139.322Z" fill="#E0E0E0"/>
<path d="M99.2052 146.41H146.18V145.746H99.2052V146.41Z" fill="#E0E0E0"/>
<path d="M99.2052 153.492H146.18V152.828H99.2052V153.492Z" fill="#E0E0E0"/>
<path d="M99.2052 160.574H146.18V159.91H99.2052V160.574Z" fill="#E0E0E0"/>
<path d="M99.2052 167.65H146.18V166.986H99.2052V167.65Z" fill="#E0E0E0"/>
<path d="M99.2052 174.736H146.18V174.072H99.2052V174.736Z" fill="#E0E0E0"/>
<path d="M99.2052 181.818H146.18V181.154H99.2052V181.818Z" fill="#E0E0E0"/>
<path d="M99.2052 188.9H146.18V188.236H99.2052V188.9Z" fill="#E0E0E0"/>
<path d="M87.7855 36.4941H65.9585V194.215H87.7855V36.4941Z" fill="#F0F0F0"/>
<path d="M87.7855 36.4947H65.9585L73.9919 22.5684H105.25L87.7855 36.4947Z" fill="#FAFAFA"/>
<path d="M87.7854 36.4947L105.249 22.5684V194.215H87.7854V36.4947Z" fill="#EBEBEB"/>
<path d="M105.25 43.8438H65.9585V44.686H105.25V43.8438Z" fill="#E0E0E0"/>
<path d="M105.25 52.7695H65.9585V53.6118H105.25V52.7695Z" fill="#E0E0E0"/>
<path d="M105.25 61.6953H65.9585V62.5375H105.25V61.6953Z" fill="#E0E0E0"/>
<path d="M105.25 70.6211H65.9585V71.4633H105.25V70.6211Z" fill="#E0E0E0"/>
<path d="M105.25 79.5547H65.9585V80.3969H105.25V79.5547Z" fill="#E0E0E0"/>
<path d="M105.25 88.4805H65.9585V89.3227H105.25V88.4805Z" fill="#E0E0E0"/>
<path d="M105.25 97.4062H65.9585V98.2485H105.25V97.4062Z" fill="#E0E0E0"/>
<path d="M105.25 106.334H65.9585V107.176H105.25V106.334Z" fill="#E0E0E0"/>
<path d="M105.25 115.26H65.9585V116.102H105.25V115.26Z" fill="#E0E0E0"/>
<path d="M105.25 124.186H65.9585V125.028H105.25V124.186Z" fill="#E0E0E0"/>
<path d="M105.25 133.113H65.9585V133.956H105.25V133.113Z" fill="#E0E0E0"/>
<path d="M105.25 142.045H65.9585V142.887H105.25V142.045Z" fill="#E0E0E0"/>
<path d="M105.25 150.971H65.9585V151.813H105.25V150.971Z" fill="#E0E0E0"/>
<path d="M105.25 159.898H65.9585V160.741H105.25V159.898Z" fill="#E0E0E0"/>
<path d="M105.25 168.824H65.9585V169.666H105.25V168.824Z" fill="#E0E0E0"/>
<path d="M105.25 177.75H65.9585V178.592H105.25V177.75Z" fill="#E0E0E0"/>
<path d="M105.25 186.676H65.9585V187.518H105.25V186.676Z" fill="#E0E0E0"/>
<path d="M62.1696 112.811H38.3416V194.209H62.1696V112.811Z" fill="#F0F0F0"/>
<path d="M46.8546 117.021H43.0303V130.088H46.8546V117.021Z" fill="#E6E6E6"/>
<path d="M56.2376 117.021H52.4133V130.088H56.2376V117.021Z" fill="#E6E6E6"/>
<path d="M46.8546 133.938H43.0303V147.004H46.8546V133.938Z" fill="#E6E6E6"/>
<path d="M56.2376 133.938H52.4133V147.004H56.2376V133.938Z" fill="#E6E6E6"/>
<path d="M46.8546 150.859H43.0303V163.926H46.8546V150.859Z" fill="#E6E6E6"/>
<path d="M56.2376 150.859H52.4133V163.926H56.2376V150.859Z" fill="#E6E6E6"/>
<path d="M46.8546 167.773H43.0303V180.84H46.8546V167.773Z" fill="#E6E6E6"/>
<path d="M56.2376 167.773H52.4133V180.84H56.2376V167.773Z" fill="#E6E6E6"/>
<path d="M62.1636 112.81H38.3416L43.93 107.176H67.758L62.1636 112.81Z" fill="white"/>
<path d="M62.1636 112.81L67.758 107.176L73.3465 112.81V194.215H62.1636V112.81Z" fill="#E6E6E6"/>
<path d="M128 221C191.393 221 242.783 217.994 242.783 214.286C242.783 210.578 191.393 207.572 128 207.572C64.6071 207.572 13.217 210.578 13.217 214.286C13.217 217.994 64.6071 221 128 221Z" fill="#F5F5F5"/>
<path d="M226.834 35.3672H151.337C148.299 35.3672 145.837 37.8341 145.837 40.8772V208.77C145.837 211.813 148.299 214.28 151.337 214.28H226.834C229.872 214.28 232.334 211.813 232.334 208.77V40.8772C232.334 37.8341 229.872 35.3672 226.834 35.3672Z" fill="#7895FF"/>
<path d="M223.413 35.3672H147.915C144.878 35.3672 142.415 37.8341 142.415 40.8772V208.77C142.415 211.813 144.878 214.28 147.915 214.28H223.413C226.45 214.28 228.912 211.813 228.912 208.77V40.8772C228.912 37.8341 226.45 35.3672 223.413 35.3672Z" fill="#7895FF"/>
<path opacity="0.7" d="M223.413 35.3672H147.915C144.878 35.3672 142.415 37.8341 142.415 40.8772V208.77C142.415 211.813 144.878 214.28 147.915 214.28H223.413C226.45 214.28 228.912 211.813 228.912 208.77V40.8772C228.912 37.8341 226.45 35.3672 223.413 35.3672Z" fill="white"/>
<g opacity="0.9">
<path d="M159.779 35.3672H155.096V214.28H159.779V35.3672Z" fill="white"/>
<path d="M209.323 35.3672H206.452V214.28H209.323V35.3672Z" fill="white"/>
<path d="M142.415 74.2271V78.9187L228.912 73.545V68.8535L142.415 74.2271Z" fill="white"/>
<path d="M142.421 185.062V189.754H228.918V185.062H142.421Z" fill="white"/>
<path d="M142.415 97.6507V100.207H228.912V97.6507H142.415Z" fill="white"/>
<path d="M142.415 158.13V163.504L228.912 134.174V128.807L142.415 158.13Z" fill="white"/>
<path d="M172.732 35.3672H168.049L180.635 214.286H185.317L172.732 35.3672Z" fill="white"/>
</g>
<path d="M213.84 195.928H110.862V163.77H201.633L210.104 170.662C211.272 171.612 212.213 172.811 212.859 174.171C213.505 175.532 213.84 177.019 213.84 178.526V195.928Z" fill="#7895FF"/>
<path opacity="0.5" d="M213.84 195.928H110.862V163.77H201.633L210.104 170.662C211.272 171.612 212.213 172.811 212.859 174.171C213.505 175.532 213.84 177.019 213.84 178.526V195.928Z" fill="black"/>
<path d="M110.27 193.029C110.27 181.291 115.598 171.777 122.11 171.777H109.547C102.994 171.777 97.7073 181.267 97.7073 193.029C97.7073 204.79 103.035 214.286 109.547 214.286H122.133C115.568 214.286 110.27 204.766 110.27 193.029Z" fill="#263238"/>
<path d="M122.133 214.28C128.685 214.28 133.997 204.765 133.997 193.029C133.997 181.292 128.685 171.777 122.133 171.777C115.581 171.777 110.27 181.292 110.27 193.029C110.27 204.765 115.581 214.28 122.133 214.28Z" fill="#263238"/>
<path d="M123.086 209.6C127.732 209.6 131.499 202.181 131.499 193.029C131.499 183.876 127.732 176.457 123.086 176.457C118.44 176.457 114.674 183.876 114.674 193.029C114.674 202.181 118.44 209.6 123.086 209.6Z" fill="white"/>
<path d="M41.8877 193.029C41.8877 181.291 47.2157 171.777 53.7277 171.777H41.1654C34.612 171.777 29.3254 181.267 29.3254 193.029C29.3254 204.79 34.6534 214.286 41.1654 214.286H53.7514C47.1979 214.286 41.8877 204.766 41.8877 193.029Z" fill="#263238"/>
<path d="M53.7514 214.28C60.3035 214.28 65.6151 204.765 65.6151 193.029C65.6151 181.292 60.3035 171.777 53.7514 171.777C47.1992 171.777 41.8877 181.292 41.8877 193.029C41.8877 204.765 47.1992 214.28 53.7514 214.28Z" fill="#263238"/>
<path d="M191.569 193.029C191.569 181.291 196.897 171.777 203.409 171.777H190.847C184.299 171.777 179.007 181.267 179.007 193.029C179.007 204.79 184.335 214.286 190.847 214.286H203.433C196.885 214.286 191.569 204.766 191.569 193.029Z" fill="#263238"/>
<path d="M203.433 214.28C209.985 214.28 215.296 204.765 215.296 193.029C215.296 181.292 209.985 171.777 203.433 171.777C196.88 171.777 191.569 181.292 191.569 193.029C191.569 204.765 196.88 214.28 203.433 214.28Z" fill="#263238"/>
<path d="M204.392 209.6C209.038 209.6 212.804 202.181 212.804 193.029C212.804 183.876 209.038 176.457 204.392 176.457C199.746 176.457 195.979 183.876 195.979 193.029C195.979 202.181 199.746 209.6 204.392 209.6Z" fill="white"/>
<path d="M96.2511 198.96H81.0308L80.1783 198.1C79.7456 197.664 79.2309 197.318 78.6639 197.081C78.097 196.845 77.489 196.724 76.875 196.724H38.8331C38.2191 196.724 37.6111 196.845 37.0441 197.081C36.4772 197.318 35.9625 197.664 35.5297 198.1L35.0087 198.616H33.6235C31.4567 198.616 29.3788 197.754 27.8467 196.219C26.3146 194.684 25.4539 192.602 25.4539 190.431V177.875H111.779L104.912 192.833C104.277 194.626 103.104 196.178 101.553 197.275C100.002 198.372 98.1497 198.961 96.2511 198.96Z" fill="#7895FF"/>
<path opacity="0.2" d="M96.2511 198.96H81.0308L80.1783 198.1C79.7456 197.664 79.2309 197.318 78.6639 197.081C78.097 196.845 77.489 196.724 76.875 196.724H38.8331C38.2191 196.724 37.6111 196.845 37.0441 197.081C36.4772 197.318 35.9625 197.664 35.5297 198.1L35.0087 198.616H33.6235C31.4567 198.616 29.3788 197.754 27.8467 196.219C26.3146 194.684 25.4539 192.602 25.4539 190.431V177.875H111.779L104.912 192.833C104.277 194.626 103.104 196.178 101.553 197.275C100.002 198.372 98.1497 198.961 96.2511 198.96Z" fill="black"/>
<path d="M186.111 124.393C186.058 124.394 186.007 124.38 185.963 124.352C185.929 124.333 185.899 124.307 185.875 124.276C185.852 124.246 185.834 124.21 185.824 124.173C185.814 124.135 185.812 124.096 185.818 124.057C185.823 124.019 185.836 123.982 185.856 123.948L190 116.831C190.043 116.772 190.107 116.73 190.179 116.715C190.25 116.7 190.325 116.712 190.388 116.749C190.452 116.786 190.499 116.845 190.522 116.915C190.544 116.985 190.54 117.061 190.509 117.128L186.365 124.245C186.34 124.29 186.302 124.327 186.258 124.353C186.213 124.379 186.162 124.393 186.111 124.393Z" fill="#263238"/>
<path d="M207.967 159.797V151.712C207.967 147.46 201.799 127.395 193.315 123.634C184.832 119.874 164.307 118.202 151.378 118.89C138.449 119.578 121.186 146.671 121.186 146.671L123.063 169.963C125.691 169.963 134.062 169.174 135.287 192.222C135.37 193.847 136.073 195.378 137.251 196.498C138.429 197.617 139.992 198.24 141.616 198.236H186.88C188.4 198.234 189.867 197.683 191.013 196.684C192.16 195.685 192.908 194.305 193.12 192.797C194.304 184.589 197.394 169.963 204.847 169.963C210.075 169.963 213.822 174.446 213.822 179.589C213.824 173.939 212.454 168.374 209.832 163.373L207.967 159.797Z" fill="#7895FF"/>
<path d="M104.018 118.889C80.4743 118.889 53.7988 146.67 53.7988 146.67H121.21C121.21 146.67 138.455 119.583 151.402 118.889H104.018Z" fill="#7895FF"/>
<path opacity="0.4" d="M105.462 118.889C85.6304 118.889 64.8276 138.598 58.7596 144.814C58.6088 144.967 58.5068 145.162 58.4664 145.374C58.426 145.585 58.4491 145.804 58.5326 146.003C58.6162 146.201 58.7565 146.371 58.936 146.489C59.1154 146.608 59.326 146.671 59.541 146.67H113.922C116.111 146.675 118.27 146.163 120.224 145.176C122.178 144.189 123.873 142.754 125.17 140.988C131.019 133.005 142.285 119.381 151.402 118.889H105.462Z" fill="white"/>
<path d="M121.21 146.672L96.3103 166.357L29.3019 166.144C29.3019 166.144 25.4539 171.743 25.4539 177.876H111.779C113.194 174.115 118.155 169.963 123.086 169.963C123.086 162.982 121.21 146.672 121.21 146.672Z" fill="#7895FF"/>
<path opacity="0.2" d="M104.912 160.556C104.833 160.562 104.756 160.536 104.697 160.484C104.637 160.432 104.601 160.359 104.595 160.28C104.59 160.202 104.616 160.124 104.667 160.065C104.719 160.005 104.792 159.969 104.87 159.963C110.848 158.995 116.442 156.388 121.032 152.431C121.94 151.666 122.531 150.589 122.689 149.412C122.848 148.234 122.563 147.039 121.89 146.061C121.857 145.996 121.848 145.922 121.866 145.851C121.883 145.781 121.926 145.72 121.986 145.679C122.046 145.638 122.119 145.62 122.19 145.629C122.262 145.639 122.328 145.674 122.376 145.728C123.13 146.829 123.45 148.171 123.271 149.494C123.093 150.817 122.43 152.027 121.411 152.887C116.739 156.916 111.045 159.568 104.959 160.55L104.912 160.556Z" fill="black"/>
<path d="M29.3018 166.144C29.3018 166.144 41.0707 152.401 53.7987 146.672H121.21L96.3102 166.357L29.3018 166.144Z" fill="#7895FF"/>
<path d="M81.4273 166.143H37.2227V167.43H81.4273V166.143Z" fill="#263238"/>
<path d="M80.5098 163.568L82.8778 161.196C83.4102 160.663 84.0842 160.294 84.8195 160.134L102.704 156.231C103.332 156.094 103.984 156.113 104.604 156.285L105.563 156.557C106.202 156.738 106.784 157.077 107.257 157.543C107.729 158.01 108.076 158.589 108.265 159.226C108.454 159.863 108.479 160.537 108.338 161.187C108.197 161.836 107.894 162.439 107.458 162.939L103.61 167.34C102.948 168.101 102.019 168.577 101.017 168.669L83.6414 170.282C83.0675 170.336 82.4888 170.262 81.9466 170.066C81.4043 169.87 80.9117 169.557 80.5038 169.149C80.1368 168.783 79.8456 168.348 79.647 167.869C79.4485 167.39 79.3466 166.876 79.3472 166.357C79.3477 165.839 79.4507 165.325 79.6503 164.846C79.8498 164.368 80.1419 163.933 80.5098 163.568Z" fill="white"/>
<path d="M38.4718 164.826L36.5122 161.154C36.2364 160.64 35.8274 160.21 35.3282 159.909C34.8545 159.623 34.3151 159.464 33.7622 159.449C33.2094 159.433 32.6619 159.561 32.1729 159.82L30.687 160.597C29.9557 160.984 29.4005 161.638 29.1359 162.423L28.2302 165.11C28.0795 165.553 28.0265 166.022 28.0746 166.487C28.1227 166.952 28.2709 167.401 28.509 167.803C28.747 168.205 29.0692 168.551 29.4534 168.816C29.8376 169.081 30.2746 169.26 30.7343 169.339L34.825 170.045C35.4923 170.161 36.1789 170.063 36.7877 169.766C37.3965 169.469 37.8966 168.988 38.2172 168.39L38.4895 167.886C38.7402 167.414 38.8698 166.888 38.8667 166.354C38.8636 165.819 38.7279 165.294 38.4718 164.826Z" fill="white"/>
<path opacity="0.4" d="M134.98 147.459H197.305C197.834 147.46 198.355 147.336 198.827 147.098C199.299 146.861 199.709 146.516 200.025 146.091C200.34 145.666 200.552 145.173 200.643 144.652C200.734 144.131 200.702 143.595 200.55 143.088C199.129 138.343 196.406 130.923 192.315 127.139C191.86 126.722 191.302 126.436 190.699 126.309C183.352 124.749 171.542 123.711 162.78 123.106C158.808 122.832 154.825 123.424 151.104 124.841C147.383 126.259 144.012 128.467 141.225 131.315C137.892 134.689 134.881 138.368 132.233 142.305C131.901 142.804 131.71 143.384 131.681 143.982C131.652 144.581 131.785 145.177 132.067 145.706C132.349 146.234 132.769 146.677 133.282 146.986C133.794 147.294 134.381 147.458 134.98 147.459Z" fill="white"/>
<path d="M94.6822 184.826C94.6822 186.771 92.6931 188.349 90.2422 188.349C87.7914 188.349 85.8022 186.771 85.8022 184.826C85.8022 182.88 87.7854 181.297 90.2422 181.297C92.699 181.297 94.6822 182.88 94.6822 184.826Z" fill="#263238"/>
<path d="M58.9078 163.451C60.3641 163.451 61.0745 164.946 60.4944 166.784C59.9142 168.623 58.2684 170.118 56.8062 170.118C55.344 170.118 54.6395 168.629 55.2196 166.784C55.7998 164.94 57.4515 163.451 58.9078 163.451Z" fill="#263238"/>
<path d="M29.0354 184.826C29.0354 186.771 28.4434 188.349 27.7863 188.349C27.1292 188.349 26.5312 186.771 26.5312 184.826C26.5312 182.88 27.1233 181.297 27.7863 181.297C28.4493 181.297 29.0354 182.88 29.0354 184.826Z" fill="#263238"/>
<path d="M133.062 146.896V144.897C133.061 144.323 133.188 143.757 133.434 143.239C133.679 142.72 134.037 142.264 134.481 141.902C134.925 141.54 135.444 141.282 136.001 141.146C136.557 141.011 137.136 141.001 137.697 141.119L145.286 142.702C146.153 142.883 146.931 143.358 147.489 144.046C148.047 144.734 148.353 145.594 148.353 146.48V146.896C148.353 147.918 147.947 148.899 147.226 149.622C146.504 150.345 145.525 150.751 144.505 150.751H136.915C136.41 150.752 135.909 150.652 135.441 150.459C134.974 150.266 134.549 149.982 134.191 149.624C133.833 149.266 133.549 148.84 133.355 148.372C133.161 147.904 133.062 147.402 133.062 146.896Z" fill="#263238"/>
<path d="M172.992 123.96L170.216 123.699C178.018 139.713 176.029 147.483 176.029 147.483H181.985C182.044 137.703 172.992 123.96 172.992 123.96Z" fill="#263238"/>
<path opacity="0.2" d="M107.185 140.289C107.065 141.547 106.481 142.716 105.547 143.567C104.614 144.417 103.397 144.89 102.135 144.891H71.4521C69.2144 144.891 68.4033 142.388 70.0254 140.52C72.9523 137.182 76.1308 134.075 79.5329 131.226C85.3109 126.35 92.4859 123.818 99.1932 124.28L101.727 124.47C102.821 124.556 103.857 124.993 104.683 125.716C105.509 126.44 106.079 127.411 106.309 128.486C107.204 132.352 107.5 136.333 107.185 140.289Z" fill="#7895FF"/>
<path opacity="0.2" d="M176.739 194.019C176.661 194.019 176.586 193.988 176.53 193.932C176.475 193.877 176.443 193.801 176.443 193.723C176.443 187.72 179.498 162.97 180.297 159.257C181.073 155.657 181.073 151.641 180.297 149.026C180.286 148.987 180.283 148.946 180.288 148.906C180.293 148.866 180.306 148.827 180.325 148.792C180.345 148.757 180.372 148.726 180.403 148.701C180.435 148.676 180.472 148.657 180.51 148.646C180.549 148.635 180.59 148.632 180.63 148.637C180.67 148.642 180.709 148.654 180.744 148.674C180.779 148.694 180.81 148.721 180.835 148.753C180.86 148.784 180.878 148.821 180.889 148.86C181.688 151.564 181.688 155.692 180.889 159.382C180.09 163.071 177.047 187.744 177.047 193.723C177.047 193.763 177.039 193.802 177.024 193.839C177.008 193.876 176.985 193.909 176.956 193.937C176.928 193.964 176.894 193.986 176.856 194C176.819 194.014 176.779 194.021 176.739 194.019Z" fill="black"/>
<path opacity="0.2" d="M175.952 159.547H168.736C168.599 159.552 168.463 159.524 168.338 159.468C168.213 159.411 168.103 159.327 168.016 159.221C167.929 159.114 167.868 158.99 167.836 158.856C167.805 158.723 167.805 158.584 167.836 158.45L167.984 157.608C168.045 157.308 168.204 157.037 168.437 156.839C168.67 156.641 168.963 156.527 169.268 156.516H176.485C176.622 156.511 176.758 156.537 176.882 156.593C177.007 156.649 177.118 156.733 177.205 156.839C177.292 156.944 177.353 157.069 177.385 157.202C177.416 157.335 177.416 157.474 177.385 157.608L177.237 158.45C177.177 158.751 177.018 159.023 176.785 159.222C176.552 159.421 176.258 159.536 175.952 159.547Z" fill="black"/>
<path d="M197.785 69.7081H197.193C197.193 68.198 196.976 66.6958 196.548 65.2479L197.14 65.0759C197.576 66.5808 197.794 68.141 197.785 69.7081ZM195.233 62.1222C193.878 59.6834 191.898 57.6512 189.497 56.2353C187.096 54.8193 184.362 54.0711 181.576 54.0677V53.4746C184.468 53.4775 187.306 54.2542 189.798 55.7245C192.289 57.1948 194.344 59.3052 195.748 61.8375L195.233 62.1222Z" fill="#7895FF"/>
<path d="M181.576 55.5508C179.721 55.5508 177.883 55.917 176.169 56.6286C174.455 57.3401 172.898 58.3831 171.586 59.6978C170.274 61.0125 169.234 62.5733 168.524 64.291C167.815 66.0086 167.45 67.8495 167.451 69.7084C167.451 83.35 181.576 92.6975 181.576 92.6975C181.576 92.6975 195.713 83.3441 195.713 69.7084C195.713 67.8487 195.347 66.0072 194.637 64.2891C193.926 62.5711 192.885 61.0101 191.572 59.6954C190.259 58.3806 188.701 57.3379 186.986 56.6268C185.27 55.9156 183.432 55.55 181.576 55.5508ZM181.576 76.375C180.272 76.3738 178.997 75.9853 177.914 75.2586C176.83 74.5319 175.986 73.4995 175.487 72.2921C174.989 71.0847 174.859 69.7564 175.115 68.4751C175.37 67.1938 175.998 66.017 176.921 65.0936C177.843 64.1701 179.018 63.5414 180.298 63.287C181.577 63.0325 182.902 63.1637 184.107 63.6639C185.312 64.1642 186.341 65.0111 187.066 66.0975C187.79 67.1839 188.177 68.4612 188.177 69.7677C188.177 70.6359 188.006 71.4956 187.674 72.2976C187.342 73.0996 186.856 73.8282 186.243 74.4419C185.63 75.0555 184.902 75.542 184.102 75.8737C183.301 76.2054 182.443 76.3758 181.576 76.375Z" fill="#7895FF"/>
<path d="M156.398 213.378L159.974 213.325L161.004 205.021L157.434 205.075L156.398 213.378Z" fill="#B55B52"/>
<path d="M173.466 213.118L176.935 212.05L174.78 204.186L171.311 205.253L173.466 213.118Z" fill="#B55B52"/>
<path d="M176.828 211.012L172.956 213.011C172.894 213.044 172.845 213.097 172.817 213.162C172.789 213.227 172.784 213.299 172.802 213.367L173.631 216.522C173.651 216.599 173.689 216.67 173.74 216.73C173.791 216.79 173.856 216.837 173.928 216.869C174 216.9 174.079 216.914 174.158 216.911C174.237 216.908 174.314 216.886 174.383 216.849C175.62 216.178 176.491 215.662 178.059 214.826C179.024 214.328 181.984 212.922 183.316 212.234C184.648 211.546 184.145 210.135 183.541 210.301C180.818 211.024 178.592 211.238 177.444 210.941C177.237 210.887 177.017 210.912 176.828 211.012Z" fill="#263238"/>
<path d="M160.045 212.928L156.144 212.987C156.074 212.99 156.006 213.015 155.953 213.061C155.899 213.106 155.862 213.167 155.848 213.236L155.19 216.433C155.173 216.51 155.174 216.59 155.192 216.667C155.211 216.743 155.246 216.815 155.297 216.876C155.347 216.936 155.411 216.985 155.483 217.017C155.554 217.049 155.633 217.065 155.711 217.062C157.12 217.014 159.151 216.902 160.921 216.872C162.987 216.836 163.591 216.925 166.018 216.872C167.48 216.872 167.865 215.36 167.25 215.235C164.443 214.642 163.348 214.642 160.915 213.183C160.654 213.018 160.353 212.93 160.045 212.928Z" fill="#263238"/>
<path d="M165.474 104.447C166.285 106.078 167.202 107.804 168.12 109.447C169.037 111.09 170.008 112.721 171.044 114.263C171.311 114.637 171.559 115.034 171.832 115.402L172.501 116.315C172.637 116.493 172.714 116.576 172.738 116.618C172.761 116.659 172.773 116.719 172.945 116.731C173.572 116.614 174.156 116.327 174.632 115.9C174.957 115.645 175.289 115.366 175.615 115.064C175.94 114.762 176.266 114.412 176.55 114.127L178.882 115.45C178.685 115.973 178.452 116.483 178.184 116.974C177.92 117.476 177.615 117.956 177.272 118.409C176.908 118.904 176.491 119.357 176.029 119.761C175.48 120.251 174.843 120.631 174.152 120.882C173.287 121.199 172.347 121.25 171.453 121.031C170.616 120.821 169.84 120.414 169.191 119.844C169.032 119.714 168.919 119.589 168.783 119.459L168.594 119.263L168.457 119.109L167.936 118.516C167.587 118.119 167.267 117.709 166.936 117.33C165.671 115.701 164.505 113.997 163.443 112.229C162.922 111.351 162.407 110.45 161.934 109.566C161.46 108.682 160.998 107.786 160.56 106.784L165.474 104.447Z" fill="#B55B52"/>
<path d="M159.068 104.471C158.103 107.751 164.882 116.707 164.882 116.707L171.719 112.294C170.433 109.448 168.845 106.75 166.983 104.245C164.183 100.669 160.122 100.864 159.068 104.471Z" fill="#7895FF"/>
<g opacity="0.2">
<path d="M159.068 104.471C158.103 107.751 164.882 116.707 164.882 116.707L171.719 112.294C170.433 109.448 168.845 106.75 166.983 104.245C164.183 100.669 160.122 100.864 159.068 104.471Z" fill="black"/>
</g>
<path opacity="0.2" d="M163.236 108.327C164.639 108.92 166.711 112.318 167.788 114.851L164.887 116.719C163.266 114.547 161.807 112.258 160.524 109.869C161.442 108.849 162.49 108.007 163.236 108.327Z" fill="black"/>
<path d="M176.141 114.773L178.616 110.764L180.777 114.216C180.259 115.14 179.414 115.836 178.409 116.167L176.141 114.773Z" fill="#B55B52"/>
<path d="M182.067 110.806V112.046C182.066 112.432 181.932 112.807 181.689 113.107L180.789 114.216L178.628 110.764L180.86 109.946C180.997 109.899 181.143 109.885 181.286 109.906C181.43 109.927 181.566 109.981 181.684 110.065C181.802 110.149 181.898 110.26 181.965 110.389C182.032 110.518 182.067 110.661 182.067 110.806Z" fill="#B55B52"/>
<path d="M179.652 115.931L175.757 115.871L177.911 107.787L181.807 107.846L179.652 115.931Z" fill="#7895FF"/>
<path d="M180.049 115.931L176.153 115.871L178.308 107.787L182.204 107.846L180.049 115.931Z" fill="#263238"/>
<path opacity="0.2" d="M161.004 205.021L160.471 209.304L156.896 209.357L157.428 205.081L161.004 205.021Z" fill="black"/>
<path opacity="0.2" d="M171.311 205.253L174.786 204.186L175.893 208.242L172.418 209.31L171.311 205.253Z" fill="black"/>
<path d="M143.984 106.208C146.903 118.794 146.269 131.273 146.589 133.966C149.383 133.764 159.909 132.975 165.645 132.548C167.475 112.092 163.141 101.706 163.141 101.706C163.141 101.706 161.916 101.469 160.252 101.297C159.731 101.244 159.163 101.196 158.577 101.166C158.251 101.166 157.926 101.166 157.588 101.131C154.879 101.17 152.175 101.368 149.49 101.724C148.98 101.783 148.465 101.86 147.962 101.943C147.459 102.026 147.045 102.11 146.612 102.193H146.559C146.123 102.279 145.709 102.453 145.341 102.704C144.974 102.955 144.661 103.277 144.42 103.652C144.18 104.027 144.017 104.446 143.942 104.886C143.867 105.325 143.882 105.774 143.984 106.208Z" fill="#7895FF"/>
<g opacity="0.2">
<path d="M143.984 106.208C146.903 118.794 146.269 131.273 146.589 133.966C149.383 133.764 159.909 132.975 165.645 132.548C167.475 112.092 163.141 101.706 163.141 101.706C163.141 101.706 161.916 101.469 160.252 101.297C159.731 101.244 159.163 101.196 158.577 101.166C158.251 101.166 157.926 101.166 157.588 101.131C154.879 101.17 152.175 101.368 149.49 101.724C148.98 101.783 148.465 101.86 147.962 101.943C147.459 102.026 147.045 102.11 146.612 102.193H146.559C146.123 102.279 145.709 102.453 145.341 102.704C144.974 102.955 144.661 103.277 144.42 103.652C144.18 104.027 144.017 104.446 143.942 104.886C143.867 105.325 143.882 105.774 143.984 106.208Z" fill="black"/>
</g>
<path opacity="0.2" d="M147.21 108.854L145.02 111.671C145.023 111.704 145.023 111.738 145.02 111.772C145.328 113.681 145.565 115.556 145.742 117.359C147.844 114.761 147.536 110.087 147.21 108.854Z" fill="black"/>
<path d="M150.407 96.1505C150.863 98.0722 150.833 100.207 149.46 101.732C150.981 103.037 152.953 104.531 156.055 104.407C159.157 104.282 158.464 102.194 157.559 101.133C154.912 100.7 154.906 98.9738 154.883 97.0817C154.881 96.8891 154.819 96.7019 154.705 96.5465C154.592 96.3911 154.432 96.2754 154.249 96.2158L151.337 95.2846C151.214 95.2452 151.082 95.2393 150.956 95.2676C150.83 95.2958 150.714 95.3572 150.619 95.4453C150.525 95.5334 150.455 95.6452 150.418 95.7691C150.381 95.8931 150.377 96.0247 150.407 96.1505Z" fill="#B55B52"/>
<path d="M158.784 116.677C157.186 116.677 155.712 114.756 155.421 112.3C155.308 111.65 155.328 110.983 155.479 110.341C155.631 109.699 155.911 109.094 156.304 108.564C156.489 108.34 156.72 108.159 156.982 108.033C157.243 107.907 157.529 107.839 157.819 107.834C159.412 107.834 160.892 109.762 161.176 112.217C161.289 112.866 161.27 113.531 161.12 114.173C160.969 114.814 160.69 115.418 160.3 115.948C160.115 116.172 159.883 116.353 159.622 116.479C159.36 116.605 159.074 116.673 158.784 116.677ZM157.825 108.427C157.619 108.433 157.417 108.484 157.232 108.575C157.047 108.666 156.884 108.796 156.753 108.955C156.42 109.424 156.183 109.956 156.057 110.518C155.931 111.08 155.918 111.662 156.019 112.229C156.262 114.317 157.529 116.084 158.79 116.084C158.997 116.081 159.201 116.033 159.388 115.941C159.574 115.85 159.738 115.719 159.867 115.556C160.2 115.087 160.436 114.555 160.562 113.993C160.688 113.431 160.702 112.85 160.601 112.282C160.371 110.195 159.104 108.427 157.849 108.427H157.825Z" fill="#7895FF"/>
<path opacity="0.2" d="M154.889 97.1875L151.958 97.5671C152.023 97.6976 152.106 97.8221 152.183 97.9467C152.74 98.8364 153.959 99.4235 155.226 99.6371C154.953 98.851 154.838 98.0184 154.889 97.1875Z" fill="black"/>
<path d="M158.689 89.5607C160.317 89.8335 163.36 87.977 162.65 85.5156C161.738 86.6544 158.689 86.2748 158.689 86.2748V89.5607Z" fill="#263238"/>
<path d="M152.331 92.1996C152.509 93.8485 150.478 96.7785 148.063 95.9244C149.247 95.0762 149.058 92.0039 149.058 92.0039L152.331 92.1996Z" fill="#263238"/>
<path d="M149.945 88.9675C149.507 92.4906 149.069 94.5309 150.496 96.678C152.633 99.863 157.227 99.0505 158.707 95.7468C160.039 92.7812 160.53 87.4907 157.381 85.4682C156.691 85.0182 155.899 84.7521 155.078 84.6951C154.257 84.6382 153.435 84.7923 152.69 85.1428C151.945 85.4934 151.302 86.0287 150.822 86.698C150.342 87.3674 150.04 88.1486 149.945 88.9675Z" fill="#B55B52"/>
<path d="M149.46 92.5252C150.318 93.4327 152.68 89.7317 152.248 88.409C153.136 88.7946 154.841 88.0532 154.735 86.5822C157.393 88.0057 161.247 89.1326 161.306 86.5822C161.365 84.0319 158.938 82.1102 156.57 81.9085C156.854 82.6677 156.102 82.9998 154.557 82.6677C153.012 82.3356 147.056 79.6013 147.714 85.0817C145.488 85.2003 145.198 88.0294 149.46 92.5252Z" fill="#263238"/>
<path d="M147.72 91.1848C147.845 92.069 148.313 92.8682 149.022 93.4089C149.969 94.1147 150.561 93.3674 150.65 92.2227C150.733 91.2203 150.65 89.6367 149.519 89.3758C149.271 89.3206 149.013 89.3291 148.769 89.4006C148.525 89.472 148.303 89.6041 148.123 89.7846C147.943 89.965 147.812 90.188 147.742 90.4328C147.671 90.6775 147.664 90.9362 147.72 91.1848Z" fill="#B55B52"/>
<path d="M153.089 133.486L165.616 132.549C165.616 132.549 167.238 158.308 167.114 169.233C166.989 180.591 161.786 208.455 161.786 208.455L155.735 208.55C155.735 208.55 156.215 181.522 156.215 170.372C156.215 155.348 153.071 133.486 153.071 133.486" fill="#263238"/>
<path opacity="0.2" d="M157.932 160.26C158.097 161.001 162.756 181.885 164.26 194.067C165.059 188.996 165.882 183.314 166.439 178.29L157.932 160.26Z" fill="black"/>
<path d="M158.855 133.053C158.855 133.053 168.392 156.463 170.541 166.724C172.909 177.963 176.668 206.391 176.668 206.391L170.198 207.405C170.198 207.405 165.302 186.154 162.561 175.294C159.447 162.928 147.098 143.331 146.577 133.972L158.855 133.053Z" fill="#263238"/>
<path d="M177.479 206.949L169.44 208.829L168.428 205.733L177.207 204.221L177.479 206.949Z" fill="#7895FF"/>
<path d="M162.567 208.587L155.356 208.699L155.321 206.368L163.372 206.113L162.567 208.587Z" fill="#7895FF"/>
<path d="M154.847 90.824C154.794 91.1087 154.901 91.3638 155.084 91.4172C155.268 91.4705 155.463 91.2511 155.516 90.9664C155.569 90.6817 155.463 90.4267 155.273 90.3733C155.084 90.3199 154.901 90.5394 154.847 90.824Z" fill="#263238"/>
<path d="M158.352 91.5648C158.299 91.8495 158.405 92.1105 158.589 92.1579C158.772 92.2054 158.968 91.9859 159.021 91.7072C159.074 91.4284 158.968 91.1615 158.784 91.114C158.601 91.0666 158.405 91.2801 158.352 91.5648Z" fill="#263238"/>
<path d="M157.198 91.5C157.373 92.4307 157.676 93.3328 158.097 94.1809C157.878 94.2829 157.638 94.3357 157.396 94.3357C157.154 94.3357 156.914 94.2829 156.694 94.1809L157.198 91.5Z" fill="#A02724"/>
<path d="M156.096 95.0533C155.779 94.9867 155.478 94.8555 155.214 94.6677C154.949 94.48 154.725 94.2398 154.557 93.962C154.547 93.9423 154.545 93.9194 154.551 93.8982C154.558 93.8771 154.573 93.8595 154.593 93.8493C154.612 93.839 154.635 93.837 154.656 93.8437C154.677 93.8504 154.695 93.8652 154.705 93.8849C154.898 94.1878 155.159 94.4412 155.468 94.6246C155.776 94.808 156.123 94.9162 156.481 94.9406C156.504 94.9436 156.524 94.9551 156.538 94.9727C156.553 94.9904 156.56 95.0128 156.558 95.0355C156.555 95.058 156.544 95.0786 156.526 95.0929C156.508 95.1073 156.486 95.1143 156.463 95.1126C156.34 95.1 156.217 95.0802 156.096 95.0533Z" fill="#263238"/>
<path d="M154.498 89.5607C154.468 89.5529 154.441 89.5364 154.421 89.5132C154.391 89.4813 154.374 89.4388 154.374 89.3946C154.374 89.3505 154.391 89.308 154.421 89.276C154.616 89.0895 154.852 88.9527 155.111 88.8773C155.37 88.802 155.643 88.7902 155.907 88.843C155.928 88.8485 155.949 88.8583 155.966 88.8718C155.984 88.8853 155.999 88.9022 156.01 88.9216C156.021 88.941 156.028 88.9624 156.031 88.9846C156.033 89.0067 156.031 89.0292 156.025 89.0506C156.014 89.093 155.987 89.1292 155.949 89.1515C155.911 89.1737 155.866 89.1801 155.824 89.1692C155.613 89.1288 155.395 89.14 155.188 89.202C154.982 89.2639 154.794 89.3748 154.64 89.5251C154.62 89.5412 154.597 89.5527 154.573 89.5588C154.548 89.565 154.523 89.5656 154.498 89.5607Z" fill="#263238"/>
<path d="M160.24 90.6861C160.213 90.6773 160.189 90.6618 160.169 90.6411C160.15 90.6204 160.135 90.5951 160.128 90.5675C160.078 90.3607 159.98 90.1686 159.842 90.0068C159.705 89.845 159.531 89.7181 159.335 89.6363C159.292 89.6227 159.256 89.5926 159.235 89.5527C159.214 89.5127 159.209 89.4661 159.222 89.4228C159.229 89.4016 159.24 89.3819 159.254 89.3649C159.269 89.348 159.286 89.3341 159.306 89.3242C159.326 89.3142 159.348 89.3084 159.37 89.307C159.392 89.3056 159.414 89.3087 159.435 89.3161C159.689 89.4147 159.915 89.5746 160.093 89.7815C160.27 89.9884 160.394 90.236 160.453 90.5023C160.461 90.5237 160.463 90.5464 160.461 90.5688C160.459 90.5913 160.452 90.6131 160.441 90.6327C160.43 90.6523 160.414 90.6693 160.396 90.6826C160.378 90.6959 160.357 90.7052 160.335 90.7099C160.302 90.7113 160.269 90.7031 160.24 90.6861Z" fill="#263238"/>
<path d="M178.166 211.023C177.883 211.161 177.585 211.267 177.278 211.337C177.262 211.341 177.245 211.34 177.23 211.334C177.214 211.329 177.2 211.32 177.189 211.308C177.18 211.294 177.174 211.277 177.174 211.26C177.174 211.243 177.18 211.227 177.189 211.213C177.266 211.082 177.965 209.92 178.409 209.92C178.459 209.92 178.508 209.934 178.551 209.96C178.594 209.986 178.629 210.023 178.651 210.068C178.698 210.137 178.726 210.217 178.735 210.299C178.743 210.382 178.731 210.466 178.699 210.543C178.581 210.759 178.393 210.928 178.166 211.023ZM177.438 211.118C178.03 210.946 178.438 210.715 178.539 210.477C178.559 210.424 178.566 210.366 178.559 210.309C178.552 210.252 178.531 210.198 178.498 210.151C178.462 210.098 178.432 210.092 178.403 210.092C178.172 210.092 177.728 210.661 177.438 211.148V211.118Z" fill="#7895FF"/>
<path d="M177.296 211.332C177.281 211.338 177.264 211.338 177.249 211.332C177.233 211.332 177.218 211.327 177.206 211.319C177.193 211.31 177.183 211.298 177.177 211.284C176.962 210.818 176.892 210.297 176.976 209.79C177.002 209.73 177.04 209.677 177.086 209.632C177.133 209.587 177.188 209.552 177.249 209.529C177.305 209.499 177.37 209.491 177.431 209.505C177.493 209.519 177.548 209.555 177.586 209.606C177.841 209.926 177.586 210.946 177.325 211.296C177.32 211.311 177.309 211.323 177.296 211.332ZM177.296 209.712C177.232 209.745 177.181 209.8 177.154 209.867C177.083 210.267 177.132 210.68 177.296 211.053C177.491 210.632 177.627 209.867 177.479 209.706C177.479 209.706 177.432 209.653 177.331 209.706L177.296 209.712Z" fill="#7895FF"/>
<path d="M160.406 213.403C160.391 213.396 160.378 213.384 160.37 213.37C160.361 213.356 160.356 213.34 160.356 213.323C160.356 213.306 160.361 213.29 160.37 213.276C160.378 213.261 160.391 213.25 160.406 213.243C160.566 213.16 161.993 212.407 162.431 212.65C162.471 212.671 162.506 212.702 162.53 212.741C162.555 212.779 162.57 212.823 162.573 212.869C162.582 212.946 162.573 213.023 162.546 213.096C162.52 213.168 162.476 213.233 162.419 213.284C162.034 213.64 161.01 213.516 160.43 213.409L160.406 213.403ZM162.306 212.78C161.737 212.813 161.185 212.984 160.696 213.278C161.489 213.397 162.075 213.355 162.295 213.154C162.332 213.12 162.36 213.077 162.376 213.029C162.393 212.982 162.397 212.931 162.389 212.881C162.39 212.863 162.385 212.844 162.376 212.829C162.366 212.813 162.353 212.8 162.336 212.792L162.306 212.78Z" fill="#7895FF"/>
<path d="M160.406 213.403C160.395 213.394 160.385 213.382 160.379 213.368C160.373 213.355 160.37 213.34 160.371 213.326C160.402 212.819 160.588 212.335 160.903 211.938C160.967 211.882 161.041 211.839 161.122 211.813C161.202 211.786 161.287 211.776 161.371 211.784C161.608 211.784 161.673 211.92 161.691 212.015C161.762 212.418 160.921 213.201 160.507 213.409C160.492 213.419 160.474 213.424 160.455 213.423C160.437 213.422 160.42 213.415 160.406 213.403ZM161.419 211.956H161.336C161.274 211.948 161.211 211.955 161.152 211.974C161.092 211.994 161.038 212.026 160.992 212.068C160.73 212.382 160.57 212.769 160.536 213.177C160.974 212.905 161.543 212.288 161.501 212.045C161.501 212.021 161.49 211.979 161.419 211.956Z" fill="#7895FF"/>
<path d="M149.673 107.313C148.489 109.418 147.305 111.666 146.239 113.873C145.166 116.037 144.246 118.275 143.487 120.569C143.398 120.848 143.333 121.115 143.25 121.393C143.22 121.518 143.167 121.696 143.149 121.779C143.129 121.847 143.113 121.916 143.102 121.987C143.051 122.359 143.061 122.738 143.131 123.108C143.37 124.123 143.759 125.097 144.286 125.996C145.516 128.068 146.948 130.013 148.56 131.803L146.843 133.867C144.552 132.35 142.518 130.475 140.817 128.315C139.868 127.116 139.133 125.761 138.644 124.312C138.363 123.445 138.237 122.535 138.271 121.625C138.271 121.382 138.318 121.127 138.348 120.877C138.378 120.628 138.413 120.516 138.449 120.326C138.52 119.976 138.585 119.62 138.662 119.276C139.325 116.644 140.225 114.077 141.349 111.607C142.43 109.177 143.656 106.814 145.02 104.531L149.673 107.313Z" fill="#B55B52"/>
<path d="M145.955 102.454C142.658 103.362 139.443 112.644 139.443 112.644L147.382 114.844C148.773 112.89 149.883 110.75 150.68 108.486C152.349 103.978 149.945 101.363 145.955 102.454Z" fill="#7895FF"/>
<g opacity="0.2">
<path d="M145.955 102.454C142.658 103.362 139.443 112.644 139.443 112.644L147.382 114.844C148.773 112.89 149.883 110.75 150.68 108.486C152.349 103.978 149.945 101.363 145.955 102.454Z" fill="black"/>
</g>
<path d="M147.039 131.191L150.662 132.146L149.223 135.557C149.223 135.557 145.973 134.869 145.991 133.089L147.039 131.191Z" fill="#B55B52"/>
<path d="M152.053 134.46L150.981 137.158L149.223 135.557L150.662 132.146L152.053 134.46Z" fill="#B55B52"/>
</g>
<defs>
<clipPath id="clip0_113_4525">
<rect width="296" height="221" fill="white"/>
</clipPath>
</defs>
</svg>
