<svg width="361" height="201" viewBox="0 0 361 201" fill="none" xmlns="http://www.w3.org/2000/svg">
<g clip-path="url(#clip0_182_6810)">
<path d="M301.237 199.894C301.237 199.894 354.984 176.047 353.734 127.938C352.484 79.8293 301.545 57.4584 266.962 87.1615C232.379 116.865 210.002 91.9579 192.083 66.8537C174.169 41.7547 134.2 10.0769 81.7609 24.7154C26.8319 40.0502 9.9287 95.5487 15.3721 132.579C19.2789 159.18 33.5724 181.732 53.0541 199.063C53.6896 199.624 54.3355 200.185 55.0023 200.731L301.243 199.894H301.237Z" fill="#D8DFFD"/>
<mask id="mask0_182_6810" style="mask-type:luminance" maskUnits="userSpaceOnUse" x="14" y="21" width="340" height="180">
<path d="M301.237 199.894C301.237 199.894 354.984 176.047 353.734 127.938C352.484 79.8293 301.545 57.4584 266.962 87.1615C232.379 116.865 210.002 91.9579 192.083 66.8537C174.169 41.7547 134.2 10.0769 81.7609 24.7154C26.8319 40.0502 9.9287 95.5487 15.3721 132.579C19.2789 159.18 33.5724 181.732 53.0541 199.063C53.6896 199.624 54.3355 200.185 55.0023 200.731L301.243 199.894H301.237Z" fill="white"/>
</mask>
<g mask="url(#mask0_182_6810)">
<path d="M56.7417 136.385H30.0664V170.63H56.7417V136.385Z" fill="#77B6FF"/>
<path d="M240.552 118.648H194.051V165.037H240.552V118.648Z" fill="#77B6FF"/>
<path d="M117.151 124.494H90.4756V158.739H117.151V124.494Z" fill="#77B6FF"/>
<path d="M167.621 143.025H140.946V177.27H167.621V143.025Z" fill="#77B6FF"/>
<path d="M352.348 156.604H3.39648V201.538H352.348V156.604Z" fill="#77B6FF"/>
<path d="M30.0718 122.359H3.39648V156.604H30.0718V122.359Z" fill="#77B6FF"/>
<path d="M144.265 95.1231C146.503 85.8072 140.747 76.4448 131.409 74.2117C122.071 71.9786 112.686 77.7204 110.447 87.0363C108.209 96.3522 113.964 105.715 123.303 107.948C132.641 110.181 142.026 104.439 144.265 95.1231Z" fill="#E9EDFD"/>
<path d="M127.35 87.1347C129.571 87.1347 131.371 85.3386 131.371 83.123C131.371 80.9074 129.571 79.1113 127.35 79.1113C125.129 79.1113 123.329 80.9074 123.329 83.123C123.329 85.3386 125.129 87.1347 127.35 87.1347Z" fill="#D8DFFD"/>
<path d="M147.665 89.6562H107.035V201.537H147.665V89.6562Z" fill="#C9D2FC"/>
<path d="M120.62 97.668H112.541V113.528H120.62V97.668Z" fill="#77B6FF"/>
<path d="M140.945 97.668H132.866V113.528H140.945V97.668Z" fill="#77B6FF"/>
<path d="M120.62 121.842H112.541V137.701H120.62V121.842Z" fill="#77B6FF"/>
<path d="M140.945 121.842H132.866V137.701H140.945V121.842Z" fill="#77B6FF"/>
<path d="M120.62 146.021H112.541V161.881H120.62V146.021Z" fill="#77B6FF"/>
<path d="M140.945 146.021H132.866V161.881H140.945V146.021Z" fill="#77B6FF"/>
<path d="M120.62 170.195H112.541V186.055H120.62V170.195Z" fill="#77B6FF"/>
<path d="M140.945 170.195H132.866V186.055H140.945V170.195Z" fill="#77B6FF"/>
<path d="M201.422 63.7988H157.234V201.537H201.422V63.7988Z" fill="#C9D2FC"/>
<path d="M167.616 73.5938H161.589V79.6061H167.616V73.5938Z" fill="#77B6FF"/>
<path d="M182.342 73.5938H176.315V79.6061H182.342V73.5938Z" fill="#77B6FF"/>
<path d="M197.067 73.5938H191.041V79.6061H197.067V73.5938Z" fill="#77B6FF"/>
<path d="M167.616 84.2109H161.589V90.2233H167.616V84.2109Z" fill="#77B6FF"/>
<path d="M182.342 84.2109H176.315V90.2233H182.342V84.2109Z" fill="#77B6FF"/>
<path d="M197.067 84.2109H191.041V90.2233H197.067V84.2109Z" fill="#77B6FF"/>
<path d="M167.616 94.8262H161.589V100.839H167.616V94.8262Z" fill="#77B6FF"/>
<path d="M182.342 94.8262H176.315V100.839H182.342V94.8262Z" fill="#77B6FF"/>
<path d="M197.067 94.8262H191.041V100.839H197.067V94.8262Z" fill="#77B6FF"/>
<path d="M167.616 105.447H161.589V111.46H167.616V105.447Z" fill="#77B6FF"/>
<path d="M182.342 105.447H176.315V111.46H182.342V105.447Z" fill="#77B6FF"/>
<path d="M197.067 105.447H191.041V111.46H197.067V105.447Z" fill="#77B6FF"/>
<path d="M167.616 116.064H161.589V122.077H167.616V116.064Z" fill="#77B6FF"/>
<path d="M182.342 116.064H176.315V122.077H182.342V116.064Z" fill="#77B6FF"/>
<path d="M197.067 116.064H191.041V122.077H197.067V116.064Z" fill="#77B6FF"/>
<path d="M167.616 126.682H161.589V132.694H167.616V126.682Z" fill="#77B6FF"/>
<path d="M182.342 126.682H176.315V132.694H182.342V126.682Z" fill="#77B6FF"/>
<path d="M197.067 126.682H191.041V132.694H197.067V126.682Z" fill="#77B6FF"/>
<path d="M167.616 137.297H161.589V143.309H167.616V137.297Z" fill="#77B6FF"/>
<path d="M182.342 137.297H176.315V143.309H182.342V137.297Z" fill="#77B6FF"/>
<path d="M197.067 137.297H191.041V143.309H197.067V137.297Z" fill="#77B6FF"/>
<path d="M167.616 147.914H161.589V153.926H167.616V147.914Z" fill="#77B6FF"/>
<path d="M182.342 147.914H176.315V153.926H182.342V147.914Z" fill="#77B6FF"/>
<path d="M197.067 147.914H191.041V153.926H197.067V147.914Z" fill="#77B6FF"/>
<path d="M167.616 158.535H161.589V164.547H167.616V158.535Z" fill="#77B6FF"/>
<path d="M182.342 158.535H176.315V164.547H182.342V158.535Z" fill="#77B6FF"/>
<path d="M197.067 158.535H191.041V164.547H197.067V158.535Z" fill="#77B6FF"/>
<path d="M167.616 169.152H161.589V175.165H167.616V169.152Z" fill="#77B6FF"/>
<path d="M182.342 169.152H176.315V175.165H182.342V169.152Z" fill="#77B6FF"/>
<path d="M197.067 169.152H191.041V175.165H197.067V169.152Z" fill="#77B6FF"/>
<path d="M167.616 179.768H161.589V185.78H167.616V179.768Z" fill="#77B6FF"/>
<path d="M182.342 179.768H176.315V185.78H182.342V179.768Z" fill="#77B6FF"/>
<path d="M197.067 179.768H191.041V185.78H197.067V179.768Z" fill="#77B6FF"/>
<path d="M342.3 101.848H298.112V239.586H342.3V101.848Z" fill="#C9D2FC"/>
<path d="M308.499 111.643H302.472V117.655H308.499V111.643Z" fill="#77B6FF"/>
<path d="M323.219 111.643H317.192V117.655H323.219V111.643Z" fill="#77B6FF"/>
<path d="M337.945 111.643H331.918V117.655H337.945V111.643Z" fill="#77B6FF"/>
<path d="M308.499 122.26H302.472V128.272H308.499V122.26Z" fill="#77B6FF"/>
<path d="M323.219 122.26H317.192V128.272H323.219V122.26Z" fill="#77B6FF"/>
<path d="M337.945 122.26H331.918V128.272H337.945V122.26Z" fill="#77B6FF"/>
<path d="M308.499 132.881H302.472V138.893H308.499V132.881Z" fill="#77B6FF"/>
<path d="M323.219 132.881H317.192V138.893H323.219V132.881Z" fill="#77B6FF"/>
<path d="M337.945 132.881H331.918V138.893H337.945V132.881Z" fill="#77B6FF"/>
<path d="M308.499 143.496H302.472V149.508H308.499V143.496Z" fill="#77B6FF"/>
<path d="M323.219 143.496H317.192V149.508H323.219V143.496Z" fill="#77B6FF"/>
<path d="M337.945 143.496H331.918V149.508H337.945V143.496Z" fill="#77B6FF"/>
<path d="M308.499 154.113H302.472V160.126H308.499V154.113Z" fill="#77B6FF"/>
<path d="M323.219 154.113H317.192V160.126H323.219V154.113Z" fill="#77B6FF"/>
<path d="M337.945 154.113H331.918V160.126H337.945V154.113Z" fill="#77B6FF"/>
<path d="M308.499 164.73H302.472V170.743H308.499V164.73Z" fill="#77B6FF"/>
<path d="M323.219 164.73H317.192V170.743H323.219V164.73Z" fill="#77B6FF"/>
<path d="M337.945 164.73H331.918V170.743H337.945V164.73Z" fill="#77B6FF"/>
<path d="M308.499 175.346H302.472V181.358H308.499V175.346Z" fill="#77B6FF"/>
<path d="M323.219 175.346H317.192V181.358H323.219V175.346Z" fill="#77B6FF"/>
<path d="M337.945 175.346H331.918V181.358H337.945V175.346Z" fill="#77B6FF"/>
<path d="M308.499 185.969H302.472V191.981H308.499V185.969Z" fill="#77B6FF"/>
<path d="M323.219 185.969H317.192V191.981H323.219V185.969Z" fill="#77B6FF"/>
<path d="M337.945 185.969H331.918V191.981H337.945V185.969Z" fill="#77B6FF"/>
<path d="M308.499 196.584H302.472V202.596H308.499V196.584Z" fill="#77B6FF"/>
<path d="M323.219 196.584H317.192V202.596H323.219V196.584Z" fill="#77B6FF"/>
<path d="M337.945 196.584H331.918V202.596H337.945V196.584Z" fill="#77B6FF"/>
<path d="M97.3668 63.7988H42.7139V201.537H97.3668V63.7988Z" fill="#C9D2FC"/>
<path d="M52.1372 85.9414H48.4492V157.185H52.1372V85.9414Z" fill="#77B6FF"/>
<path d="M62.0137 85.9414H58.3257V157.185H62.0137V85.9414Z" fill="#77B6FF"/>
<path d="M71.8848 85.9414H68.1968V157.185H71.8848V85.9414Z" fill="#77B6FF"/>
<path d="M81.7607 85.9414H78.0728V157.185H81.7607V85.9414Z" fill="#77B6FF"/>
<path d="M91.6318 85.9414H87.9438V157.185H91.6318V85.9414Z" fill="#77B6FF"/>
<path d="M97.3668 71.416H42.7139V79.0341H97.3668V71.416Z" fill="#E9EDFD"/>
</g>
<path d="M5.93839 83.4961C5.93839 85.0603 4.68302 86.3282 3.13594 86.3282C1.58887 86.3282 0.333496 85.0603 0.333496 83.4961C0.333496 81.932 1.58887 80.6641 3.13594 80.6641C4.68302 80.6641 5.93839 81.932 5.93839 83.4961Z" stroke="#77B6FF" stroke-width="1.28" stroke-miterlimit="10"/>
<path d="M338.669 22.6368C338.669 24.2009 337.413 25.4689 335.866 25.4689C334.319 25.4689 333.064 24.2009 333.064 22.6368C333.064 21.0726 334.319 19.8047 335.866 19.8047C337.413 19.8047 338.669 21.0726 338.669 22.6368Z" stroke="#77B6FF" stroke-width="1.28" stroke-miterlimit="10"/>
<path d="M206.918 52.229C206.918 53.8503 205.615 55.165 204.011 55.165C202.407 55.165 201.104 53.8503 201.104 52.229C201.104 50.6077 202.407 49.293 204.011 49.293C205.615 49.293 206.918 50.6077 206.918 52.229Z" stroke="#77B6FF" stroke-width="1.28" stroke-miterlimit="10"/>
<path d="M40.25 13.4219H60.6381" stroke="#77B6FF" stroke-miterlimit="10"/>
<path d="M341.706 76.0703H359.401" stroke="#77B6FF" stroke-miterlimit="10"/>
<path d="M193.254 0.259766H224.071" stroke="#77B6FF" stroke-miterlimit="10"/>
<path d="M246.469 200.443H304.862C312.316 200.443 318.359 194.415 318.359 186.979V31.9422C318.359 24.5062 312.316 18.4781 304.862 18.4781H246.469C239.015 18.4781 232.973 24.5062 232.973 31.9422V186.979C232.973 194.415 239.015 200.443 246.469 200.443Z" fill="#1F275F"/>
<path d="M237.614 200.443H296.007C303.461 200.443 309.504 194.415 309.504 186.979V31.9422C309.504 24.5062 303.461 18.4781 296.007 18.4781H237.614C230.16 18.4781 224.118 24.5062 224.118 31.9422V186.979C224.118 194.415 230.16 200.443 237.614 200.443Z" fill="#7788FF"/>
<path d="M237.536 196.369H296.086C301.218 196.369 305.378 192.219 305.378 187.099V32.6851C305.378 27.5651 301.218 23.4146 296.086 23.4146H237.536C232.404 23.4146 228.243 27.5651 228.243 32.6851V187.099C228.243 192.219 232.404 196.369 237.536 196.369Z" fill="white"/>
<path d="M280.49 27.9629L252.497 27.9629C251.111 27.9629 249.986 26.8405 249.986 25.4582V21.3737L283 21.3737V25.4582C283 26.8405 281.875 27.9629 280.49 27.9629Z" fill="#7788FF"/>
<path d="M258.903 23.7676H271.848" stroke="#312220" stroke-width="0.87" stroke-linecap="round" stroke-linejoin="round"/>
<path d="M301.216 54.3398H232.462V105.707H301.216V54.3398Z" fill="#D8DFFD"/>
<mask id="mask1_182_6810" style="mask-type:luminance" maskUnits="userSpaceOnUse" x="232" y="54" width="70" height="52">
<path d="M301.216 54.3398H232.462V105.707H301.216V54.3398Z" fill="white"/>
</mask>
<g mask="url(#mask1_182_6810)">
<path d="M305.545 58.2891L220.117 122.632" stroke="white" stroke-width="5.13" stroke-miterlimit="10"/>
<path d="M325.87 68.916L240.448 133.254" stroke="white" stroke-width="5.13" stroke-miterlimit="10"/>
<path d="M284.818 47.9844L209.303 104.86" stroke="white" stroke-width="5.13" stroke-miterlimit="10"/>
<path d="M237.333 49.4082L268.983 95.8284C270.056 97.4029 269.775 99.5283 268.332 100.77L258.174 109.516C253.543 113.507 252.903 117.851 256.726 122.616L273.124 145.642" stroke="white" stroke-width="5.13" stroke-miterlimit="10"/>
</g>
<path d="M290.063 49.2622C290.063 42.725 283.146 37.7987 276.213 41.3687C275.134 41.9247 273.764 43.2654 273.181 44.3255C271.368 47.5993 271.53 50.8315 272.832 53.3778H272.822L272.895 53.5129C272.926 53.5752 272.962 53.6376 272.999 53.7L280.948 68.0423L288.912 53.6792C288.938 53.6324 288.964 53.5804 288.99 53.5337L289.027 53.4661C289.688 52.2086 290.063 50.7795 290.063 49.2622Z" fill="#EAA947"/>
<path d="M282.507 52.9009C284.565 52.0458 285.539 49.6881 284.682 47.6348C283.825 45.5815 281.461 44.6103 279.403 45.4654C277.345 46.3205 276.371 48.6782 277.228 50.7314C278.085 52.7847 280.449 53.756 282.507 52.9009Z" fill="white"/>
<path d="M198.364 157.178H188.926C179.659 157.178 172.147 166.874 172.147 178.837C172.147 190.799 179.659 200.496 188.926 200.496H198.364C207.631 200.496 215.143 190.799 215.143 178.837C215.143 166.874 207.631 157.178 198.364 157.178Z" fill="black"/>
<path d="M316.072 157.178H306.634C297.367 157.178 289.855 166.874 289.855 178.837C289.855 190.799 297.367 200.496 306.634 200.496H316.072C325.339 200.496 332.851 190.799 332.851 178.837C332.851 166.874 325.339 157.178 316.072 157.178Z" fill="black"/>
<path d="M271.238 151.93H201.662V182.973H271.238V151.93Z" fill="black"/>
<path d="M239.698 200.443C248.748 200.443 256.085 190.97 256.085 179.283C256.085 167.597 248.748 158.123 239.698 158.123C230.647 158.123 223.31 167.597 223.31 179.283C223.31 190.97 230.647 200.443 239.698 200.443Z" fill="black"/>
<path d="M230.478 200.444H239.698L249.126 191.043L239.698 158.129H230.478V200.444Z" fill="black"/>
<path d="M230.478 200.443C239.528 200.443 246.865 190.97 246.865 179.283C246.865 167.597 239.528 158.123 230.478 158.123C221.427 158.123 214.09 167.597 214.09 179.283C214.09 190.97 221.427 200.443 230.478 200.443Z" fill="#253A6A"/>
<path d="M229.348 189.546C233.717 189.546 237.26 184.754 237.26 178.841C237.26 172.929 233.717 168.137 229.348 168.137C224.978 168.137 221.435 172.929 221.435 178.841C221.435 184.754 224.978 189.546 229.348 189.546Z" fill="#B8B8C2"/>
<mask id="mask2_182_6810" style="mask-type:luminance" maskUnits="userSpaceOnUse" x="221" y="168" width="17" height="22">
<path d="M229.348 189.546C233.717 189.546 237.26 184.754 237.26 178.841C237.26 172.929 233.717 168.137 229.348 168.137C224.978 168.137 221.435 172.929 221.435 178.841C221.435 184.754 224.978 189.546 229.348 189.546Z" fill="white"/>
</mask>
<g mask="url(#mask2_182_6810)">
<path d="M233.03 189.546C237.4 189.546 240.943 184.754 240.943 178.841C240.943 172.929 237.4 168.137 233.03 168.137C228.66 168.137 225.118 172.929 225.118 178.841C225.118 184.754 228.66 189.546 233.03 189.546Z" fill="white"/>
</g>
<path d="M153.53 151.93H83.9536V182.973H153.53V151.93Z" fill="black"/>
<path d="M121.99 200.443C131.04 200.443 138.377 190.97 138.377 179.283C138.377 167.597 131.04 158.123 121.99 158.123C112.939 158.123 105.602 167.597 105.602 179.283C105.602 190.97 112.939 200.443 121.99 200.443Z" fill="black"/>
<path d="M112.77 200.444H121.99L131.413 191.043L121.99 158.129H112.77V200.444Z" fill="black"/>
<path d="M112.77 200.443C121.82 200.443 129.157 190.97 129.157 179.283C129.157 167.597 121.82 158.123 112.77 158.123C103.719 158.123 96.3823 167.597 96.3823 179.283C96.3823 190.97 103.719 200.443 112.77 200.443Z" fill="#253A6A"/>
<path d="M111.64 189.546C116.009 189.546 119.552 184.754 119.552 178.841C119.552 172.929 116.009 168.137 111.64 168.137C107.27 168.137 103.727 172.929 103.727 178.841C103.727 184.754 107.27 189.546 111.64 189.546Z" fill="#B8B8C2"/>
<mask id="mask3_182_6810" style="mask-type:luminance" maskUnits="userSpaceOnUse" x="103" y="168" width="17" height="22">
<path d="M111.64 189.546C116.009 189.546 119.552 184.754 119.552 178.841C119.552 172.929 116.009 168.137 111.64 168.137C107.27 168.137 103.727 172.929 103.727 178.841C103.727 184.754 107.27 189.546 111.64 189.546Z" fill="white"/>
</mask>
<g mask="url(#mask3_182_6810)">
<path d="M115.322 189.546C119.692 189.546 123.235 184.754 123.235 178.841C123.235 172.929 119.692 168.137 115.322 168.137C110.952 168.137 107.41 172.929 107.41 178.841C107.41 184.754 110.952 189.546 115.322 189.546Z" fill="white"/>
</g>
<path d="M72.9002 182.973V146.213C72.9002 140.969 76.7549 136.5 81.9587 135.783C86.527 135.149 92.3767 134.599 98.4296 134.708C98.4296 134.708 133.413 113.257 146.238 113.257L226.602 112.846C237.359 112.701 247.996 115.117 257.627 119.898L293.418 137.664L341.003 148.057C341.003 148.057 350.858 150.723 352.973 157.115C355.088 163.507 354.379 170.532 354.379 170.532H249.866C249.866 170.532 245.157 155.759 230.087 155.759C215.018 155.759 210.934 173.889 211.877 182.973H132.913C132.913 182.973 133.226 156.034 112.817 156.975C92.408 157.915 93.9759 182.973 93.9759 182.973H72.895" fill="#EAA947"/>
<mask id="mask4_182_6810" style="mask-type:luminance" maskUnits="userSpaceOnUse" x="72" y="112" width="283" height="71">
<path d="M72.9002 182.973V146.213C72.9002 140.969 76.7549 136.5 81.9587 135.783C86.527 135.149 92.3767 134.599 98.4296 134.708C98.4296 134.708 133.413 113.257 146.238 113.257L226.602 112.846C237.359 112.701 247.996 115.117 257.627 119.898L293.418 137.664L341.003 148.057C341.003 148.057 350.858 150.723 352.973 157.115C355.088 163.507 354.379 170.532 354.379 170.532H249.866C249.866 170.532 245.157 155.759 230.087 155.759C215.018 155.759 210.934 173.889 211.877 182.973H132.913C132.913 182.973 133.226 156.034 112.817 156.975C92.408 157.915 93.9759 182.973 93.9759 182.973H72.895" fill="white"/>
</mask>
<g mask="url(#mask4_182_6810)">
<path d="M210.158 129.351L265.858 158.784L373.788 158.659L278.995 112.842L261.888 133.877L210.158 129.351Z" fill="#F0C98C"/>
</g>
<path d="M73.6763 170.537C70.9207 170.537 68.6912 172.761 68.686 175.51V178.004C68.686 180.753 70.9155 182.977 73.6711 182.977H93.981C93.981 182.977 93.8768 176.196 95.6791 170.537H73.6763Z" fill="#CF8127"/>
<path d="M164.667 102.719H195.853C198.448 102.719 200.557 104.823 200.557 107.411V113.262H159.963V107.411C159.963 104.823 162.073 102.719 164.667 102.719Z" fill="black"/>
<path d="M170.731 102.719H201.917C204.511 102.719 206.621 104.823 206.621 107.411V113.262H166.027V107.411C166.027 104.823 168.137 102.719 170.731 102.719Z" fill="#CF8127"/>
<path d="M177.195 105.993H175.262V105.078H180.211V105.993H178.278V110.898H177.195V105.993Z" fill="black"/>
<path d="M185.149 109.552H182.232L181.659 110.898H180.544L183.169 105.078H184.237L186.873 110.898H185.737L185.154 109.552H185.149ZM184.789 108.705L183.69 106.159L182.596 108.705H184.789Z" fill="black"/>
<path d="M191.618 110.898L190.035 108.684L188.467 110.898H187.232L189.399 107.931L187.347 105.078H188.571L190.061 107.146L191.535 105.078H192.712L190.67 107.889L192.863 110.898H191.613H191.618Z" fill="black"/>
<path d="M194.155 105.078H195.239V110.898H194.155V105.078Z" fill="black"/>
<path d="M211.569 136.194L179.81 118.376C177.112 116.863 174.07 116.068 170.976 116.068H152.067C147.176 116.068 142.378 117.445 138.237 120.049L108.066 137.13C107.207 137.618 107.551 138.928 108.54 138.928H210.85C212.356 138.928 212.877 136.932 211.569 136.2V136.194Z" fill="black"/>
<mask id="mask5_182_6810" style="mask-type:luminance" maskUnits="userSpaceOnUse" x="107" y="116" width="106" height="23">
<path d="M211.569 136.194L179.81 118.376C177.112 116.863 174.07 116.068 170.976 116.068H152.067C147.176 116.068 142.378 117.445 138.237 120.049L108.066 137.13C107.207 137.618 107.551 138.928 108.54 138.928H210.85C212.356 138.928 212.877 136.932 211.569 136.2V136.194Z" fill="white"/>
</mask>
<g mask="url(#mask5_182_6810)">
<path d="M108.598 115.004L173.778 151.93H200.011L134.851 115.004H108.598Z" fill="#5E5E5E"/>
</g>
<path d="M107.863 137.863V150.647C107.863 150.647 135.57 145.081 138.378 176.759H201.662C201.662 176.759 199.969 145.793 211.653 138.243" stroke="black" stroke-width="0.79" stroke-linecap="round" stroke-linejoin="round"/>
<path d="M159.505 138.922C159.505 138.922 152.906 141.842 156.104 176.757" stroke="black" stroke-width="0.79" stroke-linecap="round" stroke-linejoin="round"/>
<path d="M169.683 142.014H163.328C162.632 142.014 162.068 142.577 162.068 143.271V143.853C162.068 144.548 162.632 145.111 163.328 145.111H169.683C170.38 145.111 170.944 144.548 170.944 143.853V143.271C170.944 142.577 170.38 142.014 169.683 142.014Z" fill="black"/>
<path d="M121.917 142.014H115.562C114.866 142.014 114.301 142.577 114.301 143.271V143.853C114.301 144.548 114.866 145.111 115.562 145.111H121.917C122.613 145.111 123.177 144.548 123.177 143.853V143.271C123.177 142.577 122.613 142.014 121.917 142.014Z" fill="black"/>
<path d="M191.884 119.669L228.233 138.922H290.027L248.454 118.64C244.975 116.941 241.151 116.062 237.281 116.062H192.78C190.78 116.062 190.113 118.733 191.879 119.669H191.884Z" fill="black"/>
<path d="M237.26 142.014H294.46" stroke="black" stroke-width="0.79" stroke-linecap="round" stroke-linejoin="round"/>
<path d="M203.651 116.062L244 138.922H257.466L217.132 116.062H203.651Z" fill="#5E5E5E"/>
<path d="M228.785 116.062L269.139 138.922H273.515L233.176 116.062H228.785Z" fill="#5E5E5E"/>
<path d="M348.253 182.972H254.845C252.09 182.972 249.86 180.743 249.86 177.999L249.871 170.537H354.384L354.301 176.944C354.301 180.275 351.592 182.977 348.253 182.977V182.972Z" fill="#CF8127"/>
<path d="M324.006 168.994H307.05V174.113H324.006V168.994Z" fill="white"/>
<path d="M286.938 158.789H336.918" stroke="black" stroke-width="0.79" stroke-linecap="round" stroke-linejoin="round"/>
<path d="M296.059 162.598H328.907" stroke="black" stroke-width="0.79" stroke-linecap="round" stroke-linejoin="round"/>
<path d="M296.059 166.387H328.907" stroke="black" stroke-width="0.79" stroke-linecap="round" stroke-linejoin="round"/>
<path d="M289.022 157.178H267.212C265.367 157.178 263.873 158.669 263.873 160.509V163.627C263.873 165.466 265.367 166.958 267.212 166.958H289.022C290.866 166.958 292.361 165.466 292.361 163.627V160.509C292.361 158.669 290.866 157.178 289.022 157.178Z" fill="white"/>
<path d="M353.009 157.178H336.465C334.621 157.178 333.126 158.669 333.126 160.509V163.632C333.126 165.471 334.621 166.963 336.465 166.963H354.499C354.645 160.394 353.233 157.583 353.009 157.183V157.178Z" fill="white"/>
<path d="M263.873 163.631H292.361" stroke="black" stroke-width="0.79" stroke-linecap="round" stroke-linejoin="round"/>
<path d="M333.126 163.631H354.384" stroke="black" stroke-width="0.79" stroke-linecap="round" stroke-linejoin="round"/>
<path d="M8.76172 200.5H360.745" stroke="black" stroke-width="0.98" stroke-linecap="round" stroke-linejoin="round"/>
</g>
<defs>
<clipPath id="clip0_182_6810">
<rect width="361" height="201" fill="white"/>
</clipPath>
</defs>
</svg>
