<svg width="126" height="136" viewBox="0 0 126 136" fill="none" xmlns="http://www.w3.org/2000/svg">
<g filter="url(#filter0_f_362_14286)">
<path fill-rule="evenodd" clip-rule="evenodd" d="M62.8799 127C92.3984 127 116.328 124.314 116.328 121C116.328 117.686 92.3984 115 62.8799 115C33.3614 115 9.43188 117.686 9.43188 121C9.43188 124.314 33.3614 127 62.8799 127Z" fill="black" fill-opacity="0.2"/>
</g>
<rect width="125.76" height="120" rx="34" fill="white"/>
<mask id="mask0_362_14286" style="mask-type:luminance" maskUnits="userSpaceOnUse" x="0" y="0" width="126" height="120">
<rect width="125.76" height="120" rx="34" fill="white"/>
</mask>
<g mask="url(#mask0_362_14286)">
<path opacity="0.5" fill-rule="evenodd" clip-rule="evenodd" d="M61.0243 -12V0.645075H55.0802V49.8526H47.2725V34.6987H43.1606V31.0384L34.1657 34.6987H31.9623V25.5954L21.2 12.4011L10.4383 25.5954V56.5529H5.38638V62.5689H-2.0679V38.0161H-8.2457L-7.98839 27.8288H-15.1376V24.9111H-22.3812L-23.4958 7.26697L-24.6099 24.9111H-26.0033V27.8288H-27.8831L-27.1943 55.1116H-28.5286V43.075L-43.5057 34.6987V49.8526H-58.4834V38.0161H-67.7287V31.0384L-83.5659 41.628V31.0384L-104.8 45.2367V149H-88.9634H-83.5659H-68.4035H-67.7287H-58.4834H-43.5057H-28.5286H-25.4246H-11.9886H-10.4475H-2.93423H-2.0679H10.4383H18.5898H31.9623H47.2725H55.0802H68.3134H73.9704H87.2395H90.8374H103.022H109.657H120.374H124.257H129.784H139.194H141.609H151.019H156.097H160.429H177.33H184.333H193.44H202.549H209.561H211.657H221.83H224.538H233.704V47.8745H226.491L226.997 27.8288H211.657V-1.18818H202.549V4.97991H193.44V10.6272H184.333V39.7421H177.33V26.2054H174.837V24.7125H158.59V26.2054H156.097V54.4319H151.019V18.1551H148.524V16.6622H132.279V18.1551H129.784V39.0449H124.257V26.2054H121.763V24.7125H105.517V26.2054H103.022V31.0384L97.8091 36.3556V45.2703H90.8374V39.7421H87.2395V26.2054H73.9704V18.1912L68.3134 13.6202V0.645075H62.3687V-12H61.0243Z" fill="#7895FF" fill-opacity="0.25"/>
<path opacity="0.5" fill-rule="evenodd" clip-rule="evenodd" d="M133.137 47V56.5034H128.665V93.4855H122.792V82.0966H119.698V79.3457L112.931 82.0966H111.273V75.2549L103.177 65.3387L95.0804 75.2549V98.5211H91.2797V103.042H85.6717V84.5898H81.024L81.2176 76.9335H75.8391V74.7406H70.3896L69.551 61.4801L68.7128 74.7406H67.6646V76.9335H66.2503L66.7685 97.4379H65.7647V88.3918L54.4971 82.0966V93.4855H43.2291V84.5898H36.2736V79.3457L24.3589 87.3043V79.3457L8.38403 90.0164V168H20.2983H24.3589H35.766H36.2736H43.2291H54.4971H65.7647H68.1H78.2082H79.3675H85.0199H85.6717H95.0804H101.213H111.273H122.792H128.665H138.621H142.877H152.86H155.566H164.733H169.725H177.788H180.709H184.867H191.946H193.763H200.842H204.662H207.921H220.637H225.905H232.757H239.61H244.885H246.462H254.115H256.153H263.048V91.9988H257.622L258.002 76.9335H246.462V55.1257H239.61V59.7613H232.757V64.0055H225.905V85.8869H220.637V75.7134H218.761V74.5914H206.538V75.7134H204.662V96.9271H200.842V69.6632H198.965V68.5412H186.743V69.6632H184.867V85.363H180.709V75.7134H178.832V74.5914H166.61V75.7134H164.733V79.3457L160.811 83.3418V90.0416H155.566V85.8869H152.86V75.7134H142.877V69.6903L138.621 66.2549V56.5034H134.149V47H133.137Z" fill="#B7D8FF"/>
<path opacity="0.5" fill-rule="evenodd" clip-rule="evenodd" d="M-35.2407 75V82.2258H-31.8362V110.344H-27.3643V101.685H-25.0091V99.5934L-19.8573 101.685H-18.5953V96.4831L-12.4311 88.9435L-6.2673 96.4831V114.173H-3.37378V117.611H0.895687V103.581H4.43406L4.28668 97.7593H8.38142V96.092H12.5302L13.1687 86.0097L13.8068 96.092H14.6048V97.7593H15.6815L15.287 113.349H16.0512V106.471L24.6294 101.685V110.344H33.2079V103.581H38.5033V99.5934L47.5741 105.645V99.5934L59.7361 107.707V167H50.6655H47.5741H38.8897H38.5033H33.2079H24.6294H16.0512H14.2733H6.5778H5.69514H1.39188H0.895687H-6.2673H-10.9361H-18.5953H-27.3643H-31.8362H-39.4156H-42.6556H-50.2556H-52.3163H-59.2952H-63.0952H-69.2336H-71.4575H-74.6232H-80.0125H-81.3962H-86.7855H-89.6938H-92.1751H-101.855H-105.866H-111.083H-116.3H-120.316H-121.516H-127.343H-128.894H-134.144V109.214H-130.013L-130.302 97.7593H-121.516V81.1782H-116.3V84.7028H-111.083V87.9298H-105.866V104.567H-101.855V96.8317H-100.427V95.9786H-91.1223V96.8317H-89.6938V112.961H-86.7855V92.2315H-85.3568V91.3784H-76.052V92.2315H-74.6232V104.169H-71.4575V96.8317H-70.0291V95.9786H-60.7243V96.8317H-59.2952V99.5934L-56.3094 102.632V107.726H-52.3163V104.567H-50.2556V96.8317H-42.6556V92.2521L-39.4156 89.6401V82.2258H-36.0107V75H-35.2407Z" fill="#E5ECFE"/>
</g>
<path d="M31.4616 86.9339H34.9558C37.1506 86.9339 38.8544 85.2301 38.8544 83.0353V78.0393C45.2943 78.4436 54.7953 78.7613 62.448 78.7613C70.1008 78.7613 79.6018 78.4725 86.0128 78.0393V83.0353C86.0128 85.2301 87.7166 86.9339 89.9402 86.9339H93.4056C95.6292 86.9339 97.3331 85.2301 97.3331 83.0353V65.9104C97.3331 60.799 96.3801 57.9689 93.6944 54.4746L91.1242 51.2402C90.0557 46.071 88.1498 40.613 87.139 38.476C85.5218 35.0395 82.403 33.018 78.4178 32.4693C76.3096 32.1805 70.1297 32.0361 62.448 32.0361C54.7664 32.0361 48.5575 32.2094 46.4783 32.4693C42.4931 32.9602 39.3454 35.0395 37.757 38.476C36.7463 40.613 34.8403 46.071 33.7718 51.2402L31.2017 54.4746C28.4871 57.9689 27.563 60.799 27.563 65.9104V83.0353C27.563 85.2301 29.2668 86.9339 31.4616 86.9339ZM40.2406 48.5834C40.9048 45.7245 42.1754 41.9125 43.0418 40.382C43.8793 38.8514 44.8322 38.2161 46.6227 37.9851C48.6731 37.6963 53.6113 37.523 62.448 37.523C71.2559 37.523 76.223 37.6385 78.2734 37.9851C80.0638 38.245 80.9879 38.8514 81.8543 40.382C82.7495 41.8836 83.9335 45.7245 84.6266 48.5834C84.9443 49.8252 84.3956 50.4028 83.0961 50.345C78.6488 50.0851 73.0464 49.7963 62.448 49.7963C51.8497 49.7963 46.2473 50.0851 41.8 50.345C40.4716 50.4028 39.9807 49.8252 40.2406 48.5834ZM41.2802 70.6754C38.5368 70.6754 36.4286 68.5961 36.4286 65.8527C36.4286 63.0804 38.5368 61.0011 41.2802 61.0011C44.0236 61.0011 46.1029 63.0804 46.1029 65.8527C46.1029 68.5961 44.0236 70.6754 41.2802 70.6754ZM83.6159 70.6754C80.8435 70.6754 78.7643 68.5961 78.7643 65.8527C78.7643 63.0804 80.8435 61.0011 83.6159 61.0011C86.3593 61.0011 88.4385 63.0804 88.4385 65.8527C88.4385 68.5961 86.3593 70.6754 83.6159 70.6754ZM54.6509 69.4625C52.5716 69.4625 51.1277 68.0186 51.1277 65.9682C51.1277 63.9178 52.5716 62.4739 54.6509 62.4739H70.2452C72.2955 62.4739 73.7395 63.9178 73.7395 65.9682C73.7395 68.0186 72.2955 69.4625 70.2452 69.4625H54.6509Z" fill="#7895FF"/>
<defs>
<filter id="filter0_f_362_14286" x="1.27704" y="106.845" width="123.206" height="28.3097" filterUnits="userSpaceOnUse" color-interpolation-filters="sRGB">
<feFlood flood-opacity="0" result="BackgroundImageFix"/>
<feBlend mode="normal" in="SourceGraphic" in2="BackgroundImageFix" result="shape"/>
<feGaussianBlur stdDeviation="4.07742" result="effect1_foregroundBlur_362_14286"/>
</filter>
</defs>
</svg>
