<svg width="183" height="125" viewBox="0 0 183 125" fill="none" xmlns="http://www.w3.org/2000/svg">
<g opacity="0.2" clip-path="url(#clip0_142_10539)">
<g style="mix-blend-mode:soft-light">
<path d="M60.0747 100.737C59.6402 100.811 58.6302 100.587 58.3906 100.42C56.7977 99.3073 53.6805 97.4174 53.2008 95.4154C53.1183 95.0738 54.5189 94.305 54.6346 93.9326C55.4091 93.2246 55.7212 93.0271 56.1277 91.9914C57.3254 88.9344 51.4768 85.6738 56.1543 82.4667C59.5796 80.1177 63.1773 80.4467 60.9749 74.6736C58.7726 68.9006 60.1652 56.7266 67.6286 58.9394C71.9109 60.2074 69.8197 66.3327 72.7792 69.4705C75.591 72.4521 74.9862 75.8014 71.9042 79.0506C68.8223 82.2998 71.3054 83.3128 73.4047 86.3245C75.9257 89.9394 69.9873 92.5346 67.1435 93.4982C64.8494 94.275 59.5404 97.7998 60.0747 100.737Z" fill="url(#paint0_linear_142_10539)"/>
<mask id="mask0_142_10539" style="mask-type:luminance" maskUnits="userSpaceOnUse" x="53" y="58" width="22" height="43">
<path d="M60.0747 100.737C59.6402 100.811 58.6302 100.587 58.3906 100.42C56.7977 99.3073 53.6805 97.4174 53.2008 95.4154C53.1183 95.0738 54.5189 94.305 54.6346 93.9326C55.4091 93.2246 55.7212 93.0271 56.1277 91.9914C57.3254 88.9344 51.4768 85.6738 56.1543 82.4667C59.5796 80.1177 63.1773 80.4467 60.9749 74.6736C58.7726 68.9006 60.1652 56.7266 67.6286 58.9394C71.9109 60.2074 69.8197 66.3327 72.7792 69.4705C75.591 72.4521 74.9862 75.8014 71.9042 79.0506C68.8223 82.2998 71.3054 83.3128 73.4047 86.3245C75.9257 89.9394 69.9873 92.5346 67.1435 93.4982C64.8494 94.275 59.5404 97.7998 60.0747 100.737Z" fill="white"/>
</mask>
<g mask="url(#mask0_142_10539)">
<path d="M55.8986 98.0728L55.832 98.0061C66.3994 88.139 69.9831 73.0568 65.422 57.6563L65.5118 57.6289C67.6736 64.9268 68.0103 72.4402 66.4852 79.357C64.8817 86.6322 61.2208 93.1026 55.8986 98.0728Z" fill="#FCFDFE"/>
<path d="M74.6197 87.7081C70.6721 87.6261 64.6611 89.4305 61.2205 91.7314L61.168 91.6534C64.6232 89.3438 70.6581 87.5313 74.6217 87.6141L74.6197 87.7081Z" fill="#FCFDFE"/>
<path d="M57.9503 96.1125L57.8698 96.0644C58.9756 94.2153 59.1067 91.8763 58.2597 89.1129C57.6389 87.0869 56.5164 84.8841 54.9229 82.5651L55 82.5117C56.5969 84.8387 57.728 87.0495 58.3495 89.0855C59.2045 91.8756 59.0701 94.24 57.9503 96.1125Z" fill="#FCFDFE"/>
<path d="M66.6632 78.3705L66.5801 78.3258C68.4857 74.7336 72.2763 72.7683 75.1201 71.752L75.152 71.8407C72.3235 72.851 68.5542 74.807 66.6632 78.3705Z" fill="#FCFDFE"/>
<path d="M67.414 69.0855L67.3222 69.1062C66.3075 64.6351 62.6254 61.5501 60.5215 60.1087L60.5741 60.0312C62.6899 61.48 66.392 64.5837 67.414 69.0855Z" fill="#FCFDFE"/>
</g>
</g>
<g style="mix-blend-mode:soft-light">
<path d="M57.8906 98.5387C57.4727 98.3993 56.6856 97.7253 56.5525 97.465C55.6682 95.73 53.8012 92.5935 54.3129 90.6029C54.4 90.2626 55.9969 90.2432 56.2731 89.969C57.2884 89.7094 57.6564 89.682 58.5007 88.96C60.9925 86.8245 57.3549 81.191 62.9859 80.5643C67.1112 80.1052 70.1327 82.0912 70.8932 75.9598C71.6537 69.8284 78.5868 59.7358 84.134 65.2052C87.3191 68.3416 82.6036 72.764 83.7467 76.9288C84.8319 80.886 82.7287 83.5573 78.4863 84.9734C74.244 86.3894 75.9579 88.4535 76.4031 92.0991C76.9354 96.478 70.4773 95.9695 67.5158 95.4811C65.1344 95.084 58.7968 95.6946 57.8906 98.5387Z" fill="url(#paint1_linear_142_10539)"/>
<mask id="mask1_142_10539" style="mask-type:luminance" maskUnits="userSpaceOnUse" x="54" y="63" width="32" height="36">
<path d="M57.8906 98.5387C57.4727 98.3993 56.6856 97.7253 56.5525 97.465C55.6682 95.73 53.8012 92.5935 54.3129 90.6029C54.4 90.2626 55.9969 90.2432 56.2731 89.969C57.2884 89.7094 57.6564 89.682 58.5007 88.96C60.9925 86.8245 57.3549 81.191 62.9859 80.5643C67.1112 80.1052 70.1327 82.0912 70.8932 75.9598C71.6537 69.8284 78.5868 59.7358 84.134 65.2052C87.3191 68.3416 82.6036 72.764 83.7467 76.9288C84.8319 80.886 82.7287 83.5573 78.4863 84.9734C74.244 86.3894 75.9579 88.4535 76.4031 92.0991C76.9354 96.478 70.4773 95.9695 67.5158 95.4811C65.1344 95.084 58.7968 95.6946 57.8906 98.5387Z" fill="white"/>
</mask>
<g mask="url(#mask1_142_10539)">
<path d="M55.4543 94.2174L55.4297 94.1266C69.3771 90.3976 79.6071 78.7728 82.7949 63.0293L82.8867 63.048C81.3764 70.5087 78.1526 77.2994 73.5663 82.6867C68.7437 88.3536 62.4819 92.3389 55.4543 94.2174Z" fill="#FCFDFE"/>
<path d="M76.8368 93.8936C73.3909 91.9584 67.2389 90.7212 63.1236 91.1309L63.1143 91.0375C67.2462 90.6264 73.4221 91.871 76.882 93.8115L76.8368 93.8936Z" fill="#FCFDFE"/>
<path d="M58.1833 93.4545L58.1348 93.3744C59.9772 92.2633 61.1888 90.2607 61.7364 87.4225C62.1356 85.3411 62.1789 82.8674 61.8588 80.0693L61.952 80.0586C62.2727 82.866 62.2314 85.3498 61.8282 87.4399C61.276 90.3054 60.0497 92.3294 58.1833 93.4545Z" fill="#FCFDFE"/>
<path d="M74.1873 81.8992L74.1348 81.8211C77.5002 79.5475 81.7665 79.5996 84.7534 80.0427L84.7394 80.1354C81.7692 79.695 77.5275 79.6429 74.1873 81.8992Z" fill="#FCFDFE"/>
<path d="M79.2006 74.0568L79.1101 74.0321C80.3078 69.6084 78.5046 65.1494 77.3223 62.8878L77.4054 62.8438C78.5938 65.118 80.4076 69.6024 79.2006 74.0568Z" fill="#FCFDFE"/>
</g>
</g>
<path d="M35.9104 114.364C36.5092 114.207 37.6742 113.337 37.8845 112.985C39.2818 110.64 42.1921 106.421 41.6618 103.58C41.5713 103.095 39.333 102.919 38.9737 102.509C37.5764 102.05 37.0621 101.975 35.947 100.886C32.6547 97.6646 38.2757 90.1098 30.4444 88.7044C24.7082 87.6754 20.2902 90.1725 19.7985 81.51C19.3068 72.8474 10.5266 58.0582 2.24277 65.2039C-2.51128 69.3033 3.68262 75.9358 1.69517 81.6641C-0.19647 87.1068 2.50426 91.0454 8.31557 93.4264C14.1269 95.8074 11.5306 98.5388 10.5705 103.604C9.41809 109.69 18.513 109.583 22.7075 109.174C26.0855 108.846 34.9076 110.294 35.9104 114.364Z" fill="url(#paint2_linear_142_10539)"/>
<mask id="mask2_142_10539" style="mask-type:luminance" maskUnits="userSpaceOnUse" x="0" y="63" width="43" height="53">
<path d="M42.9466 102.665C42.1534 106.856 41.518 111.154 40.7422 115.379C38.3668 115.88 35.561 116.411 34.6548 113.519C33.3952 109.499 26.0715 108.821 22.6994 109.168C18.5243 109.598 9.41404 109.684 10.5705 103.604C11.5326 98.5426 14.1268 95.8066 8.31552 93.4262C2.5042 91.0459 -0.193195 87.1066 1.69512 81.6633C3.68124 75.935 -2.51067 69.3058 2.24271 65.203C10.5252 58.058 19.3041 72.8539 19.7938 81.5065C20.2835 90.159 24.7248 87.7086 30.4397 88.6956C38.2418 90.0422 32.7279 97.8112 35.9156 100.811C38.4141 103.163 40.0582 102.466 42.9466 102.665Z" fill="white"/>
</mask>
<g mask="url(#mask2_142_10539)">
<path d="M4.20996 62.3031L4.3111 62.2891C5.73099 72.8628 9.60676 82.6598 15.5199 90.6203C18.511 94.6658 22.0766 98.2502 26.1032 101.26C30.2576 104.348 34.8674 106.766 39.7659 108.427L39.7326 108.525C34.8241 106.86 30.205 104.436 26.042 101.342C22.0082 98.3267 18.4362 94.7354 15.4394 90.6824C9.5176 82.7072 5.63185 72.8935 4.20996 62.3031Z" fill="#FCFDFE"/>
<path d="M9.75195 105.972C14.7775 103.578 23.5424 102.413 29.2905 103.374L29.2738 103.476C23.543 102.518 14.8054 103.677 9.79587 106.065L9.75195 105.972Z" fill="#FCFDFE"/>
<path d="M31.6746 89.8047C31.7558 89.2446 31.8494 88.6749 31.9554 88.0957L32.0565 88.1144C31.3479 92.0062 31.1749 95.477 31.5435 98.4312C32.0466 102.463 33.5596 105.385 36.0408 107.117L35.9822 107.202C33.4758 105.453 31.9481 102.507 31.4417 98.4439C31.1277 95.9194 31.2089 93.0192 31.6746 89.8047Z" fill="#FCFDFE"/>
<path d="M0.00292969 85.9509C4.22535 85.6092 10.2037 85.9362 14.7036 89.433L14.641 89.5151C10.1671 86.0376 4.21537 85.7113 0.0109141 86.0537L0.00292969 85.9509Z" fill="#FCFDFE"/>
<path d="M8.24517 72.2368C8.35531 71.4862 8.50501 70.742 8.69363 70.0072C9.32706 67.5255 10.4382 64.9409 11.9074 62.5332L11.9952 62.5866C7.64302 69.7236 7.9065 75.3365 8.45077 78.0472L8.34964 78.0679C7.98169 76.2321 7.94709 74.2788 8.24517 72.2368Z" fill="#FCFDFE"/>
</g>
<path d="M36.2258 103.379C36.7448 103.513 37.9917 103.348 38.2998 103.171C40.3458 101.989 44.32 100.026 45.1131 97.6528C45.2462 97.247 43.6314 96.168 43.5296 95.7049C42.6646 94.7659 42.3066 94.4943 41.922 93.1964C40.7856 89.3653 48.2157 86.0266 42.8815 81.6516C38.9738 78.4485 34.5797 78.4685 37.8493 71.7025C41.1189 64.9365 40.6984 50.0365 31.4259 51.9377C26.1029 53.0287 28.0012 60.6676 24.0882 64.1611C20.3695 67.481 20.7547 71.6024 24.1507 75.8633C27.5468 80.1241 24.4329 81.0918 21.5764 84.5191C18.1445 88.6365 25.0716 92.4029 28.4177 93.8684C31.1118 95.0469 37.1786 99.875 36.2258 103.379Z" fill="url(#paint3_linear_142_10539)"/>
<mask id="mask3_142_10539" style="mask-type:luminance" maskUnits="userSpaceOnUse" x="20" y="51" width="27" height="56">
<path d="M46.4703 97.5046C44.1069 100.34 41.8187 103.324 39.4546 106.192C37.4466 105.567 35.0998 104.781 35.6308 102.21C36.368 98.635 31.1123 95.0268 28.4142 93.859C25.0741 92.4175 18.1443 88.6291 21.5762 84.5164C24.4333 81.0937 27.5472 80.1214 24.1505 75.8612C20.7538 71.601 20.3699 67.4796 24.088 64.1597C28.0003 60.6655 26.1034 53.0293 31.4257 51.9363C40.6995 50.0311 41.1181 64.9431 37.8491 71.6984C34.5802 78.4538 38.9722 78.4771 42.8813 81.6416C48.2189 85.9618 40.7794 89.5073 41.9291 93.1262C42.8307 95.961 44.3697 96.1325 46.4703 97.5046Z" fill="white"/>
</mask>
<g mask="url(#mask3_142_10539)">
<path d="M30.8238 62.9458C31.4499 58.7082 32.5586 54.5565 34.1281 50.5723L34.2232 50.6096C30.8505 59.2108 29.6634 68.2624 30.7892 76.7868C31.351 81.1126 32.5414 85.3326 34.3223 89.3125C36.1668 93.4059 38.6374 97.1854 41.6447 100.514L41.5689 100.581C38.5545 97.2448 36.0781 93.4571 34.2292 89.3545C32.444 85.3655 31.2508 81.1359 30.6874 76.8001C30.0906 72.2817 30.1445 67.6151 30.8238 62.9458Z" fill="#FCFDFE"/>
<path d="M19.9644 85.957C24.775 86.2713 31.8991 89.0988 35.8447 92.2593L35.7782 92.3393C31.8465 89.1902 24.7477 86.3734 19.9551 86.0598L19.9644 85.957Z" fill="#FCFDFE"/>
<path d="M38.5879 92.8137C38.744 91.746 39.0594 90.6217 39.534 89.441C40.5015 87.0386 42.097 84.4788 44.2761 81.8262L44.356 81.8929C42.1829 84.5368 40.5933 87.0894 39.6318 89.4804C38.3177 92.7429 38.2346 95.5924 39.3817 97.9501L39.2898 97.9955C38.5413 96.4633 38.3084 94.7289 38.5879 92.8137Z" fill="#FCFDFE"/>
<path d="M20.9629 66.7757L21.0055 66.6816C24.3456 68.2105 28.7331 70.9886 30.6686 75.5404L30.5741 75.5811C28.6525 71.0593 24.2897 68.2966 20.9629 66.7757Z" fill="#FCFDFE"/>
<path d="M30.6299 64.2522C31.2999 62.1534 32.5282 60.1495 34.2814 58.2963C35.8044 56.686 37.7333 55.1999 39.8585 53.998L39.9091 54.0881C33.6161 57.6456 31.4589 62.0026 30.727 64.2835L30.6299 64.2522Z" fill="#FCFDFE"/>
</g>
<mask id="mask4_142_10539" style="mask-type:luminance" maskUnits="userSpaceOnUse" x="10" y="49" width="24" height="64">
<path d="M24.7891 112.244C27.6058 112.06 30.4238 111.812 33.2432 111.498C33.2851 111.543 34.6877 105.55 32.0715 102.134C26.887 95.5072 31.162 90.2861 32.5186 87.0963C34.6398 82.6152 34.1987 76.9242 29.0368 77.5635C24.0179 78.068 24.0931 67.7946 25.5829 59.9969C26.6208 56.2271 23.3945 51.2883 19.8853 49.9343C16.311 48.4595 12.4538 50.5696 10.7146 58.1103C8.30127 66.8096 14.3009 72.6614 16.3236 77.2853C18.315 81.8231 12.5802 84.9014 16.6563 89.1116C20.069 92.8359 24.5209 95.6754 22.4716 99.8388C20.3797 103.952 20.5167 107.462 24.7891 112.244Z" fill="white"/>
</mask>
<g mask="url(#mask4_142_10539)">
<path d="M24.7891 112.244C27.6058 112.06 30.4238 111.812 33.2432 111.498C33.2851 111.543 34.6877 105.55 32.0715 102.134C26.887 95.5072 31.162 90.2861 32.5186 87.0963C34.6219 82.6172 34.1155 77.5415 29.4347 77.0864C24.2508 76.4791 24.0053 67.7719 25.5829 59.9969C26.6208 56.2271 23.3945 51.2883 19.8853 49.9343C16.311 48.4595 12.4538 50.5696 10.7146 58.1103C8.30127 66.8096 14.3009 72.6614 16.3236 77.2853C18.315 81.8231 12.5802 84.9014 16.6563 89.1116C20.069 92.8359 24.5209 95.6754 22.4716 99.8388C20.3797 103.952 20.5167 107.462 24.7891 112.244Z" fill="url(#paint4_linear_142_10539)"/>
<path d="M18.8156 55.7366C19.2061 53.0267 19.9409 50.3782 21.002 47.8555L21.0972 47.8955C18.9846 52.9145 18.1955 58.3331 18.6852 64.4599C19.123 69.9413 20.5263 75.5241 21.8837 80.9228C22.39 82.9394 22.9143 85.0241 23.3854 87.0895C26.9671 99.8855 28.5946 112.864 28.5892 112.915L28.4868 112.905L28.538 112.91H28.4868C28.4868 112.515 26.7209 99.3863 23.2862 87.1149C22.8145 85.0462 22.2882 82.9634 21.7838 80.9481C20.4258 75.5428 19.0212 69.9579 18.5828 64.4652C18.3372 61.3948 18.4131 58.4946 18.8156 55.7366Z" fill="#FCFDFE"/>
<path d="M9.96094 56.5495L9.98556 56.5181L9.9809 56.4514C10.0474 56.446 10.1086 56.5288 11.4993 58.6976C13.2958 61.5004 16.6439 66.7195 19.4677 70.4292L19.3859 70.4919C16.5601 66.7789 13.2119 61.5578 11.4128 58.753C10.6443 57.5571 10.0368 56.6102 9.96094 56.5495Z" fill="#FCFDFE"/>
<path d="M18.7178 65.6513C19.4543 62.6624 20.829 60.0331 22.6973 58.0578C24.1798 56.4889 25.5285 55.7889 25.8838 55.6661C25.9616 55.6394 25.9949 55.6381 26.0215 55.6588L25.955 55.7462C25.962 55.7523 25.9709 55.7559 25.9803 55.7562C25.8472 55.7615 24.5165 56.3728 23.0021 57.9063C21.6274 59.2924 19.7883 61.7668 18.8262 65.678L18.7178 65.6513Z" fill="#FCFDFE"/>
<path d="M25.517 92.4134C25.9275 89.5992 27.0473 86.7084 28.8664 83.7822C30.2184 81.6279 31.8041 79.6304 33.5945 77.8263C33.6904 77.7282 33.7669 77.6508 33.7775 77.6348L33.8693 77.7015C33.8076 77.7735 33.7424 77.8423 33.6737 77.9077C31.8891 79.7069 30.3085 81.6988 28.9609 83.8469C26.4991 87.8088 25.322 91.7053 25.4618 95.4277L25.3533 95.429C25.3157 94.4209 25.3704 93.4114 25.517 92.4134Z" fill="#BEB8F2"/>
<path d="M14.502 84.8287L14.5439 84.7833C14.6038 84.7726 21.6067 85.7175 24.5051 91.3898L24.4139 91.4372C21.5389 85.807 14.6197 84.8847 14.5532 84.8821V84.8307L14.5326 84.8781L14.502 84.8287Z" fill="#FCFDFE"/>
<path d="M28.2477 110.149C28.4906 108.487 29.47 105.996 32.4562 102.748C32.536 102.662 32.6046 102.588 32.6145 102.572L32.6538 102.598L32.7203 102.594C32.7203 102.625 32.7203 102.625 32.5387 102.825C29.162 106.495 28.3688 109.186 28.2983 110.796L28.1865 110.79C28.1952 110.593 28.2145 110.377 28.2477 110.149Z" fill="#BEB8F2"/>
<path d="M21.043 101.218L21.1015 101.123C21.1182 101.133 21.1634 101.158 21.2346 101.195C26.3839 103.931 27.5789 106.438 27.833 107.687L27.7239 107.71C27.4737 106.479 26.2914 104.01 21.1827 101.294C21.1082 101.255 21.0603 101.228 21.043 101.218Z" fill="#BEB8F2"/>
</g>
<path d="M65.3884 84.3691V125.001L59.6875 123.769V88.2276L64.872 84.7188L65.3225 84.4125L65.3884 84.3691Z" fill="#97A6B7"/>
<path d="M81.2321 84.3281H65.3877V125H81.2321V84.3281Z" fill="#F4F7FA"/>
<path d="M70.4173 88.8203H68.4053V122.329H70.4173V88.8203Z" fill="#97A6B7"/>
<path d="M74.6936 88.8203H72.5977V122.329H74.6936V88.8203Z" fill="#97A6B7"/>
<path d="M78.885 88.8203H76.7891V122.329H78.885V88.8203Z" fill="#97A6B7"/>
<g style="mix-blend-mode:multiply" opacity="0.5">
<path d="M70.4178 88.8203H69.7471V122.329H70.4178V88.8203Z" fill="#97A6B7"/>
</g>
<g style="mix-blend-mode:multiply" opacity="0.5">
<path d="M74.6931 88.8203H74.0225V122.329H74.6931V88.8203Z" fill="#97A6B7"/>
</g>
<g style="mix-blend-mode:multiply" opacity="0.5">
<path d="M78.9685 88.8203H78.2979V122.329H78.9685V88.8203Z" fill="#97A6B7"/>
</g>
<g style="mix-blend-mode:multiply" opacity="0.1">
<path d="M81.2318 124.998H65.3874L59.6865 123.768V119.635C62.3274 115.03 61.4584 113.117 62.0286 109.701C62.5849 106.365 61.4105 88.8005 64.8711 84.7178C64.9889 84.5751 65.1206 84.4446 65.2643 84.3281L65.3222 84.4115L65.3887 84.5063C67.1899 87.1155 68.0143 88.3614 68.4068 89.6854C68.7894 90.976 68.7608 92.3407 68.8227 95.1154C68.8999 98.5268 68.8839 101.495 69.7482 103.538C69.9187 103.955 70.1443 104.346 70.4189 104.702C70.9412 105.369 71.6452 105.867 72.5986 106.157C72.7038 106.19 72.8122 106.224 72.924 106.247C73.3057 106.342 73.6749 106.482 74.0239 106.663C74.2558 106.782 74.4798 106.916 74.6946 107.064C75.4344 107.568 76.1411 108.26 76.7898 109.101C77.3678 109.859 77.8731 110.671 78.2988 111.524C78.5064 111.934 78.7021 112.362 78.8857 112.806C78.9143 112.872 78.9423 112.939 78.9695 113.01C80.0612 115.767 80.5987 118.713 80.5511 121.678C80.5258 123.021 80.7873 124.101 81.2318 124.998Z" fill="#97A6B7"/>
</g>
<path d="M63.2503 64.9043H38.9385V125.001H63.2503V64.9043Z" fill="url(#paint5_linear_142_10539)"/>
<path d="M61.4063 70.6094H40.7832V74.3731H61.4063V70.6094Z" fill="#97A6B7"/>
<path d="M61.4063 77.2871H40.7832V81.0508H61.4063V77.2871Z" fill="#97A6B7"/>
<path d="M61.4063 83.9648H40.7832V87.7286H61.4063V83.9648Z" fill="#97A6B7"/>
<path d="M61.4063 90.6406H40.7832V94.4043H61.4063V90.6406Z" fill="#97A6B7"/>
<path d="M61.4063 97.3203H40.7832V101.084H61.4063V97.3203Z" fill="#97A6B7"/>
<path d="M61.4063 103.996H40.7832V107.76H61.4063V103.996Z" fill="#97A6B7"/>
<path d="M61.4063 110.674H40.7832V114.438H61.4063V110.674Z" fill="#97A6B7"/>
<path d="M38.938 64.9043V125.001H32.3994V70.6106L38.749 65.0691L38.9114 64.927L38.938 64.9043Z" fill="#97A6B7"/>
<g style="mix-blend-mode:multiply" opacity="0.5">
<path d="M34.4118 79.7148H30.3877V80.565H34.4118V79.7148Z" fill="#97A6B7"/>
</g>
<g style="mix-blend-mode:multiply" opacity="0.5">
<path d="M34.4118 90.2773H30.3877V91.1275H34.4118V90.2773Z" fill="#97A6B7"/>
</g>
<g style="mix-blend-mode:multiply" opacity="0.5">
<path d="M34.4118 100.84H30.3877V101.69H34.4118V100.84Z" fill="#97A6B7"/>
</g>
<g style="mix-blend-mode:multiply" opacity="0.5">
<path d="M34.4118 111.402H30.3877V112.253H34.4118V111.402Z" fill="#97A6B7"/>
</g>
<g style="mix-blend-mode:multiply" opacity="0.5">
<path d="M61.4063 70.6094H40.7832V71.3381H61.4063V70.6094Z" fill="#97A6B7"/>
</g>
<g style="mix-blend-mode:multiply" opacity="0.5">
<path d="M61.4063 77.2871H40.7832V78.0158H61.4063V77.2871Z" fill="#97A6B7"/>
</g>
<g style="mix-blend-mode:multiply" opacity="0.5">
<path d="M61.4063 83.9648H40.7832V84.6936H61.4063V83.9648Z" fill="#97A6B7"/>
</g>
<g style="mix-blend-mode:multiply" opacity="0.5">
<path d="M61.4063 90.6406H40.7832V91.3693H61.4063V90.6406Z" fill="#97A6B7"/>
</g>
<g style="mix-blend-mode:multiply" opacity="0.5">
<path d="M61.4063 97.3203H40.7832V98.049H61.4063V97.3203Z" fill="#97A6B7"/>
</g>
<g style="mix-blend-mode:multiply" opacity="0.5">
<path d="M61.4063 103.996H40.7832V104.725H61.4063V103.996Z" fill="#97A6B7"/>
</g>
<g style="mix-blend-mode:multiply" opacity="0.5">
<path d="M61.4063 110.674H40.7832V111.403H61.4063V110.674Z" fill="#97A6B7"/>
</g>
<g style="mix-blend-mode:multiply" opacity="0.1">
<path d="M62.4427 125.001H38.9386L32.3994 123.18V111.538C32.6569 110.812 32.9317 110.122 33.2278 109.488C35.9831 103.553 35.0862 101.141 35.663 96.7978C36.2326 92.5109 34.991 69.5148 38.749 65.0691C38.7983 65.0111 38.8482 64.9563 38.8987 64.9043C38.9034 64.9116 38.9074 64.9196 38.9114 64.927C38.9207 64.9443 38.93 64.9597 38.9386 64.9757C40.4217 67.6757 41.2588 69.2332 41.7392 70.6099C41.8257 70.8568 41.9002 71.0984 41.9641 71.3386C42.2103 72.2529 42.3154 73.1631 42.3699 74.3736C42.4052 75.1811 42.4192 76.122 42.4365 77.2878C42.4405 77.5205 42.4445 77.7632 42.4485 78.0159C42.4511 78.1623 42.4536 78.3113 42.4558 78.463C42.4717 79.3519 42.4837 80.2161 42.5004 81.0516C42.5203 82.0686 42.5483 83.0435 42.5975 83.9651C42.6115 84.2113 42.6261 84.4543 42.6427 84.6938C42.7049 85.713 42.8345 86.7269 43.0307 87.7288C43.2675 88.8773 43.6162 89.8596 44.1358 90.6424C44.3078 90.9048 44.506 91.149 44.7273 91.3711C45.2375 91.8799 45.8665 92.2527 46.5571 92.4555C47.4886 92.7391 48.3982 93.4178 49.2452 94.4061C49.9212 95.1942 50.558 96.1798 51.1355 97.3203C51.2546 97.5558 51.3717 97.7994 51.4855 98.0483C51.9345 99.0346 52.3212 100.048 52.6432 101.083C52.9353 102.01 53.1915 102.986 53.4077 103.998C53.4603 104.238 53.5089 104.481 53.5554 104.726C53.7444 105.711 53.8941 106.728 53.9999 107.761C54.099 108.719 54.1609 109.692 54.1802 110.675C54.1847 110.916 54.1871 111.159 54.1875 111.404C54.1875 111.553 54.1875 111.702 54.1842 111.853C54.166 112.72 54.2396 113.587 54.4038 114.439C55.6187 120.52 61.4693 120.992 62.4427 125.001Z" fill="#97A6B7"/>
</g>
<g style="mix-blend-mode:multiply" opacity="0.5">
<path d="M23.8443 79.6328H19.7363V80.483H23.8443V79.6328Z" fill="#97A6B7"/>
</g>
<g style="mix-blend-mode:multiply" opacity="0.5">
<path d="M23.8443 90.1934H19.7363V91.0435H23.8443V90.1934Z" fill="#97A6B7"/>
</g>
<g style="mix-blend-mode:multiply" opacity="0.5">
<path d="M23.8443 100.756H19.7363V101.606H23.8443V100.756Z" fill="#97A6B7"/>
</g>
<path d="M15.549 73.8867V124.999L9.00977 123.45V78.7388L15.549 73.8867Z" fill="#97A6B7"/>
<path d="M36.0052 74.0098H15.5498V125.001H36.0052V74.0098Z" fill="#F4F7FA"/>
<path d="M23.2614 80.0781H19.2373V88.0914H23.2614V80.0781Z" fill="#97A6B7"/>
<path d="M28.8785 80.0781H24.7705V88.0914H28.8785V80.0781Z" fill="#97A6B7"/>
<path d="M34.4118 80.0781H30.3877V88.0914H34.4118V80.0781Z" fill="#97A6B7"/>
<path d="M23.2614 90.6406H19.2373V98.6539H23.2614V90.6406Z" fill="#97A6B7"/>
<path d="M28.8785 90.6406H24.7705V98.6539H28.8785V90.6406Z" fill="#97A6B7"/>
<path d="M34.4118 90.6406H30.3877V98.6539H34.4118V90.6406Z" fill="#97A6B7"/>
<path d="M23.2614 101.203H19.2373V109.216H23.2614V101.203Z" fill="#97A6B7"/>
<path d="M28.8785 101.203H24.7705V109.216H28.8785V101.203Z" fill="#97A6B7"/>
<path d="M34.4118 101.203H30.3877V109.216H34.4118V101.203Z" fill="#97A6B7"/>
<path d="M23.2614 111.768H19.2373V119.781H23.2614V111.768Z" fill="#97A6B7"/>
<path d="M28.8785 111.768H24.7705V119.781H28.8785V111.768Z" fill="#97A6B7"/>
<path d="M34.4118 111.768H30.3877V119.781H34.4118V111.768Z" fill="#97A6B7"/>
<g style="mix-blend-mode:multiply" opacity="0.5">
<path d="M23.2614 80.0781H19.2373V80.9283H23.2614V80.0781Z" fill="#97A6B7"/>
</g>
<g style="mix-blend-mode:multiply" opacity="0.5">
<path d="M23.2614 90.6406H19.2373V91.4908H23.2614V90.6406Z" fill="#97A6B7"/>
</g>
<g style="mix-blend-mode:multiply" opacity="0.5">
<path d="M23.2614 101.203H19.2373V102.053H23.2614V101.203Z" fill="#97A6B7"/>
</g>
<g style="mix-blend-mode:multiply" opacity="0.5">
<path d="M23.2614 111.768H19.2373V112.618H23.2614V111.768Z" fill="#97A6B7"/>
</g>
<g style="mix-blend-mode:multiply" opacity="0.1">
<path d="M36.0044 124.153V125H15.549L9.00977 123.451V115.885C9.44758 114.271 9.97588 112.7 10.6027 111.402C13.0066 106.425 12.2235 104.401 12.7265 100.758C13.2295 97.116 12.113 77.3678 15.549 74.0059C18.7627 79.6301 18.5392 79.3878 18.6509 85.3777C18.7102 88.5809 18.7062 91.4157 19.2378 93.5191C19.6982 95.3503 20.5632 96.6282 22.2266 97.116C22.5929 97.2272 22.9412 97.3911 23.2606 97.6025C24.3418 98.3005 25.3585 99.5624 26.2208 101.206C27.3519 103.361 28.2236 106.171 28.6281 109.219C28.7399 110.053 28.8158 110.907 28.853 111.769C28.8657 112.055 28.8736 112.344 28.877 112.637C28.877 112.888 28.877 113.139 28.877 113.391C28.877 113.48 28.877 113.567 28.877 113.653C28.8929 115.831 29.5137 117.333 30.386 118.485C30.7505 118.955 31.1599 119.389 31.6083 119.779C33.3383 121.326 35.375 122.259 36.0044 124.153Z" fill="#97A6B7"/>
</g>
<g style="mix-blend-mode:soft-light">
<path d="M145.414 101.179C145.818 101.358 146.852 101.392 147.126 101.29C148.946 100.607 152.435 99.5503 153.398 97.7305C153.562 97.4196 152.394 96.3251 152.374 95.9354C151.798 95.0566 151.544 94.7876 151.405 93.6819C150.998 90.4187 157.478 88.7123 153.734 84.4387C150.992 81.309 147.423 80.7338 150.985 75.6828C154.547 70.6318 156.207 58.4798 148.424 58.7708C143.957 58.9376 144.472 65.3953 140.827 67.7029C137.362 69.8951 137.121 73.2931 139.306 77.2103C141.491 81.1275 138.833 81.4925 136.054 83.8895C132.716 86.7677 137.833 90.763 140.352 92.4026C142.382 93.7246 146.659 98.4626 145.414 101.179Z" fill="url(#paint6_linear_142_10539)"/>
<mask id="mask5_142_10539" style="mask-type:luminance" maskUnits="userSpaceOnUse" x="134" y="58" width="21" height="44">
<path d="M145.414 101.179C145.818 101.358 146.852 101.392 147.126 101.29C148.946 100.607 152.435 99.5503 153.398 97.7305C153.562 97.4196 152.394 96.3251 152.374 95.9354C151.798 95.0566 151.544 94.7876 151.405 93.6819C150.998 90.4187 157.478 88.7123 153.734 84.4387C150.992 81.309 147.423 80.7338 150.985 75.6828C154.547 70.6318 156.207 58.4798 148.424 58.7708C143.957 58.9376 144.472 65.3953 140.827 67.7029C137.362 69.8951 137.121 73.2931 139.306 77.2103C141.491 81.1275 138.833 81.4925 136.054 83.8895C132.716 86.7677 137.833 90.763 140.352 92.4026C142.382 93.7246 146.659 98.4626 145.414 101.179Z" fill="white"/>
</mask>
<g mask="url(#mask5_142_10539)">
<path d="M150.123 99.6318L150.203 99.5811C142.396 87.3877 142.649 71.8704 150.878 58.0734L150.797 58.0254C146.897 64.5652 144.714 71.7669 144.483 78.8539C144.24 86.3053 146.19 93.4924 150.123 99.6318Z" fill="#FCFDFE"/>
<path d="M134.53 84.9268C138.379 85.8284 143.762 89.0736 146.53 92.1606L146.597 92.0939C143.817 88.9948 138.413 85.7376 134.549 84.832L134.53 84.9268Z" fill="#FCFDFE"/>
<path d="M148.618 97.2219L148.708 97.1946C148.092 95.1258 148.543 92.8262 150.048 90.3571C151.15 88.5467 152.784 86.6869 154.902 84.8364L154.84 84.7656C152.715 86.6248 151.075 88.4893 149.967 90.3044C148.446 92.8009 147.994 95.1272 148.618 97.2219Z" fill="#FCFDFE"/>
<path d="M144.554 77.8511L144.645 77.8291C143.685 73.8712 140.495 71.0224 137.991 69.3301L137.938 69.4081C140.429 71.0911 143.601 73.9226 144.554 77.8511Z" fill="#FCFDFE"/>
<path d="M146.121 68.6597L146.205 68.7024C148.294 64.6197 152.627 62.543 155.024 61.6682L154.992 61.5801C152.582 62.4623 148.225 64.5483 146.121 68.6597Z" fill="#FCFDFE"/>
</g>
</g>
<g style="mix-blend-mode:soft-light">
<path d="M144.501 103.979C144.787 103.959 145.389 103.662 145.514 103.52C146.348 102.573 148.024 100.902 148.022 99.5671C148.022 99.3388 147.024 99.0699 146.891 98.853C146.292 98.526 146.067 98.4526 145.653 97.8594C144.428 96.117 147.618 93.1608 144.178 91.8595C141.659 90.9059 139.442 91.6673 139.946 87.6887C140.45 83.7101 137.71 76.2507 133.345 78.7946C130.84 80.2547 133.095 83.7922 131.71 86.2259C130.394 88.5389 131.288 90.5568 133.728 92.1304C136.168 93.7039 134.757 94.725 133.895 96.9451C132.859 99.6144 137 100.334 138.94 100.503C140.502 100.64 144.388 102.045 144.501 103.979Z" fill="url(#paint7_linear_142_10539)"/>
<mask id="mask6_142_10539" style="mask-type:luminance" maskUnits="userSpaceOnUse" x="131" y="78" width="18" height="26">
<path d="M144.501 103.979C144.787 103.959 145.389 103.662 145.514 103.52C146.348 102.573 148.024 100.902 148.022 99.5671C148.022 99.3388 147.024 99.0699 146.891 98.853C146.292 98.526 146.067 98.4526 145.653 97.8594C144.428 96.117 147.618 93.1608 144.178 91.8595C141.659 90.9059 139.442 91.6673 139.946 87.6887C140.45 83.7101 137.71 76.2507 133.345 78.7946C130.84 80.2547 133.095 83.7922 131.71 86.2259C130.394 88.5389 131.288 90.5568 133.728 92.1304C136.168 93.7039 134.757 94.725 133.895 96.9451C132.859 99.6144 137 100.334 138.94 100.503C140.502 100.64 144.388 102.045 144.501 103.979Z" fill="white"/>
</mask>
<g mask="url(#mask6_142_10539)">
<path d="M146.726 101.656L146.756 101.603C138.586 97.0109 134.018 88.0568 134.536 77.6465H134.476C134.23 82.5794 135.168 87.3674 137.189 91.4928C139.312 95.8291 142.61 99.3432 146.726 101.656Z" fill="#FCFDFE"/>
<path d="M133.338 98.0051C135.813 97.3458 139.879 97.558 142.401 98.4782L142.421 98.4215C139.893 97.4973 135.808 97.2871 133.322 97.9464L133.338 98.0051Z" fill="#FCFDFE"/>
<path d="M145.132 100.737L145.176 100.694C144.195 99.6982 143.755 98.2441 143.865 96.3723C143.947 94.9989 144.317 93.436 144.967 91.7303L144.91 91.709C144.259 93.4213 143.887 94.9896 143.805 96.3682C143.693 98.2588 144.14 99.7282 145.132 100.737Z" fill="#FCFDFE"/>
<path d="M136.924 90.8917L136.969 90.8509C135.218 88.8797 132.528 88.2244 130.582 88.0215L130.575 88.0822C132.511 88.2891 135.186 88.9377 136.924 90.8917Z" fill="#FCFDFE"/>
<path d="M135.029 85.1565H135.09C135.046 82.1822 136.894 79.6704 138 78.4372L137.955 78.3965C136.843 79.635 134.985 82.1615 135.029 85.1565Z" fill="#FCFDFE"/>
</g>
</g>
<path d="M143.468 64.9043H119.156V125.001H143.468V64.9043Z" fill="url(#paint8_linear_142_10539)"/>
<path d="M141.623 70.6094H121V74.3731H141.623V70.6094Z" fill="#97A6B7"/>
<path d="M141.623 77.2871H121V81.0508H141.623V77.2871Z" fill="#97A6B7"/>
<path d="M141.623 83.9648H121V87.7286H141.623V83.9648Z" fill="#97A6B7"/>
<path d="M141.623 90.6406H121V94.4043H141.623V90.6406Z" fill="#97A6B7"/>
<path d="M141.623 97.3203H121V101.084H141.623V97.3203Z" fill="#97A6B7"/>
<path d="M141.623 103.996H121V107.76H141.623V103.996Z" fill="#97A6B7"/>
<path d="M141.623 110.674H121V114.438H141.623V110.674Z" fill="#97A6B7"/>
<path d="M143.467 64.9043V125.001H150.006V70.6106L143.656 65.0691L143.494 64.927L143.467 64.9043Z" fill="#97A6B7"/>
<g style="mix-blend-mode:multiply" opacity="0.5">
<path d="M152.018 111.402H147.994V112.253H152.018V111.402Z" fill="#97A6B7"/>
</g>
<g style="mix-blend-mode:multiply" opacity="0.5">
<path d="M141.623 70.6094H121V71.3381H141.623V70.6094Z" fill="#97A6B7"/>
</g>
<g style="mix-blend-mode:multiply" opacity="0.5">
<path d="M141.623 77.2871H121V78.0158H141.623V77.2871Z" fill="#97A6B7"/>
</g>
<g style="mix-blend-mode:multiply" opacity="0.5">
<path d="M141.623 83.9648H121V84.6936H141.623V83.9648Z" fill="#97A6B7"/>
</g>
<g style="mix-blend-mode:multiply" opacity="0.5">
<path d="M141.623 90.6406H121V91.3693H141.623V90.6406Z" fill="#97A6B7"/>
</g>
<g style="mix-blend-mode:multiply" opacity="0.5">
<path d="M141.623 97.3203H121V98.049H141.623V97.3203Z" fill="#97A6B7"/>
</g>
<g style="mix-blend-mode:multiply" opacity="0.5">
<path d="M141.623 103.996H121V104.725H141.623V103.996Z" fill="#97A6B7"/>
</g>
<g style="mix-blend-mode:multiply" opacity="0.5">
<path d="M141.623 110.674H121V111.403H141.623V110.674Z" fill="#97A6B7"/>
</g>
<g style="mix-blend-mode:multiply" opacity="0.1">
<path d="M119.963 125.001H143.467L150.006 123.18V111.538C149.749 110.812 149.474 110.122 149.178 109.488C146.422 103.553 147.319 101.141 146.743 96.7978C146.173 92.5109 147.415 69.5148 143.657 65.0691C143.607 65.0111 143.557 64.9563 143.506 64.9043C143.502 64.9116 143.498 64.9196 143.494 64.927L143.467 64.9757C141.984 67.6757 141.146 69.2332 140.666 70.6099C140.58 70.8568 140.505 71.0984 140.442 71.3386C140.195 72.2529 140.09 73.1631 140.036 74.3736C140 75.1811 139.986 76.122 139.969 77.2878C139.966 77.5205 139.962 77.7632 139.958 78.0159C139.955 78.1623 139.953 78.3113 139.95 78.463C139.934 79.3519 139.923 80.2161 139.905 81.0516C139.885 82.0686 139.858 83.0435 139.808 83.9651C139.795 84.2116 139.78 84.4545 139.763 84.6938C139.701 85.713 139.572 86.7269 139.376 87.7288C139.139 88.8773 138.789 89.8596 138.27 90.6424C138.098 90.9049 137.9 91.1491 137.679 91.3711C137.169 91.8799 136.54 92.2527 135.849 92.4555C134.918 92.7391 134.008 93.4178 133.161 94.4061C132.484 95.1942 131.848 96.1798 131.271 97.3203C131.152 97.5558 131.035 97.7994 130.92 98.0483C130.472 99.0349 130.085 100.049 129.762 101.083C129.471 102.01 129.214 102.986 128.998 103.998C128.946 104.238 128.897 104.481 128.85 104.726C128.662 105.711 128.512 106.728 128.406 107.761C128.307 108.719 128.245 109.692 128.226 110.675C128.221 110.916 128.218 111.159 128.218 111.404C128.218 111.553 128.218 111.702 128.222 111.853C128.24 112.72 128.167 113.587 128.002 114.439C126.787 120.52 120.936 120.992 119.963 125.001Z" fill="#97A6B7"/>
</g>
<g style="mix-blend-mode:soft-light">
<path d="M166.376 113.736C165.949 113.847 164.922 113.71 164.669 113.564C162.986 112.591 159.718 110.972 159.066 109.019C158.955 108.685 160.286 107.798 160.37 107.417C161.083 106.645 161.378 106.422 161.695 105.354C162.632 102.202 156.52 99.4502 160.913 95.8526C164.13 93.2174 167.746 93.2387 165.059 87.6692C162.372 82.0997 162.73 69.839 170.357 71.4092C174.736 72.3108 173.17 78.595 176.388 81.4725C179.448 84.2085 179.126 87.5978 176.328 91.1013C173.531 94.6048 176.094 95.4035 178.442 98.2257C181.263 101.616 175.561 104.711 172.807 105.915C170.589 106.884 165.593 110.853 166.376 113.736Z" fill="url(#paint9_linear_142_10539)"/>
<mask id="mask7_142_10539" style="mask-type:luminance" maskUnits="userSpaceOnUse" x="159" y="71" width="21" height="43">
<path d="M166.376 113.736C165.949 113.847 164.922 113.71 164.669 113.564C162.986 112.591 159.718 110.972 159.066 109.019C158.955 108.685 160.286 107.798 160.37 107.417C161.083 106.645 161.378 106.422 161.695 105.354C162.632 102.202 156.52 99.4502 160.913 95.8526C164.13 93.2174 167.746 93.2387 165.059 87.6692C162.372 82.0997 162.73 69.839 170.357 71.4092C174.736 72.3108 173.17 78.595 176.388 81.4725C179.448 84.2085 179.126 87.5978 176.328 91.1013C173.531 94.6048 176.094 95.4035 178.442 98.2257C181.263 101.616 175.561 104.711 172.807 105.915C170.589 106.884 165.593 110.853 166.376 113.736Z" fill="white"/>
</mask>
<g mask="url(#mask7_142_10539)">
<path d="M161.985 111.436L161.918 111.372C171.617 100.632 173.911 85.2847 168.055 70.3179L168.143 70.2832C170.918 77.3769 171.891 84.8409 170.958 91.8698C169.972 99.2591 166.87 106.025 161.985 111.436Z" fill="#FCFDFE"/>
<path d="M179.776 99.4984C175.832 99.7533 169.99 102.066 166.754 104.655L166.695 104.581C169.945 101.983 175.811 99.6605 179.77 99.4043L179.776 99.4984Z" fill="#FCFDFE"/>
<path d="M163.864 109.309L163.78 109.267C164.726 107.332 164.659 104.985 163.58 102.302C162.789 100.334 161.482 98.231 159.696 96.0555L159.769 95.9961C161.561 98.1802 162.872 100.29 163.667 102.269C164.756 104.971 164.822 107.342 163.864 109.309Z" fill="#FCFDFE"/>
<path d="M171.048 90.8675L170.962 90.8308C172.559 87.0851 176.171 84.8015 178.921 83.5449L178.96 83.631C176.225 84.8802 172.632 87.1498 171.048 90.8675Z" fill="#FCFDFE"/>
<path d="M171.009 81.5414L170.92 81.5701C169.528 77.1991 165.597 74.4357 163.373 73.1778L163.42 73.0957C165.653 74.3603 169.605 77.143 171.009 81.5414Z" fill="#FCFDFE"/>
</g>
</g>
<g style="mix-blend-mode:soft-light">
<path d="M161.513 121.907C161.074 121.875 160.144 121.418 159.951 121.199C158.664 119.738 156.079 117.161 156.082 115.101C156.082 114.749 157.626 114.333 157.827 113.999C158.747 113.495 159.097 113.376 159.738 112.464C161.627 109.775 156.706 105.216 162.012 103.207C165.898 101.739 169.32 102.911 168.541 96.774C167.763 90.6366 171.992 79.1273 178.725 83.0518C182.59 85.304 179.11 90.7621 181.247 94.5164C183.278 98.0846 181.898 101.198 178.134 103.626C174.37 106.054 176.545 107.63 177.876 111.054C179.473 115.168 173.086 116.282 170.091 116.544C167.683 116.756 161.687 118.923 161.513 121.907Z" fill="url(#paint10_linear_142_10539)"/>
<mask id="mask8_142_10539" style="mask-type:luminance" maskUnits="userSpaceOnUse" x="156" y="82" width="27" height="40">
<path d="M161.513 121.907C161.074 121.875 160.144 121.418 159.951 121.199C158.664 119.738 156.079 117.161 156.082 115.101C156.082 114.749 157.626 114.333 157.827 113.999C158.747 113.495 159.097 113.376 159.738 112.464C161.627 109.775 156.706 105.216 162.012 103.207C165.898 101.739 169.32 102.911 168.541 96.774C167.763 90.6366 171.992 79.1273 178.725 83.0518C182.59 85.304 179.11 90.7621 181.247 94.5164C183.278 98.0846 181.898 101.198 178.134 103.626C174.37 106.054 176.545 107.63 177.876 111.054C179.473 115.168 173.086 116.282 170.091 116.544C167.683 116.756 161.687 118.923 161.513 121.907Z" fill="white"/>
</mask>
<g mask="url(#mask8_142_10539)">
<path d="M158.081 118.323L158.035 118.241C170.639 111.157 177.685 97.3405 176.886 81.282L176.979 81.2773C177.359 88.8849 175.912 96.2748 172.795 102.64C169.519 109.331 164.431 114.754 158.081 118.323Z" fill="#FCFDFE"/>
<path d="M178.735 112.689C174.916 111.672 168.643 111.999 164.754 113.419L164.722 113.331C168.627 111.905 174.924 111.577 178.761 112.597L178.735 112.689Z" fill="#FCFDFE"/>
<path d="M160.539 116.904L160.473 116.838C161.985 115.303 162.664 113.059 162.493 110.171C162.368 108.053 161.797 105.643 160.795 103.01L160.883 102.977C161.888 105.619 162.461 108.038 162.587 110.165C162.76 113.081 162.071 115.349 160.539 116.904Z" fill="#FCFDFE"/>
<path d="M173.203 101.719L173.133 101.656C175.834 98.615 179.986 97.604 182.99 97.291L183 97.3851C180.011 97.6954 175.885 98.6997 173.203 101.719Z" fill="#FCFDFE"/>
<path d="M176.125 92.8678H176.031C176.098 88.2793 173.248 84.4042 171.542 82.5023L171.612 82.4355C173.33 84.3494 176.192 88.2473 176.125 92.8678Z" fill="#FCFDFE"/>
</g>
</g>
<path d="M163.013 74.8574L162.167 124.051L169.933 122.56V79.5287L163.64 75.2805L163.093 74.9101L163.013 74.8574Z" fill="#97A6B7"/>
<path d="M163.014 74.8086H143.781V124.051H163.014V74.8086Z" fill="#F4F7FA"/>
<path d="M159.351 80.248H156.908V120.818H159.351V80.248Z" fill="#97A6B7"/>
<path d="M154.261 80.248H151.718V120.818H154.261V80.248Z" fill="#97A6B7"/>
<path d="M149.174 80.248H146.63V120.818H149.174V80.248Z" fill="#97A6B7"/>
<g style="mix-blend-mode:multiply" opacity="0.5">
<path d="M157.722 80.248H156.908V120.818H157.722V80.248Z" fill="#97A6B7"/>
</g>
<g style="mix-blend-mode:multiply" opacity="0.5">
<path d="M152.532 80.248H151.718V120.818H152.532V80.248Z" fill="#97A6B7"/>
</g>
<g style="mix-blend-mode:multiply" opacity="0.5">
<path d="M147.342 80.248H146.528V120.818H147.342V80.248Z" fill="#97A6B7"/>
</g>
<g style="mix-blend-mode:multiply" opacity="0.1">
<path d="M143.781 124.047L163.01 122.729L169.93 122.556V117.552C166.725 111.977 167.78 109.66 167.088 105.525C166.412 101.488 167.838 80.22 163.638 75.2765C163.495 75.1037 163.335 74.9457 163.16 74.8047L163.09 74.9061L163.011 75.0209C160.825 78.1794 159.824 79.6875 159.348 81.2938C158.882 82.856 158.918 84.5083 158.843 87.8669C158.749 91.9977 158.769 95.5912 157.719 98.0656C157.512 98.5693 157.238 99.0429 156.905 99.4737C156.272 100.283 155.417 100.884 154.259 101.236C154.131 101.275 154 101.312 153.865 101.345C153.401 101.459 152.953 101.628 152.53 101.849C152.248 101.993 151.976 102.155 151.716 102.334C150.817 102.944 149.959 103.782 149.171 104.803C148.47 105.722 147.857 106.705 147.34 107.739C147.089 108.236 146.851 108.753 146.628 109.29C146.593 109.372 146.559 109.455 146.526 109.538C145.28 112.631 144.542 116.298 144.606 120.032C144.638 121.653 144.322 122.963 143.781 124.047Z" fill="#97A6B7"/>
</g>
<g style="mix-blend-mode:multiply" opacity="0.5">
<path d="M154.729 105.297H148.488V105.666H154.729V105.297Z" fill="#97A6B7"/>
</g>
<g style="mix-blend-mode:multiply" opacity="0.5">
<path d="M154.729 109.883H148.488V110.252H154.729V109.883Z" fill="#97A6B7"/>
</g>
<g style="mix-blend-mode:multiply" opacity="0.5">
<path d="M154.729 114.471H148.488V114.84H154.729V114.471Z" fill="#97A6B7"/>
</g>
<path d="M161.089 102.801V124.999L171.023 123.277V104.908L161.089 102.801Z" fill="#97A6B7"/>
<path d="M161.09 102.854H130.014V124.999H161.09V102.854Z" fill="#F4F7FA"/>
<path d="M155.485 105.49H149.372V108.97H155.485V105.49Z" fill="#97A6B7"/>
<path d="M147.079 105.49H140.839V108.97H147.079V105.49Z" fill="#97A6B7"/>
<path d="M138.547 105.49H132.434V108.97H138.547V105.49Z" fill="#97A6B7"/>
<path d="M155.485 110.078H149.372V113.558H155.485V110.078Z" fill="#97A6B7"/>
<path d="M147.079 110.078H140.839V113.558H147.079V110.078Z" fill="#97A6B7"/>
<path d="M138.547 110.078H132.434V113.558H138.547V110.078Z" fill="#97A6B7"/>
<path d="M155.485 114.666H149.372V118.146H155.485V114.666Z" fill="#97A6B7"/>
<path d="M147.079 114.666H140.839V118.146H147.079V114.666Z" fill="#97A6B7"/>
<path d="M138.547 114.666H132.434V118.146H138.547V114.666Z" fill="#97A6B7"/>
<path d="M155.485 119.254H149.372V122.734H155.485V119.254Z" fill="#97A6B7"/>
<path d="M147.079 119.254H140.839V122.734H147.079V119.254Z" fill="#97A6B7"/>
<path d="M138.547 119.254H132.434V122.734H138.547V119.254Z" fill="#97A6B7"/>
<g style="mix-blend-mode:multiply" opacity="0.5">
<path d="M155.485 105.49H149.372V105.859H155.485V105.49Z" fill="#97A6B7"/>
</g>
<g style="mix-blend-mode:multiply" opacity="0.5">
<path d="M155.485 110.078H149.372V110.447H155.485V110.078Z" fill="#97A6B7"/>
</g>
<g style="mix-blend-mode:multiply" opacity="0.5">
<path d="M155.485 114.666H149.372V115.035H155.485V114.666Z" fill="#97A6B7"/>
</g>
<g style="mix-blend-mode:multiply" opacity="0.5">
<path d="M155.485 119.254H149.372V119.623H155.485V119.254Z" fill="#97A6B7"/>
</g>
<g style="mix-blend-mode:multiply" opacity="0.1">
<path d="M130.016 124.632V124.999H161.088L171.022 123.277V121.041C170.309 120.283 169.495 119.627 168.602 119.094C164.951 116.932 166.14 116.053 165.377 114.471C164.613 112.889 166.308 104.312 161.088 102.854C156.206 105.297 156.545 105.189 156.375 107.792C156.285 109.184 156.292 110.414 155.484 111.329C154.784 112.123 153.468 112.677 150.941 112.889C150.409 112.934 149.886 113.004 149.371 113.101C147.8 113.384 146.283 113.912 144.874 114.665C143.152 115.599 141.831 116.821 141.214 118.145C141.048 118.496 140.933 118.869 140.873 119.252C140.854 119.377 140.842 119.502 140.836 119.627C140.831 119.737 140.831 119.846 140.836 119.955C140.839 119.993 140.839 120.031 140.836 120.069C140.812 121.015 139.87 121.667 138.544 122.167C137.937 122.389 137.319 122.578 136.692 122.732C134.059 123.404 130.969 123.81 130.016 124.632Z" fill="#97A6B7"/>
</g>
<path d="M69.9596 21.9477C69.9596 31.3262 56.8592 48.4405 50.9301 55.705C50.5842 56.1289 50.1487 56.4704 49.6551 56.705C49.1615 56.9395 48.6222 57.0612 48.076 57.0612C47.5298 57.0612 46.9905 56.9395 46.4969 56.705C46.0033 56.4704 45.5678 56.1289 45.2219 55.705C39.2928 48.4405 26.1924 31.3262 26.1924 21.9477C26.1924 9.82636 35.9899 0 48.0757 0C60.1614 0 69.9596 9.82636 69.9596 21.9477Z" fill="url(#paint11_linear_142_10539)"/>
<path d="M56.7058 30.6028C61.4721 25.8225 61.4721 18.0721 56.7058 13.2918C51.9395 8.51145 44.2118 8.51144 39.4456 13.2918C34.6793 18.0721 34.6793 25.8225 39.4456 30.6028C44.2118 35.3831 51.9395 35.3831 56.7058 30.6028Z" fill="white"/>
<g style="mix-blend-mode:multiply" opacity="0.3">
<path d="M47.9792 46.6947C49.3678 37.5243 55.4053 34.5894 54.3667 25.9302C53.169 15.9444 44.3556 13.2851 44.1427 4.39699C44.1144 3.0019 44.2924 1.61031 44.671 0.267578C34.2027 1.90586 26.1924 10.9888 26.1924 21.9483C26.1924 31.3269 39.2928 48.4411 45.2219 55.7056C45.6275 56.2041 46.156 56.5875 46.755 56.8178C47.354 57.0481 48.0027 57.1172 48.6366 57.0182C47.5766 53.0023 47.5434 49.5722 47.9792 46.6947Z" fill="url(#paint12_linear_142_10539)"/>
</g>
<path d="M165.842 21.9477C165.842 31.3262 152.742 48.4405 146.813 55.705C146.467 56.1289 146.031 56.4704 145.538 56.705C145.044 56.9395 144.505 57.0612 143.959 57.0612C143.413 57.0612 142.873 56.9395 142.38 56.705C141.886 56.4704 141.451 56.1289 141.105 55.705C135.176 48.4405 122.075 31.3262 122.075 21.9477C122.075 9.82636 131.873 0 143.958 0C156.044 0 165.842 9.82636 165.842 21.9477Z" fill="url(#paint13_linear_142_10539)"/>
<path d="M152.59 30.6028C157.356 25.8225 157.356 18.0721 152.59 13.2918C147.823 8.51145 140.096 8.51144 135.329 13.2917C130.563 18.0721 130.563 25.8225 135.329 30.6028C140.096 35.3831 147.823 35.3831 152.59 30.6028Z" fill="white"/>
<g style="mix-blend-mode:multiply" opacity="0.3">
<path d="M143.862 46.6947C145.251 37.5243 151.288 34.5894 150.25 25.9302C149.052 15.9444 140.238 13.2851 140.025 4.39699C139.997 3.0019 140.175 1.61031 140.554 0.267578C130.086 1.90786 122.075 10.9908 122.075 21.9503C122.075 31.3289 135.176 48.4431 141.105 55.7076C141.511 56.206 142.039 56.5891 142.639 56.819C143.238 57.049 143.887 57.1176 144.521 57.0182C143.456 53.0023 143.426 49.5722 143.862 46.6947Z" fill="url(#paint14_linear_142_10539)"/>
</g>
<path d="M60.8838 56.202C60.8838 56.202 66.8169 37.8773 86.5157 35.0932C106.215 32.3091 119.962 45.6456 119.962 45.6456L115.93 49.4947C115.93 49.4947 85.2602 18.0444 60.8838 56.202Z" fill="url(#paint15_linear_142_10539)"/>
<path d="M127.455 55.1273L121.001 43.5605C121.001 43.5605 113.616 50.0556 113.682 50.2872L126.524 56.1443C127.16 56.4346 127.797 55.7399 127.455 55.1273Z" fill="url(#paint16_linear_142_10539)"/>
</g>
<defs>
<linearGradient id="paint0_linear_142_10539" x1="60.2117" y1="60.7099" x2="72.2352" y2="137.351" gradientUnits="userSpaceOnUse">
<stop stop-color="#E38DDD"/>
<stop offset="1" stop-color="#9571F6"/>
</linearGradient>
<linearGradient id="paint1_linear_142_10539" x1="67.7027" y1="66.5252" x2="76.8613" y2="124.906" gradientUnits="userSpaceOnUse">
<stop stop-color="#FF9085"/>
<stop offset="1" stop-color="#FB6FBB"/>
</linearGradient>
<linearGradient id="paint2_linear_142_10539" x1="1.77576" y1="77.1204" x2="24.932" y2="97.5025" gradientUnits="userSpaceOnUse">
<stop stop-color="#FFC444"/>
<stop offset="1" stop-color="#F36F56"/>
</linearGradient>
<linearGradient id="paint3_linear_142_10539" x1="23.9699" y1="61.701" x2="33.0864" y2="86.9465" gradientUnits="userSpaceOnUse">
<stop stop-color="#FFC444"/>
<stop offset="1" stop-color="#F36F56"/>
</linearGradient>
<linearGradient id="paint4_linear_142_10539" x1="18.7672" y1="52.358" x2="25.2628" y2="112.437" gradientUnits="userSpaceOnUse">
<stop stop-color="#FF9085"/>
<stop offset="1" stop-color="#FB6FBB"/>
</linearGradient>
<linearGradient id="paint5_linear_142_10539" x1="38.9385" y1="94.9526" x2="63.2503" y2="94.9526" gradientUnits="userSpaceOnUse">
<stop offset="0.49" stop-color="#EBEFF2"/>
<stop offset="1" stop-color="white"/>
</linearGradient>
<linearGradient id="paint6_linear_142_10539" x1="142.201" y1="60.9462" x2="154.561" y2="139.735" gradientUnits="userSpaceOnUse">
<stop stop-color="#FFC444"/>
<stop offset="0.31" stop-color="#FBA94A"/>
<stop offset="1" stop-color="#F36F56"/>
</linearGradient>
<linearGradient id="paint7_linear_142_10539" x1="137.168" y1="78.7058" x2="145.11" y2="129.33" gradientUnits="userSpaceOnUse">
<stop stop-color="#FF9085"/>
<stop offset="1" stop-color="#FB6FBB"/>
</linearGradient>
<linearGradient id="paint8_linear_142_10539" x1="143.468" y1="94.9526" x2="119.156" y2="94.9526" gradientUnits="userSpaceOnUse">
<stop offset="0.49" stop-color="#EBEFF2"/>
<stop offset="1" stop-color="white"/>
</linearGradient>
<linearGradient id="paint9_linear_142_10539" x1="165.042" y1="73.0642" x2="177.33" y2="151.391" gradientUnits="userSpaceOnUse">
<stop stop-color="#E38DDD"/>
<stop offset="1" stop-color="#9571F6"/>
</linearGradient>
<linearGradient id="paint10_linear_142_10539" x1="165.882" y1="84.8849" x2="176.802" y2="154.496" gradientUnits="userSpaceOnUse">
<stop stop-color="#FF9085"/>
<stop offset="1" stop-color="#FB6FBB"/>
</linearGradient>
<linearGradient id="paint11_linear_142_10539" x1="45.2532" y1="13.9798" x2="67.4036" y2="70.8681" gradientUnits="userSpaceOnUse">
<stop stop-color="#FF9085"/>
<stop offset="1" stop-color="#FB6FBB"/>
</linearGradient>
<linearGradient id="paint12_linear_142_10539" x1="37.3619" y1="17.0528" x2="59.513" y2="73.9411" gradientUnits="userSpaceOnUse">
<stop stop-color="#FF9085"/>
<stop offset="1" stop-color="#FB6FBB"/>
</linearGradient>
<linearGradient id="paint13_linear_142_10539" x1="141.136" y1="13.9798" x2="163.287" y2="70.8681" gradientUnits="userSpaceOnUse">
<stop stop-color="#AA80F9"/>
<stop offset="1" stop-color="#6165D7"/>
</linearGradient>
<linearGradient id="paint14_linear_142_10539" x1="133.245" y1="17.0528" x2="155.396" y2="73.9411" gradientUnits="userSpaceOnUse">
<stop stop-color="#AA80F9"/>
<stop offset="1" stop-color="#6165D7"/>
</linearGradient>
<linearGradient id="paint15_linear_142_10539" x1="104.14" y1="33.541" x2="74.7858" y2="66.9739" gradientUnits="userSpaceOnUse">
<stop stop-color="#FF9085"/>
<stop offset="1" stop-color="#FB6FBB"/>
</linearGradient>
<linearGradient id="paint16_linear_142_10539" x1="123.085" y1="50.1751" x2="93.7302" y2="83.608" gradientUnits="userSpaceOnUse">
<stop stop-color="#FF9085"/>
<stop offset="1" stop-color="#FB6FBB"/>
</linearGradient>
<clipPath id="clip0_142_10539">
<rect width="183" height="125" fill="white"/>
</clipPath>
</defs>
</svg>
