<svg width="363" height="270" viewBox="0 0 363 270" fill="none" xmlns="http://www.w3.org/2000/svg">
<g clip-path="url(#clip0_126_4649)">
<path d="M363 237.276H0V237.458H363V237.276Z" fill="#EBEBEB"/>
<path d="M326.627 248.936H302.582V249.117H326.627V248.936Z" fill="#EBEBEB"/>
<path d="M240.466 250.906H234.157V251.087H240.466V250.906Z" fill="#EBEBEB"/>
<path d="M301.856 242.211H287.924V242.392H301.856V242.211Z" fill="#EBEBEB"/>
<path d="M69.4419 243.429H38.0859V243.61H69.4419V243.429Z" fill="#EBEBEB"/>
<path d="M80.5062 243.429H75.9106V243.61H80.5062V243.429Z" fill="#EBEBEB"/>
<path d="M163.459 246.486H95.4473V246.667H163.459V246.486Z" fill="#EBEBEB"/>
<path d="M172.069 204.958H31.8789C29.592 204.958 27.7334 203.103 27.7334 200.821V4.13757C27.7334 1.85502 29.592 0 31.8789 0H172.069C174.356 0 176.215 1.85502 176.215 4.13757V200.821C176.215 203.103 174.356 204.958 172.069 204.958ZM31.8789 0.181155C29.6936 0.181155 27.9149 1.95647 27.9149 4.13757V200.821C27.9149 203.002 29.6936 204.777 31.8789 204.777H172.069C174.255 204.777 176.033 203.002 176.033 200.821V4.13757C176.033 1.95647 174.255 0.181155 172.069 0.181155H31.8789Z" fill="#EBEBEB"/>
<path d="M329.103 204.958H188.913C186.626 204.958 184.767 203.103 184.767 200.821V4.13757C184.767 1.85502 186.626 0 188.913 0H329.103C331.39 0 333.249 1.85502 333.249 4.13757V200.821C333.249 203.103 331.39 204.958 329.103 204.958ZM188.913 0.181155C186.727 0.181155 184.949 1.95647 184.949 4.13757V200.821C184.949 203.002 186.727 204.777 188.913 204.777H329.103C331.288 204.777 333.067 203.002 333.067 200.821V4.13757C333.067 1.95647 331.288 0.181155 329.103 0.181155H188.913Z" fill="#EBEBEB"/>
<path d="M315.084 236.11V202.183H312.18V186.017H307.926V129.816H301.784V122.562L288.672 116.454V109.142H286.857V129.816H284.316V186.017H281.768V156.467H274.864V141.236H272.94V186.017H267.698V168.974H264.25V164.626H256.256V149.757H251.879V139.243H246.499V123.917H244.575V139.243H239.195V149.757H234.818V164.626H226.824V168.974H223.376V186.017H219.281V164.626H211.288V118.569H208.747V113.497H191.671V118.569H188.034V151.931H173.507V155.199H168.055V157.735H173.507V170.785H158.246V127.272H154.972V118.026H147.894V85.208H145.89V118.026H140.808V127.272H110.984V124.229H109.169V144.902H106.628V145.264H105.096V165.93H102.555V171.554H97.1826V156.322H95.2514V192.582H93.1097V177.358H91.1858V201.103H90.0097V184.06H86.5612V179.713H78.5679V164.844H74.1902V154.329H68.8105V139.004H66.8866V154.329H61.5069V164.844H57.1292V179.713H49.1432V184.06H45.6874V200.741H45.0703V201.103H43.3569V236.11H315.084Z" fill="#E6E6E6"/>
<path d="M129.685 129.309H127.624V131.367H129.685V129.309Z" fill="#F0F0F0"/>
<path d="M129.685 132.751H127.624V134.809H129.685V132.751Z" fill="#F0F0F0"/>
<path d="M129.685 146.533H127.624V148.591H129.685V146.533Z" fill="#F0F0F0"/>
<path d="M129.685 149.975H127.624V152.033H129.685V149.975Z" fill="#F0F0F0"/>
<path d="M129.685 153.424H127.624V155.482H129.685V153.424Z" fill="#F0F0F0"/>
<path d="M129.685 163.758H127.624V165.816H129.685V163.758Z" fill="#F0F0F0"/>
<path d="M129.685 167.199H127.624V169.257H129.685V167.199Z" fill="#F0F0F0"/>
<path d="M132.96 143.091H130.898V145.149H132.96V143.091Z" fill="#F0F0F0"/>
<path d="M132.96 146.533H130.898V148.591H132.96V146.533Z" fill="#F0F0F0"/>
<path d="M132.96 149.975H130.898V152.033H132.96V149.975Z" fill="#F0F0F0"/>
<path d="M132.96 153.424H130.898V155.482H132.96V153.424Z" fill="#F0F0F0"/>
<path d="M132.96 156.866H130.898V158.924H132.96V156.866Z" fill="#F0F0F0"/>
<path d="M132.96 163.758H130.898V165.816H132.96V163.758Z" fill="#F0F0F0"/>
<path d="M132.96 167.199H130.898V169.257H132.96V167.199Z" fill="#F0F0F0"/>
<path d="M136.227 129.309H134.165V131.367H136.227V129.309Z" fill="#F0F0F0"/>
<path d="M136.227 132.751H134.165V134.809H136.227V132.751Z" fill="#F0F0F0"/>
<path d="M136.227 136.2H134.165V138.258H136.227V136.2Z" fill="#F0F0F0"/>
<path d="M136.227 139.642H134.165V141.7H136.227V139.642Z" fill="#F0F0F0"/>
<path d="M136.227 143.091H134.165V145.149H136.227V143.091Z" fill="#F0F0F0"/>
<path d="M136.227 146.533H134.165V148.591H136.227V146.533Z" fill="#F0F0F0"/>
<path d="M136.227 149.975H134.165V152.033H136.227V149.975Z" fill="#F0F0F0"/>
<path d="M136.227 153.424H134.165V155.482H136.227V153.424Z" fill="#F0F0F0"/>
<path d="M136.227 156.866H134.165V158.924H136.227V156.866Z" fill="#F0F0F0"/>
<path d="M136.227 160.315H134.165V162.373H136.227V160.315Z" fill="#F0F0F0"/>
<path d="M136.227 167.199H134.165V169.257H136.227V167.199Z" fill="#F0F0F0"/>
<path d="M139.494 129.309H137.432V131.367H139.494V129.309Z" fill="#F0F0F0"/>
<path d="M139.494 132.751H137.432V134.809H139.494V132.751Z" fill="#F0F0F0"/>
<path d="M139.494 136.2H137.432V138.258H139.494V136.2Z" fill="#F0F0F0"/>
<path d="M139.494 139.642H137.432V141.7H139.494V139.642Z" fill="#F0F0F0"/>
<path d="M139.494 143.091H137.432V145.149H139.494V143.091Z" fill="#F0F0F0"/>
<path d="M139.494 146.533H137.432V148.591H139.494V146.533Z" fill="#F0F0F0"/>
<path d="M139.494 149.975H137.432V152.033H139.494V149.975Z" fill="#F0F0F0"/>
<path d="M139.494 180.981H137.432V183.039H139.494V180.981Z" fill="#F0F0F0"/>
<path d="M142.768 129.309H140.706V131.367H142.768V129.309Z" fill="#F0F0F0"/>
<path d="M142.768 132.751H140.706V134.809H142.768V132.751Z" fill="#F0F0F0"/>
<path d="M142.768 136.2H140.706V138.258H142.768V136.2Z" fill="#F0F0F0"/>
<path d="M142.768 139.642H140.706V141.7H142.768V139.642Z" fill="#F0F0F0"/>
<path d="M142.768 143.091H140.706V145.149H142.768V143.091Z" fill="#F0F0F0"/>
<path d="M142.768 146.533H140.706V148.591H142.768V146.533Z" fill="#F0F0F0"/>
<path d="M142.768 149.975H140.706V152.033H142.768V149.975Z" fill="#F0F0F0"/>
<path d="M142.768 153.424H140.706V155.482H142.768V153.424Z" fill="#F0F0F0"/>
<path d="M142.768 174.091H140.706V176.149H142.768V174.091Z" fill="#F0F0F0"/>
<path d="M142.768 177.54H140.706V179.598H142.768V177.54Z" fill="#F0F0F0"/>
<path d="M142.768 180.981H140.706V183.039H142.768V180.981Z" fill="#F0F0F0"/>
<path d="M142.768 184.424H140.706V186.482H142.768V184.424Z" fill="#F0F0F0"/>
<path d="M142.768 198.206H140.706V200.264H142.768V198.206Z" fill="#F0F0F0"/>
<path d="M146.035 129.309H143.973V131.367H146.035V129.309Z" fill="#F0F0F0"/>
<path d="M146.035 132.751H143.973V134.809H146.035V132.751Z" fill="#F0F0F0"/>
<path d="M146.035 136.2H143.973V138.258H146.035V136.2Z" fill="#F0F0F0"/>
<path d="M146.035 139.642H143.973V141.7H146.035V139.642Z" fill="#F0F0F0"/>
<path d="M146.035 143.091H143.973V145.149H146.035V143.091Z" fill="#F0F0F0"/>
<path d="M146.035 146.533H143.973V148.591H146.035V146.533Z" fill="#F0F0F0"/>
<path d="M146.035 149.975H143.973V152.033H146.035V149.975Z" fill="#F0F0F0"/>
<path d="M146.035 153.424H143.973V155.482H146.035V153.424Z" fill="#F0F0F0"/>
<path d="M146.035 156.866H143.973V158.924H146.035V156.866Z" fill="#F0F0F0"/>
<path d="M146.035 160.315H143.973V162.373H146.035V160.315Z" fill="#F0F0F0"/>
<path d="M146.035 170.648H143.973V172.706H146.035V170.648Z" fill="#F0F0F0"/>
<path d="M146.035 174.091H143.973V176.149H146.035V174.091Z" fill="#F0F0F0"/>
<path d="M146.035 177.54H143.973V179.598H146.035V177.54Z" fill="#F0F0F0"/>
<path d="M146.035 180.981H143.973V183.039H146.035V180.981Z" fill="#F0F0F0"/>
<path d="M146.035 184.424H143.973V186.482H146.035V184.424Z" fill="#F0F0F0"/>
<path d="M146.035 198.206H143.973V200.264H146.035V198.206Z" fill="#F0F0F0"/>
<path d="M149.302 129.309H147.24V131.367H149.302V129.309Z" fill="#F0F0F0"/>
<path d="M149.302 132.751H147.24V134.809H149.302V132.751Z" fill="#F0F0F0"/>
<path d="M149.302 136.2H147.24V138.258H149.302V136.2Z" fill="#F0F0F0"/>
<path d="M149.302 139.642H147.24V141.7H149.302V139.642Z" fill="#F0F0F0"/>
<path d="M149.302 143.091H147.24V145.149H149.302V143.091Z" fill="#F0F0F0"/>
<path d="M149.302 146.533H147.24V148.591H149.302V146.533Z" fill="#F0F0F0"/>
<path d="M149.302 149.975H147.24V152.033H149.302V149.975Z" fill="#F0F0F0"/>
<path d="M149.302 153.424H147.24V155.482H149.302V153.424Z" fill="#F0F0F0"/>
<path d="M149.302 156.866H147.24V158.924H149.302V156.866Z" fill="#F0F0F0"/>
<path d="M149.302 160.315H147.24V162.373H149.302V160.315Z" fill="#F0F0F0"/>
<path d="M149.302 163.758H147.24V165.816H149.302V163.758Z" fill="#F0F0F0"/>
<path d="M149.302 167.199H147.24V169.257H149.302V167.199Z" fill="#F0F0F0"/>
<path d="M149.302 170.648H147.24V172.706H149.302V170.648Z" fill="#F0F0F0"/>
<path d="M149.302 174.091H147.24V176.149H149.302V174.091Z" fill="#F0F0F0"/>
<path d="M149.302 177.54H147.24V179.598H149.302V177.54Z" fill="#F0F0F0"/>
<path d="M149.302 180.981H147.24V183.039H149.302V180.981Z" fill="#F0F0F0"/>
<path d="M149.302 184.424H147.24V186.482H149.302V184.424Z" fill="#F0F0F0"/>
<path d="M149.302 187.873H147.24V189.931H149.302V187.873Z" fill="#F0F0F0"/>
<path d="M152.576 129.309H150.515V131.367H152.576V129.309Z" fill="#F0F0F0"/>
<path d="M152.576 132.751H150.515V134.809H152.576V132.751Z" fill="#F0F0F0"/>
<path d="M152.576 136.2H150.515V138.258H152.576V136.2Z" fill="#F0F0F0"/>
<path d="M152.576 139.642H150.515V141.7H152.576V139.642Z" fill="#F0F0F0"/>
<path d="M152.576 143.091H150.515V145.149H152.576V143.091Z" fill="#F0F0F0"/>
<path d="M152.576 146.533H150.515V148.591H152.576V146.533Z" fill="#F0F0F0"/>
<path d="M152.576 149.975H150.515V152.033H152.576V149.975Z" fill="#F0F0F0"/>
<path d="M152.576 153.424H150.515V155.482H152.576V153.424Z" fill="#F0F0F0"/>
<path d="M152.576 156.866H150.515V158.924H152.576V156.866Z" fill="#F0F0F0"/>
<path d="M152.576 160.315H150.515V162.373H152.576V160.315Z" fill="#F0F0F0"/>
<path d="M152.576 170.648H150.515V172.706H152.576V170.648Z" fill="#F0F0F0"/>
<path d="M152.576 174.091H150.515V176.149H152.576V174.091Z" fill="#F0F0F0"/>
<path d="M152.576 177.54H150.515V179.598H152.576V177.54Z" fill="#F0F0F0"/>
<path d="M152.576 180.981H150.515V183.039H152.576V180.981Z" fill="#F0F0F0"/>
<path d="M155.844 129.309H153.782V131.367H155.844V129.309Z" fill="#F0F0F0"/>
<path d="M155.844 132.751H153.782V134.809H155.844V132.751Z" fill="#F0F0F0"/>
<path d="M155.844 136.2H153.782V138.258H155.844V136.2Z" fill="#F0F0F0"/>
<path d="M155.844 139.642H153.782V141.7H155.844V139.642Z" fill="#F0F0F0"/>
<path d="M155.844 143.091H153.782V145.149H155.844V143.091Z" fill="#F0F0F0"/>
<path d="M155.844 146.533H153.782V148.591H155.844V146.533Z" fill="#F0F0F0"/>
<path d="M155.844 149.975H153.782V152.033H155.844V149.975Z" fill="#F0F0F0"/>
<path d="M155.844 153.424H153.782V155.482H155.844V153.424Z" fill="#F0F0F0"/>
<path d="M155.844 156.866H153.782V158.924H155.844V156.866Z" fill="#F0F0F0"/>
<path d="M155.844 160.315H153.782V162.373H155.844V160.315Z" fill="#F0F0F0"/>
<path d="M155.844 170.648H153.782V172.706H155.844V170.648Z" fill="#F0F0F0"/>
<path d="M155.844 174.091H153.782V176.149H155.844V174.091Z" fill="#F0F0F0"/>
<path d="M155.844 177.54H153.782V179.598H155.844V177.54Z" fill="#F0F0F0"/>
<path d="M192.659 120.367H190.597V122.425H192.659V120.367Z" fill="#F0F0F0"/>
<path d="M192.659 123.81H190.597V125.867H192.659V123.81Z" fill="#F0F0F0"/>
<path d="M192.659 127.251H190.597V129.309H192.659V127.251Z" fill="#F0F0F0"/>
<path d="M192.659 130.7H190.597V132.758H192.659V130.7Z" fill="#F0F0F0"/>
<path d="M192.659 134.143H190.597V136.201H192.659V134.143Z" fill="#F0F0F0"/>
<path d="M192.659 137.592H190.597V139.65H192.659V137.592Z" fill="#F0F0F0"/>
<path d="M192.659 141.033H190.597V143.091H192.659V141.033Z" fill="#F0F0F0"/>
<path d="M192.659 144.476H190.597V146.533H192.659V144.476Z" fill="#F0F0F0"/>
<path d="M192.659 154.815H190.597V156.873H192.659V154.815Z" fill="#F0F0F0"/>
<path d="M192.659 158.258H190.597V160.316H192.659V158.258Z" fill="#F0F0F0"/>
<path d="M195.933 120.367H193.871V122.425H195.933V120.367Z" fill="#F0F0F0"/>
<path d="M195.933 123.81H193.871V125.867H195.933V123.81Z" fill="#F0F0F0"/>
<path d="M195.933 127.251H193.871V129.309H195.933V127.251Z" fill="#F0F0F0"/>
<path d="M195.933 130.7H193.871V132.758H195.933V130.7Z" fill="#F0F0F0"/>
<path d="M195.933 134.143H193.871V136.201H195.933V134.143Z" fill="#F0F0F0"/>
<path d="M195.933 137.592H193.871V139.65H195.933V137.592Z" fill="#F0F0F0"/>
<path d="M195.933 141.033H193.871V143.091H195.933V141.033Z" fill="#F0F0F0"/>
<path d="M195.933 144.476H193.871V146.533H195.933V144.476Z" fill="#F0F0F0"/>
<path d="M195.933 158.258H193.871V160.316H195.933V158.258Z" fill="#F0F0F0"/>
<path d="M199.2 120.367H197.138V122.425H199.2V120.367Z" fill="#F0F0F0"/>
<path d="M199.2 123.81H197.138V125.867H199.2V123.81Z" fill="#F0F0F0"/>
<path d="M199.2 127.251H197.138V129.309H199.2V127.251Z" fill="#F0F0F0"/>
<path d="M199.2 130.7H197.138V132.758H199.2V130.7Z" fill="#F0F0F0"/>
<path d="M199.2 134.143H197.138V136.201H199.2V134.143Z" fill="#F0F0F0"/>
<path d="M199.2 137.592H197.138V139.65H199.2V137.592Z" fill="#F0F0F0"/>
<path d="M199.2 141.033H197.138V143.091H199.2V141.033Z" fill="#F0F0F0"/>
<path d="M199.2 144.476H197.138V146.533H199.2V144.476Z" fill="#F0F0F0"/>
<path d="M202.467 120.367H200.405V122.425H202.467V120.367Z" fill="#F0F0F0"/>
<path d="M202.467 123.81H200.405V125.867H202.467V123.81Z" fill="#F0F0F0"/>
<path d="M202.467 127.251H200.405V129.309H202.467V127.251Z" fill="#F0F0F0"/>
<path d="M202.467 130.7H200.405V132.758H202.467V130.7Z" fill="#F0F0F0"/>
<path d="M202.467 134.143H200.405V136.201H202.467V134.143Z" fill="#F0F0F0"/>
<path d="M202.467 137.592H200.405V139.65H202.467V137.592Z" fill="#F0F0F0"/>
<path d="M202.467 144.476H200.405V146.533H202.467V144.476Z" fill="#F0F0F0"/>
<path d="M202.467 147.925H200.405V149.983H202.467V147.925Z" fill="#F0F0F0"/>
<path d="M202.467 158.258H200.405V160.316H202.467V158.258Z" fill="#F0F0F0"/>
<path d="M202.467 161.699H200.405V163.757H202.467V161.699Z" fill="#F0F0F0"/>
<path d="M202.467 165.148H200.405V167.206H202.467V165.148Z" fill="#F0F0F0"/>
<path d="M202.467 168.591H200.405V170.649H202.467V168.591Z" fill="#F0F0F0"/>
<path d="M202.467 172.04H200.405V174.098H202.467V172.04Z" fill="#F0F0F0"/>
<path d="M202.467 175.481H200.405V177.539H202.467V175.481Z" fill="#F0F0F0"/>
<path d="M202.467 178.924H200.405V180.982H202.467V178.924Z" fill="#F0F0F0"/>
<path d="M205.742 120.367H203.68V122.425H205.742V120.367Z" fill="#F0F0F0"/>
<path d="M205.742 123.81H203.68V125.867H205.742V123.81Z" fill="#F0F0F0"/>
<path d="M205.742 127.251H203.68V129.309H205.742V127.251Z" fill="#F0F0F0"/>
<path d="M205.742 130.7H203.68V132.758H205.742V130.7Z" fill="#F0F0F0"/>
<path d="M205.742 134.143H203.68V136.201H205.742V134.143Z" fill="#F0F0F0"/>
<path d="M205.742 137.592H203.68V139.65H205.742V137.592Z" fill="#F0F0F0"/>
<path d="M205.742 147.925H203.68V149.983H205.742V147.925Z" fill="#F0F0F0"/>
<path d="M205.742 151.366H203.68V153.424H205.742V151.366Z" fill="#F0F0F0"/>
<path d="M205.742 154.815H203.68V156.873H205.742V154.815Z" fill="#F0F0F0"/>
<path d="M205.742 158.258H203.68V160.316H205.742V158.258Z" fill="#F0F0F0"/>
<path d="M205.742 161.699H203.68V163.757H205.742V161.699Z" fill="#F0F0F0"/>
<path d="M205.742 165.148H203.68V167.206H205.742V165.148Z" fill="#F0F0F0"/>
<path d="M205.742 168.591H203.68V170.649H205.742V168.591Z" fill="#F0F0F0"/>
<path d="M205.742 172.04H203.68V174.098H205.742V172.04Z" fill="#F0F0F0"/>
<path d="M205.742 175.481H203.68V177.539H205.742V175.481Z" fill="#F0F0F0"/>
<path d="M205.742 178.924H203.68V180.982H205.742V178.924Z" fill="#F0F0F0"/>
<path d="M205.742 182.373H203.68V184.431H205.742V182.373Z" fill="#F0F0F0"/>
<path d="M205.742 189.264H203.68V191.322H205.742V189.264Z" fill="#F0F0F0"/>
<path d="M209.009 120.367H206.947V122.425H209.009V120.367Z" fill="#F0F0F0"/>
<path d="M209.009 123.81H206.947V125.867H209.009V123.81Z" fill="#F0F0F0"/>
<path d="M209.009 127.251H206.947V129.309H209.009V127.251Z" fill="#F0F0F0"/>
<path d="M209.009 130.7H206.947V132.758H209.009V130.7Z" fill="#F0F0F0"/>
<path d="M209.009 134.143H206.947V136.201H209.009V134.143Z" fill="#F0F0F0"/>
<path d="M209.009 137.592H206.947V139.65H209.009V137.592Z" fill="#F0F0F0"/>
<path d="M209.009 147.925H206.947V149.983H209.009V147.925Z" fill="#F0F0F0"/>
<path d="M209.009 151.366H206.947V153.424H209.009V151.366Z" fill="#F0F0F0"/>
<path d="M209.009 154.815H206.947V156.873H209.009V154.815Z" fill="#F0F0F0"/>
<path d="M209.009 158.258H206.947V160.316H209.009V158.258Z" fill="#F0F0F0"/>
<path d="M209.009 168.591H206.947V170.649H209.009V168.591Z" fill="#F0F0F0"/>
<path d="M209.009 172.04H206.947V174.098H209.009V172.04Z" fill="#F0F0F0"/>
<path d="M209.009 175.481H206.947V177.539H209.009V175.481Z" fill="#F0F0F0"/>
<path d="M209.009 178.924H206.947V180.982H209.009V178.924Z" fill="#F0F0F0"/>
<path d="M209.009 182.373H206.947V184.431H209.009V182.373Z" fill="#F0F0F0"/>
<path d="M209.009 189.264H206.947V191.322H209.009V189.264Z" fill="#F0F0F0"/>
<path d="M209.009 192.706H206.947V194.764H209.009V192.706Z" fill="#F0F0F0"/>
<path d="M238.68 152.396H236.618V154.453H238.68V152.396Z" fill="#F0F0F0"/>
<path d="M238.68 155.837H236.618V157.895H238.68V155.837Z" fill="#F0F0F0"/>
<path d="M238.68 159.286H236.618V161.344H238.68V159.286Z" fill="#F0F0F0"/>
<path d="M238.68 162.729H236.618V164.786H238.68V162.729Z" fill="#F0F0F0"/>
<path d="M238.68 166.178H236.618V168.236H238.68V166.178Z" fill="#F0F0F0"/>
<path d="M238.68 169.619H236.618V171.677H238.68V169.619Z" fill="#F0F0F0"/>
<path d="M238.68 173.062H236.618V175.119H238.68V173.062Z" fill="#F0F0F0"/>
<path d="M238.68 183.401H236.618V185.459H238.68V183.401Z" fill="#F0F0F0"/>
<path d="M238.68 186.844H236.618V188.902H238.68V186.844Z" fill="#F0F0F0"/>
<path d="M238.68 190.285H236.618V192.343H238.68V190.285Z" fill="#F0F0F0"/>
<path d="M241.947 152.396H239.885V154.453H241.947V152.396Z" fill="#F0F0F0"/>
<path d="M241.947 155.837H239.885V157.895H241.947V155.837Z" fill="#F0F0F0"/>
<path d="M241.947 159.286H239.885V161.344H241.947V159.286Z" fill="#F0F0F0"/>
<path d="M241.947 162.729H239.885V164.786H241.947V162.729Z" fill="#F0F0F0"/>
<path d="M241.947 166.178H239.885V168.236H241.947V166.178Z" fill="#F0F0F0"/>
<path d="M241.947 169.619H239.885V171.677H241.947V169.619Z" fill="#F0F0F0"/>
<path d="M241.947 173.062H239.885V175.119H241.947V173.062Z" fill="#F0F0F0"/>
<path d="M245.221 152.396H243.159V154.453H245.221V152.396Z" fill="#F0F0F0"/>
<path d="M245.221 155.837H243.159V157.895H245.221V155.837Z" fill="#F0F0F0"/>
<path d="M245.221 159.286H243.159V161.344H245.221V159.286Z" fill="#F0F0F0"/>
<path d="M245.221 162.729H243.159V164.786H245.221V162.729Z" fill="#F0F0F0"/>
<path d="M245.221 166.178H243.159V168.236H245.221V166.178Z" fill="#F0F0F0"/>
<path d="M245.221 169.619H243.159V171.677H245.221V169.619Z" fill="#F0F0F0"/>
<path d="M245.221 173.062H243.159V175.119H245.221V173.062Z" fill="#F0F0F0"/>
<path d="M248.488 152.396H246.426V154.453H248.488V152.396Z" fill="#F0F0F0"/>
<path d="M248.488 155.837H246.426V157.895H248.488V155.837Z" fill="#F0F0F0"/>
<path d="M248.488 159.286H246.426V161.344H248.488V159.286Z" fill="#F0F0F0"/>
<path d="M248.488 162.729H246.426V164.786H248.488V162.729Z" fill="#F0F0F0"/>
<path d="M248.488 166.178H246.426V168.236H248.488V166.178Z" fill="#F0F0F0"/>
<path d="M248.488 169.619H246.426V171.677H248.488V169.619Z" fill="#F0F0F0"/>
<path d="M248.488 173.062H246.426V175.119H248.488V173.062Z" fill="#F0F0F0"/>
<path d="M248.488 176.511H246.426V178.569H248.488V176.511Z" fill="#F0F0F0"/>
<path d="M248.488 179.952H246.426V182.01H248.488V179.952Z" fill="#F0F0F0"/>
<path d="M248.488 183.401H246.426V185.459H248.488V183.401Z" fill="#F0F0F0"/>
<path d="M248.488 186.844H246.426V188.902H248.488V186.844Z" fill="#F0F0F0"/>
<path d="M251.755 152.396H249.693V154.453H251.755V152.396Z" fill="#F0F0F0"/>
<path d="M251.755 155.837H249.693V157.895H251.755V155.837Z" fill="#F0F0F0"/>
<path d="M251.755 159.286H249.693V161.344H251.755V159.286Z" fill="#F0F0F0"/>
<path d="M251.755 162.729H249.693V164.786H251.755V162.729Z" fill="#F0F0F0"/>
<path d="M251.755 166.178H249.693V168.236H251.755V166.178Z" fill="#F0F0F0"/>
<path d="M251.755 169.619H249.693V171.677H251.755V169.619Z" fill="#F0F0F0"/>
<path d="M251.755 173.062H249.693V175.119H251.755V173.062Z" fill="#F0F0F0"/>
<path d="M251.755 176.511H249.693V178.569H251.755V176.511Z" fill="#F0F0F0"/>
<path d="M251.755 179.952H249.693V182.01H251.755V179.952Z" fill="#F0F0F0"/>
<path d="M251.755 183.401H249.693V185.459H251.755V183.401Z" fill="#F0F0F0"/>
<path d="M251.755 186.844H249.693V188.902H251.755V186.844Z" fill="#F0F0F0"/>
<path d="M251.755 190.285H249.693V192.343H251.755V190.285Z" fill="#F0F0F0"/>
<path d="M251.755 200.626H249.693V202.684H251.755V200.626Z" fill="#F0F0F0"/>
<path d="M251.755 204.067H249.693V206.125H251.755V204.067Z" fill="#F0F0F0"/>
<path d="M255.03 152.396H252.968V154.453H255.03V152.396Z" fill="#F0F0F0"/>
<path d="M255.03 155.837H252.968V157.895H255.03V155.837Z" fill="#F0F0F0"/>
<path d="M255.03 159.286H252.968V161.344H255.03V159.286Z" fill="#F0F0F0"/>
<path d="M255.03 169.619H252.968V171.677H255.03V169.619Z" fill="#F0F0F0"/>
<path d="M255.03 173.062H252.968V175.119H255.03V173.062Z" fill="#F0F0F0"/>
<path d="M255.03 176.511H252.968V178.569H255.03V176.511Z" fill="#F0F0F0"/>
<path d="M255.03 179.952H252.968V182.01H255.03V179.952Z" fill="#F0F0F0"/>
<path d="M255.03 183.401H252.968V185.459H255.03V183.401Z" fill="#F0F0F0"/>
<path d="M255.03 186.844H252.968V188.902H255.03V186.844Z" fill="#F0F0F0"/>
<path d="M255.03 190.285H252.968V192.343H255.03V190.285Z" fill="#F0F0F0"/>
<path d="M255.03 200.626H252.968V202.684H255.03V200.626Z" fill="#F0F0F0"/>
<path d="M255.03 204.067H252.968V206.125H255.03V204.067Z" fill="#F0F0F0"/>
<path d="M255.03 207.51H252.968V209.568H255.03V207.51Z" fill="#F0F0F0"/>
<path d="M289.304 131.729H287.242V133.787H289.304V131.729Z" fill="#F0F0F0"/>
<path d="M289.304 135.171H287.242V137.229H289.304V135.171Z" fill="#F0F0F0"/>
<path d="M289.304 138.613H287.242V140.671H289.304V138.613Z" fill="#F0F0F0"/>
<path d="M289.304 142.062H287.242V144.12H289.304V142.062Z" fill="#F0F0F0"/>
<path d="M289.304 145.504H287.242V147.562H289.304V145.504Z" fill="#F0F0F0"/>
<path d="M289.304 148.953H287.242V151.011H289.304V148.953Z" fill="#F0F0F0"/>
<path d="M289.304 152.396H287.242V154.453H289.304V152.396Z" fill="#F0F0F0"/>
<path d="M289.304 155.837H287.242V157.895H289.304V155.837Z" fill="#F0F0F0"/>
<path d="M289.304 159.286H287.242V161.344H289.304V159.286Z" fill="#F0F0F0"/>
<path d="M289.304 162.729H287.242V164.786H289.304V162.729Z" fill="#F0F0F0"/>
<path d="M289.304 166.178H287.242V168.236H289.304V166.178Z" fill="#F0F0F0"/>
<path d="M289.304 169.619H287.242V171.677H289.304V169.619Z" fill="#F0F0F0"/>
<path d="M289.304 173.062H287.242V175.119H289.304V173.062Z" fill="#F0F0F0"/>
<path d="M289.304 176.511H287.242V178.569H289.304V176.511Z" fill="#F0F0F0"/>
<path d="M289.304 179.952H287.242V182.01H289.304V179.952Z" fill="#F0F0F0"/>
<path d="M289.304 183.401H287.242V185.459H289.304V183.401Z" fill="#F0F0F0"/>
<path d="M289.304 186.844H287.242V188.902H289.304V186.844Z" fill="#F0F0F0"/>
<path d="M289.304 190.285H287.242V192.343H289.304V190.285Z" fill="#F0F0F0"/>
<path d="M289.304 193.734H287.242V195.792H289.304V193.734Z" fill="#F0F0F0"/>
<path d="M289.304 197.177H287.242V199.235H289.304V197.177Z" fill="#F0F0F0"/>
<path d="M289.304 200.626H287.242V202.684H289.304V200.626Z" fill="#F0F0F0"/>
<path d="M289.304 204.067H287.242V206.125H289.304V204.067Z" fill="#F0F0F0"/>
<path d="M289.304 207.51H287.242V209.568H289.304V207.51Z" fill="#F0F0F0"/>
<path d="M292.571 131.729H290.509V133.787H292.571V131.729Z" fill="#F0F0F0"/>
<path d="M292.571 135.171H290.509V137.229H292.571V135.171Z" fill="#F0F0F0"/>
<path d="M292.571 138.613H290.509V140.671H292.571V138.613Z" fill="#F0F0F0"/>
<path d="M292.571 142.062H290.509V144.12H292.571V142.062Z" fill="#F0F0F0"/>
<path d="M292.571 145.504H290.509V147.562H292.571V145.504Z" fill="#F0F0F0"/>
<path d="M292.571 148.953H290.509V151.011H292.571V148.953Z" fill="#F0F0F0"/>
<path d="M292.571 152.396H290.509V154.453H292.571V152.396Z" fill="#F0F0F0"/>
<path d="M292.571 155.837H290.509V157.895H292.571V155.837Z" fill="#F0F0F0"/>
<path d="M292.571 159.286H290.509V161.344H292.571V159.286Z" fill="#F0F0F0"/>
<path d="M292.571 162.729H290.509V164.786H292.571V162.729Z" fill="#F0F0F0"/>
<path d="M292.571 166.178H290.509V168.236H292.571V166.178Z" fill="#F0F0F0"/>
<path d="M292.571 169.619H290.509V171.677H292.571V169.619Z" fill="#F0F0F0"/>
<path d="M292.571 173.062H290.509V175.119H292.571V173.062Z" fill="#F0F0F0"/>
<path d="M292.571 176.511H290.509V178.569H292.571V176.511Z" fill="#F0F0F0"/>
<path d="M292.571 179.952H290.509V182.01H292.571V179.952Z" fill="#F0F0F0"/>
<path d="M292.571 183.401H290.509V185.459H292.571V183.401Z" fill="#F0F0F0"/>
<path d="M292.571 186.844H290.509V188.902H292.571V186.844Z" fill="#F0F0F0"/>
<path d="M292.571 190.285H290.509V192.343H292.571V190.285Z" fill="#F0F0F0"/>
<path d="M292.571 193.734H290.509V195.792H292.571V193.734Z" fill="#F0F0F0"/>
<path d="M295.838 131.729H293.776V133.787H295.838V131.729Z" fill="#F0F0F0"/>
<path d="M295.838 135.171H293.776V137.229H295.838V135.171Z" fill="#F0F0F0"/>
<path d="M295.838 138.613H293.776V140.671H295.838V138.613Z" fill="#F0F0F0"/>
<path d="M295.838 142.062H293.776V144.12H295.838V142.062Z" fill="#F0F0F0"/>
<path d="M295.838 145.504H293.776V147.562H295.838V145.504Z" fill="#F0F0F0"/>
<path d="M295.838 148.953H293.776V151.011H295.838V148.953Z" fill="#F0F0F0"/>
<path d="M295.838 152.396H293.776V154.453H295.838V152.396Z" fill="#F0F0F0"/>
<path d="M295.838 155.837H293.776V157.895H295.838V155.837Z" fill="#F0F0F0"/>
<path d="M295.838 159.286H293.776V161.344H295.838V159.286Z" fill="#F0F0F0"/>
<path d="M295.838 162.729H293.776V164.786H295.838V162.729Z" fill="#F0F0F0"/>
<path d="M295.838 166.178H293.776V168.236H295.838V166.178Z" fill="#F0F0F0"/>
<path d="M295.838 169.619H293.776V171.677H295.838V169.619Z" fill="#F0F0F0"/>
<path d="M295.838 173.062H293.776V175.119H295.838V173.062Z" fill="#F0F0F0"/>
<path d="M295.838 176.511H293.776V178.569H295.838V176.511Z" fill="#F0F0F0"/>
<path d="M295.838 179.952H293.776V182.01H295.838V179.952Z" fill="#F0F0F0"/>
<path d="M295.838 183.401H293.776V185.459H295.838V183.401Z" fill="#F0F0F0"/>
<path d="M295.838 186.844H293.776V188.902H295.838V186.844Z" fill="#F0F0F0"/>
<path d="M295.838 190.285H293.776V192.343H295.838V190.285Z" fill="#F0F0F0"/>
<path d="M295.838 193.734H293.776V195.792H295.838V193.734Z" fill="#F0F0F0"/>
<path d="M299.112 131.729H297.05V133.787H299.112V131.729Z" fill="#F0F0F0"/>
<path d="M299.112 135.171H297.05V137.229H299.112V135.171Z" fill="#F0F0F0"/>
<path d="M299.112 138.613H297.05V140.671H299.112V138.613Z" fill="#F0F0F0"/>
<path d="M299.112 142.062H297.05V144.12H299.112V142.062Z" fill="#F0F0F0"/>
<path d="M299.112 145.504H297.05V147.562H299.112V145.504Z" fill="#F0F0F0"/>
<path d="M299.112 148.953H297.05V151.011H299.112V148.953Z" fill="#F0F0F0"/>
<path d="M299.112 152.396H297.05V154.453H299.112V152.396Z" fill="#F0F0F0"/>
<path d="M299.112 155.837H297.05V157.895H299.112V155.837Z" fill="#F0F0F0"/>
<path d="M299.112 159.286H297.05V161.344H299.112V159.286Z" fill="#F0F0F0"/>
<path d="M299.112 162.729H297.05V164.786H299.112V162.729Z" fill="#F0F0F0"/>
<path d="M299.112 166.178H297.05V168.236H299.112V166.178Z" fill="#F0F0F0"/>
<path d="M299.112 169.619H297.05V171.677H299.112V169.619Z" fill="#F0F0F0"/>
<path d="M299.112 173.062H297.05V175.119H299.112V173.062Z" fill="#F0F0F0"/>
<path d="M299.112 176.511H297.05V178.569H299.112V176.511Z" fill="#F0F0F0"/>
<path d="M299.112 179.952H297.05V182.01H299.112V179.952Z" fill="#F0F0F0"/>
<path d="M302.379 131.729H300.317V133.787H302.379V131.729Z" fill="#F0F0F0"/>
<path d="M302.379 135.171H300.317V137.229H302.379V135.171Z" fill="#F0F0F0"/>
<path d="M302.379 138.613H300.317V140.671H302.379V138.613Z" fill="#F0F0F0"/>
<path d="M302.379 142.062H300.317V144.12H302.379V142.062Z" fill="#F0F0F0"/>
<path d="M302.379 145.504H300.317V147.562H302.379V145.504Z" fill="#F0F0F0"/>
<path d="M302.379 148.953H300.317V151.011H302.379V148.953Z" fill="#F0F0F0"/>
<path d="M302.379 152.396H300.317V154.453H302.379V152.396Z" fill="#F0F0F0"/>
<path d="M302.379 155.837H300.317V157.895H302.379V155.837Z" fill="#F0F0F0"/>
<path d="M302.379 159.286H300.317V161.344H302.379V159.286Z" fill="#F0F0F0"/>
<path d="M302.379 162.729H300.317V164.786H302.379V162.729Z" fill="#F0F0F0"/>
<path d="M302.379 166.178H300.317V168.236H302.379V166.178Z" fill="#F0F0F0"/>
<path d="M302.379 169.619H300.317V171.677H302.379V169.619Z" fill="#F0F0F0"/>
<path d="M302.379 173.062H300.317V175.119H302.379V173.062Z" fill="#F0F0F0"/>
<path d="M305.646 131.729H303.584V133.787H305.646V131.729Z" fill="#F0F0F0"/>
<path d="M305.646 135.171H303.584V137.229H305.646V135.171Z" fill="#F0F0F0"/>
<path d="M305.646 138.613H303.584V140.671H305.646V138.613Z" fill="#F0F0F0"/>
<path d="M305.646 142.062H303.584V144.12H305.646V142.062Z" fill="#F0F0F0"/>
<path d="M305.646 145.504H303.584V147.562H305.646V145.504Z" fill="#F0F0F0"/>
<path d="M305.646 148.953H303.584V151.011H305.646V148.953Z" fill="#F0F0F0"/>
<path d="M305.646 152.396H303.584V154.453H305.646V152.396Z" fill="#F0F0F0"/>
<path d="M305.646 155.837H303.584V157.895H305.646V155.837Z" fill="#F0F0F0"/>
<path d="M305.646 159.286H303.584V161.344H305.646V159.286Z" fill="#F0F0F0"/>
<path d="M305.646 162.729H303.584V164.786H305.646V162.729Z" fill="#F0F0F0"/>
<path d="M305.646 166.178H303.584V168.236H305.646V166.178Z" fill="#F0F0F0"/>
<path d="M305.646 169.619H303.584V171.677H305.646V169.619Z" fill="#F0F0F0"/>
<path d="M65.3836 156.866H63.3218V158.924H65.3836V156.866Z" fill="#F0F0F0"/>
<path d="M65.3836 160.315H63.3218V162.373H65.3836V160.315Z" fill="#F0F0F0"/>
<path d="M65.3836 163.758H63.3218V165.816H65.3836V163.758Z" fill="#F0F0F0"/>
<path d="M65.3836 167.199H63.3218V169.257H65.3836V167.199Z" fill="#F0F0F0"/>
<path d="M65.3836 170.648H63.3218V172.706H65.3836V170.648Z" fill="#F0F0F0"/>
<path d="M65.3836 174.091H63.3218V176.149H65.3836V174.091Z" fill="#F0F0F0"/>
<path d="M65.3836 177.54H63.3218V179.598H65.3836V177.54Z" fill="#F0F0F0"/>
<path d="M65.3836 180.981H63.3218V183.039H65.3836V180.981Z" fill="#F0F0F0"/>
<path d="M65.3836 184.424H63.3218V186.482H65.3836V184.424Z" fill="#F0F0F0"/>
<path d="M65.3836 187.873H63.3218V189.931H65.3836V187.873Z" fill="#F0F0F0"/>
<path d="M65.3836 191.314H63.3218V193.372H65.3836V191.314Z" fill="#F0F0F0"/>
<path d="M65.3836 194.764H63.3218V196.822H65.3836V194.764Z" fill="#F0F0F0"/>
<path d="M65.3836 198.206H63.3218V200.264H65.3836V198.206Z" fill="#F0F0F0"/>
<path d="M65.3836 201.647H63.3218V203.705H65.3836V201.647Z" fill="#F0F0F0"/>
<path d="M65.3836 205.097H63.3218V207.155H65.3836V205.097Z" fill="#F0F0F0"/>
<path d="M65.3836 208.539H63.3218V210.597H65.3836V208.539Z" fill="#F0F0F0"/>
<path d="M65.3836 211.988H63.3218V214.046H65.3836V211.988Z" fill="#F0F0F0"/>
<path d="M65.3836 215.43H63.3218V217.488H65.3836V215.43Z" fill="#F0F0F0"/>
<path d="M65.3836 218.872H63.3218V220.93H65.3836V218.872Z" fill="#F0F0F0"/>
<path d="M65.3836 222.321H63.3218V224.379H65.3836V222.321Z" fill="#F0F0F0"/>
<path d="M68.6507 156.866H66.5889V158.924H68.6507V156.866Z" fill="#F0F0F0"/>
<path d="M68.6507 160.315H66.5889V162.373H68.6507V160.315Z" fill="#F0F0F0"/>
<path d="M68.6507 163.758H66.5889V165.816H68.6507V163.758Z" fill="#F0F0F0"/>
<path d="M68.6507 167.199H66.5889V169.257H68.6507V167.199Z" fill="#F0F0F0"/>
<path d="M68.6507 170.648H66.5889V172.706H68.6507V170.648Z" fill="#F0F0F0"/>
<path d="M68.6507 174.091H66.5889V176.149H68.6507V174.091Z" fill="#F0F0F0"/>
<path d="M68.6507 177.54H66.5889V179.598H68.6507V177.54Z" fill="#F0F0F0"/>
<path d="M68.6507 180.981H66.5889V183.039H68.6507V180.981Z" fill="#F0F0F0"/>
<path d="M68.6507 184.424H66.5889V186.482H68.6507V184.424Z" fill="#F0F0F0"/>
<path d="M68.6507 187.873H66.5889V189.931H68.6507V187.873Z" fill="#F0F0F0"/>
<path d="M68.6507 191.314H66.5889V193.372H68.6507V191.314Z" fill="#F0F0F0"/>
<path d="M68.6507 194.764H66.5889V196.822H68.6507V194.764Z" fill="#F0F0F0"/>
<path d="M68.6507 198.206H66.5889V200.264H68.6507V198.206Z" fill="#F0F0F0"/>
<path d="M68.6507 201.647H66.5889V203.705H68.6507V201.647Z" fill="#F0F0F0"/>
<path d="M68.6507 205.097H66.5889V207.155H68.6507V205.097Z" fill="#F0F0F0"/>
<path d="M68.6507 208.539H66.5889V210.597H68.6507V208.539Z" fill="#F0F0F0"/>
<path d="M68.6507 211.988H66.5889V214.046H68.6507V211.988Z" fill="#F0F0F0"/>
<path d="M68.6507 215.43H66.5889V217.488H68.6507V215.43Z" fill="#F0F0F0"/>
<path d="M71.9178 156.866H69.856V158.924H71.9178V156.866Z" fill="#F0F0F0"/>
<path d="M71.9178 160.315H69.856V162.373H71.9178V160.315Z" fill="#F0F0F0"/>
<path d="M71.9178 163.758H69.856V165.816H71.9178V163.758Z" fill="#F0F0F0"/>
<path d="M71.9178 167.199H69.856V169.257H71.9178V167.199Z" fill="#F0F0F0"/>
<path d="M71.9178 170.648H69.856V172.706H71.9178V170.648Z" fill="#F0F0F0"/>
<path d="M71.9178 174.091H69.856V176.149H71.9178V174.091Z" fill="#F0F0F0"/>
<path d="M71.9178 177.54H69.856V179.598H71.9178V177.54Z" fill="#F0F0F0"/>
<path d="M71.9178 180.981H69.856V183.039H71.9178V180.981Z" fill="#F0F0F0"/>
<path d="M71.9178 184.424H69.856V186.482H71.9178V184.424Z" fill="#F0F0F0"/>
<path d="M71.9178 187.873H69.856V189.931H71.9178V187.873Z" fill="#F0F0F0"/>
<path d="M71.9178 191.314H69.856V193.372H71.9178V191.314Z" fill="#F0F0F0"/>
<path d="M71.9178 194.764H69.856V196.822H71.9178V194.764Z" fill="#F0F0F0"/>
<path d="M71.9178 198.206H69.856V200.264H71.9178V198.206Z" fill="#F0F0F0"/>
<path d="M71.9178 201.647H69.856V203.705H71.9178V201.647Z" fill="#F0F0F0"/>
<path d="M71.9178 205.097H69.856V207.155H71.9178V205.097Z" fill="#F0F0F0"/>
<path d="M71.9178 208.539H69.856V210.597H71.9178V208.539Z" fill="#F0F0F0"/>
<path d="M71.9178 211.988H69.856V214.046H71.9178V211.988Z" fill="#F0F0F0"/>
<path d="M71.9178 215.43H69.856V217.488H71.9178V215.43Z" fill="#F0F0F0"/>
<path d="M53.1507 182.011H51.0889V184.069H53.1507V182.011Z" fill="#F0F0F0"/>
<path d="M53.1507 185.452H51.0889V187.51H53.1507V185.452Z" fill="#F0F0F0"/>
<path d="M53.1507 188.901H51.0889V190.959H53.1507V188.901Z" fill="#F0F0F0"/>
<path d="M53.1507 192.344H51.0889V194.402H53.1507V192.344Z" fill="#F0F0F0"/>
<path d="M53.1507 195.785H51.0889V197.843H53.1507V195.785Z" fill="#F0F0F0"/>
<path d="M53.1507 199.234H51.0889V201.292H53.1507V199.234Z" fill="#F0F0F0"/>
<path d="M53.1507 202.677H51.0889V204.735H53.1507V202.677Z" fill="#F0F0F0"/>
<path d="M53.1507 206.126H51.0889V208.184H53.1507V206.126Z" fill="#F0F0F0"/>
<path d="M53.1507 209.567H51.0889V211.625H53.1507V209.567Z" fill="#F0F0F0"/>
<path d="M53.1507 213.01H51.0889V215.068H53.1507V213.01Z" fill="#F0F0F0"/>
<path d="M53.1507 216.459H51.0889V218.517H53.1507V216.459Z" fill="#F0F0F0"/>
<path d="M53.1507 219.9H51.0889V221.958H53.1507V219.9Z" fill="#F0F0F0"/>
<path d="M53.1507 223.35H51.0889V225.408H53.1507V223.35Z" fill="#F0F0F0"/>
<path d="M56.4178 182.011H54.356V184.069H56.4178V182.011Z" fill="#F0F0F0"/>
<path d="M56.4178 185.452H54.356V187.51H56.4178V185.452Z" fill="#F0F0F0"/>
<path d="M56.4178 188.901H54.356V190.959H56.4178V188.901Z" fill="#F0F0F0"/>
<path d="M56.4178 192.344H54.356V194.402H56.4178V192.344Z" fill="#F0F0F0"/>
<path d="M56.4178 195.785H54.356V197.843H56.4178V195.785Z" fill="#F0F0F0"/>
<path d="M56.4178 199.234H54.356V201.292H56.4178V199.234Z" fill="#F0F0F0"/>
<path d="M56.4178 202.677H54.356V204.735H56.4178V202.677Z" fill="#F0F0F0"/>
<path d="M56.4178 206.126H54.356V208.184H56.4178V206.126Z" fill="#F0F0F0"/>
<path d="M56.4178 209.567H54.356V211.625H56.4178V209.567Z" fill="#F0F0F0"/>
<path d="M56.4178 213.01H54.356V215.068H56.4178V213.01Z" fill="#F0F0F0"/>
<path d="M56.4178 216.459H54.356V218.517H56.4178V216.459Z" fill="#F0F0F0"/>
<path d="M56.4178 219.9H54.356V221.958H56.4178V219.9Z" fill="#F0F0F0"/>
<path d="M56.4178 223.35H54.356V225.408H56.4178V223.35Z" fill="#F0F0F0"/>
<path d="M59.6917 182.011H57.6299V184.069H59.6917V182.011Z" fill="#F0F0F0"/>
<path d="M59.6917 185.452H57.6299V187.51H59.6917V185.452Z" fill="#F0F0F0"/>
<path d="M59.6917 188.901H57.6299V190.959H59.6917V188.901Z" fill="#F0F0F0"/>
<path d="M59.6917 192.344H57.6299V194.402H59.6917V192.344Z" fill="#F0F0F0"/>
<path d="M59.6917 195.785H57.6299V197.843H59.6917V195.785Z" fill="#F0F0F0"/>
<path d="M59.6917 199.234H57.6299V201.292H59.6917V199.234Z" fill="#F0F0F0"/>
<path d="M59.6917 202.677H57.6299V204.735H59.6917V202.677Z" fill="#F0F0F0"/>
<path d="M59.6917 206.126H57.6299V208.184H59.6917V206.126Z" fill="#F0F0F0"/>
<path d="M59.6917 209.567H57.6299V211.625H59.6917V209.567Z" fill="#F0F0F0"/>
<path d="M59.6917 213.01H57.6299V215.068H59.6917V213.01Z" fill="#F0F0F0"/>
<path d="M59.6917 216.459H57.6299V218.517H59.6917V216.459Z" fill="#F0F0F0"/>
<path d="M59.6917 219.9H57.6299V221.958H59.6917V219.9Z" fill="#F0F0F0"/>
<path d="M59.6917 223.35H57.6299V225.408H59.6917V223.35Z" fill="#F0F0F0"/>
<path d="M59.6917 226.792H57.6299V228.85H59.6917V226.792Z" fill="#F0F0F0"/>
<path d="M77.8563 183.039H75.7944V185.097H77.8563V183.039Z" fill="#F0F0F0"/>
<path d="M77.8563 186.481H75.7944V188.539H77.8563V186.481Z" fill="#F0F0F0"/>
<path d="M77.8563 189.923H75.7944V191.981H77.8563V189.923Z" fill="#F0F0F0"/>
<path d="M77.8563 193.372H75.7944V195.43H77.8563V193.372Z" fill="#F0F0F0"/>
<path d="M77.8563 196.814H75.7944V198.872H77.8563V196.814Z" fill="#F0F0F0"/>
<path d="M77.8563 200.264H75.7944V202.322H77.8563V200.264Z" fill="#F0F0F0"/>
<path d="M77.8563 203.705H75.7944V205.763H77.8563V203.705Z" fill="#F0F0F0"/>
<path d="M77.8563 207.147H75.7944V209.205H77.8563V207.147Z" fill="#F0F0F0"/>
<path d="M77.8563 210.597H75.7944V212.655H77.8563V210.597Z" fill="#F0F0F0"/>
<path d="M77.8563 214.039H75.7944V216.097H77.8563V214.039Z" fill="#F0F0F0"/>
<path d="M77.8563 224.372H75.7944V226.43H77.8563V224.372Z" fill="#F0F0F0"/>
<path d="M81.1234 183.039H79.0615V185.097H81.1234V183.039Z" fill="#F0F0F0"/>
<path d="M81.1234 186.481H79.0615V188.539H81.1234V186.481Z" fill="#F0F0F0"/>
<path d="M81.1234 189.923H79.0615V191.981H81.1234V189.923Z" fill="#F0F0F0"/>
<path d="M81.1234 193.372H79.0615V195.43H81.1234V193.372Z" fill="#F0F0F0"/>
<path d="M81.1234 196.814H79.0615V198.872H81.1234V196.814Z" fill="#F0F0F0"/>
<path d="M81.1234 200.264H79.0615V202.322H81.1234V200.264Z" fill="#F0F0F0"/>
<path d="M81.1234 203.705H79.0615V205.763H81.1234V203.705Z" fill="#F0F0F0"/>
<path d="M81.1234 207.147H79.0615V209.205H81.1234V207.147Z" fill="#F0F0F0"/>
<path d="M81.1234 210.597H79.0615V212.655H81.1234V210.597Z" fill="#F0F0F0"/>
<path d="M81.1234 220.93H79.0615V222.988H81.1234V220.93Z" fill="#F0F0F0"/>
<path d="M81.1234 224.372H79.0615V226.43H81.1234V224.372Z" fill="#F0F0F0"/>
<path d="M84.3905 183.039H82.3286V185.097H84.3905V183.039Z" fill="#F0F0F0"/>
<path d="M84.3905 186.481H82.3286V188.539H84.3905V186.481Z" fill="#F0F0F0"/>
<path d="M84.3905 189.923H82.3286V191.981H84.3905V189.923Z" fill="#F0F0F0"/>
<path d="M84.3905 193.372H82.3286V195.43H84.3905V193.372Z" fill="#F0F0F0"/>
<path d="M84.3905 196.814H82.3286V198.872H84.3905V196.814Z" fill="#F0F0F0"/>
<path d="M84.3905 200.264H82.3286V202.322H84.3905V200.264Z" fill="#F0F0F0"/>
<path d="M84.3905 203.705H82.3286V205.763H84.3905V203.705Z" fill="#F0F0F0"/>
<path d="M84.3905 207.147H82.3286V209.205H84.3905V207.147Z" fill="#F0F0F0"/>
<path d="M84.3905 217.487H82.3286V219.545H84.3905V217.487Z" fill="#F0F0F0"/>
<path d="M84.3905 220.93H82.3286V222.988H84.3905V220.93Z" fill="#F0F0F0"/>
<path d="M84.3905 224.372H82.3286V226.43H84.3905V224.372Z" fill="#F0F0F0"/>
<path d="M114.788 130.7H112.726V132.758H114.788V130.7Z" fill="#F0F0F0"/>
<path d="M114.788 134.143H112.726V136.201H114.788V134.143Z" fill="#F0F0F0"/>
<path d="M114.788 137.592H112.726V139.65H114.788V137.592Z" fill="#F0F0F0"/>
<path d="M114.788 141.033H112.726V143.091H114.788V141.033Z" fill="#F0F0F0"/>
<path d="M114.788 144.476H112.726V146.533H114.788V144.476Z" fill="#F0F0F0"/>
<path d="M114.788 147.925H112.726V149.983H114.788V147.925Z" fill="#F0F0F0"/>
<path d="M114.788 151.366H112.726V153.424H114.788V151.366Z" fill="#F0F0F0"/>
<path d="M114.788 154.815H112.726V156.873H114.788V154.815Z" fill="#F0F0F0"/>
<path d="M114.788 158.258H112.726V160.316H114.788V158.258Z" fill="#F0F0F0"/>
<path d="M114.788 161.699H112.726V163.757H114.788V161.699Z" fill="#F0F0F0"/>
<path d="M114.788 165.148H112.726V167.206H114.788V165.148Z" fill="#F0F0F0"/>
<path d="M114.788 168.591H112.726V170.649H114.788V168.591Z" fill="#F0F0F0"/>
<path d="M114.788 172.04H112.726V174.098H114.788V172.04Z" fill="#F0F0F0"/>
<path d="M114.788 175.481H112.726V177.539H114.788V175.481Z" fill="#F0F0F0"/>
<path d="M114.788 178.924H112.726V180.982H114.788V178.924Z" fill="#F0F0F0"/>
<path d="M114.788 182.373H112.726V184.431H114.788V182.373Z" fill="#F0F0F0"/>
<path d="M114.788 185.814H112.726V187.872H114.788V185.814Z" fill="#F0F0F0"/>
<path d="M114.788 192.706H112.726V194.764H114.788V192.706Z" fill="#F0F0F0"/>
<path d="M114.788 196.147H112.726V198.205H114.788V196.147Z" fill="#F0F0F0"/>
<path d="M114.788 199.597H112.726V201.655H114.788V199.597Z" fill="#F0F0F0"/>
<path d="M114.788 203.039H112.726V205.097H114.788V203.039Z" fill="#F0F0F0"/>
<path d="M114.788 206.488H112.726V208.546H114.788V206.488Z" fill="#F0F0F0"/>
<path d="M118.062 130.7H116V132.758H118.062V130.7Z" fill="#F0F0F0"/>
<path d="M118.062 134.143H116V136.201H118.062V134.143Z" fill="#F0F0F0"/>
<path d="M118.062 137.592H116V139.65H118.062V137.592Z" fill="#F0F0F0"/>
<path d="M118.062 141.033H116V143.091H118.062V141.033Z" fill="#F0F0F0"/>
<path d="M118.062 144.476H116V146.533H118.062V144.476Z" fill="#F0F0F0"/>
<path d="M118.062 147.925H116V149.983H118.062V147.925Z" fill="#F0F0F0"/>
<path d="M118.062 151.366H116V153.424H118.062V151.366Z" fill="#F0F0F0"/>
<path d="M118.062 154.815H116V156.873H118.062V154.815Z" fill="#F0F0F0"/>
<path d="M118.062 158.258H116V160.316H118.062V158.258Z" fill="#F0F0F0"/>
<path d="M118.062 161.699H116V163.757H118.062V161.699Z" fill="#F0F0F0"/>
<path d="M118.062 165.148H116V167.206H118.062V165.148Z" fill="#F0F0F0"/>
<path d="M118.062 168.591H116V170.649H118.062V168.591Z" fill="#F0F0F0"/>
<path d="M118.062 172.04H116V174.098H118.062V172.04Z" fill="#F0F0F0"/>
<path d="M118.062 175.481H116V177.539H118.062V175.481Z" fill="#F0F0F0"/>
<path d="M118.062 178.924H116V180.982H118.062V178.924Z" fill="#F0F0F0"/>
<path d="M118.062 182.373H116V184.431H118.062V182.373Z" fill="#F0F0F0"/>
<path d="M118.062 203.039H116V205.097H118.062V203.039Z" fill="#F0F0F0"/>
<path d="M118.062 206.488H116V208.546H118.062V206.488Z" fill="#F0F0F0"/>
<path d="M121.329 130.7H119.268V132.758H121.329V130.7Z" fill="#F0F0F0"/>
<path d="M121.329 134.143H119.268V136.201H121.329V134.143Z" fill="#F0F0F0"/>
<path d="M121.329 137.592H119.268V139.65H121.329V137.592Z" fill="#F0F0F0"/>
<path d="M121.329 141.033H119.268V143.091H121.329V141.033Z" fill="#F0F0F0"/>
<path d="M121.329 144.476H119.268V146.533H121.329V144.476Z" fill="#F0F0F0"/>
<path d="M121.329 147.925H119.268V149.983H121.329V147.925Z" fill="#F0F0F0"/>
<path d="M121.329 151.366H119.268V153.424H121.329V151.366Z" fill="#F0F0F0"/>
<path d="M121.329 154.815H119.268V156.873H121.329V154.815Z" fill="#F0F0F0"/>
<path d="M121.329 158.258H119.268V160.316H121.329V158.258Z" fill="#F0F0F0"/>
<path d="M121.329 161.699H119.268V163.757H121.329V161.699Z" fill="#F0F0F0"/>
<path d="M121.329 165.148H119.268V167.206H121.329V165.148Z" fill="#F0F0F0"/>
<path d="M121.329 168.591H119.268V170.649H121.329V168.591Z" fill="#F0F0F0"/>
<path d="M121.329 172.04H119.268V174.098H121.329V172.04Z" fill="#F0F0F0"/>
<path d="M121.329 175.481H119.268V177.539H121.329V175.481Z" fill="#F0F0F0"/>
<path d="M121.329 178.924H119.268V180.982H121.329V178.924Z" fill="#F0F0F0"/>
<path d="M121.329 182.373H119.268V184.431H121.329V182.373Z" fill="#F0F0F0"/>
<path d="M121.329 189.264H119.268V191.322H121.329V189.264Z" fill="#F0F0F0"/>
<path d="M121.329 192.706H119.268V194.764H121.329V192.706Z" fill="#F0F0F0"/>
<path d="M121.329 196.147H119.268V198.205H121.329V196.147Z" fill="#F0F0F0"/>
<path d="M121.329 199.597H119.268V201.655H121.329V199.597Z" fill="#F0F0F0"/>
<path d="M121.329 206.488H119.268V208.546H121.329V206.488Z" fill="#F0F0F0"/>
<path d="M102.925 174.091H100.863V176.149H102.925V174.091Z" fill="#F0F0F0"/>
<path d="M102.925 177.54H100.863V179.598H102.925V177.54Z" fill="#F0F0F0"/>
<path d="M102.925 180.981H100.863V183.039H102.925V180.981Z" fill="#F0F0F0"/>
<path d="M102.925 184.424H100.863V186.482H102.925V184.424Z" fill="#F0F0F0"/>
<path d="M102.925 187.873H100.863V189.931H102.925V187.873Z" fill="#F0F0F0"/>
<path d="M102.925 191.314H100.863V193.372H102.925V191.314Z" fill="#F0F0F0"/>
<path d="M102.925 194.764H100.863V196.822H102.925V194.764Z" fill="#F0F0F0"/>
<path d="M102.925 201.647H100.863V203.705H102.925V201.647Z" fill="#F0F0F0"/>
<path d="M102.925 205.097H100.863V207.155H102.925V205.097Z" fill="#F0F0F0"/>
<path d="M102.925 208.539H100.863V210.597H102.925V208.539Z" fill="#F0F0F0"/>
<path d="M102.925 211.988H100.863V214.046H102.925V211.988Z" fill="#F0F0F0"/>
<path d="M102.925 215.43H100.863V217.488H102.925V215.43Z" fill="#F0F0F0"/>
<path d="M102.925 218.872H100.863V220.93H102.925V218.872Z" fill="#F0F0F0"/>
<path d="M102.925 222.321H100.863V224.379H102.925V222.321Z" fill="#F0F0F0"/>
<path d="M102.925 225.763H100.863V227.821H102.925V225.763Z" fill="#F0F0F0"/>
<path d="M106.192 174.091H104.13V176.149H106.192V174.091Z" fill="#F0F0F0"/>
<path d="M106.192 177.54H104.13V179.598H106.192V177.54Z" fill="#F0F0F0"/>
<path d="M106.192 180.981H104.13V183.039H106.192V180.981Z" fill="#F0F0F0"/>
<path d="M106.192 184.424H104.13V186.482H106.192V184.424Z" fill="#F0F0F0"/>
<path d="M106.192 187.873H104.13V189.931H106.192V187.873Z" fill="#F0F0F0"/>
<path d="M106.192 191.314H104.13V193.372H106.192V191.314Z" fill="#F0F0F0"/>
<path d="M106.192 201.647H104.13V203.705H106.192V201.647Z" fill="#F0F0F0"/>
<path d="M106.192 205.097H104.13V207.155H106.192V205.097Z" fill="#F0F0F0"/>
<path d="M106.192 208.539H104.13V210.597H106.192V208.539Z" fill="#F0F0F0"/>
<path d="M106.192 211.988H104.13V214.046H106.192V211.988Z" fill="#F0F0F0"/>
<path d="M106.192 215.43H104.13V217.488H106.192V215.43Z" fill="#F0F0F0"/>
<path d="M106.192 218.872H104.13V220.93H106.192V218.872Z" fill="#F0F0F0"/>
<path d="M106.192 222.321H104.13V224.379H106.192V222.321Z" fill="#F0F0F0"/>
<path d="M106.192 225.763H104.13V227.821H106.192V225.763Z" fill="#F0F0F0"/>
<path d="M109.459 174.091H107.397V176.149H109.459V174.091Z" fill="#F0F0F0"/>
<path d="M109.459 177.54H107.397V179.598H109.459V177.54Z" fill="#F0F0F0"/>
<path d="M109.459 180.981H107.397V183.039H109.459V180.981Z" fill="#F0F0F0"/>
<path d="M109.459 184.424H107.397V186.482H109.459V184.424Z" fill="#F0F0F0"/>
<path d="M109.459 187.873H107.397V189.931H109.459V187.873Z" fill="#F0F0F0"/>
<path d="M109.459 191.314H107.397V193.372H109.459V191.314Z" fill="#F0F0F0"/>
<path d="M109.459 198.206H107.397V200.264H109.459V198.206Z" fill="#F0F0F0"/>
<path d="M109.459 201.647H107.397V203.705H109.459V201.647Z" fill="#F0F0F0"/>
<path d="M109.459 205.097H107.397V207.155H109.459V205.097Z" fill="#F0F0F0"/>
<path d="M109.459 208.539H107.397V210.597H109.459V208.539Z" fill="#F0F0F0"/>
<path d="M109.459 211.988H107.397V214.046H109.459V211.988Z" fill="#F0F0F0"/>
<path d="M109.459 215.43H107.397V217.488H109.459V215.43Z" fill="#F0F0F0"/>
<path d="M109.459 218.872H107.397V220.93H109.459V218.872Z" fill="#F0F0F0"/>
<path d="M109.459 222.321H107.397V224.379H109.459V222.321Z" fill="#F0F0F0"/>
<path d="M109.459 225.763H107.397V227.821H109.459V225.763Z" fill="#F0F0F0"/>
<path d="M178.371 154.815H176.31V156.873H178.371V154.815Z" fill="#F0F0F0"/>
<path d="M178.371 158.258H176.31V160.316H178.371V158.258Z" fill="#F0F0F0"/>
<path d="M178.371 161.699H176.31V163.757H178.371V161.699Z" fill="#F0F0F0"/>
<path d="M178.371 165.148H176.31V167.206H178.371V165.148Z" fill="#F0F0F0"/>
<path d="M178.371 168.591H176.31V170.649H178.371V168.591Z" fill="#F0F0F0"/>
<path d="M178.371 172.04H176.31V174.098H178.371V172.04Z" fill="#F0F0F0"/>
<path d="M178.371 175.481H176.31V177.539H178.371V175.481Z" fill="#F0F0F0"/>
<path d="M178.371 178.924H176.31V180.982H178.371V178.924Z" fill="#F0F0F0"/>
<path d="M178.371 182.373H176.31V184.431H178.371V182.373Z" fill="#F0F0F0"/>
<path d="M178.371 185.814H176.31V187.872H178.371V185.814Z" fill="#F0F0F0"/>
<path d="M178.371 189.264H176.31V191.322H178.371V189.264Z" fill="#F0F0F0"/>
<path d="M178.371 192.706H176.31V194.764H178.371V192.706Z" fill="#F0F0F0"/>
<path d="M178.371 196.147H176.31V198.205H178.371V196.147Z" fill="#F0F0F0"/>
<path d="M178.371 203.039H176.31V205.097H178.371V203.039Z" fill="#F0F0F0"/>
<path d="M178.371 206.488H176.31V208.546H178.371V206.488Z" fill="#F0F0F0"/>
<path d="M178.371 209.93H176.31V211.988H178.371V209.93Z" fill="#F0F0F0"/>
<path d="M178.371 213.372H176.31V215.43H178.371V213.372Z" fill="#F0F0F0"/>
<path d="M178.371 220.263H176.31V222.321H178.371V220.263Z" fill="#F0F0F0"/>
<path d="M178.371 223.712H176.31V225.77H178.371V223.712Z" fill="#F0F0F0"/>
<path d="M178.371 227.154H176.31V229.212H178.371V227.154Z" fill="#F0F0F0"/>
<path d="M181.638 154.815H179.576V156.873H181.638V154.815Z" fill="#F0F0F0"/>
<path d="M181.638 158.258H179.576V160.316H181.638V158.258Z" fill="#F0F0F0"/>
<path d="M181.638 161.699H179.576V163.757H181.638V161.699Z" fill="#F0F0F0"/>
<path d="M181.638 165.148H179.576V167.206H181.638V165.148Z" fill="#F0F0F0"/>
<path d="M181.638 168.591H179.576V170.649H181.638V168.591Z" fill="#F0F0F0"/>
<path d="M181.638 172.04H179.576V174.098H181.638V172.04Z" fill="#F0F0F0"/>
<path d="M181.638 175.481H179.576V177.539H181.638V175.481Z" fill="#F0F0F0"/>
<path d="M181.638 178.924H179.576V180.982H181.638V178.924Z" fill="#F0F0F0"/>
<path d="M181.638 182.373H179.576V184.431H181.638V182.373Z" fill="#F0F0F0"/>
<path d="M181.638 185.814H179.576V187.872H181.638V185.814Z" fill="#F0F0F0"/>
<path d="M181.638 189.264H179.576V191.322H181.638V189.264Z" fill="#F0F0F0"/>
<path d="M181.638 192.706H179.576V194.764H181.638V192.706Z" fill="#F0F0F0"/>
<path d="M181.638 196.147H179.576V198.205H181.638V196.147Z" fill="#F0F0F0"/>
<path d="M181.638 206.488H179.576V208.546H181.638V206.488Z" fill="#F0F0F0"/>
<path d="M181.638 209.93H179.576V211.988H181.638V209.93Z" fill="#F0F0F0"/>
<path d="M181.638 216.821H179.576V218.879H181.638V216.821Z" fill="#F0F0F0"/>
<path d="M181.638 220.263H179.576V222.321H181.638V220.263Z" fill="#F0F0F0"/>
<path d="M181.638 223.712H179.576V225.77H181.638V223.712Z" fill="#F0F0F0"/>
<path d="M181.638 227.154H179.576V229.212H181.638V227.154Z" fill="#F0F0F0"/>
<path d="M184.912 154.815H182.851V156.873H184.912V154.815Z" fill="#F0F0F0"/>
<path d="M184.912 158.258H182.851V160.316H184.912V158.258Z" fill="#F0F0F0"/>
<path d="M184.912 161.699H182.851V163.757H184.912V161.699Z" fill="#F0F0F0"/>
<path d="M184.912 165.148H182.851V167.206H184.912V165.148Z" fill="#F0F0F0"/>
<path d="M184.912 168.591H182.851V170.649H184.912V168.591Z" fill="#F0F0F0"/>
<path d="M184.912 172.04H182.851V174.098H184.912V172.04Z" fill="#F0F0F0"/>
<path d="M184.912 175.481H182.851V177.539H184.912V175.481Z" fill="#F0F0F0"/>
<path d="M184.912 178.924H182.851V180.982H184.912V178.924Z" fill="#F0F0F0"/>
<path d="M184.912 182.373H182.851V184.431H184.912V182.373Z" fill="#F0F0F0"/>
<path d="M184.912 185.814H182.851V187.872H184.912V185.814Z" fill="#F0F0F0"/>
<path d="M184.912 189.264H182.851V191.322H184.912V189.264Z" fill="#F0F0F0"/>
<path d="M184.912 192.706H182.851V194.764H184.912V192.706Z" fill="#F0F0F0"/>
<path d="M184.912 196.147H182.851V198.205H184.912V196.147Z" fill="#F0F0F0"/>
<path d="M184.912 199.597H182.851V201.655H184.912V199.597Z" fill="#F0F0F0"/>
<path d="M184.912 206.488H182.851V208.546H184.912V206.488Z" fill="#F0F0F0"/>
<path d="M184.912 213.372H182.851V215.43H184.912V213.372Z" fill="#F0F0F0"/>
<path d="M184.912 216.821H182.851V218.879H184.912V216.821Z" fill="#F0F0F0"/>
<path d="M184.912 220.263H182.851V222.321H184.912V220.263Z" fill="#F0F0F0"/>
<path d="M184.912 223.712H182.851V225.77H184.912V223.712Z" fill="#F0F0F0"/>
<path d="M184.912 227.154H182.851V229.212H184.912V227.154Z" fill="#F0F0F0"/>
<path d="M165.049 174.453H162.987V176.511H165.049V174.453Z" fill="#F0F0F0"/>
<path d="M165.049 177.902H162.987V179.96H165.049V177.902Z" fill="#F0F0F0"/>
<path d="M165.049 181.344H162.987V183.402H165.049V181.344Z" fill="#F0F0F0"/>
<path d="M165.049 184.786H162.987V186.844H165.049V184.786Z" fill="#F0F0F0"/>
<path d="M165.049 188.235H162.987V190.293H165.049V188.235Z" fill="#F0F0F0"/>
<path d="M165.049 191.677H162.987V193.735H165.049V191.677Z" fill="#F0F0F0"/>
<path d="M165.049 202.01H162.987V204.068H165.049V202.01Z" fill="#F0F0F0"/>
<path d="M165.049 205.459H162.987V207.517H165.049V205.459Z" fill="#F0F0F0"/>
<path d="M165.049 208.901H162.987V210.959H165.049V208.901Z" fill="#F0F0F0"/>
<path d="M165.049 212.351H162.987V214.409H165.049V212.351Z" fill="#F0F0F0"/>
<path d="M165.049 215.792H162.987V217.85H165.049V215.792Z" fill="#F0F0F0"/>
<path d="M165.049 219.234H162.987V221.292H165.049V219.234Z" fill="#F0F0F0"/>
<path d="M165.049 222.684H162.987V224.742H165.049V222.684Z" fill="#F0F0F0"/>
<path d="M168.316 174.453H166.254V176.511H168.316V174.453Z" fill="#F0F0F0"/>
<path d="M168.316 177.902H166.254V179.96H168.316V177.902Z" fill="#F0F0F0"/>
<path d="M168.316 181.344H166.254V183.402H168.316V181.344Z" fill="#F0F0F0"/>
<path d="M168.316 184.786H166.254V186.844H168.316V184.786Z" fill="#F0F0F0"/>
<path d="M168.316 188.235H166.254V190.293H168.316V188.235Z" fill="#F0F0F0"/>
<path d="M168.316 191.677H166.254V193.735H168.316V191.677Z" fill="#F0F0F0"/>
<path d="M168.316 202.01H166.254V204.068H168.316V202.01Z" fill="#F0F0F0"/>
<path d="M168.316 205.459H166.254V207.517H168.316V205.459Z" fill="#F0F0F0"/>
<path d="M168.316 208.901H166.254V210.959H168.316V208.901Z" fill="#F0F0F0"/>
<path d="M168.316 212.351H166.254V214.409H168.316V212.351Z" fill="#F0F0F0"/>
<path d="M168.316 215.792H166.254V217.85H168.316V215.792Z" fill="#F0F0F0"/>
<path d="M168.316 219.234H166.254V221.292H168.316V219.234Z" fill="#F0F0F0"/>
<path d="M168.316 226.125H166.254V228.183H168.316V226.125Z" fill="#F0F0F0"/>
<path d="M276.948 159.286H274.886V161.344H276.948V159.286Z" fill="#F0F0F0"/>
<path d="M276.948 162.729H274.886V164.786H276.948V162.729Z" fill="#F0F0F0"/>
<path d="M276.948 166.178H274.886V168.236H276.948V166.178Z" fill="#F0F0F0"/>
<path d="M276.948 169.619H274.886V171.677H276.948V169.619Z" fill="#F0F0F0"/>
<path d="M276.948 173.062H274.886V175.119H276.948V173.062Z" fill="#F0F0F0"/>
<path d="M276.948 176.511H274.886V178.569H276.948V176.511Z" fill="#F0F0F0"/>
<path d="M276.948 179.952H274.886V182.01H276.948V179.952Z" fill="#F0F0F0"/>
<path d="M276.948 183.401H274.886V185.459H276.948V183.401Z" fill="#F0F0F0"/>
<path d="M276.948 186.844H274.886V188.902H276.948V186.844Z" fill="#F0F0F0"/>
<path d="M276.948 190.285H274.886V192.343H276.948V190.285Z" fill="#F0F0F0"/>
<path d="M276.948 193.734H274.886V195.792H276.948V193.734Z" fill="#F0F0F0"/>
<path d="M276.948 200.626H274.886V202.684H276.948V200.626Z" fill="#F0F0F0"/>
<path d="M276.948 204.067H274.886V206.125H276.948V204.067Z" fill="#F0F0F0"/>
<path d="M276.948 207.51H274.886V209.568H276.948V207.51Z" fill="#F0F0F0"/>
<path d="M276.948 210.959H274.886V213.017H276.948V210.959Z" fill="#F0F0F0"/>
<path d="M276.948 214.401H274.886V216.459H276.948V214.401Z" fill="#F0F0F0"/>
<path d="M276.948 217.85H274.886V219.908H276.948V217.85Z" fill="#F0F0F0"/>
<path d="M276.948 221.292H274.886V223.35H276.948V221.292Z" fill="#F0F0F0"/>
<path d="M276.948 224.734H274.886V226.792H276.948V224.734Z" fill="#F0F0F0"/>
<path d="M280.215 159.286H278.153V161.344H280.215V159.286Z" fill="#F0F0F0"/>
<path d="M280.215 162.729H278.153V164.786H280.215V162.729Z" fill="#F0F0F0"/>
<path d="M280.215 166.178H278.153V168.236H280.215V166.178Z" fill="#F0F0F0"/>
<path d="M280.215 169.619H278.153V171.677H280.215V169.619Z" fill="#F0F0F0"/>
<path d="M280.215 173.062H278.153V175.119H280.215V173.062Z" fill="#F0F0F0"/>
<path d="M280.215 176.511H278.153V178.569H280.215V176.511Z" fill="#F0F0F0"/>
<path d="M280.215 179.952H278.153V182.01H280.215V179.952Z" fill="#F0F0F0"/>
<path d="M280.215 183.401H278.153V185.459H280.215V183.401Z" fill="#F0F0F0"/>
<path d="M280.215 186.844H278.153V188.902H280.215V186.844Z" fill="#F0F0F0"/>
<path d="M280.215 190.285H278.153V192.343H280.215V190.285Z" fill="#F0F0F0"/>
<path d="M280.215 193.734H278.153V195.792H280.215V193.734Z" fill="#F0F0F0"/>
<path d="M280.215 197.177H278.153V199.235H280.215V197.177Z" fill="#F0F0F0"/>
<path d="M280.215 200.626H278.153V202.684H280.215V200.626Z" fill="#F0F0F0"/>
<path d="M280.215 204.067H278.153V206.125H280.215V204.067Z" fill="#F0F0F0"/>
<path d="M280.215 207.51H278.153V209.568H280.215V207.51Z" fill="#F0F0F0"/>
<path d="M280.215 210.959H278.153V213.017H280.215V210.959Z" fill="#F0F0F0"/>
<path d="M280.215 214.401H278.153V216.459H280.215V214.401Z" fill="#F0F0F0"/>
<path d="M280.215 217.85H278.153V219.908H280.215V217.85Z" fill="#F0F0F0"/>
<path d="M280.215 221.292H278.153V223.35H280.215V221.292Z" fill="#F0F0F0"/>
<path d="M280.215 224.734H278.153V226.792H280.215V224.734Z" fill="#F0F0F0"/>
<path d="M260.845 172.699H258.783V174.757H260.845V172.699Z" fill="#F0F0F0"/>
<path d="M260.845 176.148H258.783V178.206H260.845V176.148Z" fill="#F0F0F0"/>
<path d="M260.845 179.59H258.783V181.648H260.845V179.59Z" fill="#F0F0F0"/>
<path d="M260.845 183.039H258.783V185.097H260.845V183.039Z" fill="#F0F0F0"/>
<path d="M260.845 186.481H258.783V188.539H260.845V186.481Z" fill="#F0F0F0"/>
<path d="M260.845 189.923H258.783V191.981H260.845V189.923Z" fill="#F0F0F0"/>
<path d="M260.845 193.372H258.783V195.43H260.845V193.372Z" fill="#F0F0F0"/>
<path d="M260.845 196.814H258.783V198.872H260.845V196.814Z" fill="#F0F0F0"/>
<path d="M260.845 200.264H258.783V202.322H260.845V200.264Z" fill="#F0F0F0"/>
<path d="M260.845 203.705H258.783V205.763H260.845V203.705Z" fill="#F0F0F0"/>
<path d="M264.112 172.699H262.05V174.757H264.112V172.699Z" fill="#F0F0F0"/>
<path d="M264.112 176.148H262.05V178.206H264.112V176.148Z" fill="#F0F0F0"/>
<path d="M264.112 179.59H262.05V181.648H264.112V179.59Z" fill="#F0F0F0"/>
<path d="M264.112 183.039H262.05V185.097H264.112V183.039Z" fill="#F0F0F0"/>
<path d="M264.112 186.481H262.05V188.539H264.112V186.481Z" fill="#F0F0F0"/>
<path d="M264.112 189.923H262.05V191.981H264.112V189.923Z" fill="#F0F0F0"/>
<path d="M264.112 193.372H262.05V195.43H264.112V193.372Z" fill="#F0F0F0"/>
<path d="M264.112 196.814H262.05V198.872H264.112V196.814Z" fill="#F0F0F0"/>
<path d="M264.112 200.264H262.05V202.322H264.112V200.264Z" fill="#F0F0F0"/>
<path d="M99.4767 87.462C99.4767 83.9331 96.609 81.0708 93.0734 81.0708C92.4345 81.0708 91.8174 81.165 91.2366 81.3389C91.331 80.7013 91.3818 80.0419 91.3818 79.3752C91.3818 71.9044 85.3125 65.8466 77.8274 65.8466C76.9707 65.8466 76.1431 65.9263 75.33 66.0785C73.2464 62.6728 69.5002 60.3975 65.2168 60.3975C58.7264 60.3975 53.4629 65.6002 53.3685 72.0566C53.3031 72.0566 53.2378 72.0493 53.1725 72.0493C47.1394 72.0493 42.2534 76.926 42.2534 82.9476C42.2534 88.9692 47.1394 93.8458 53.1725 93.8458H93.2767H93.2694C96.7179 93.7444 99.4913 90.9256 99.4913 87.4547L99.4767 87.462Z" fill="#F0F0F0"/>
<path d="M268.373 73.4038C268.373 71.1502 270.203 69.3242 272.461 69.3242C272.867 69.3242 273.259 69.3822 273.637 69.4981C273.579 69.0923 273.543 68.672 273.543 68.2445C273.543 63.4765 277.419 59.6071 282.197 59.6071C282.741 59.6071 283.271 59.6578 283.794 59.7592C285.122 57.5854 287.518 56.1289 290.255 56.1289C294.401 56.1289 297.762 59.4549 297.82 63.5707C297.864 63.5707 297.9 63.5707 297.943 63.5707C301.791 63.5707 304.913 66.6866 304.913 70.5271C304.913 74.3675 301.791 77.4834 297.943 77.4834H272.337C270.13 77.4182 268.366 75.6211 268.366 73.4038H268.373Z" fill="#F0F0F0"/>
<path d="M186.974 29.391C186.974 28.0142 188.092 26.891 189.479 26.891C189.726 26.891 189.973 26.9272 190.198 26.9997C190.161 26.7461 190.139 26.4925 190.139 26.2316C190.139 23.3114 192.514 20.9419 195.439 20.9419C195.773 20.9419 196.1 20.9709 196.419 21.0361C197.232 19.7028 198.699 18.8115 200.376 18.8115C202.917 18.8115 204.972 20.8477 205.015 23.3694C205.044 23.3694 205.066 23.3694 205.095 23.3694C207.455 23.3694 209.364 25.2751 209.364 27.6301C209.364 29.9851 207.455 31.8909 205.095 31.8909H189.413C188.063 31.8474 186.981 30.746 186.981 29.391H186.974Z" fill="#F0F0F0"/>
<path d="M181.5 270C259.242 270 322.264 266.328 322.264 261.797C322.264 257.267 259.242 253.595 181.5 253.595C103.758 253.595 40.7358 257.267 40.7358 261.797C40.7358 266.328 103.758 270 181.5 270Z" fill="#F5F5F5"/>
<path d="M51.5096 237.971C51.5096 237.971 48.0974 226.573 54.9944 224.298C61.8914 222.023 65.986 216.697 65.7537 210.668C65.5214 204.639 72.7814 198.77 78.2264 204.422C83.6714 210.074 82.9454 200.074 90.2054 197.646C97.4654 195.219 103.622 201.11 101.633 206.494C99.6434 211.878 106.809 215.247 115.39 210.661C123.972 206.081 133.41 214.414 131.595 220.936C129.78 227.457 131.268 228.182 136.691 226.008C142.122 223.834 151.828 229.993 148.423 237.964C145.018 245.935 51.5096 237.964 51.5096 237.964V237.971Z" fill="#7895FF"/>
<path opacity="0.3" d="M51.5096 237.971C51.5096 237.971 48.0974 226.573 54.9944 224.298C61.8914 222.023 65.986 216.697 65.7537 210.668C65.5214 204.639 72.7814 198.77 78.2264 204.422C83.6714 210.074 82.9454 200.074 90.2054 197.646C97.4654 195.219 103.622 201.11 101.633 206.494C99.6434 211.878 106.809 215.247 115.39 210.661C123.972 206.081 133.41 214.414 131.595 220.936C129.78 227.457 131.268 228.182 136.691 226.008C142.122 223.834 151.828 229.993 148.423 237.964C145.018 245.935 51.5096 237.964 51.5096 237.964V237.971Z" fill="white"/>
<path d="M233.961 239.058C230.331 235.435 233.598 229.276 237.228 228.551C240.858 227.827 244.509 221.45 244.676 217.392C244.851 213.334 251.385 200.849 261.549 208.559C271.713 216.269 268.62 209.697 275.974 207.53C283.329 205.364 287.968 211.595 284.737 216.269C284.737 216.269 292.12 214.421 295.162 221.305C298.204 228.189 295.162 232.464 295.162 232.464C295.162 232.464 309.051 232.051 307.802 240.631C306.553 249.21 233.953 239.058 233.953 239.058H233.961Z" fill="#7895FF"/>
<path opacity="0.3" d="M233.961 239.058C230.331 235.435 233.598 229.276 237.228 228.551C240.858 227.827 244.509 221.45 244.676 217.392C244.851 213.334 251.385 200.849 261.549 208.559C271.713 216.269 268.62 209.697 275.974 207.53C283.329 205.364 287.968 211.595 284.737 216.269C284.737 216.269 292.12 214.421 295.162 221.305C298.204 228.189 295.162 232.464 295.162 232.464C295.162 232.464 309.051 232.051 307.802 240.631C306.553 249.21 233.953 239.058 233.953 239.058H233.961Z" fill="white"/>
<path d="M39.0298 239.276V249.203H319.266V239.276C319.266 237.551 318.061 236.16 316.333 236.16H41.9628C40.2349 236.16 39.0298 237.551 39.0298 239.276Z" fill="#263238"/>
<path d="M303.294 236.16H285.87V249.203H303.294V236.16Z" fill="#7895FF"/>
<path d="M269.898 236.16H253.2V249.203H269.898V236.16Z" fill="#7895FF"/>
<path d="M237.228 236.16H219.804V249.203H237.228V236.16Z" fill="#7895FF"/>
<path d="M203.832 236.16H187.134V249.203H203.832V236.16Z" fill="#7895FF"/>
<path d="M171.162 236.16H154.464V249.203H171.162V236.16Z" fill="#7895FF"/>
<path d="M138.492 236.16H121.068V249.203H138.492V236.16Z" fill="#7895FF"/>
<path d="M105.096 236.16H88.3979V249.203H105.096V236.16Z" fill="#7895FF"/>
<path d="M72.426 236.16H55.002V249.203H72.426V236.16Z" fill="#7895FF"/>
<g opacity="0.6">
<path d="M303.294 236.16H285.87V249.203H303.294V236.16Z" fill="white"/>
<path d="M269.898 236.16H253.2V249.203H269.898V236.16Z" fill="white"/>
<path d="M237.228 236.16H219.804V249.203H237.228V236.16Z" fill="white"/>
<path d="M203.832 236.16H187.134V249.203H203.832V236.16Z" fill="white"/>
<path d="M171.162 236.16H154.464V249.203H171.162V236.16Z" fill="white"/>
<path d="M138.492 236.16H121.068V249.203H138.492V236.16Z" fill="white"/>
<path d="M105.096 236.16H88.3979V249.203H105.096V236.16Z" fill="white"/>
<path d="M72.426 236.16H55.002V249.203H72.426V236.16Z" fill="white"/>
</g>
<path opacity="0.1" d="M39.0298 239.276V249.203H319.266V239.276C319.266 237.551 318.061 236.16 316.333 236.16H41.9628C40.2349 236.16 39.0298 237.551 39.0298 239.276Z" fill="white"/>
<path d="M191.178 36.6729H80.2447C76.0748 36.6729 72.6943 40.0468 72.6943 44.2089V255.399C72.6943 259.561 76.0748 262.935 80.2447 262.935H191.178C195.347 262.935 198.728 259.561 198.728 255.399V44.2089C198.728 40.0468 195.347 36.6729 191.178 36.6729Z" fill="#7895FF"/>
<path opacity="0.4" d="M191.178 36.6729H80.2447C76.0748 36.6729 72.6943 40.0468 72.6943 44.2089V255.399C72.6943 259.561 76.0748 262.935 80.2447 262.935H191.178C195.347 262.935 198.728 259.561 198.728 255.399V44.2089C198.728 40.0468 195.347 36.6729 191.178 36.6729Z" fill="white"/>
<path d="M194.481 44.2526V254.95C194.481 256.682 193.087 258.029 191.352 258.029H79.7438C78.1466 258.029 76.9487 256.798 76.9487 255.203V43.999C76.9487 42.6222 77.9651 41.4121 79.3445 41.4121H107.245C108.036 41.4121 108.748 41.9266 109.038 42.6657L110.192 45.5062C110.483 46.2381 111.201 46.7453 111.985 46.7453H159.488C160.279 46.7453 160.99 46.2598 161.281 45.5279L162.435 42.6729C162.726 41.9338 163.444 41.4121 164.228 41.4121H191.729C193.254 41.4121 194.466 42.7309 194.466 44.2526H194.481Z" fill="#263238"/>
<path opacity="0.3" d="M194.481 54.5781H76.9487V244.066H194.481V54.5781Z" fill="white"/>
<path opacity="0.6" d="M89.9005 49.9043H91.3525V47.9696H89.9005V49.9043Z" fill="white"/>
<path opacity="0.6" d="M87.5338 49.9043H88.9858V47.3247H87.5338V49.9043Z" fill="white"/>
<path opacity="0.6" d="M85.1745 49.9043H86.6265V46.687H85.1745V49.9043Z" fill="white"/>
<path opacity="0.6" d="M82.8078 49.9043H84.2598V46.0421H82.8078V49.9043Z" fill="white"/>
<path opacity="0.6" d="M181.174 47.2666H180.317V49.2013H181.174V47.2666Z" fill="white"/>
<path opacity="0.6" d="M181.769 49.9043H188.623V46.5638H181.769V49.9043Z" fill="white"/>
<path d="M191.577 58.2881H79.8452V77.3963H191.577V58.2881Z" fill="#7895FF"/>
<path opacity="0.8" d="M191.577 79.041H79.8452V241.384H191.577V79.041Z" fill="white"/>
<path opacity="0.3" d="M108.203 194.995H89.632C89.1528 194.995 88.7681 194.611 88.7681 194.133C88.7681 193.655 89.1528 193.271 89.632 193.271H108.203C108.682 193.271 109.067 193.655 109.067 194.133C109.067 194.611 108.682 194.995 108.203 194.995Z" fill="black"/>
<path opacity="0.3" d="M129.983 198.713H89.632C89.1528 198.713 88.7681 198.329 88.7681 197.851C88.7681 197.372 89.1528 196.988 89.632 196.988H129.983C130.462 196.988 130.847 197.372 130.847 197.851C130.847 198.329 130.462 198.713 129.983 198.713Z" fill="black"/>
<path opacity="0.3" d="M108.203 216.153H89.632C89.1528 216.153 88.7681 215.769 88.7681 215.291C88.7681 214.813 89.1528 214.429 89.632 214.429H108.203C108.682 214.429 109.067 214.813 109.067 215.291C109.067 215.769 108.682 216.153 108.203 216.153Z" fill="black"/>
<path opacity="0.3" d="M129.983 219.878H89.632C89.1528 219.878 88.7681 219.494 88.7681 219.016C88.7681 218.537 89.1528 218.153 89.632 218.153H129.983C130.462 218.153 130.847 218.537 130.847 219.016C130.847 219.494 130.462 219.878 129.983 219.878Z" fill="black"/>
<path d="M136.633 247.863H134.789C134.011 247.863 133.381 248.493 133.381 249.269V251.11C133.381 251.886 134.011 252.515 134.789 252.515H136.633C137.411 252.515 138.042 251.886 138.042 251.11V249.269C138.042 248.493 137.411 247.863 136.633 247.863Z" stroke="white" stroke-miterlimit="10"/>
<path opacity="0.6" d="M135.697 41.6946C135.697 42.5859 134.978 43.3032 134.085 43.3032C133.192 43.3032 132.473 42.5859 132.473 41.6946C132.473 40.8033 133.192 40.0859 134.085 40.0859C134.978 40.0859 135.697 40.8033 135.697 41.6946Z" fill="black"/>
<path opacity="0.6" d="M138.956 41.695C138.956 42.2674 138.492 42.7239 137.925 42.7239C137.359 42.7239 136.895 42.2602 136.895 41.695C136.895 41.1298 137.359 40.666 137.925 40.666C138.492 40.666 138.956 41.1298 138.956 41.695Z" fill="black"/>
<path d="M135.711 159.872C153.799 159.872 168.461 145.237 168.461 127.185C168.461 109.132 153.799 94.4971 135.711 94.4971C117.624 94.4971 102.961 109.132 102.961 127.185C102.961 145.237 117.624 159.872 135.711 159.872Z" fill="#263238"/>
<path d="M117.111 124.518C116.676 124.518 116.247 124.351 115.913 124.025C115.253 123.365 115.253 122.293 115.913 121.634C126.825 110.735 144.59 110.735 155.502 121.634C156.163 122.293 156.163 123.365 155.502 124.025C154.842 124.684 153.767 124.684 153.106 124.025C143.509 114.445 127.9 114.445 118.302 124.025C117.975 124.358 117.54 124.518 117.104 124.518H117.111Z" fill="white"/>
<path d="M122.861 130.249C122.426 130.249 121.997 130.083 121.663 129.757C121.003 129.097 121.003 128.025 121.663 127.365C125.41 123.626 130.397 121.568 135.712 121.568C141.026 121.568 146.014 123.626 149.76 127.365C150.42 128.025 150.42 129.097 149.76 129.757C149.099 130.416 148.025 130.416 147.364 129.757C144.257 126.655 140.118 124.945 135.712 124.945C131.305 124.945 127.167 126.655 124.059 129.757C123.725 130.09 123.297 130.249 122.861 130.249Z" fill="white"/>
<path d="M128.611 135.988C128.176 135.988 127.747 135.822 127.413 135.495C126.753 134.836 126.753 133.764 127.413 133.104C129.628 130.894 132.575 129.677 135.719 129.677C138.862 129.677 141.81 130.894 144.024 133.104C144.685 133.764 144.685 134.836 144.024 135.495C143.364 136.155 142.289 136.155 141.629 135.495C140.053 133.923 137.955 133.061 135.719 133.061C133.483 133.061 131.385 133.923 129.809 135.495C129.475 135.829 129.047 135.988 128.611 135.988Z" fill="white"/>
<path d="M137.425 139.676C138.368 140.618 138.368 142.154 137.425 143.096C136.481 144.038 134.942 144.038 133.998 143.096C133.054 142.154 133.054 140.618 133.998 139.676C134.942 138.734 136.481 138.734 137.425 139.676Z" fill="white"/>
<path d="M89.1165 71.7298L85.2251 67.8459L89.1165 63.9619" stroke="white" stroke-width="2" stroke-linecap="round" stroke-linejoin="round"/>
<path d="M186.183 64.5855C186.183 65.0565 185.798 65.4406 185.326 65.4406C184.854 65.4406 184.469 65.0565 184.469 64.5855C184.469 64.1145 184.854 63.7305 185.326 63.7305C185.798 63.7305 186.183 64.1145 186.183 64.5855Z" fill="white"/>
<path d="M186.183 67.8463C186.183 68.3173 185.798 68.7013 185.326 68.7013C184.854 68.7013 184.469 68.3173 184.469 67.8463C184.469 67.3753 184.854 66.9912 185.326 66.9912C185.798 66.9912 186.183 67.3753 186.183 67.8463Z" fill="white"/>
<path d="M186.183 71.107C186.183 71.578 185.798 71.9621 185.326 71.9621C184.854 71.9621 184.469 71.578 184.469 71.107C184.469 70.636 184.854 70.252 185.326 70.252C185.798 70.252 186.183 70.636 186.183 71.107Z" fill="white"/>
<path d="M161.985 159.873C168.096 159.873 173.049 154.928 173.049 148.829C173.049 142.73 168.096 137.786 161.985 137.786C155.875 137.786 150.921 142.73 150.921 148.829C150.921 154.928 155.875 159.873 161.985 159.873Z" fill="#7895FF"/>
<path d="M157.549 144.395L166.428 153.264" stroke="white" stroke-width="2" stroke-linecap="round" stroke-linejoin="round"/>
<path d="M166.428 144.395L157.549 153.264" stroke="white" stroke-width="2" stroke-linecap="round" stroke-linejoin="round"/>
<path d="M184.672 198.799C184.672 200.546 183.249 201.966 181.5 201.966C179.75 201.966 178.327 200.546 178.327 198.799C178.327 197.053 179.75 195.633 181.5 195.633C183.249 195.633 184.672 197.053 184.672 198.799Z" fill="#263238"/>
<path d="M180.229 197.531L182.77 200.075" stroke="white" stroke-linecap="round" stroke-linejoin="round"/>
<path d="M182.77 197.531L180.229 200.075" stroke="white" stroke-linecap="round" stroke-linejoin="round"/>
<path d="M184.672 219.813C184.672 221.559 183.249 222.98 181.5 222.98C179.75 222.98 178.327 221.559 178.327 219.813C178.327 218.067 179.75 216.646 181.5 216.646C183.249 216.646 184.672 218.067 184.672 219.813Z" fill="#263238"/>
<path d="M180.229 218.545L182.77 221.088" stroke="white" stroke-linecap="round" stroke-linejoin="round"/>
<path d="M182.77 218.545L180.229 221.088" stroke="white" stroke-linecap="round" stroke-linejoin="round"/>
<path opacity="0.2" d="M188.136 41.4121L76.9487 152.387V43.999C76.9487 42.6222 77.9651 41.4121 79.3445 41.4121H107.245C108.036 41.4121 108.748 41.9266 109.045 42.6657L110.2 45.5062C110.49 46.2381 111.209 46.7453 111.993 46.7453H159.495C160.279 46.7453 160.998 46.2598 161.288 45.5279L162.442 42.6729C162.74 41.9338 163.452 41.4121 164.243 41.4121H188.136Z" fill="white"/>
<path opacity="0.2" d="M194.481 61.9834V71.0919L76.9487 188.393V179.292L194.481 61.9834Z" fill="white"/>
<path d="M212.761 114.592C212.761 114.592 208.906 119.367 208.333 121.084C207.759 122.802 208.906 121.758 208.906 121.758C208.906 121.758 207.338 135.265 208.34 138.997C209.342 142.729 221.974 143.098 225.568 141.055C229.162 139.004 234.498 99.8746 231.398 97.0124C228.298 94.1502 215.186 94.3458 212.768 114.599L212.761 114.592Z" fill="#263238"/>
<path d="M197.269 93.5631L196.543 88.9907C196.543 88.9907 195.258 86.969 194.684 86.4835C194.11 85.998 193.247 81.7083 193.965 79.8388C194.684 77.9693 198.851 76.4766 198.851 76.4766L200.855 86.4763L199.831 88.2878L200.652 92.0631L197.283 93.5558L197.269 93.5631Z" fill="#EBB376"/>
<path d="M221.357 80.5928C216.624 81.2522 208.362 104.324 205.487 103.983C204.521 103.868 200.369 88.4549 200.369 88.4549L196.114 91.2519C196.114 91.2519 199.614 110.15 203.149 111.708C208.681 114.143 220.239 94.788 220.239 94.788L221.357 80.6V80.5928Z" fill="#7895FF"/>
<path d="M220.16 78.9473C217.51 79.1574 207.89 96.2512 207.89 96.2512L214.025 106.106L217.655 102.092L220.16 78.9473Z" fill="#7895FF"/>
<path opacity="0.6" d="M220.16 78.9473L218.925 90.3817L217.655 102.092L214.025 106.106L212.5 103.65L207.89 96.2512C207.89 96.2512 217.51 79.1574 220.16 78.9473Z" fill="white"/>
<path opacity="0.2" d="M218.925 90.3818L217.655 102.092L214.025 106.106L212.5 103.65C212.783 96.8961 216.834 92.3093 218.925 90.3818Z" fill="black"/>
<path d="M204.834 84.7596C204.914 85.0639 204.725 85.3393 204.413 85.3827L198.881 86.1581C198.568 86.2016 198.256 85.9914 198.176 85.6943L195.41 74.97C195.331 74.6656 195.512 74.3106 195.824 74.2671L201.356 73.4917C201.669 73.4483 201.995 73.7309 202.068 74.0352L204.834 84.7596Z" fill="#263238"/>
<path opacity="0.5" d="M201.443 74.05L204.238 84.8758C204.318 85.1802 204.188 85.412 203.875 85.4555L199.185 86.1077C198.873 86.1512 198.271 86.057 198.191 85.7526L195.388 74.8833C195.309 74.579 195.809 74.2529 196.129 74.2095L200.819 73.5573C201.131 73.5138 201.363 73.7312 201.443 74.0428V74.05Z" fill="white"/>
<path d="M244.88 256.211H252.067C252.307 256.211 252.517 256.378 252.568 256.617L253.737 261.877C253.839 262.348 253.534 262.812 253.062 262.914C252.996 262.928 252.931 262.935 252.873 262.935C250.55 262.899 248.851 262.754 245.932 262.754C244.132 262.754 238.709 262.943 236.226 262.943C233.743 262.943 233.416 260.493 234.433 260.269C238.992 259.276 242.426 257.899 243.885 256.595C244.154 256.349 244.509 256.211 244.88 256.218V256.211Z" fill="#263238"/>
<path d="M214.402 256.022H221.59C221.829 256.022 222.04 256.189 222.091 256.428L223.259 261.689C223.361 262.16 223.056 262.624 222.584 262.725C222.519 262.74 222.454 262.747 222.395 262.747C220.072 262.711 218.373 262.566 215.455 262.566C213.654 262.566 208.231 262.754 205.748 262.754C203.265 262.754 202.939 260.305 203.955 260.08C208.514 259.088 211.948 257.711 213.408 256.407C213.676 256.16 214.032 256.022 214.402 256.03V256.022Z" fill="#263238"/>
<path d="M248.691 123.244H217.292C214.308 139.518 205.77 205.365 212.471 256.668L222.955 257.812C222.955 257.812 221.314 178.974 230.694 153.793C231.775 167.271 233.053 181.604 234.171 189.235C236.901 208.009 243.058 256.95 243.058 256.95L253.686 257.24C253.686 257.24 251.356 209.77 250.332 191.314C249.214 171.279 248.728 127.352 248.684 123.236L248.691 123.244Z" fill="#263238"/>
<path opacity="0.2" d="M248.691 123.244H217.292C214.308 139.518 205.77 205.365 212.471 256.668L222.955 257.812C222.955 257.812 221.314 178.974 230.694 153.793C231.775 167.271 233.053 181.604 234.171 189.235C236.901 208.009 243.058 256.95 243.058 256.95L253.686 257.24C253.686 257.24 251.356 209.77 250.332 191.314C249.214 171.279 248.728 127.352 248.684 123.236L248.691 123.244Z" fill="white"/>
<path opacity="0.2" d="M230.694 153.8C229.307 157.51 228.16 162.148 227.187 167.358C226.309 155.365 229.823 142.648 229.823 142.648L230.694 153.8Z" fill="black"/>
<path d="M217.03 123.62H248.64V127.374L216.631 126.99L217.03 123.62Z" fill="#263238"/>
<path d="M238.476 121.932H237.351V128.598H238.476V121.932Z" fill="#263238"/>
<path d="M222.482 121.932H221.357V128.598H222.482V121.932Z" fill="#263238"/>
<path d="M231.434 122.961H225.59V127.164H231.434V122.961Z" fill="white"/>
<path opacity="0.2" d="M238.476 121.932H237.351V128.598H238.476V121.932Z" fill="white"/>
<path opacity="0.2" d="M222.482 121.932H221.357V128.598H222.482V121.932Z" fill="white"/>
<path d="M220.159 78.9479C220.159 78.9479 240.132 78.1798 255.015 81.245C255.015 81.245 248.444 108.251 248.698 123.621H217.037C217.037 123.621 214.983 94.8026 220.167 78.9479H220.159Z" fill="#7895FF"/>
<path d="M243.348 79.7524C240.48 82.3538 233.452 81.39 233.452 81.39C233.452 81.39 229.067 80.1944 229.989 78.8249C232.574 78.3974 233.822 77.1945 234.338 75.6583C234.636 74.7598 234.679 73.7526 234.599 72.7164C234.563 72.1729 234.483 71.6149 234.382 71.0715L243.064 64.6514C241.925 68.8904 240.531 76.6873 243.34 79.7597L243.348 79.7524Z" fill="#EBB376"/>
<path opacity="0.2" d="M241.068 68.7305C240.727 73.9332 236.443 75.368 234.345 75.6578C234.643 74.7593 234.686 73.7521 234.607 72.7159L241.068 68.7305Z" fill="black"/>
<path d="M228.371 51.1729C228.371 51.1729 225.946 58.9987 229.743 62.716C233.54 66.4333 235.776 51.5279 235.776 51.5279L228.371 51.1729Z" fill="#263238"/>
<path d="M241.148 70.9264C238.636 73.5785 235.151 73.8539 232.364 72.4916C230.57 71.6221 229.075 70.0641 228.298 68.0352C228.196 67.7671 228.109 67.4917 228.029 67.2091C226.672 61.9991 227.289 53.3399 232.959 50.9125C236.988 49.1516 241.693 50.9849 243.457 55.0066C243.965 56.1515 244.19 57.3978 244.117 58.6514C243.892 64.4701 244.038 67.8975 241.141 70.9264H241.148Z" fill="#EBB376"/>
<path d="M235.87 60.4044C235.914 60.8754 235.638 61.2667 235.326 61.274C235.013 61.2812 234.759 60.8972 234.745 60.4262C234.73 59.9552 234.984 59.5639 235.289 59.5566C235.594 59.5566 235.856 59.9262 235.87 60.4044Z" fill="#263238"/>
<path d="M229.779 60.5138C229.823 60.9848 229.54 61.3761 229.235 61.3834C228.93 61.3834 228.668 61.0066 228.654 60.5356C228.639 60.0646 228.893 59.6733 229.198 59.666C229.503 59.666 229.772 60.0646 229.779 60.5138Z" fill="#263238"/>
<path d="M231.652 60.7666C231.115 62.2303 230.382 63.6071 229.467 64.8679C230.135 65.3244 230.977 65.4621 231.754 65.2447L231.652 60.7666Z" fill="#D58745"/>
<path d="M236.937 58.6869C236.836 58.7014 236.734 58.6651 236.661 58.5854C236.233 58.0202 235.565 57.6869 234.861 57.6869C234.708 57.7014 234.571 57.5927 234.556 57.4405C234.541 57.2884 234.65 57.1507 234.81 57.1362C235.703 57.1072 236.56 57.5202 237.097 58.2376C237.199 58.3536 237.177 58.5275 237.061 58.6289C237.024 58.6507 236.981 58.6724 236.937 58.6869Z" fill="#263238"/>
<path d="M227.601 58.7666C227.55 58.7883 227.492 58.7956 227.434 58.7811C227.296 58.7159 227.231 58.5565 227.296 58.4188C227.652 57.5927 228.392 56.9985 229.271 56.8174C229.423 56.7956 229.561 56.8971 229.583 57.0493C229.597 57.2014 229.496 57.3391 229.351 57.3608C228.661 57.5275 228.087 58.0058 227.804 58.6579C227.753 58.7231 227.681 58.7666 227.594 58.7738L227.601 58.7666Z" fill="#263238"/>
<path d="M239.696 51.4775L239.312 54.0354C240.139 54.5064 240.626 55.4702 240.204 56.4702C239.319 58.6078 240.451 61.9845 242.07 63.3613C242.07 63.3613 242.15 62.4265 242.934 62.6729C243.718 62.9193 243.363 67.7742 241.758 70.0568C241.758 70.0568 244.546 67.5641 245.998 62.4917C247.348 57.8035 247.21 54.3253 246.281 52.4703L239.689 51.4848L239.696 51.4775Z" fill="#263238"/>
<path d="M246.767 63.3683C246.15 64.6944 245.025 65.7306 243.646 66.2305C241.816 66.8827 240.763 65.2813 241.148 63.4842C241.511 61.8901 242.883 59.5713 244.786 59.709C246.688 59.8467 247.508 61.7234 246.767 63.3683Z" fill="#EBB376"/>
<path d="M232.879 68.1941C232.879 68.1941 233.837 65.6869 236.197 65.7594" stroke="#263238" stroke-width="0.5" stroke-linecap="round" stroke-linejoin="round"/>
<path d="M230.607 51.4774C231.688 53.6874 238.476 51.3469 240.342 52.7817C242.208 54.2164 246.92 54.7889 246.92 54.7889C246.92 54.7889 249.454 50.2238 244.132 47.7601C234.745 43.4124 223.659 47.021 227.049 53.8396C227.049 53.8396 226.447 50.9919 228.516 50.231C228.516 50.231 226.563 51.3179 228.429 53.8396L230.614 51.4701L230.607 51.4774Z" fill="#263238"/>
<path d="M243.348 78.1514L239.311 80.1586L241.329 130.041L253.686 128.599L255.014 81.2455L243.348 78.1514Z" fill="#7895FF"/>
<path opacity="0.6" d="M255.014 81.2523L254.68 93.2737L254.426 102.172L253.686 128.599L241.329 130.041L239.311 80.1654L243.348 78.1582L255.014 81.2523Z" fill="white"/>
<path d="M239.311 80.1581L244.052 76.4336L246.999 78.8611L243.348 83.5276L239.311 80.1581Z" fill="#7895FF"/>
<path opacity="0.7" d="M239.311 80.1581L244.052 76.4336L246.999 78.8611L243.348 83.5276L239.311 80.1581Z" fill="white"/>
<path d="M229.989 78.832C227.993 81.6001 219.521 130.041 219.521 130.041L213.342 129.323C213.342 129.323 216.195 82.1798 220.152 78.948L229.982 78.832H229.989Z" fill="#7895FF"/>
<path opacity="0.6" d="M229.989 78.832C227.993 81.6001 219.521 130.041 219.521 130.041L213.342 129.323C213.342 129.323 216.195 82.1798 220.152 78.948L229.982 78.832H229.989Z" fill="white"/>
<path d="M214.838 109.933C214.838 109.933 215.346 85.5782 225.59 78.832H228.516C228.516 78.832 216.958 91.31 214.838 109.933Z" fill="#263238"/>
<path d="M231.434 76.4336L227.267 78.8321L227.049 81.5711L230.694 78.9987L231.434 76.4336Z" fill="#7895FF"/>
<path opacity="0.7" d="M231.434 76.4336L227.267 78.8321L227.049 81.5711L230.694 78.9987L231.434 76.4336Z" fill="white"/>
<path d="M255.015 116.562L252.118 119.352C252.118 119.352 249.831 120.591 249.504 121.512C248.72 123.678 250.993 129.374 251.494 130.04C252.198 130.975 258.449 130.04 258.449 130.04C258.449 130.04 256.946 123.99 256.082 122.446C255.516 121.439 254.855 120.852 254.855 120.852L257.592 118.287L255.029 116.57L255.015 116.562Z" fill="#EBB376"/>
<path opacity="0.2" d="M254.681 93.2731L254.427 102.171C251.784 97.4324 253.476 90.3818 253.476 90.3818C253.476 90.3818 253.991 91.5702 254.681 93.2731Z" fill="black"/>
<path d="M256.43 85.0273C260.735 85.3824 272.591 101.15 272.148 104.563C271.705 107.976 256.699 120.592 256.699 120.592L252.96 117.287C252.96 117.287 265.128 105.389 265.302 104.063C265.476 102.737 254.681 91.2446 254.681 91.2446L256.43 85.0273Z" fill="#7895FF"/>
<path d="M255.015 81.2451C256.576 81.948 261.389 86.1798 267.415 94.4187L260.017 101.237L254.55 97.7157C254.55 97.7157 253.628 95.0636 253.41 89.1145C253.192 83.1654 255.007 81.2451 255.007 81.2451H255.015Z" fill="#7895FF"/>
<path opacity="0.6" d="M255.015 81.2451C256.576 81.948 261.389 86.1798 267.415 94.4187L260.017 101.237L254.55 97.7157C254.55 97.7157 253.628 95.0636 253.41 89.1145C253.192 83.1654 255.007 81.2451 255.007 81.2451H255.015Z" fill="white"/>
</g>
<defs>
<clipPath id="clip0_126_4649">
<rect width="363" height="270" fill="white"/>
</clipPath>
</defs>
</svg>
