<svg width="203" height="73" viewBox="0 0 203 73" fill="none" xmlns="http://www.w3.org/2000/svg">
<g opacity="0.2">
<path d="M5.65971 60.6189C5.65971 60.6189 23.9097 62.2889 27.4097 62.2889C30.9097 62.2889 35.2397 60.6189 38.7397 60.6189H156.49C160.99 60.6189 183.16 58.1989 188.66 57.5389C194.16 56.8789 199.82 56.8689 201.24 54.1189C202.66 51.3689 203.41 41.5389 202.57 39.1189C201.73 36.6989 200.57 37.1989 199.41 32.9489C198.25 28.6989 195.41 18.7889 194.41 18.1989C193.41 17.6089 183.07 16.9489 172.74 13.2889C162.41 9.62895 149.66 3.11895 130.74 1.36895C111.82 -0.381052 94.8197 0.618949 80.9897 5.69895C67.1597 10.7789 48.5697 21.6189 43.4097 22.6989C38.2497 23.7789 21.6597 26.2889 12.7397 30.8689C3.81972 35.4489 2.31972 39.0389 1.23972 43.8689C0.159716 48.6989 0.549713 54.1389 0.299713 54.8689C0.146448 55.2242 0.0673828 55.607 0.0673828 55.9939C0.0673828 56.3809 0.146448 56.7637 0.299713 57.1189C0.803941 58.1241 1.56567 58.9776 2.50726 59.5925C3.44885 60.2073 4.53663 60.5615 5.65971 60.6189Z" fill="#A8A8A8"/>
<path d="M1.23972 43.8684C0.159716 48.6984 0.549713 54.1384 0.299713 54.8684C0.146448 55.2237 0.0673828 55.6065 0.0673828 55.9934C0.0673828 56.3803 0.146448 56.7632 0.299713 57.1184C0.806603 58.1199 1.56948 58.9693 2.51088 59.5806C3.45228 60.1918 4.53867 60.5429 5.65971 60.5984C5.65971 60.5984 23.9097 62.2684 27.4097 62.2684C30.9097 62.2684 35.2397 60.5984 38.7397 60.5984H156.49C160.99 60.5984 183.16 58.1784 188.66 57.5184C194.16 56.8584 199.82 56.8484 201.24 54.0984C202.66 51.3484 203.41 41.5184 202.57 39.0984C201.73 36.6784 200.57 37.1784 199.41 32.9284C199.16 32.0384 198.84 30.9284 198.48 29.6484L1.99971 41.1784C1.69903 42.061 1.44535 42.959 1.23972 43.8684Z" fill="url(#paint0_linear_141_9468)"/>
<path d="M159.45 22.3887C158.96 21.5887 158.45 20.8387 157.92 20.0587C156.815 18.5131 155.813 16.8963 154.92 15.2188L154.48 15.4388C155.366 17.1392 156.369 18.7764 157.48 20.3387C158.01 21.1187 158.48 21.8587 158.99 22.6487C160.44 25.0187 160.74 27.3887 159.8 29.1487C159.2 30.2887 153.85 36.1487 148.68 41.7887C144.9 45.9187 141.34 49.7887 139.68 51.8587C135.86 56.4487 132.32 56.8587 129.31 56.8587H109.74C109.74 55.2188 109.68 45.5887 109.74 34.6687C109.8 22.8387 111.14 19.4888 111.16 19.4588L110.7 19.2587C110.64 19.3987 109.3 22.6987 109.24 34.6687C109.18 45.5787 109.24 55.2087 109.24 56.8587H61.61C58.72 56.8587 58.46 56.2087 58.16 55.4487C57.93 54.8887 57.16 52.1487 56.24 40.4487C55.44 29.9987 56.9001 25.0188 56.91 24.9688L57.0101 24.6487H56.68C55.5826 24.7116 54.494 24.8825 53.43 25.1588C51.43 25.6188 48.5801 26.0288 45.5401 26.4088C46.5053 25.1205 47.3807 23.7673 48.16 22.3587C48.1841 22.2845 48.1921 22.206 48.1835 22.1284C48.1749 22.0508 48.1498 21.9759 48.11 21.9088C47.8631 21.643 47.5486 21.4494 47.2001 21.3488L46.49 21.6487C47.2 21.8487 47.67 22.0587 47.69 22.1987C46.8352 23.6852 45.8901 25.1179 44.86 26.4888C42.69 26.7488 40.42 26.9987 38.27 27.2287C34.17 27.6687 30.63 28.0488 29.18 28.4088C27.46 28.8288 22.86 30.3588 18.8 31.7088C15 32.9788 11.41 34.1787 10.8 34.2487C9.95478 34.177 9.14866 33.8608 8.48004 33.3387C8.32782 33.434 8.18093 33.5374 8.04004 33.6487C8.85354 34.2877 9.83855 34.6706 10.87 34.7487C11.49 34.6687 14.94 33.5188 18.93 32.1888C22.92 30.8588 27.57 29.3087 29.2701 28.8887C30.6901 28.5487 34.21 28.1687 38.27 27.7287C40.49 27.4887 42.82 27.2388 45.06 26.9688C48.29 26.5787 51.31 26.1488 53.46 25.6588C54.3813 25.4351 55.3169 25.2747 56.2601 25.1787C55.9501 26.4687 54.96 31.3688 55.66 40.4888C56.53 51.9288 57.32 54.8888 57.61 55.6288C58.03 56.6288 58.53 57.3488 61.53 57.3488H129.3C131.56 57.3488 135.76 57.3487 140.06 52.1987C141.75 50.1987 145.31 46.2687 149.06 42.1487C154.26 36.4687 159.63 30.5987 160.26 29.3987C161.29 27.4587 161 24.9087 159.45 22.3887Z" fill="#999999"/>
<path d="M162.38 38.3301C157.574 38.3301 152.965 40.2391 149.567 43.6373C146.169 47.0355 144.26 51.6444 144.26 56.4501C144.262 57.8549 144.43 59.2545 144.76 60.6201H156.49C159.67 60.6201 171.68 59.4101 180.39 58.4701C180.465 57.806 180.505 57.1384 180.51 56.4701C180.511 54.0884 180.043 51.7297 179.133 49.529C178.222 47.3282 176.887 45.3284 175.203 43.6438C173.519 41.9592 171.52 40.6228 169.32 39.7111C167.12 38.7993 164.761 38.3301 162.38 38.3301Z" fill="#616161"/>
<path d="M38.7401 60.619H52.1701C52.4998 59.2534 52.6676 57.8538 52.6701 56.449C52.6783 53.8424 52.1244 51.2647 51.0461 48.8917C49.9678 46.5186 48.3905 44.4059 46.4217 42.6977C44.4529 40.9895 42.1389 39.7259 39.6375 38.993C37.136 38.2602 34.506 38.0753 31.9267 38.4511C29.3473 38.8268 26.8793 39.7543 24.6909 41.1704C22.5025 42.5864 20.6452 44.4577 19.2456 46.6566C17.846 48.8555 16.9369 51.3304 16.5805 53.9124C16.224 56.4945 16.4285 59.1231 17.1801 61.619C21.5701 61.969 25.8801 62.289 27.4101 62.289C30.9101 62.289 35.2401 60.619 38.7401 60.619Z" fill="#616161"/>
<path d="M34.5498 72.4492C43.3864 72.4492 50.5498 65.2858 50.5498 56.4492C50.5498 47.6127 43.3864 40.4492 34.5498 40.4492C25.7132 40.4492 18.5498 47.6127 18.5498 56.4492C18.5498 65.2858 25.7132 72.4492 34.5498 72.4492Z" fill="#404040"/>
<path d="M45.4796 56.4495C45.4816 58.6141 44.8414 60.7306 43.6401 62.5312C42.4387 64.3318 40.7302 65.7356 38.7308 66.5649C36.7314 67.3941 34.5309 67.6116 32.4078 67.1898C30.2847 66.768 28.3345 65.7259 26.8039 64.1953C25.2733 62.6647 24.2311 60.7144 23.8093 58.5914C23.3875 56.4683 23.605 54.2678 24.4343 52.2684C25.2636 50.2689 26.6673 48.5604 28.4679 47.3591C30.2685 46.1577 32.385 45.5176 34.5496 45.5195C35.985 45.5195 37.4062 45.8022 38.7323 46.3515C40.0584 46.9008 41.2634 47.7059 42.2783 48.7209C43.2932 49.7358 44.0983 50.9407 44.6476 52.2668C45.1969 53.5929 45.4796 55.0142 45.4796 56.4495Z" fill="#EFEFEF"/>
<path d="M162.38 72.4492C171.216 72.4492 178.38 65.2858 178.38 56.4492C178.38 47.6127 171.216 40.4492 162.38 40.4492C153.543 40.4492 146.38 47.6127 146.38 56.4492C146.38 65.2858 153.543 72.4492 162.38 72.4492Z" fill="#404040"/>
<path d="M162.379 67.3795C168.416 67.3795 173.309 62.486 173.309 56.4495C173.309 50.4131 168.416 45.5195 162.379 45.5195C156.343 45.5195 151.449 50.4131 151.449 56.4495C151.449 62.486 156.343 67.3795 162.379 67.3795Z" fill="#EFEFEF"/>
<path d="M110.679 3.07968C105.729 3.28968 99.9893 3.13968 90.9893 5.07968C81.9893 7.01968 67.1793 14.8897 61.1793 18.6397C55.1793 22.3897 49.9893 26.1397 49.9893 26.1397L99.9293 22.1397C117.239 20.7697 145.239 18.9497 148.609 18.5797C151.979 18.2097 164.859 14.5797 164.609 13.8897C164.359 13.1997 142.239 1.69968 110.679 3.07968Z" fill="#4F4F4F"/>
<path d="M106.2 20.6586C106.82 20.6586 106.77 20.3886 106.93 19.7986C107.09 19.2086 108.78 6.0386 108.88 5.4486C108.98 4.8586 108.95 4.13861 108.49 4.15861H108.19C102.474 4.21184 96.778 4.84509 91.1899 6.04861C82.0599 8.04861 67.1099 16.0486 61.6999 19.4786C60.5199 20.2086 59.3699 20.9486 58.2899 21.6586C56.4799 22.8386 56.8999 24.5686 59.0399 24.3986L99.8399 21.1286L106.19 20.6486L106.2 20.6586Z" fill="#404040"/>
<path d="M29.2394 28.6396C23.3166 29.541 17.5114 31.0938 11.9294 33.2696C7.60942 35.0796 4.54943 38.5196 4.79943 39.8296C5.04943 41.1396 11.8594 39.7696 16.7394 37.5196C21.6194 35.2696 29.8494 28.5496 29.2394 28.6396Z" fill="#E0E0E0"/>
<path d="M152 14.5503C152 13.2503 149.67 8.88034 146.1 7.82034C136.245 5.26002 126.102 3.97617 115.92 4.00033H115.49C115.1 4.00033 114.91 4.43033 114.88 4.76033C114.85 5.09033 114.52 18.1403 114.55 19.0803C114.58 20.0203 115.68 19.9903 115.68 19.9903L130.53 18.9403C139.68 18.3003 146.9 17.7903 148.53 17.6203C148.85 17.6203 149.25 17.5203 149.69 17.4303C151.78 16.9403 152 15.8703 152 14.5503Z" fill="#404040"/>
<path d="M199.41 32.9986C198.85 30.9986 197.91 27.6786 196.98 24.6986C196.117 23.8677 194.978 23.3837 193.78 23.3386C190.86 23.0886 178.24 23.1686 178.07 23.3386C177.9 23.5086 178.07 24.7986 179.99 25.7086C181.91 26.6186 194.99 31.2586 199.53 33.4186C199.49 33.2286 199.45 33.0986 199.41 32.9986Z" fill="#EF3061"/>
<path d="M3.40923 55.2693C4.22786 55.2648 5.02542 55.0093 5.69423 54.5372C6.36304 54.0651 6.87089 53.3992 7.14922 52.6293L7.97922 49.6293C8.11093 49.2232 8.14022 48.7908 8.06447 48.3707C7.98872 47.9505 7.81028 47.5556 7.54503 47.2211C7.27978 46.8865 6.93595 46.6228 6.54413 46.4532C6.15231 46.2837 5.72466 46.2136 5.29922 46.2493H0.829224C0.269224 50.3593 0.509225 54.2493 0.299225 54.9293C0.299225 55.0593 0.229219 55.1793 0.199219 55.3093L3.40923 55.2693Z" fill="#4F4F4F"/>
<path d="M104.169 27.6102C104.279 28.6102 102.739 29.5402 100.719 29.7802C98.6993 30.0202 96.9593 29.4402 96.8493 28.4702C96.7393 27.5002 98.2793 26.5402 100.299 26.3002C102.319 26.0602 104.059 26.6402 104.169 27.6102Z" fill="#878787"/>
<path d="M105.37 27.4589C105.43 27.9489 103.3 28.6089 100.61 28.9289C97.9198 29.2489 95.7098 29.1089 95.6098 28.6189C95.5098 28.1289 97.6798 27.4689 100.36 27.1489C103.04 26.8289 105.31 26.9989 105.37 27.4589Z" fill="#CCCCCC"/>
<path d="M153.73 25.0999C153.85 26.0999 152.3 27.0399 150.28 27.2799C148.26 27.5199 146.52 26.9399 146.41 25.9699C146.3 24.9999 147.84 24.0299 149.86 23.7899C151.88 23.5499 153.62 24.1399 153.73 25.0999Z" fill="#878787"/>
<path d="M154.929 25.0001C154.989 25.4901 152.859 26.1501 150.179 26.4701C147.499 26.7901 145.269 26.6501 145.179 26.1501C145.089 25.6501 147.249 25.0101 149.939 24.6901C152.629 24.3701 154.879 24.4701 154.929 25.0001Z" fill="#CCCCCC"/>
</g>
<defs>
<linearGradient id="paint0_linear_141_9468" x1="98.9897" y1="31.4484" x2="102.16" y2="53.2784" gradientUnits="userSpaceOnUse">
<stop stop-color="#C7C7C7"/>
<stop offset="1" stop-color="#A8A8A8"/>
</linearGradient>
</defs>
</svg>
