<svg width="82" height="126" viewBox="0 0 82 126" fill="none" xmlns="http://www.w3.org/2000/svg">
<path d="M81.094 8.80043C81.094 2.47259 74.397 -2.29706 67.6864 1.16221C66.645 1.69858 65.3179 2.99878 64.7496 4.02399C62.9937 7.1947 63.1502 10.3179 64.4127 12.7893H64.4025L64.474 12.9183C64.5046 12.9794 64.5386 13.0371 64.5727 13.0982L72.2667 26.9794L79.9744 13.0744C80.0016 13.0269 80.0254 12.9828 80.0527 12.9352L80.0867 12.8707H80.0833C80.723 11.652 81.0871 10.2704 81.0871 8.80043H81.094Z" fill="#EAA947"/>
<path d="M72.2738 12.6078C74.4332 12.6078 76.1837 10.8615 76.1837 8.70722C76.1837 6.55299 74.4332 4.80664 72.2738 4.80664C70.1143 4.80664 68.3638 6.55299 68.3638 8.70722C68.3638 10.8615 70.1143 12.6078 72.2738 12.6078Z" fill="white"/>
<path d="M40.012 118.031H45.518L54.6174 122.886L38.9673 122.702L40.012 118.031Z" fill="#101010"/>
<path d="M38.9131 124.757L38.9675 122.703L54.6177 122.886L54.5632 124.944L38.9131 124.757Z" fill="white"/>
<path d="M49.3197 119.82L47.5195 120.309" stroke="white" stroke-width="1.46" stroke-linecap="round" stroke-linejoin="round"/>
<path d="M47.557 118.916L45.7568 119.408" stroke="white" stroke-width="1.46" stroke-linecap="round" stroke-linejoin="round"/>
<path d="M46.1001 110.291H40.4886L40.0122 118.031H45.6237L46.1001 110.291Z" fill="#EBB28B"/>
<path d="M49.7696 59.4316L46.3122 115.544H38.5024L39.85 59.4316H49.7696Z" fill="#98BDFC"/>
<path d="M27.3655 118.033H32.8715L41.971 122.888L26.3242 122.704L27.3655 118.033Z" fill="#101010"/>
<path d="M26.2695 124.759L26.324 122.705L41.9707 122.888L41.9163 124.946L26.2695 124.759Z" fill="white"/>
<path d="M36.6756 119.822L34.8721 120.311" stroke="white" stroke-width="1.46" stroke-linecap="round" stroke-linejoin="round"/>
<path d="M34.9129 118.92L33.1094 119.412" stroke="white" stroke-width="1.46" stroke-linecap="round" stroke-linejoin="round"/>
<path d="M34.0112 110.293H28.3997L27.3652 118.033H32.9767L34.0112 110.293Z" fill="#EBB28B"/>
<path d="M33.2314 59.4316L25.585 115.544H34.123L45.237 59.4316H33.2314Z" fill="#98BDFC"/>
<path d="M39.1084 90.3802L43.471 68.3481L46.6595 66.2773" stroke="#171717" stroke-width="0.64" stroke-linecap="round" stroke-linejoin="round"/>
<path d="M32.1118 67.6565L36.8793 63.9121" stroke="#171717" stroke-width="0.64" stroke-linecap="round" stroke-linejoin="round"/>
<path d="M51.2384 38.1132L59.9261 49.4959C60.8857 50.5686 60.947 52.171 60.069 53.3082C58.9597 54.7442 56.8362 54.8732 55.5635 53.5832L46.2258 42.8082C44.9463 41.5114 44.9055 39.4406 46.1305 38.0929C47.5019 36.5856 49.8806 36.5958 51.2384 38.1132Z" fill="#EBB28B"/>
<path d="M46.9844 33.7969C46.9844 33.7969 51.2313 34.3265 54.4845 40.6136L49.4889 46.5883L46.9844 33.7969Z" fill="#7788FF"/>
<path d="M53.9707 49.9647L65.8844 42.5098L68.2529 44.954L59.6196 53.7804L53.9707 49.9647Z" fill="#EBB28B"/>
<path d="M67.7902 37.8535L73.6977 39.5713C73.6977 39.5713 73.6977 44.1372 68.2496 44.9621C67.9501 45.0063 66.6094 44.4937 66.3814 44.29L65.4762 41.7134C65.1563 41.289 65.1835 40.6983 65.5409 40.3079L67.7936 37.8535H67.7902Z" fill="#EBB28B"/>
<path d="M67.3037 38.6152L69.3931 35.8791C69.7028 35.4989 70.2337 35.4174 70.5876 35.6991C70.9245 35.9707 70.9789 36.4799 70.7135 36.8703L68.784 39.8713L67.3071 38.6152H67.3037Z" fill="#E9B0A0"/>
<path d="M69.8281 40.7978L72.3395 38.3264C72.6866 37.9801 73.2004 37.9428 73.4965 38.2483C73.7789 38.5403 73.7619 39.0427 73.4557 39.3991L71.06 42.1421L69.8281 40.7978Z" fill="#E9B0A0"/>
<path d="M68.8628 39.111L71.2346 36.772C71.5852 36.4292 72.116 36.4122 72.4291 36.7381C72.7285 37.0504 72.7217 37.5698 72.4155 37.9263L70.1695 40.5504L68.8628 39.1076V39.111Z" fill="#E9B0A0"/>
<path d="M72.8533 31.9355L73.7925 31.9967V38.1548L70.4951 43.308L69.4912 43.2265L71.2607 36.7527L72.8533 31.9355Z" fill="#36438D"/>
<path d="M67.3205 40.4829L70.0803 43.0765C70.3321 43.3889 70.8119 43.3855 71.057 43.0663L77.0632 35.5877C77.2095 35.3976 77.2061 35.1328 77.0564 34.9461L74.1639 32.1861C73.9529 31.9247 73.5547 31.9281 73.3506 32.1929L67.3137 39.7089C67.1368 39.9364 67.1402 40.2555 67.3205 40.4795V40.4829Z" fill="#050907"/>
<path d="M66.405 40.4224L69.1648 43.016C69.4166 43.3283 69.8964 43.3249 70.1414 43.0058L76.1476 35.5271C76.294 35.337 76.2906 35.0722 76.1408 34.8855L73.2483 32.1256C73.0373 31.8642 72.6392 31.8676 72.435 32.1324L66.3982 39.6484C66.2212 39.8758 66.2246 40.1949 66.405 40.419V40.4224Z" fill="white"/>
<path d="M66.1091 42.5563C65.7859 42.3968 64.9794 41.5583 65.1223 40.2852C65.3094 38.6082 66.1772 37.342 66.1772 37.342C66.4664 36.8022 66.7999 36.5408 67.2695 36.6053C67.7766 36.6766 68.1033 37.2164 68.0114 37.5898L67.4839 38.761C67.4839 38.761 68.0658 40.2445 66.8476 42.4918L66.1125 42.5563H66.1091Z" fill="#EBB28B"/>
<path d="M38.992 32.5894C38.992 32.5894 35.7796 33.3397 33.4894 34.4905C32.0466 35.217 31.8866 36.7854 32.0704 38.3843L33.2342 59.4386H49.7725L50.9295 39.0972C51.0895 36.8668 49.7759 34.6806 47.6525 33.9609C45.2738 33.153 43.7731 32.3857 42.5072 32.3145L38.9954 32.5894H38.992Z" fill="#7788FF"/>
<path d="M50.5757 45.2863L50.9262 39.0977" stroke="#171717" stroke-width="0.64" stroke-linecap="round" stroke-linejoin="round"/>
<path d="M38.9921 32.5893L37.0864 33.1121C37.0864 33.1121 38.5021 35.8347 43.6473 35.373C47.2544 35.0505 45.8014 33.2887 45.8014 33.2887L44.008 32.6403L38.9955 32.5859L38.9921 32.5893Z" fill="#EBB28B"/>
<path d="M23.3629 44.6758L31.9043 57.2194L29.6039 59.7316L20.1743 50.5148L23.3629 44.6758Z" fill="#EBB28B"/>
<path d="M39.7516 57.7894L36.0968 55.9358L36.4541 55.1347C36.5834 54.8427 36.5052 54.4999 36.2568 54.2996C36.0015 54.0891 35.634 54.0857 35.3754 54.286L31.7785 57.1036L29.604 59.7278C31.5777 61.415 32.8674 61.3912 33.6093 61.0653C33.6943 61.0925 33.7828 61.1264 33.8713 61.1502L36.9067 62.0193C37.1892 62.1415 37.5125 62.0193 37.652 61.7511C37.7507 61.5542 37.7881 61.2351 37.2028 60.9397L37.7881 61.2351C38.0841 61.3641 38.4313 61.2351 38.5674 60.9431C38.6967 60.6851 38.5367 60.3456 38.193 60.1216L38.6388 60.2981C38.9621 60.4373 39.3432 60.2777 39.4657 59.9349C39.5712 59.6395 39.4147 59.3102 39.1323 59.1677L38.4857 58.8418L39.2514 59.0285C39.6053 59.1541 39.9966 58.964 40.1123 58.5973C40.211 58.2816 40.0408 57.9421 39.7448 57.7894H39.7516Z" fill="#EBB28B"/>
<path d="M38.6833 58.9369L36.5225 57.9219" stroke="#171717" stroke-width="0.41" stroke-linecap="round" stroke-linejoin="round"/>
<path d="M38.1007 60.0883L36.0181 59.2227" stroke="#171717" stroke-width="0.41" stroke-linecap="round" stroke-linejoin="round"/>
<path d="M37.3965 61.0187L35.6304 60.3262" stroke="#171717" stroke-width="0.41" stroke-linecap="round" stroke-linejoin="round"/>
<path d="M35.3405 41.2191L24.4817 50.5649C23.4676 51.5867 21.8682 51.7429 20.6738 50.9383C19.1697 49.9233 18.9111 47.8151 20.1259 46.4674L30.3382 36.5139C31.5598 35.1594 33.6254 34.9931 35.0512 36.1337C36.6404 37.4068 36.7765 39.7763 35.3439 41.2225L35.3405 41.2191Z" fill="#EBB28B"/>
<path d="M35.8304 33.5195C35.8304 33.5195 30.1611 34.6262 25.5127 40.506L30.4402 46.9153L37.5047 41.8673L35.8304 33.5195Z" fill="#7788FF"/>
<path d="M32.8394 45.2017L36.9365 42.2754" stroke="#171717" stroke-width="0.64" stroke-linecap="round" stroke-linejoin="round"/>
<path d="M47.7784 14.9121C47.7784 14.9121 49.6909 16.6163 48.1051 20.449L45.478 15.2787L47.7784 14.9121Z" fill="#1F275F"/>
<path d="M37.0555 15.3728C37.0555 15.3728 34.8197 15.1318 34.3127 18.5673C33.8057 22.0062 36.3375 24.06 39.1483 25.7234L37.0521 15.3728H37.0555Z" fill="#1F275F"/>
<path d="M41.7178 26.3148C45.2586 26.3148 48.1289 23.3845 48.1289 19.7697C48.1289 16.155 45.2586 13.2246 41.7178 13.2246C38.177 13.2246 35.3066 16.155 35.3066 19.7697C35.3066 23.3845 38.177 26.3148 41.7178 26.3148Z" fill="#1F275F"/>
<path d="M45.8588 22.5878C46.1447 23.4365 47.0669 23.8947 47.9176 23.6096C48.7684 23.3244 49.2278 22.4044 48.9419 21.5558C48.6561 20.7071 47.7339 20.2488 46.8831 20.5339C46.0324 20.8191 45.573 21.7391 45.8588 22.5878Z" fill="#DD8161"/>
<path d="M44.0352 26.3559L44.1305 33.4136L38.8525 32.5445L39.2337 22.418L44.0352 26.3559Z" fill="#EBB28B"/>
<path d="M44.0857 29.9299L40.3765 26.3145L44.2014 26.9832L44.0857 29.9299Z" fill="#171717"/>
<path d="M47.363 16.6255C47.363 16.6255 48.7922 22.3117 48.1456 24.4945C47.5025 26.6774 45.801 28.093 42.963 27.6279C42.963 27.6279 39.6893 27.5668 38.7229 22.7496C37.2664 15.5018 43.8409 12.8471 47.363 16.6221V16.6255Z" fill="#EBB28B"/>
<path d="M39.6385 22.7497C39.6385 22.7497 41.7348 17.9495 39.4582 17.0126C38.7742 16.7308 38.3761 16.5882 38.0528 18.9951C37.7295 21.402 38.5734 21.7958 38.5734 21.7958L39.6385 22.7497Z" fill="#1F275F"/>
<path d="M36.742 23.301C37.0381 24.1803 37.9909 24.6522 38.8723 24.3568C39.7537 24.0615 40.2267 23.1109 39.9306 22.2317C39.6346 21.3524 38.6817 20.8806 37.8004 21.1759C36.919 21.4713 36.446 22.4218 36.742 23.301Z" fill="#EBB28B"/>
<path d="M37.562 22.2988C37.562 22.2988 38.7837 21.9084 39.1512 23.2527" stroke="#171717" stroke-width="0.39" stroke-linecap="round" stroke-linejoin="round"/>
<path d="M46.1901 22.1113L46.5543 23.3402C46.5713 23.4319 46.5134 23.5202 46.4249 23.5439L46.0132 23.6118" stroke="#1E0B07" stroke-width="0.37" stroke-linecap="round" stroke-linejoin="round"/>
<path d="M43.6238 21.7306C43.6102 21.9546 43.7803 22.1447 44.0049 22.1583C44.2295 22.1719 44.4201 22.0022 44.4337 21.7781C44.4473 21.5541 44.2772 21.3639 44.0526 21.3504C43.828 21.3368 43.6374 21.5065 43.6238 21.7306Z" fill="#171717"/>
<path d="M47.0238 21.6371C47.0101 21.8441 47.1701 22.0241 47.3777 22.0343C47.5852 22.0478 47.7656 21.8883 47.7758 21.6812C47.7894 21.4741 47.6295 21.2942 47.4219 21.284C47.2143 21.2704 47.034 21.43 47.0238 21.6371Z" fill="#171717"/>
<path d="M44.798 18.9831L41.7354 19.9608C41.7354 19.9608 42.4159 19.0272 43.3007 18.7488C44.1855 18.4705 44.798 18.9831 44.798 18.9831Z" fill="#171717"/>
<path d="M46.5161 18.9106L48.1291 19.43C48.1291 19.43 47.8535 18.7409 47.3873 18.5949C46.9211 18.449 46.5161 18.9106 46.5161 18.9106Z" fill="#171717"/>
<path d="M44.0322 23.9141C44.0322 23.9141 45.1586 24.4878 46.2884 24.4878C46.2884 24.4878 44.7537 25.5979 44.0322 23.9141Z" fill="white"/>
<path d="M38.7774 17.0675C38.7774 17.0675 40.4823 18.5307 44.6985 17.6854C48.9148 16.8367 49.0815 13.9851 48.5745 12.9836C48.5745 12.9836 47.0228 14.1854 44.4637 13.5268C43.0379 13.1601 39.8528 11.8226 37.9403 13.2552C37.2801 13.7474 36.899 14.569 37.0555 15.3735C37.178 15.9982 37.5966 16.7111 38.774 17.0675H38.7774Z" fill="#1F275F"/>
<path d="M12.8577 63.8301H15.3248C17.6729 63.8301 19.5819 65.7345 19.5819 68.0769V91.5415H8.604V68.0769C8.604 65.7345 10.5131 63.8301 12.8611 63.8301H12.8577Z" stroke="#101010" stroke-width="2.87" stroke-miterlimit="10"/>
<path d="M10.9575 122.981C11.2799 121.614 10.4304 120.245 9.06019 119.923C7.68993 119.602 6.31777 120.449 5.99538 121.816C5.67298 123.183 6.52243 124.552 7.89268 124.873C9.26293 125.195 10.6351 124.348 10.9575 122.981Z" fill="#101010"/>
<path d="M21.5104 124.198C22.5057 123.205 22.5057 121.595 21.5103 120.602C20.515 119.609 18.9012 119.609 17.9058 120.602C16.9104 121.595 16.9104 123.205 17.9058 124.198C18.9012 125.191 20.515 125.191 21.5104 124.198Z" fill="#101010"/>
<path d="M5.37415 83.4824H22.8075C25.295 83.4824 27.313 85.4955 27.313 87.9771V117.315C27.313 119.796 25.295 121.809 22.8075 121.809H5.37415C2.8866 121.809 0.868652 119.796 0.868652 117.315V87.9771C0.868652 85.4955 2.8866 83.4824 5.37415 83.4824Z" fill="#7788FF"/>
<path d="M6.37122 89.541H5.40479V116.03H6.37122V89.541Z" stroke="#171717" stroke-width="0.61" stroke-linecap="round" stroke-linejoin="round"/>
<path d="M11.5065 89.541H10.54V116.03H11.5065V89.541Z" stroke="#171717" stroke-width="0.61" stroke-linecap="round" stroke-linejoin="round"/>
<path d="M16.6412 89.541H15.6748V116.03H16.6412V89.541Z" stroke="#171717" stroke-width="0.61" stroke-linecap="round" stroke-linejoin="round"/>
<path d="M21.7765 89.541H20.8101V116.03H21.7765V89.541Z" stroke="#171717" stroke-width="0.61" stroke-linecap="round" stroke-linejoin="round"/>
</svg>
