<svg width="61" height="100" viewBox="0 0 61 100" fill="none" xmlns="http://www.w3.org/2000/svg">
<path d="M17.9578 6.88086H21.6532C25.1702 6.88086 28.0297 9.73346 28.0297 13.242V48.3886H11.5864V13.242C11.5864 9.73346 14.4459 6.88086 17.9629 6.88086H17.9578Z" stroke="#101010" stroke-width="2.87" stroke-miterlimit="10"/>
<path d="M15.1116 95.4806C15.5945 93.4331 14.3221 91.3827 12.2697 90.901C10.2173 90.4192 8.16197 91.6885 7.67907 93.736C7.19616 95.7835 8.46851 97.8339 10.5209 98.3156C12.5734 98.7974 14.6287 97.5281 15.1116 95.4806Z" fill="#101010"/>
<path d="M30.918 97.3063C32.4089 95.819 32.4089 93.4076 30.918 91.9202C29.4271 90.4329 27.0098 90.4329 25.5189 91.9202C24.028 93.4076 24.028 95.819 25.5189 97.3063C27.0098 98.7937 29.4271 98.7937 30.918 97.3063Z" fill="#101010"/>
<path d="M6.74858 36.3164H32.8611C36.5871 36.3164 39.6097 39.3317 39.6097 43.0488V86.9921C39.6097 90.7092 36.5871 93.7245 32.8611 93.7245H6.74858C3.02259 93.7245 0 90.7092 0 86.9921V43.0488C0 39.3317 3.02259 36.3164 6.74858 36.3164Z" fill="#7788FF"/>
<path d="M8.2425 45.3906H6.79492V85.0678H8.2425V45.3906Z" stroke="#171717" stroke-width="0.61" stroke-linecap="round" stroke-linejoin="round"/>
<path d="M15.9339 45.3906H14.4863V85.0678H15.9339V45.3906Z" stroke="#171717" stroke-width="0.61" stroke-linecap="round" stroke-linejoin="round"/>
<path d="M23.6258 45.3906H22.1782V85.0678H23.6258V45.3906Z" stroke="#171717" stroke-width="0.61" stroke-linecap="round" stroke-linejoin="round"/>
<path d="M31.3172 45.3906H29.8696V85.0678H31.3172V45.3906Z" stroke="#171717" stroke-width="0.61" stroke-linecap="round" stroke-linejoin="round"/>
<path d="M60.4307 13.1818C60.4307 3.70358 50.3996 -3.44066 40.3481 1.74082C38.7884 2.54423 36.8005 4.49173 35.9493 6.02736C33.3191 10.7766 33.5536 15.4547 35.4446 19.1565H35.4293L35.5364 19.3497C35.5823 19.4412 35.6332 19.5277 35.6842 19.6192L47.2088 40.4112L58.7538 19.5836C58.7945 19.5124 58.8302 19.4463 58.871 19.3751L58.922 19.2785H58.9169C59.8751 17.453 60.4205 15.3835 60.4205 13.1818H60.4307Z" fill="#EAA947"/>
<path d="M47.2194 18.8862C50.4539 18.8862 53.076 16.2704 53.076 13.0437C53.076 9.81695 50.4539 7.20117 47.2194 7.20117C43.9849 7.20117 41.3628 9.81695 41.3628 13.0437C41.3628 16.2704 43.9849 18.8862 47.2194 18.8862Z" fill="white"/>
</svg>
