
<svg width="203" height="72" viewBox="0 0 203 72" fill="none" xmlns="http://www.w3.org/2000/svg">
<g opacity="0.2">
<path d="M5.59621 60.2098C5.59621 60.2098 23.8589 61.8743 27.3613 61.8743C30.8637 61.8743 35.1967 60.2098 38.6991 60.2098H156.531C161.034 60.2098 183.219 57.7977 188.723 57.1399C194.227 56.482 199.891 56.4721 201.312 53.7311C202.733 50.99 203.483 41.1922 202.643 38.7801C201.802 36.368 200.641 36.8664 199.481 32.6302C198.32 28.3941 195.478 18.5165 194.477 17.9285C193.476 17.3404 183.129 16.6825 172.792 13.0345C162.455 9.38646 149.696 2.89773 130.763 1.15345C111.83 -0.590827 94.818 0.405906 80.9785 5.4693C67.1389 10.5327 48.536 21.3373 43.3724 22.4137C38.2088 23.4902 21.6073 25.992 12.6811 30.557C3.75494 35.1221 2.2539 38.7003 1.17315 43.5146C0.0923968 48.3288 0.482665 53.751 0.232491 54.4786C0.0791196 54.8327 0 55.2143 0 55.5999C0 55.9856 0.0791196 56.3671 0.232491 56.7212C0.737069 57.7231 1.49933 58.5739 2.44157 59.1867C3.38382 59.7995 4.47234 60.1526 5.59621 60.2098Z" fill="#A8A8A8"/>
<path d="M1.17315 43.5134C0.0923968 48.3276 0.482665 53.7498 0.232491 54.4774C0.0791196 54.8315 0 55.2131 0 55.5987C0 55.9844 0.0791196 56.366 0.232491 56.7201C0.739733 57.7182 1.50314 58.5649 2.44519 59.1741C3.38725 59.7833 4.47439 60.1334 5.59621 60.1887C5.59621 60.1887 23.8589 61.8532 27.3613 61.8532C30.8637 61.8532 35.1967 60.1887 38.6991 60.1887H156.531C161.034 60.1887 183.219 57.7766 188.723 57.1188C194.227 56.4609 199.891 56.451 201.312 53.7099C202.733 50.9689 203.483 41.1711 202.643 38.759C201.802 36.3469 200.641 36.8452 199.481 32.6091C199.23 31.722 198.91 30.6157 198.55 29.3398L1.93367 40.8322C1.63278 41.7119 1.37892 42.6069 1.17315 43.5134Z" fill="url(#paint0_linear_170_5920)"/>
<path d="M159.493 22.1036C159.002 21.3062 158.492 20.5587 157.962 19.7812C156.855 18.2407 155.853 16.6291 154.959 14.957L154.519 15.1763C155.406 16.8712 156.409 18.503 157.521 20.0603C158.052 20.8377 158.522 21.5753 159.032 22.3627C160.483 24.725 160.783 27.0872 159.843 28.8415C159.242 29.9778 153.889 35.8186 148.715 41.4402C144.932 45.5567 141.37 49.414 139.709 51.4773C135.886 56.0523 132.344 56.4609 129.332 56.4609H109.748C109.748 54.8263 109.688 45.2278 109.748 34.3435C109.808 22.5521 111.149 19.2131 111.169 19.1832L110.709 18.9838C110.649 19.1234 109.308 22.4126 109.248 34.3435C109.188 45.2178 109.248 54.8163 109.248 56.4609H61.5847C58.6927 56.4609 58.4325 55.8131 58.1323 55.0555C57.9022 54.4974 57.1316 51.7663 56.211 40.1046C55.4104 29.6887 56.8714 24.725 56.8815 24.6752L56.9815 24.3562H56.6513C55.5531 24.4189 54.4637 24.5892 53.399 24.8645C51.3976 25.323 48.5457 25.7317 45.5036 26.1105C46.4695 24.8264 47.3455 23.4776 48.1254 22.0737C48.1495 21.9997 48.1575 21.9214 48.1488 21.8441C48.1402 21.7667 48.1151 21.6921 48.0753 21.6252C47.8282 21.3603 47.5135 21.1674 47.1647 21.067L46.4542 21.366C47.1647 21.5654 47.635 21.7747 47.6551 21.9142C46.7996 23.3958 45.8538 24.8238 44.8231 26.1902C42.6516 26.4494 40.38 26.6985 38.2285 26.9278C34.1257 27.3663 30.5832 27.7451 29.1322 28.1039C27.411 28.5226 22.8078 30.0476 18.745 31.3931C14.9424 32.659 11.3499 33.8551 10.7395 33.9248C9.89361 33.8533 9.08693 33.5382 8.41785 33.0178C8.26552 33.1127 8.11853 33.2159 7.97754 33.3268C8.79161 33.9637 9.7773 34.3453 10.8095 34.4232C11.4299 34.3435 14.8823 33.1972 18.8751 31.8716C22.8679 30.5459 27.5211 29.001 29.2223 28.5824C30.6433 28.2435 34.1657 27.8647 38.2285 27.4261C40.45 27.1869 42.7817 26.9377 45.0232 26.6686C48.2555 26.2799 51.2776 25.8513 53.429 25.3629C54.351 25.14 55.2872 24.9801 56.231 24.8845C55.9208 26.1703 54.9301 31.0543 55.6306 40.1444C56.5012 51.5471 57.2917 54.4974 57.5819 55.235C58.0022 56.2317 58.5026 56.9493 61.5047 56.9493H129.322C131.583 56.9493 135.786 56.9493 140.089 51.8162C141.78 49.8227 145.343 45.9055 149.095 41.799C154.299 36.1376 159.673 30.2868 160.303 29.0907C161.334 27.157 161.044 24.6154 159.493 22.1036Z" fill="#999999"/>
<path d="M162.425 37.9941C157.616 37.9941 153.004 39.897 149.603 43.284C146.203 46.6711 144.292 51.2649 144.292 56.0549C144.295 57.4551 144.463 58.8502 144.793 60.2113H156.531C159.713 60.2113 171.732 59.0052 180.448 58.0683C180.523 57.4064 180.563 56.741 180.568 56.0749C180.569 53.7009 180.101 51.35 179.189 49.1564C178.278 46.9628 176.942 44.9695 175.257 43.2905C173.572 41.6114 171.572 40.2794 169.37 39.3706C167.168 38.4619 164.808 37.9941 162.425 37.9941Z" fill="#616161"/>
<path d="M38.6989 60.21H52.1382C52.4682 58.8489 52.6361 57.4538 52.6386 56.0536C52.6468 53.4556 52.0925 50.8863 51.0135 48.521C49.9344 46.1557 48.356 44.0499 46.3859 42.3473C44.4157 40.6446 42.1001 39.3852 39.5969 38.6547C37.0938 37.9243 34.4619 37.74 31.8808 38.1145C29.2996 38.489 26.8299 39.4135 24.64 40.8249C22.4501 42.2363 20.5915 44.1015 19.1909 46.2932C17.7903 48.4849 16.8807 50.9517 16.524 53.5254C16.1673 56.099 16.3719 58.719 17.124 61.2067C21.517 61.5556 25.83 61.8745 27.3611 61.8745C30.8635 61.8745 35.1965 60.21 38.6989 60.21Z" fill="#616161"/>
<path d="M34.5062 72.0009C43.3489 72.0009 50.5173 64.8609 50.5173 56.0532C50.5173 47.2455 43.3489 40.1055 34.5062 40.1055C25.6635 40.1055 18.4951 47.2455 18.4951 56.0532C18.4951 64.8609 25.6635 72.0009 34.5062 72.0009Z" fill="#404040"/>
<path d="M45.4435 56.0544C45.4455 58.2119 44.8049 60.3215 43.6027 62.1162C42.4005 63.911 40.6908 65.3101 38.69 66.1367C36.6892 66.9632 34.4872 67.18 32.3626 66.7596C30.2381 66.3392 28.2865 65.3004 26.7548 63.7749C25.2232 62.2493 24.1803 60.3054 23.7582 58.1893C23.3361 56.0731 23.5538 53.8798 24.3836 51.8869C25.2134 49.894 26.6182 48.1911 28.42 46.9937C30.2219 45.7963 32.3399 45.1582 34.5059 45.1602C35.9423 45.1602 37.3646 45.4419 38.6916 45.9894C40.0186 46.5369 41.2243 47.3394 42.24 48.351C43.2556 49.3626 44.0613 50.5636 44.611 51.8854C45.1606 53.2071 45.4435 54.6238 45.4435 56.0544Z" fill="#EFEFEF"/>
<path d="M162.425 72.0009C171.268 72.0009 178.436 64.8609 178.436 56.0532C178.436 47.2455 171.268 40.1055 162.425 40.1055C153.582 40.1055 146.414 47.2455 146.414 56.0532C146.414 64.8609 153.582 72.0009 162.425 72.0009Z" fill="#404040"/>
<path d="M162.425 66.9487C168.466 66.9487 173.362 62.0712 173.362 56.0544C173.362 50.0377 168.466 45.1602 162.425 45.1602C156.384 45.1602 151.487 50.0377 151.487 56.0544C151.487 62.0712 156.384 66.9487 162.425 66.9487Z" fill="#EFEFEF"/>
<path d="M110.689 2.8586C105.736 3.06791 99.9917 2.9184 90.9855 4.85206C81.9792 6.78572 67.159 14.63 61.1548 18.3677C55.1506 22.1055 49.957 25.8432 49.957 25.8432L99.9317 21.8563C117.254 20.4908 145.273 18.6767 148.645 18.3079C152.018 17.9392 164.907 14.321 164.657 13.6333C164.406 12.9455 142.271 1.48311 110.689 2.8586Z" fill="#4F4F4F"/>
<path d="M106.206 20.3801C106.827 20.3801 106.776 20.111 106.937 19.5229C107.097 18.9348 108.788 5.80785 108.888 5.21978C108.988 4.63171 108.958 3.91407 108.498 3.934H108.197C102.477 3.98706 96.7777 4.61823 91.1857 5.81782C82.0493 7.81129 67.089 15.7851 61.6752 19.2039C60.4944 19.9315 59.3436 20.6691 58.2629 21.3768C56.4516 22.5529 56.8719 24.2773 59.0134 24.1078L99.8417 20.8485L106.196 20.3701L106.206 20.3801Z" fill="#404040"/>
<path d="M29.1929 28.3349C23.266 29.2334 17.4568 30.7811 11.8709 32.9497C7.5479 34.7538 4.48579 38.1826 4.73596 39.4883C4.98614 40.794 11.8009 39.4285 16.6842 37.1859C21.5676 34.9432 29.8033 28.2452 29.1929 28.3349Z" fill="#E0E0E0"/>
<path d="M152.038 14.2912C152.038 12.9955 149.706 8.63978 146.134 7.58325C136.272 5.03129 126.122 3.75164 115.933 3.77572H115.503C115.112 3.77572 114.922 4.20431 114.892 4.53324C114.862 4.86216 114.532 17.8695 114.562 18.8064C114.592 19.7434 115.693 19.7135 115.693 19.7135L130.553 18.6669C139.709 18.029 146.934 17.5206 148.566 17.3512C148.886 17.3512 149.286 17.2515 149.726 17.1618C151.818 16.6734 152.038 15.6069 152.038 14.2912Z" fill="#404040"/>
<path d="M199.481 32.6794C198.92 30.6859 197.98 27.3768 197.049 24.4065C196.185 23.5784 195.045 23.0959 193.847 23.051C190.925 22.8018 178.296 22.8815 178.126 23.051C177.956 23.2204 178.126 24.5062 180.047 25.4132C181.968 26.3203 195.057 30.9451 199.601 33.098C199.561 32.9086 199.521 32.7791 199.481 32.6794Z" fill="#EF3061"/>
<path d="M3.34456 54.8785C4.16376 54.874 4.96187 54.6193 5.63115 54.1488C6.30042 53.6782 6.80862 53.0144 7.08714 52.2471L7.91772 49.2569C8.04952 48.8521 8.07884 48.4212 8.00303 48.0024C7.92722 47.5836 7.74866 47.19 7.48323 46.8565C7.2178 46.5231 6.87372 46.2602 6.48164 46.0912C6.08955 45.9222 5.6616 45.8524 5.23587 45.8879H0.762766C0.202378 49.9845 0.442545 53.8618 0.2324 54.5396C0.2324 54.6691 0.162345 54.7887 0.132324 54.9183L3.34456 54.8785Z" fill="#4F4F4F"/>
<path d="M104.174 27.3089C104.284 28.3056 102.743 29.2326 100.722 29.4718C98.7006 29.711 96.9594 29.1329 96.8493 28.1661C96.7392 27.1992 98.2803 26.2424 100.302 26.0032C102.323 25.7639 104.064 26.342 104.174 27.3089Z" fill="#878787"/>
<path d="M105.376 27.1585C105.436 27.6469 103.304 28.3047 100.612 28.6237C97.9204 28.9426 95.7089 28.8031 95.6088 28.3147C95.5087 27.8263 97.6802 27.1685 100.362 26.8495C103.044 26.5306 105.316 26.7 105.376 27.1585Z" fill="#CCCCCC"/>
<path d="M153.769 24.8064C153.889 25.8031 152.338 26.74 150.317 26.9792C148.295 27.2184 146.554 26.6403 146.444 25.6735C146.334 24.7067 147.875 23.7398 149.896 23.5006C151.918 23.2614 153.659 23.8495 153.769 24.8064Z" fill="#878787"/>
<path d="M154.969 24.7075C155.029 25.1959 152.898 25.8537 150.216 26.1727C147.534 26.4916 145.303 26.3521 145.213 25.8537C145.123 25.3554 147.284 24.7175 149.976 24.3985C152.668 24.0796 154.919 24.1792 154.969 24.7075Z" fill="#CCCCCC"/>
</g>
<defs>
<linearGradient id="paint0_linear_170_5920" x1="98.9909" y1="31.134" x2="102.139" y2="52.8962" gradientUnits="userSpaceOnUse">
<stop stop-color="#C7C7C7"/>
<stop offset="1" stop-color="#A8A8A8"/>
</linearGradient>
</defs>
</svg>
